<?xml version="1.0" encoding="utf-8"?>
<!-- Generator: Adobe Illustrator 20.1.0, SVG Export Plug-In . SVG Version: 6.00 Build 0)  -->
<svg version="1.1" id="Layer_1" xmlns="http://www.w3.org/2000/svg" xmlns:xlink="http://www.w3.org/1999/xlink" x="0px" y="0px"
	 viewBox="0 0 327 349.5" style="enable-background:new 0 0 327 349.5;" xml:space="preserve">
<style type="text/css">
	.st0{fill:#9CDAF1;}
	.st1{clip-path:url(#SVGID_2_);fill:#7DBBE6;}
	.st2{fill:#211F1F;}
	.st3{fill:#C3E4D8;}
	.st4{fill:#FFD34D;}
	.st5{fill:#FFDE70;}
	.st6{fill:url(#SVGID_3_);}
	.st7{fill:url(#SVGID_4_);}
	.st8{fill:#CCCCCC;}
	.st9{fill:#FFFFFF;}
	.st10{fill:#999999;}
	.st11{fill:#E5E5E5;}
</style>
<path class="st0" d="M201.5,244c-4.8-0.7-9.7-1.4-14.9-1.8c-1.5-0.1-3.1-0.3-4.7-0.4c-5.1-0.3-10.3-0.5-15.7-0.6h-1.1
	c-1.2,0-2.4,0-3.5,0c-5.4,0.1-10.6,0.3-15.7,0.7c-1.6,0.1-3.1,0.3-4.7,0.4c-5.2,0.5-10.2,1.2-14.9,2c-29.2,5-49.3,15.6-49.3,27.7
	c0,17.1,39.5,30.9,88.2,30.9s88.2-13.8,88.2-30.9C253.3,259.6,232,248.9,201.5,244z"/>
<g>
	<defs>
		<path id="SVGID_1_" d="M127.1,327.4c2,9.2,6.8,14.6,11.5,17.8l50.5-0.1c6.1-4.1,12.4-12,12.4-26.8v-38c0,0,0.8-9.4,9.4-12.5
			c0,0,5.1-3.5-0.4-5.5c0,0-23.9-2-23.9,17.6v29c0,0,0.9,10.7-4.7,15.1v-35.8c0,0,0.4-11.4,6.3-15.7c0,0,3.9-7.1-4.7-5.1
			c0,0-16.5,2.4-17.2,21.6l-0.4,36.8h-4l-0.4-36.8c-0.8-19.2-17.2-21.6-17.2-21.6c-8.6-2-4.7,5.1-4.7,5.1c5.9,4.3,6.3,15.7,6.3,15.7
			v36.2c-5.7-4-4.7-15.5-4.7-15.5v-29c0-19.6-23.9-17.6-23.9-17.6c-5.5,2-0.4,5.5-0.4,5.5c8.6,3.1,9.4,12.5,9.4,12.5v26.6
			L127.1,327.4z"/>
	</defs>
	<clipPath id="SVGID_2_">
		<use xlink:href="#SVGID_1_"  style="overflow:visible;"/>
	</clipPath>
	<path class="st1" d="M253.3,272.1c0,17.1-39.5,30.9-88.2,30.9c-48.7,0-88.2-13.8-88.2-30.9s39.5-30.9,88.2-30.9
		C213.8,241.3,253.3,255.1,253.3,272.1L253.3,272.1z M253.3,272.1"/>
</g>
<path class="st2" d="M320.8,144.1l0.2-1.2c-25.9-5.2-52.5-5.2-68.5-4.6c2.6-9.5,3.4-20.4,3.4-32.6c0-17.1-6.3-30.8-16.5-41.4
	c0,0,0,0,0,0c-6.6-4.7-25-17.2-39.7-22c-0.9-0.3-2-0.5-2.9-0.8c-0.1,0,0.1-0.1,0,0c-10.7-2.7-22.1-4-33.5-4
	c-12.5,0-25.2,1.6-37.1,4.8C108,48.3,84,66.2,84,66.2c-9.6,10.3-15.4,23.5-15.4,39.6c0,12.2,1.4,23.1,4.8,32.6
	c-16.2-0.6-41.8-0.4-66.8,4.6l0.2,1.2c25.1-5,50.9-5.2,67-4.6c0.7,2,1.6,3.9,2.5,5.7c-15.9,0.5-43.1,2.6-69.2,9.9l0.3,1.1
	c26.3-7.4,53.7-9.4,69.5-9.9c9.5,17.7,28.3,29.2,61.7,32.8c-2.7,1.8-5.5,4.4-7.7,8c-1.7,2.7-3,5.9-3.8,9.8
	c-6.5,3.1-26.9,10.6-39.1-10.5c0,0-6.9-12.6-20-13.5c0,0-12.8-0.2-0.9,7.9c0,0,8.5,4,14.4,19.1c0,0,7.7,25.8,44.7,17.5v26.6
	c0,0,0,0.1,0,0.3c-0.2,1.6-1.6,9.5-9.4,12.3c0,0-5.1,3.5,0.4,5.5c0,0,23.9,2,23.9-17.6v-29c0,0-0.9-11.5,4.7-15.5v47.6
	c0,0-0.4,11.4-6.3,15.7c0,0-3.9,7.1,4.7,5.1c0,0,16.5-2.3,17.3-21.6l0-5.6l0.3-42.6h4l0.3,42.6l0,5.6c0.8,19.2,17.3,21.6,17.3,21.6
	c8.6,2,4.7-5.1,4.7-5.1c-5.9-4.3-6.3-15.7-6.3-15.7v-47.2c5.7,4.4,4.7,15.1,4.7,15.1v29c0,19.6,23.9,17.6,23.9,17.6
	c5.5-1.9,0.4-5.5,0.4-5.5c-8.6-3.1-9.4-12.5-9.4-12.5v-38c0-8.4-2-14.5-4.8-19.1c-2.2-3.5-4.9-6-7.5-7.8c35.6-3.5,52.7-15,60.6-32.9
	c15.6,0.4,43.7,2.3,70.5,9.9l0.3-1.1c-26.7-7.5-54.6-9.5-70.3-9.9c0.8-1.8,1.4-3.7,2-5.6C268.1,138.9,294.8,138.9,320.8,144.1z"/>
<path class="st3" d="M71.1,174.3c-1.4,0-2.5,0.8-2.5,1.8s1.1,1.8,2.5,1.8c1.4,0,2.6-0.8,2.6-1.8S72.5,174.3,71.1,174.3z"/>
<path class="st3" d="M78.2,178.3c-1.4,0-2.5,0.8-2.5,1.8c0,1,1.1,1.8,2.5,1.8c1.4,0,2.6-0.8,2.6-1.8
	C80.7,179.1,79.6,178.3,78.2,178.3z"/>
<path class="st3" d="M82.5,183.4c-1.4,0-2.5,0.8-2.5,1.8c0,1,1.1,1.8,2.5,1.8c1.4,0,2.6-0.8,2.6-1.8C85,184.2,83.9,183.4,82.5,183.4
	z"/>
<path class="st3" d="M86.4,189.3c-1.4,0-2.5,0.8-2.5,1.8c0,1,1.1,1.8,2.5,1.8c1.4,0,2.5-0.8,2.5-1.8
	C88.9,190.1,87.8,189.3,86.4,189.3z"/>
<path class="st3" d="M90.7,194.8c-1.4,0-2.6,0.8-2.6,1.8s1.1,1.8,2.6,1.8c1.4,0,2.5-0.8,2.5-1.8S92.1,194.8,90.7,194.8z"/>
<path class="st3" d="M96.6,199.4c-1.4,0-2.6,0.8-2.6,1.8c0,1,1.1,1.8,2.6,1.8c1.4,0,2.5-0.8,2.5-1.8C99.1,200.2,98,199.4,96.6,199.4
	z"/>
<path class="st3" d="M104.8,202.6c-1.4,0-2.5,0.8-2.5,1.8c0,1,1.1,1.8,2.5,1.8c1.4,0,2.5-0.8,2.5-1.8
	C107.4,203.4,106.2,202.6,104.8,202.6z"/>
<path class="st3" d="M113,202.6c-1.4,0-2.6,0.8-2.6,1.8c0,1,1.1,1.8,2.6,1.8c1.4,0,2.5-0.8,2.5-1.8
	C115.6,203.4,114.4,202.6,113,202.6z"/>
<path class="st3" d="M121.3,201.2c-1.4,0-2.6,0.8-2.6,1.8s1.1,1.8,2.6,1.8c1.4,0,2.5-0.8,2.5-1.8S122.7,201.2,121.3,201.2z"/>
<g>
	<polygon points="18.1,86 28.3,105.7 44.7,137.5 45.6,139.4 45.6,139.4 45.8,139.7 46.1,140.4 46.1,140.4 46.9,141.9 47.9,143.9 
		48.3,143.1 49,141.7 59.3,121.1 62.7,114.4 64.5,121.7 72.8,155.3 73.1,156.5 74.1,160.5 74.9,163.7 75.4,165.8 75.4,165.9 
		75.6,166.8 75.7,167.1 76.1,168.8 76.7,170.9 76.9,171.8 76.9,172 77.1,172.4 77.4,173.7 77.6,174.7 78,176.3 78,176.3 78.5,178.4 
		78.8,179.5 78.8,179.5 78.8,179.6 78.9,179.9 79,180.3 79,180.3 79,180.3 79.3,181.6 80.1,184.7 80.1,184.8 80.1,184.9 80.1,184.9 
		80.3,185.5 80.8,187.4 81.2,189.2 81.2,189.2 81.2,189.3 81.6,190.7 82,192.3 82,192.3 83.3,197.5 83.8,199.6 84.3,201.6 
		88.4,218.4 100.9,269 88.9,243.3 79.1,220.3 74.5,209.6 73.8,208.1 73.2,206.6 70.7,200.7 70.2,199.6 69.9,198.8 69.9,198.8 
		69.6,198.3 67.3,192.8 66.5,190.9 65.9,189.6 64.8,186.9 64,185.2 64,185.1 64,185.1 63.9,184.8 63.8,184.7 63,182.8 62.4,181.3 
		61.3,178.7 60.5,177 60.5,177 60.5,177 60.3,176.5 59.5,174.7 58.9,173.3 57.8,170.6 57.1,169 57.1,168.9 57.1,168.9 57,168.9 
		56.3,167.1 55.2,164.5 55,164.1 54.3,165.8 53.1,168.3 52.9,168.8 52.9,168.8 52.9,168.8 46.5,182.6 43.5,189.3 41.4,182.3 
		39.2,175 37.6,169.8 35.1,161.4 34.6,159.8 34.6,159.8 34.6,159.7 34.1,158 19,108.1 5.8,64.3 	"/>
	<g>
		<path class="st4" d="M15.7,87.2l10.1,19.7l16.4,31.9l0,0l1.1,2.2l0,0l1.1,2.2L48,150l2.1-4.2l0.7-1.4l0.7-1.4l10.3-20.6l8.3,33.6
			l0.3,1.2l1,4l0.8,3.2l0.5,2.1l0,0.1l0.2,0.8l0.1,0.3l0.4,1.8l0.5,2.1l0.2,0.9l0.1,0.6l0,0l0.3,1.3l0.3,1c0,0,0,0,0,0l0.2,0.8
			l0,0.2l0.1,0.2l0.6,2.5l0.3,1.1l0.1,0.4l0.1,0.5l0.3,1.3l0.8,3l0,0.2l0.1,0.6l0.5,2l0.5,1.8l0,0l0.4,1.4l0,0l1.7,6.8l0.5,2.1
			l0.5,2l4.2,16.8l5.7,23.1l-9.9-23L77,208.5l-0.6-1.5l-0.7-1.5l-2.5-5.9l-0.5-1.1l-0.6-1.3l0,0l-2.4-5.5l-0.8-1.9l-0.6-1.4
			l-1.2-2.7l-0.7-1.7l-0.2-0.5l0,0l-0.8-1.9l-0.7-1.5l-1.1-2.5l-0.7-1.7l-0.2-0.5l-0.8-1.8l-0.6-1.4l-1.1-2.7l-0.7-1.6l0-0.1
			l-0.7-1.7l-1.1-2.6l-1-2.4l0,0l-0.8-1.8l-0.8-1.9l-1.8,3.9l-1.6,3.4l-1.2,2.5l-0.2,0.5L44,181.4l-2.2-7.3l-1.6-5.2l-2.5-8.4l0,0
			l-0.5-1.7l-0.5-1.7l-15-50L15.7,87.2z"/>
		<path class="st5" d="M15.7,87.2l10.1,19.7l16.4,31.9l0,0l1.1,2.2l0,0l1.1,2.2L48,150l2.1-4.2l0.7-1.4l0.7-1.4l10.3-20.6l8.3,33.6
			l0.3,1.2l1,4l0.8,3.2l0.5,2.1l0,0.1l0.2,0.8l0.1,0.3l0.4,1.8l0.5,2.1l0.2,0.9l0.1,0.6l0,0l0.3,1.3l0.3,1c0,0,0,0,0,0l0.2,0.8
			l0,0.2l0.1,0.2l0.6,2.5l0.3,1.1l0.1,0.4l0.1,0.5l0.3,1.3l0.8,3l0,0.2l0.1,0.6l0.5,2l0.5,1.8l0,0l0.4,1.4l0,0l1.7,6.8l0.5,2.1
			l0.5,2l4.2,16.8l5.7,23.1l-9.9-23L77,208.5l-0.6-1.5l-0.7-1.5l-2.5-5.9l-0.5-1.1l-0.6-1.3l0,0l-2.4-5.5l-0.8-1.9l-0.6-1.4
			l-1.2-2.7l-0.7-1.7l-0.2-0.5l0,0l-0.8-1.9l-0.7-1.5l-1.1-2.5l-0.7-1.7l-0.2-0.5l-0.8-1.8l-0.6-1.4l-1.1-2.7l-0.7-1.6l0-0.1
			l-0.7-1.7l-1.1-2.6l-1-2.4l0,0l-0.8-1.8l-0.8-1.9l-1.8,3.9l-1.6,3.4l-1.2,2.5l-0.2,0.5L44,181.4l-2.2-7.3l-1.6-5.2l-2.5-8.4l0,0
			l-0.5-1.7l-0.5-1.7l-15-50L15.7,87.2z"/>
		
			<linearGradient id="SVGID_3_" gradientUnits="userSpaceOnUse" x1="706.4797" y1="-155.1165" x2="709.6205" y2="-164.9223" gradientTransform="matrix(-0.6882 -0.7256 0.7256 -0.6882 662.5526 565.6159)">
			<stop  offset="0" style="stop-color:#FEDA59"/>
			<stop  offset="0.2321" style="stop-color:#FED350"/>
			<stop  offset="0.6042" style="stop-color:#FEC039"/>
			<stop  offset="1" style="stop-color:#FFA719"/>
		</linearGradient>
		<polygon class="st6" points="15.7,87.2 23.3,107.1 39.9,150.2 40.7,152.3 41.5,154.3 45,163.6 46,166 48.7,160.3 53.5,150.3 
			54.2,148.9 54.9,147.4 58.5,140.1 63.6,155.8 63.6,156 64.1,157.7 65,160.2 65.1,160.5 65.2,161.1 65.3,161.1 65.3,161.2 
			66.2,163.9 66.4,164.6 66.6,165.2 66.6,165.2 66.8,165.8 66.9,166.3 67.9,169.3 68,169.6 68.1,169.8 68.1,169.8 68.2,170.2 
			69,172.6 69.1,173.1 69.5,174.3 69.7,174.8 70.7,178 70.8,178.2 70.9,178.5 71.7,181.2 71.9,181.5 72.3,182.9 72.4,183.2 
			73.6,187 73.7,187.1 73.7,187.3 74.4,189.5 74.6,189.9 75,191.2 76.2,194.8 76.5,195.9 76.6,196.4 78.4,201.8 79,203.6 
			79.5,205.3 84,219.1 91.5,242.2 81.6,219.2 77,208.5 76.4,207 75.7,205.5 73.2,199.6 72.8,198.5 72.2,197.2 72.2,197.2 
			69.8,191.7 69.1,189.8 68.5,188.5 67.3,185.8 66.6,184.1 66.4,183.6 66.4,183.6 65.6,181.7 64.9,180.2 63.8,177.6 63.1,175.9 
			62.9,175.4 62.1,173.6 61.5,172.2 60.3,169.5 59.6,167.9 59.6,167.8 58.8,166 57.7,163.4 56.7,160.9 56.7,160.9 55.9,159.1 
			55.1,157.3 53.3,161.2 51.7,164.6 50.6,167.1 50.3,167.7 44,181.4 41.8,174.2 40.2,169 37.7,160.6 37.7,160.6 37.2,158.9 
			36.7,157.2 21.7,107.3 		"/>
	</g>
</g>
<path d="M56.6,174.3c0.1-0.8,0.5-1.6,1.1-2.2c2-1.8,6.9-6,10.4-6.3c4.6-0.4,5.1,5.3,0.4,8.2c-4.6,2.9-5.6,8.8-5.6,8.8
	S56,181.9,56.6,174.3z"/>
<path d="M196.6,187c-10-2.1-20.9-3.2-32.5-3.2c-11.8,0-23,1.2-33.2,3.4c2.2-3.6,5-6.1,7.7-8c0,0,14.5,2.2,50.5,0
	C191.8,181.1,194.5,183.6,196.6,187z"/>
<g>
	<path class="st2" d="M194.7,204.7l4.4-7.6c6.6,3.1,26.8,10.4,39-10.5c0,0,6.9-12.6,20-13.5c0,0,12.8-0.2,0.9,7.9
		c0,0-8.5,4-14.4,19.1c0,0-7.7,25.8-44.7,17.5L194.7,204.7z"/>
	<path class="st3" d="M252.4,176.1c0,1,1.1,1.8,2.5,1.8c1.4,0,2.6-0.8,2.6-1.8s-1.1-1.8-2.6-1.8
		C253.5,174.3,252.4,175.1,252.4,176.1z"/>
	<path class="st3" d="M245.3,180c0,1,1.1,1.8,2.5,1.8s2.5-0.8,2.5-1.8c0-1-1.1-1.8-2.5-1.8S245.3,179.1,245.3,180z"/>
	<path class="st3" d="M241,185.1c0,1,1.2,1.8,2.6,1.8c1.4,0,2.5-0.8,2.5-1.8c0-1-1.1-1.8-2.5-1.8C242.2,183.4,241,184.2,241,185.1z"
		/>
	<path class="st3" d="M237.1,191c0,1,1.1,1.8,2.5,1.8c1.4,0,2.5-0.8,2.5-1.8c0-1-1.1-1.8-2.5-1.8C238.2,189.3,237.1,190,237.1,191z"
		/>
	<path class="st3" d="M232.8,196.5c0,1,1.1,1.8,2.6,1.8c1.4,0,2.5-0.8,2.5-1.8c0-1-1.1-1.8-2.5-1.8
		C233.9,194.8,232.8,195.5,232.8,196.5z"/>
	<path class="st3" d="M226.9,201.2c0,1,1.1,1.8,2.5,1.8c1.4,0,2.5-0.8,2.5-1.8c0-1-1.1-1.8-2.5-1.8
		C228,199.5,226.9,200.2,226.9,201.2z"/>
	<path class="st3" d="M218.7,204.4c0,1,1.1,1.8,2.5,1.8c1.4,0,2.6-0.8,2.6-1.8c0-1-1.1-1.8-2.6-1.8
		C219.8,202.6,218.7,203.4,218.7,204.4z"/>
	<path class="st3" d="M210.5,204.4c0,1,1.1,1.8,2.6,1.8c1.4,0,2.6-0.8,2.6-1.8c0-1-1.2-1.8-2.6-1.8
		C211.6,202.6,210.5,203.4,210.5,204.4z"/>
	<path class="st3" d="M202.1,203c0,1,1.1,1.8,2.5,1.8c1.4,0,2.6-0.8,2.6-1.8s-1.1-1.8-2.6-1.8C203.3,201.2,202.1,202,202.1,203z"/>
</g>
<g>
	<g>
		<polygon points="307.6,86 297.4,105.7 281,137.5 280.1,139.4 280.1,139.4 279.9,139.7 279.6,140.4 279.6,140.4 278.8,141.9 
			277.8,143.9 277.4,143.1 276.7,141.7 266.4,121.1 263,114.4 261.2,121.7 252.9,155.3 252.6,156.5 251.6,160.5 250.8,163.7 
			250.3,165.8 250.3,165.9 250.1,166.8 250,167.1 249.6,168.8 249,170.9 248.8,171.8 248.8,172 248.6,172.4 248.3,173.7 
			248.1,174.7 247.7,176.3 247.7,176.3 247.2,178.4 246.9,179.5 246.9,179.5 246.9,179.6 246.8,179.9 246.7,180.3 246.7,180.3 
			246.7,180.3 246.4,181.6 245.6,184.7 245.6,184.8 245.6,184.9 245.6,184.9 245.4,185.5 244.9,187.4 244.5,189.2 244.5,189.2 
			244.5,189.3 244.1,190.7 243.7,192.3 243.7,192.3 242.4,197.5 241.9,199.6 241.4,201.6 237.2,218.4 224.8,269 236.8,243.3 
			246.6,220.3 251.2,209.6 251.8,208.1 252.5,206.6 255,200.7 255.5,199.6 255.8,198.8 255.8,198.8 256.1,198.3 258.4,192.8 
			259.2,190.9 259.8,189.6 260.9,186.9 261.7,185.2 261.7,185.1 261.7,185.1 261.8,184.8 261.9,184.7 262.7,182.8 263.3,181.3 
			264.4,178.7 265.2,177 265.2,177 265.2,177 265.4,176.5 266.1,174.7 266.8,173.3 267.9,170.6 268.6,169 268.6,168.9 268.6,168.9 
			268.7,168.9 269.4,167.1 270.5,164.5 270.7,164.1 271.4,165.8 272.6,168.3 272.8,168.8 272.8,168.8 272.8,168.8 279.2,182.6 
			282.2,189.3 284.3,182.3 286.5,175 288.1,169.8 290.6,161.4 291.1,159.8 291.1,159.8 291.1,159.7 291.6,158 306.7,108.1 
			319.9,64.3 		"/>
		<g>
			<path class="st4" d="M310,87.2l-10.1,19.7l-16.4,31.9l0,0l-1.1,2.2l0,0l-1.1,2.2l-3.5,6.8l-2.1-4.2l-0.7-1.4l-0.7-1.4l-10.3-20.6
				l-8.3,33.6l-0.3,1.2l-1,4l-0.8,3.2l-0.5,2.1l0,0.1l-0.2,0.8l-0.1,0.3l-0.4,1.8l-0.5,2.1l-0.2,0.9l-0.1,0.6l0,0l-0.3,1.3l-0.3,1
				c0,0,0,0,0,0l-0.2,0.8l0,0.2l-0.1,0.2l-0.6,2.5l-0.3,1.1l-0.1,0.4l-0.1,0.5l-0.3,1.3l-0.8,3l0,0.2l-0.1,0.6l-0.5,2l-0.5,1.8l0,0
				l-0.4,1.4l0,0l-1.7,6.8l-0.5,2.1l-0.5,2l-4.2,16.8l-5.7,23.1l9.9-23l4.6-10.7l0.6-1.5l0.7-1.5l2.5-5.9l0.5-1.1l0.6-1.3l0,0
				l2.4-5.5l0.8-1.9l0.6-1.4l1.2-2.7l0.7-1.7l0.2-0.5l0,0l0.8-1.9l0.7-1.5l1.1-2.5l0.7-1.7l0.2-0.5l0.8-1.8l0.6-1.4l1.1-2.7l0.7-1.6
				l0-0.1l0.7-1.7l1.1-2.6l1-2.4l0,0l0.8-1.8l0.8-1.9l1.8,3.9l1.6,3.4l1.2,2.5l0.2,0.5l6.3,13.8l2.2-7.3l1.6-5.2l2.5-8.4l0,0
				l0.5-1.7l0.5-1.7l15-50L310,87.2z"/>
			<path class="st5" d="M310,87.2l-10.1,19.7l-16.4,31.9l0,0l-1.1,2.2l0,0l-1.1,2.2l-3.5,6.8l-2.1-4.2l-0.7-1.4l-0.7-1.4l-10.3-20.6
				l-8.3,33.6l-0.3,1.2l-1,4l-0.8,3.2l-0.5,2.1l0,0.1l-0.2,0.8l-0.1,0.3l-0.4,1.8l-0.5,2.1l-0.2,0.9l-0.1,0.6l0,0l-0.3,1.3l-0.3,1
				c0,0,0,0,0,0l-0.2,0.8l0,0.2l-0.1,0.2l-0.6,2.5l-0.3,1.1l-0.1,0.4l-0.1,0.5l-0.3,1.3l-0.8,3l0,0.2l-0.1,0.6l-0.5,2l-0.5,1.8l0,0
				l-0.4,1.4l0,0l-1.7,6.8l-0.5,2.1l-0.5,2l-4.2,16.8l-5.7,23.1l9.9-23l4.6-10.7l0.6-1.5l0.7-1.5l2.5-5.9l0.5-1.1l0.6-1.3l0,0
				l2.4-5.5l0.8-1.9l0.6-1.4l1.2-2.7l0.7-1.7l0.2-0.5l0,0l0.8-1.9l0.7-1.5l1.1-2.5l0.7-1.7l0.2-0.5l0.8-1.8l0.6-1.4l1.1-2.7l0.7-1.6
				l0-0.1l0.7-1.7l1.1-2.6l1-2.4l0,0l0.8-1.8l0.8-1.9l1.8,3.9l1.6,3.4l1.2,2.5l0.2,0.5l6.3,13.8l2.2-7.3l1.6-5.2l2.5-8.4l0,0
				l0.5-1.7l0.5-1.7l15-50L310,87.2z"/>
			
				<linearGradient id="SVGID_4_" gradientUnits="userSpaceOnUse" x1="135.9963" y1="446.3731" x2="139.1372" y2="436.5674" gradientTransform="matrix(0.6882 -0.7256 -0.7256 -0.6882 492.1427 565.6159)">
				<stop  offset="0" style="stop-color:#FEDA59"/>
				<stop  offset="0.2321" style="stop-color:#FED350"/>
				<stop  offset="0.6042" style="stop-color:#FEC039"/>
				<stop  offset="1" style="stop-color:#FFA719"/>
			</linearGradient>
			<polygon class="st7" points="310,87.2 302.4,107.1 285.8,150.2 285,152.3 284.2,154.3 280.7,163.6 279.7,166 277,160.3 
				272.2,150.3 271.5,148.9 270.8,147.4 267.2,140.1 262.1,155.8 262.1,156 261.5,157.7 260.7,160.2 260.6,160.5 260.5,161.1 
				260.4,161.1 260.4,161.2 259.5,163.9 259.3,164.6 259.1,165.2 259.1,165.2 258.9,165.8 258.8,166.3 257.8,169.3 257.7,169.6 
				257.6,169.8 257.6,169.8 257.5,170.2 256.7,172.6 256.6,173.1 256.2,174.3 256,174.8 255,178 254.9,178.2 254.8,178.5 254,181.2 
				253.8,181.5 253.4,182.9 253.3,183.2 252.1,187 252,187.1 252,187.3 251.3,189.5 251.1,189.9 250.7,191.2 249.5,194.8 
				249.2,195.9 249.1,196.4 247.3,201.8 246.7,203.6 246.1,205.3 241.7,219.1 234.2,242.2 244.1,219.2 248.7,208.5 249.3,207 
				249.9,205.5 252.5,199.6 252.9,198.5 253.5,197.2 253.5,197.2 255.9,191.7 256.6,189.8 257.2,188.5 258.4,185.8 259.1,184.1 
				259.3,183.6 259.3,183.6 260.1,181.7 260.8,180.2 261.9,177.6 262.6,175.9 262.8,175.4 263.6,173.6 264.2,172.2 265.4,169.5 
				266.1,167.9 266.1,167.8 266.9,166 268,163.4 269,160.9 269,160.9 269.8,159.1 270.6,157.3 272.4,161.2 274,164.6 275.1,167.1 
				275.4,167.7 281.7,181.4 283.9,174.2 285.4,169 288,160.6 288,160.6 288.5,158.9 289,157.2 304,107.3 			"/>
		</g>
	</g>
	<path d="M269.1,174.3c-0.1-0.8-0.5-1.6-1.1-2.2c-2-1.8-6.9-6-10.4-6.3c-4.6-0.4-5.1,5.3-0.4,8.2c4.6,2.9,5.6,8.8,5.6,8.8
		S269.7,181.9,269.1,174.3z"/>
</g>
<path class="st2" d="M73.4,138.4c0,0-39.1-1.8-66.8,4.6l0.2,1.2c0,0,35-6.9,67-4.6l1.6-1.6L73.4,138.4z"/>
<path class="st2" d="M77.1,145.2c0,0-41.4,1.3-70.1,9.8l0.3,1.1c0,0,33.4-9.2,70.8-9.6l1.1-1.9L77.1,145.2z"/>
<path class="st2" d="M254.2,138.4c0,0,39.1-1.8,66.7,4.6l-0.2,1.2c0,0-35-6.9-67-4.6l-4.5-0.9L254.2,138.4z"/>
<path class="st2" d="M250.5,145.2c0,0,41.4,1.3,70.1,9.8l-0.3,1.1c0,0-33.4-9.2-70.8-9.6l-1.1-1.9L250.5,145.2z"/>
<path d="M100.5,83.6c-2.7,0-4.7-1.4-5.5-4.3c0,0-0.1-0.7,0-1.4c0.3-1.2,0.6-1.4,0.6-1.4c3.3-5.2,19.8-30.1,27.9-31.4
	c0.5-0.1,0.9-0.1,1.3-0.1c2.5,0,3.6,1.4,4,2.2c0.7,1.4,2.5,5.2-11.4,23.3C110.9,79,104.9,83.6,100.5,83.6L100.5,83.6z"/>
<path class="st8" d="M96.6,76.8c-0.6,0.9-0.6,2.1,0.1,2.9c2.8,3.6,9.7,0,18.2-10.9c9.5-12.3,15.7-23.3,8-22.2
	C116.1,47.7,100.3,71.2,96.6,76.8z"/>
<polygon class="st9" points="70.9,53.1 68.4,60.3 101.5,76.1 104.1,73.9 79.3,53.7 68.6,50.6 "/>
<path d="M221.7,85.1c2.7,0,4.7-1.4,5.5-4.3c0,0,0.1-0.7,0-1.4c-0.3-1.2-0.6-1.4-0.6-1.4c-3.3-5.2-19.8-30.1-27.9-31.4
	c-0.5-0.1-0.9-0.1-1.3-0.1c-2.5,0-3.6,1.4-4,2.2c-0.7,1.4-2.5,5.2,11.4,23.3C211.3,80.5,217.3,85.1,221.7,85.1L221.7,85.1z"/>
<path class="st8" d="M225.6,78.3c0.6,0.9,0.6,2.1-0.1,2.9c-2.8,3.6-9.7,0-18.2-10.9c-9.5-12.3-15.7-23.3-8-22.2
	C206.1,49.2,222,72.7,225.6,78.3z"/>
<polygon class="st9" points="202,55.8 203.8,58 215.1,68.1 216.8,74.8 219.7,77.6 221.9,77.3 268.3,55.4 290.9,28 288.4,24 
	271.1,19.1 240.8,7.6 211.5,41.4 202,53 "/>
<g>
	<g>
		<g>
			<g>
				<g>
					<g>
						<path class="st10" d="M209,67.2c2.1,3,5,5.2,7.8,7.6c9.6-7.2,23.9-16.7,37.4-20.3l-7.5-9.3l-23.5,9.3l-15,11.5
							C208.5,66.4,208.7,66.8,209,67.2z"/>
						<path class="st8" d="M287.1,31.1c-24.8-2.4-45.2-16.2-45.2-16.2c-5,3.9-27.5,30.5-38.1,43.1c1.4,2,2.3,4.1,3.4,6.2l33-24.5
							l11.5,8.9l19.9,43.7l18.9-34.7C290.5,57.5,311.9,33.5,287.1,31.1z"/>
						<path class="st10" d="M109.2,68.7c0.9-1.4,1.8-2.8,2.7-4.2l-13-10l-23.5-9.3l-7.5,9.3c12.9,3.5,26.6,12.2,36.2,19.3
							C106,72.3,107.9,70.7,109.2,68.7z"/>
						<path class="st8" d="M112,64.3c3-4.8,5.7-9.5,9.3-13.8l-36-41.2C76,29.1,33.1,31.5,33.1,31.5c-6,25.7,19.3,58.7,19.3,58.7
							L70.3,49l11.8-4.2l15.1,7.8L112,64.3z"/>
						<g>
							<path d="M297.5,19.5C268.2,23,241.7,2.8,241.7,2.8c-19.6,16.1-34,33.2-44.4,48.1c1.5,1.7,3.2,3.2,4.7,4.9
								c10-13.9,23.2-30.1,40-46.4c0,0,20.4,13.8,42.9,15.6c-7.9,0.1-19.7-1.3-34-7.8c0,0,5.4,7.4,18.3,11.5c0,0-8.8,2-14.2-1.7
								c0,0,1.4,5.4,15.9,26c0,0-17.6-22.6-33.5-26c0,0,26,9.5,38.2,48.7c0,0-6.8-13.5-11.8-16.2c0,0,6.3,14.2,8,28.4
								c-5.3-15.4-24.1-65.6-43.1-58c0,0,6.6,1.9,7.4,3.8c0,0-15,7.6-30.7,26.7c1.2,2.3,2.2,4.6,3.8,6.8c1.2,1.7,2.7,3.2,4.3,4.6
								c8.5-7.2,20-15.4,35.2-22.8l4.4,9.9c0,0-16.6,6.6-33.2,18.7c1,1,1.8,2.1,2.6,3.4c0,0.1,0.1,0.1,0.1,0.2
								c16.1-11.5,32.2-17.6,32.2-17.6c8.5,10.1,16.1,39.4,16.1,39.4C319.9,55,297.5,19.5,297.5,19.5z"/>
							<path d="M100.6,77.1c0.3-0.3,0.6-0.6,0.9-0.9C85.6,65,70.3,58.9,70.3,58.9l4.4-9.9c14.1,6.9,25,14.4,33.3,21.3
								c0.4-0.5,0.9-1,1.2-1.6c2.4-3.5,4.5-7.2,6.7-10.7c-15-17.4-28.7-24.4-28.7-24.4c0.8-1.9,7.4-3.8,7.4-3.8
								c-22.4-9-44.6,62.4-44.6,62.4C16.7,58,28.7,24.9,28.7,24.9c26,2.5,52.5-15.6,52.5-15.6c15.7,15.3,28.3,30.5,38.1,43.8
								c1.4-1.8,2.8-3.6,4.5-5.3c-10.2-14.1-24-30-42.2-45.1c0,0-26.5,20.2-55.8,16.7c0,0-22.4,35.6,26.8,83.4
								c0,0,7.7-29.3,16.1-39.4c0,0,14.6,5.6,30,16.1C99.3,78.7,99.9,77.9,100.6,77.1z"/>
							<path d="M47.5,77.8C26.5,54.8,31,28.7,31,28.7c-8.1,27,17.8,58.1,17.8,58.1C64.1,40.3,77,29.7,80.9,27.5
								C59,37.9,47.5,77.8,47.5,77.8z"/>
							<path d="M80.9,27.5c0.4-0.2,0.8-0.4,1.2-0.6C82.2,26.9,81.7,27,80.9,27.5z"/>
						</g>
					</g>
				</g>
			</g>
		</g>
	</g>
</g>
<g>
	<path class="st9" d="M178.9,102.4c-1.2,3.4-2.4,6.9-3.7,10.4c-0.6,1.7-1.2,3.5-1.8,5.2c0,0,0,0.1,0,0.1c-0.5,1.5-1,3-1.6,4.4
		c-0.4,1.2-0.8,2.3-1.2,3.5c-0.2,0.5-0.4,1-0.5,1.5c-1,2.8-2,5.6-2.9,8.2c-1,2.9-2,5.6-2.9,8c-0.2,0.6-0.4,1.2-0.7,1.8
		c-2.2,6.1-3.6,10.1-3.6,10.1l-0.7,0.6l-12.7,10.2l-1.6,1.3l-2.2,1.8l-2.6,2.1l-19.3-0.3l-12.3-8.9l-7.6-12.8l-1.6-11.4l0.2-11.2
		l8.3-13l14.3-9.4l0.9-6.5l-0.4-11.5l0-0.6l0.3-0.5l5.6-10.3l9.4-7.8l25.9-3.3c0,0,6,3.3,11.9,6.4c5.5,2.9,10.9,5.8,11.6,5.9
		C187.7,76.5,183.9,88.1,178.9,102.4z"/>
	<g>
		<path class="st9" d="M175.7,165.2l-1.1,10.7l-0.7,6.9l-1.7,4.4l-0.6,1.6c0,0-14.7,1.4-15.6,1.1c-0.9-0.3-4.9-3.2-4.9-3.2
			l-0.7-15.1l13.3-6.5l0.1,0H175.7z"/>
		<g>
			<g>
				<polygon class="st9" points="194.3,150.4 194.1,152.2 193.7,156.1 193.5,157.7 189.5,161 186.4,163.4 184.8,164.7 174.3,165.1 
					173.2,165.1 166.2,165.2 163.8,165.2 161.8,165.2 155.4,168.5 154.4,169.1 148.2,170.5 140.1,171.6 134.3,167.6 130.7,159.6 
					129.3,156.3 135.1,154.2 144.7,150.8 151.2,147.1 152.4,146.5 162.2,143.6 164.2,143.7 177.3,144.8 187.5,145.7 189,145.9 
					192.3,146.2 192.4,146.4 193.3,148.2 194.1,150 				"/>
				<g>
					<path class="st11" d="M175.7,165.2l-0.9,7.9l-0.2,2.8l-0.7,11.3l-1.7,0.1l-6.5,0.4c0.3-0.3,0.6-0.7,0.9-1
						c6.2-7.3,3.8-18.7,3.8-18.7c-1.8-0.2-4.1,0.2-6.5,0.8c-0.6,0.2-1.2,0.3-1.8,0.5c-4.1,1.3-7.9,3.1-9.2,3.7
						c-0.3,0.1-0.4,0.2-0.4,0.2l-2.1-1.3l5-3.2l7-4.5l11.9,1.1L175.7,165.2z"/>
					<path class="st11" d="M194.9,156.5l-6.3,6.7l-1.3,0.1l-1,0.1l-6.5,0.4c0.5-0.4,0.9-0.8,1.3-1.1c0.5-0.4,0.9-0.8,1.3-1.2
						c0.2-0.2,0.4-0.4,0.6-0.6h0c0.9-0.9,1.5-1.7,2-2.4h0c0.2-0.3,0.3-0.5,0.5-0.8c0.4-0.7,0.6-1.3,0.7-1.8c0.1-0.3,0.1-0.6,0-0.8
						c-0.1-0.6-0.4-1.2-0.8-1.6c-0.3-0.3-0.6-0.5-1-0.7c-3.3-1.7-10-1.3-13.2-1c-1,0.1-1.6,0.2-1.6,0.2l-1.2-6.4l22.7,0.8l2,1.9
						l0.9,0.8l0.4,0.4L194.9,156.5z"/>
					<g>
						<g>
							<path class="st10" d="M124,80.5l-1.1,5.1l-0.2,1l-1.4,6c0,0-0.5-0.4-1.3-1.2v0c0-1,0-1.9,0.1-2.8c0.4-3,1.2-6.2,2.4-9.3
								L124,80.5z"/>
							<path class="st8" d="M221,137.5l-3.8,18.1l-22.4,16.1l-12.1-3l4.7-5.4l2.1-2.4l4.2-4.9l0.4-0.5v-8.9l-1.7-0.3l-1.2-0.2
								l-2.2-0.4l-0.6-0.1l-0.9-0.1l-15.7-0.9l-8.2,0.7l-10.6,0.9l-1.7,0.7l-13.4,5.7l-2.7,1.3l-2.8,1.4l-1.6,4l0,0l2.8,6.7
								c0,0-1.4,0-3.6-0.2c-7.5-0.8-24.3-5-24.7-25.3c-0.5-26.2,25.5-28.4,25.5-28.4s-0.8-2.9-0.6-7.7c0-0.3,0-0.5,0-0.8
								c0.3-5.2,1.7-12.2,6.1-19.9c4.4-7.5,13.4-10.4,21.4-11.4c0,0,0,0,0,0c2.8-0.4,5.6-0.5,7.9-0.5c4.6,0,7.8,0.5,7.8,0.5l2.3-2.1
								l4.7-4.4l16.7,20.1l1.9,17.3l10.2,4.8l8.1,7.8L221,137.5z"/>
							<g>
								<path d="M217.3,116.2l-8.1-7.8l-10.2-4.8l-1.9-17.3l-16.7-20.1l-4.7,4.4c-5.9-3.2-11.9-6.4-11.9-6.4l-25.9,3.3l-9.4,7.8
									l-5.6,10.3l1.1-5.1l-1.4-1.1c0,0,0,0,0,0c-1.2,3.1-2,6.3-2.4,9.3c-0.1,0.9-0.1,1.9-0.1,2.8v0c0.9,0.7,1.3,1.2,1.3,1.2l1.4-6
									l0.4,11.5l-0.9,6.5l-14.3,9.4l-8.3,13l-0.2,11.2l1.6,11.4l7.6,12.8l12.3,8.9l19.3,0.3l8.1-1l6.2-1.5l1-0.5l-5,3.2l0.7,15.1
									c0,0,4,2.9,4.9,3.2c0.9,0.3,15.6-1.1,15.6-1.1l0.6-1.6l1.7-0.1l0.7-11.3l1.1-10.7l-1.3-0.1l10.4-0.4l1.6-1.3l1-0.1l-4.7,5.4
									l12.1,3l22.4-16.1l3.8-18.1L217.3,116.2z M150.7,169.3c-1.9,0.3-4.3,0.5-7.1,0.2c-0.3,0-0.6-0.1-0.9-0.1
									c-0.9-0.1-1.8-0.3-2.6-0.6c1.8-0.2,3.4-0.7,4.8-1.2c2.7-1,4.5-2.3,4.6-2.5c-1.1,0.5-2.1,0.8-3,1.2c-3.8,1.3-6.5,1.7-8.5,1.6
									c-0.6-0.4-1.2-0.8-1.6-1.2c6-0.2,10.4-3.6,10.7-3.8c-5.5,2.3-9.2,2.9-11.7,2.7c-0.3-0.4-0.6-0.9-0.8-1.4
									c6.6,0.2,11.6-3.5,11.9-3.8c-6,2.6-9.9,2.9-12.3,2.7c-0.2-0.6-0.4-1.3-0.5-1.9c7.3,0.9,13.1-3.4,13.4-3.6
									c-7.2,3-11.3,3-13.5,2.4c-0.1-0.8-0.1-1.5,0-2.1c7.6,1.2,13.6-3.3,13.9-3.6c-7.5,3.2-11.7,3-13.8,2.4c0.1-0.6,0.2-1,0.2-1
									c10.4-1.1,16.5-6.5,16.5-6.5c2.2,2.6,5.3,4.7,7.4,6c0.5,0.3,1,0.6,1.3,0.7c0.6,0.3,0.9,0.5,0.9,0.5l-0.3,5.2l-0.2,2.3
									C159.7,164.2,157.6,168.1,150.7,169.3z M169.4,186.4c0,0-1.1,0.1-2.8,0.1c-0.8,0-1.8,0.1-2.9,0.1l-0.3-3.3l-0.6,3.3
									c-1.7,0.1-3.4,0.1-5,0.1c-4.7,0-4.2-2-4.2-2l-0.7-11.9l-0.1-0.8c3.3-2.2,6.4-3.6,9.1-4.4l0.2,1.6l1.2,11.7l0.5-12.2l0.1-1.6
									c1.4-0.3,2.6-0.5,3.7-0.7c3.6-0.3,5.7,0.3,5.7,0.3c0,1.2,0,2.3,0,3.4C173.2,186.1,169.4,186.4,169.4,186.4z M182.5,161.5
									L182.5,161.5c0.7,0,1.5,0,2.3-0.1c-0.8,0.4-1.6,0.7-2.5,1c-0.4,0.1-0.7,0.2-1.2,0.3c0,0,0,0,0,0c-2.4,0.5-5.8,0.5-8.8,0.2
									c-3.9-0.3-7.5-0.6-7.5-0.6l-0.1-5.7c0,0,0.4-0.4,0.6-0.5c0.9-0.6,4-2.8,6-4.4l0,0c0,0,0,0,0,0c0.8-0.6,1.4-1.2,1.6-1.5
									c1.1-1.4,8.6-1.8,14-2.1c0.6,0,1.1-0.1,1.6-0.1c-2.1,1.2-5.8,2.4-12,2.6c0,0,7.3,1.7,13.7-2.4c0.9,0.2,1.4,0.7,1.7,1.4
									c-1.2,1-3.4,2.4-7.5,3.2c-1.7,0.3-3.7,0.6-6.1,0.6c0,0,3.1,0.7,7.1,0h0c2.1-0.3,4.5-1.1,6.8-2.6c0.1,0.6,0.1,1.3,0.1,2.1
									c-1.3,0.8-3.2,1.6-6,2.1c-1.7,0.3-3.8,0.5-6.2,0.6c0,0,2.7,0.6,6.2,0.2c1.9-0.2,4-0.7,6.1-1.8c-0.1,0.6-0.3,1.2-0.6,1.8
									c-1.4,0.7-3.4,1.3-6.2,1.7h0c-1.4,0.2-3.1,0.4-5,0.5c0,0,1.9,0.4,4.5,0.3h0c1.6-0.1,3.6-0.3,5.6-1c-0.9,1-2,1.9-3.3,2.7
									c-1.2,0.3-2.7,0.6-4.4,0.8h0c-1.1,0.1-2.4,0.2-3.7,0.3C179.4,161.1,180.6,161.4,182.5,161.5z M213.8,117.3
									c-0.2-0.2-0.4-0.4-0.6-0.6c-0.4-0.4-0.8-0.8-1.2-1.1c-0.2-0.2-0.4-0.4-0.6-0.5c-0.3-0.2-0.5-0.4-0.8-0.6
									c-0.3-0.2-0.6-0.4-0.8-0.6c0,0-0.1-0.1-0.1-0.1c-0.2-0.1-0.4-0.3-0.6-0.4c-0.7-0.5-1.4-0.9-2-1.3c0,0-0.1,0-0.1-0.1
									c0,0,0,0,0,0c0,0,0,0-0.1,0c-0.1-0.1-0.3-0.1-0.4-0.2c-0.2-0.1-0.4-0.2-0.6-0.3c-0.1,0-0.2-0.1-0.3-0.1
									c-0.3-0.2-0.6-0.3-0.9-0.4c-0.2-0.1-0.3-0.1-0.5-0.2c-0.2-0.1-0.4-0.1-0.5-0.2c-0.2-0.1-0.3-0.1-0.5-0.2
									c-0.2,0-0.4-0.1-0.5-0.1c-0.4-0.1-0.8-0.2-1.1-0.2c-0.2,0-0.3,0-0.5-0.1c-0.6-0.1-1,0-1.2,0c0,0,0,0-0.1,0c0,0,0,0,0,0v0
									c0.1,0.1,0.2,0.2,0.3,0.3c0.1,0.1,0.3,0.3,0.4,0.4c0.1,0.1,0.2,0.2,0.3,0.4c0.1,0.1,0.2,0.3,0.3,0.4
									c0.1,0.1,0.2,0.3,0.2,0.4c0,0.1,0.1,0.1,0.1,0.2c0,0.1,0.1,0.1,0.1,0.2c0.1,0.1,0.1,0.3,0.2,0.4c0.1,0.2,0.1,0.3,0.1,0.5
									c0,0.1,0.1,0.3,0.1,0.4c0,0.1,0,0.2,0,0.2c0,0,0,0.1,0,0.1c0,0,0,0.1,0,0.1c0,0.1,0,0.3,0,0.5c0,0,0,0,0,0
									c0,0.3,0,0.6,0,0.9c0,0.1,0,0.3,0,0.4c0,0.1,0,0.2,0,0.3c0,0.1,0,0.1,0,0.2c0,0.2-0.1,0.5-0.1,0.7c0,0,0,0.1,0,0.1
									c0,0.2-0.1,0.3-0.1,0.5c0,0.1-0.1,0.2-0.1,0.4c0,0,0,0,0,0c-0.1,0.3-0.2,0.6-0.3,0.9c-0.1,0.3-0.2,0.6-0.3,0.9c0,0,0,0,0,0
									c0,0.1-0.1,0.2-0.1,0.3c-0.1,0.2-0.1,0.3-0.2,0.5c-0.1,0.2-0.2,0.3-0.2,0.5c0,0.1-0.1,0.1-0.1,0.2c-0.1,0.3-0.3,0.6-0.4,0.8
									c-0.1,0.1-0.1,0.2-0.2,0.3c-0.1,0.1-0.1,0.2-0.2,0.3c0,0,0,0,0,0v0c0,0,0,0,0,0c0-0.3,0.1-0.5,0.1-0.8
									c0-0.4,0.1-0.7,0.1-1.1c0-0.2,0-0.3,0-0.5c0-0.5,0-1,0-1.4c0-0.2,0-0.5,0-0.7s0-0.4-0.1-0.7c0-0.1,0-0.1,0-0.2
									c0-0.1,0-0.2,0-0.4c0-0.2-0.1-0.5-0.1-0.7c0-0.2-0.1-0.3-0.1-0.5c0-0.2-0.1-0.3-0.1-0.5c-0.1-0.3-0.2-0.6-0.2-0.9
									c-0.1-0.3-0.2-0.5-0.3-0.8c0-0.1-0.1-0.2-0.1-0.4c0-0.1,0-0.1-0.1-0.2c-0.1-0.3-0.2-0.6-0.3-0.8c0-0.1-0.1-0.2-0.1-0.3
									s-0.1-0.2-0.2-0.3c-0.1-0.1-0.1-0.3-0.2-0.4c0,0,0,0,0,0c-0.2-0.3-0.3-0.5-0.5-0.7c-0.2-0.3-0.4-0.5-0.5-0.6c0,0,0,0,0,0
									c0,0,0,0,0,0c0.1,0.2,0.1,0.4,0.2,0.6c0.1,0.2,0.1,0.4,0.2,0.6c0.1,0.4,0.2,0.8,0.3,1.2c0.1,0.4,0.1,0.8,0.1,1.1
									c0.3,3.9-1.2,7.3-1.2,7.3c-0.2,0.2-0.4,0.5-0.6,0.7c-0.1,0.2-0.3,0.3-0.4,0.4c-0.2,0.2-0.3,0.3-0.5,0.5
									c-0.9,0.8-1.9,1.5-2.9,2.1c-0.3,0.1-0.5,0.3-0.8,0.4c-0.4,0.2-0.8,0.4-1.2,0.5c-0.2,0.1-0.4,0.2-0.6,0.2
									c-0.2,0.1-0.4,0.2-0.6,0.2c-0.3,0.1-0.6,0.2-0.9,0.3c-0.1,0.1-0.3,0.1-0.5,0.1c-0.2,0.1-0.5,0.1-0.7,0.2h0
									c-5.6,1.3-11.7,0.6-16.2-0.2c-3.6-0.7-6.1-1.5-6.1-1.5c0.5,0.8,2.4,1.9,5.5,3c4.6,1.6,11.9,3,22.1,2.6h0
									c0.5,0,1.1,0,1.7-0.1c0.1,0,0.3,0,0.4,0c0.6,0,1.2-0.1,1.8-0.1c0.4,0,0.9,0,1.3-0.1c0.4,0,0.8,0,1.2,0c0,0,0,0,0,0
									c0.3,0,0.7,0,1,0c0.2,0,0.4,0,0.5,0.1c0.2,0,0.5,0,0.7,0.1c0.3,0,0.6,0.1,0.9,0.1c0.1,0,0.2,0,0.3,0.1c0.1,0,0.2,0,0.3,0.1
									c0,0,0.1,0,0.2,0c0.3,0.1,0.6,0.2,0.9,0.3c0.3,0.1,0.7,0.2,1,0.3c0.5,0.2,1,0.4,1.4,0.6c0.2,0.1,0.3,0.1,0.4,0.2
									c0.1,0,0.2,0.1,0.3,0.2c0.1,0,0.2,0.1,0.2,0.1c0.1,0.1,0.2,0.1,0.3,0.2c0.1,0,0.1,0.1,0.2,0.1c0.1,0.1,0.3,0.2,0.4,0.3
									c0.1,0,0.1,0.1,0.2,0.1c0,0,0.1,0.1,0.2,0.1c0.1,0.1,0.3,0.2,0.4,0.3c0.1,0.1,0.2,0.1,0.3,0.2c0.1,0.1,0.2,0.1,0.2,0.2
									l0.2,0.2c0.1,0,0.1,0.1,0.2,0.2c0,0,0.1,0.1,0.1,0.2c0.1,0.1,0.2,0.2,0.3,0.3c0.4,0.4,0.7,0.8,1,1.3
									c0.1,0.2,0.2,0.3,0.3,0.5c0.1,0.2,0.2,0.3,0.3,0.5c0.1,0.1,0.1,0.2,0.2,0.3c0.1,0.2,0.2,0.3,0.3,0.5
									c0.1,0.2,0.2,0.5,0.3,0.7c0.1,0.3,0.2,0.5,0.3,0.8c0.1,0.3,0.2,0.6,0.3,1c0,0.1,0.1,0.2,0.1,0.3c0.1,0.1,0.1,0.3,0.1,0.4
									c0,0.1,0,0.1,0.1,0.2c0.1,0.3,0.1,0.5,0.2,0.8c0,0.2,0.1,0.3,0.1,0.5c0.1,0.2,0.1,0.4,0.1,0.7c0,0.2,0.1,0.5,0.1,0.7
									c0,0.1,0,0.2,0,0.3c0,0.2,0,0.3,0.1,0.5c0,0.2,0,0.3,0.1,0.5c0,0.4,0.1,0.7,0.1,1c0,0.3,0,0.5,0,0.7c0.1,1.6,0,2.6,0,2.6
									c0-0.1,0-0.1,0-0.2c0-0.1,0-0.2,0-0.3c0-0.3,0-0.6,0-0.8c0-0.1,0-0.1,0-0.2c0-0.3-0.1-0.5-0.1-0.8c0-0.3-0.1-0.6-0.2-0.9
									c0,0,0-0.1,0-0.1c0-0.1,0-0.1,0-0.2c0-0.1,0-0.1,0-0.2c0,0,0,0,0,0c0-0.1,0-0.2-0.1-0.3c0-0.1-0.1-0.2-0.1-0.3
									c0-0.1-0.1-0.2-0.1-0.3l0,0c-0.8-2.3-2.2-4-3.7-5.4c-0.2-0.2-0.4-0.3-0.5-0.5c-0.4-0.3-0.8-0.7-1.2-0.9
									c-0.1-0.1-0.3-0.2-0.4-0.3c-0.8-0.5-1.5-0.9-2.1-1.2c-0.1-0.1-0.2-0.1-0.3-0.2c-0.4-0.2-0.8-0.3-1-0.4c0,0,0,0-0.1,0
									c0,0,0,0,0,0c-0.1,0-0.1,0-0.1,0c0.1,0.2,0.2,0.3,0.4,0.4c0.2,0.2,0.3,0.4,0.5,0.6c0,0,0,0.1,0.1,0.1
									c0.2,0.2,0.3,0.4,0.5,0.7c0.1,0.1,0.1,0.2,0.1,0.2c0.7,1,1.3,2,1.9,2.9c0.4,0.6,0.7,1.2,0.9,1.8c0,0,0,0,0,0.1
									c0.1,0.3,0.2,0.5,0.4,0.8c0.1,0.3,0.2,0.6,0.3,0.9c0.1,0.3,0.2,0.6,0.3,0.8c0.1,0.2,0.1,0.4,0.2,0.7c0,0,0,0.1,0,0.1
									c0,0.1,0.1,0.3,0.1,0.4c0,0.1,0.1,0.3,0.1,0.4c0.1,0.3,0.1,0.5,0.1,0.8c0.1,0.5,0.1,1,0.1,1.5c0,0.2,0,0.5,0,0.7
									c0,0.7,0,1.4-0.2,2.1c0,0.1,0,0.2,0,0.3c0,0,0,0,0,0c0,0.2-0.1,0.4-0.1,0.5c-0.2,0.8-0.4,1.5-0.7,2.2
									c-0.1,0.2-0.2,0.4-0.2,0.5c-0.1,0.2-0.2,0.3-0.2,0.5c-0.2,0.3-0.3,0.7-0.5,1c0,0.1-0.1,0.1-0.1,0.2c0,0.1-0.1,0.2-0.2,0.3
									c-0.1,0.1-0.1,0.2-0.2,0.3c-0.3,0.4-0.6,0.8-0.9,1.1c-0.1,0.2-0.3,0.3-0.4,0.5c-0.5,0.6-1,1-1.4,1.4
									c-0.1,0.1-0.2,0.2-0.3,0.3c0,0-0.1,0.1-0.1,0.1c-0.1,0-0.1,0.1-0.2,0.1c-0.3,0.3-0.6,0.4-0.6,0.5c0-0.1,0-0.1,0.1-0.2
									c0.1-0.3,0.2-0.5,0.3-0.8c0-0.1,0.1-0.2,0.1-0.2c0,0,0,0,0,0c0.1-0.2,0.1-0.4,0.2-0.6c0.1-0.2,0.1-0.4,0.2-0.6
									c0-0.1,0-0.1,0-0.2c0.1-0.3,0.1-0.6,0.1-0.9c0-0.4,0-0.7,0-1c0-0.2,0-0.3,0-0.5c0-0.1,0-0.3,0-0.4c0-0.1,0-0.3-0.1-0.4
									c0-0.1,0-0.3-0.1-0.4c0-0.2-0.1-0.4-0.1-0.5c-0.2-0.6-0.4-1.1-0.6-1.5c-0.1-0.1-0.2-0.3-0.2-0.4c-0.2-0.3-0.3-0.5-0.4-0.5
									c0,0,0,0,0,0c0,0,0,0,0,0c0,0,0,0,0,0c0,0.2,0,0.3,0,0.5c0,0.2,0,0.4,0,0.7c0,0.3,0,0.5-0.1,0.8c0,0,0,0.1,0,0.1
									c0,0.3-0.1,0.5-0.1,0.8c0,0.4-0.1,0.7-0.2,1c0,0.2-0.1,0.5-0.2,0.7c-0.1,0.3-0.1,0.5-0.2,0.8c-0.1,0.2-0.2,0.5-0.2,0.7
									c0,0,0,0.1,0,0.1c0,0,0,0.1,0,0.1c-0.1,0.2-0.2,0.4-0.2,0.6c-0.1,0.1-0.1,0.3-0.2,0.4c-0.4,0.9-1,1.7-1.6,2.4
									c-0.2,0.2-0.3,0.4-0.5,0.5c-0.3,0.3-0.6,0.6-0.9,0.8c-0.2,0.2-0.4,0.3-0.7,0.5c-0.5,0.3-1,0.6-1.5,0.9
									c-0.2,0.1-0.3,0.2-0.4,0.2c-0.2,0.1-0.4,0.2-0.6,0.3c-0.3,0.1-0.7,0.3-1,0.4c-0.5,0.2-1.1,0.4-1.6,0.5
									c-0.2,0.1-0.4,0.1-0.6,0.2c-1,0.3-2.2,0.5-3.4,0.7c0.3-0.1,0.6-0.2,0.9-0.3c0.4-0.1,0.7-0.2,1.1-0.4c0.1,0,0.2-0.1,0.3-0.1
									c0.1-0.1,0.3-0.1,0.4-0.2c0,0,0,0,0.1,0c0.3-0.1,0.6-0.3,0.9-0.4c0.2-0.1,0.5-0.3,0.7-0.4c0.1-0.1,0.3-0.2,0.4-0.3
									c0.1-0.1,0.2-0.1,0.3-0.2c0.3-0.2,0.5-0.4,0.7-0.6c0,0,0-0.1,0.1-0.1c0.3-0.3,0.6-0.6,0.9-0.9c0,0,0.1-0.1,0.1-0.1
									c0,0,0,0,0,0c0,0,0.1-0.1,0.1-0.1c0.1-0.1,0.2-0.3,0.3-0.4c0.1-0.1,0.1-0.2,0.2-0.3c0-0.1,0.1-0.1,0.1-0.2
									c0-0.1,0.1-0.2,0.1-0.3c0,0,0,0,0,0c0.3-0.5,0.5-0.9,0.7-1.5c0.1-0.2,0.1-0.3,0.2-0.5c0,0,0-0.1,0-0.1c0,0,0,0,0,0
									c0.1-0.1,0.1-0.3,0.1-0.4c0-0.1,0-0.1,0-0.2c0.1-0.2,0.1-0.4,0.1-0.6c0,0,0,0,0,0c0,0,0-0.1,0-0.1c0-0.2,0.1-0.4,0.1-0.6
									c0-0.1,0-0.2,0-0.3c0-0.2,0.1-0.4,0.1-0.6c0-0.1,0-0.2,0-0.3c0-0.1,0-0.2,0-0.3c0-0.2,0-0.4,0.1-0.5c0-0.3,0.1-0.7,0.1-1v0
									c0.5-8.8-3.6-12.5-8.4-11.6c-5.4,1.1-10.3,1.2-14.3-3.6c-2-2.3-4.8-3.4-7.7-3.8c-6.3-0.8-13,1.6-13,1.6s-4.8,2.5-5.1,6.8
									c0,0-0.4,7.2-15.1,7.5c-13.7,0.3-7.8,9.7-4,14.5c0.3,0.3,0.5,0.7,0.8,1c0.5,0.5,1,1.1,1.5,1.7c-17.1-0.1-30.9-14-30.9-31.1
									c0-13.1,8.3-24.8,20.6-29.3l3.7-1.3V91.5c0-3,0.5-5.9,1.5-8.5c1.7-3.7,4.9-8.6,11.8-11.2c0.9-0.3,1.8-0.6,2.7-0.9h0
									c0,0,0,0,0,0c0,0,0,0,0,0c0,0,0.1,0,0.1,0c0.1,0,0.3-0.1,0.4-0.1c0.3-0.1,0.6-0.1,0.9-0.2c0.9-0.2,1.7-0.4,2.4-0.6
									c0.2-0.1,0.5-0.1,0.7-0.2c0.4-0.1,0.8-0.2,1.2-0.2c0.4-0.1,0.8-0.1,1.2-0.2c0.4-0.1,0.8-0.1,1.2-0.2
									c0.6-0.1,1.1-0.1,1.7-0.2c0.2,0,0.4,0,0.6-0.1c0.1,0,0.1,0,0.2,0c0.2,0,0.4,0,0.7,0c0.1,0,0.3,0,0.4,0c0.7,0,1.3-0.1,2-0.1
									h0.3c0.2,0,0.4,0,0.5,0c0.2,0,0.4,0,0.5,0c0.2,0,0.4,0,0.5,0c0.2,0,0.3,0,0.5,0c0.1,0,0.2,0,0.3,0c0.1,0,0.2,0,0.3,0
									c0.1,0,0.3,0,0.4,0c0.1,0,0.3,0,0.4,0c0.2,0,0.4,0.1,0.5,0.1c0.2,0,0.3,0,0.4,0.1c0.2,0,0.3,0,0.5,0.1
									c0.3,0.1,0.6,0.1,0.9,0.2c0.1,0,0.1,0,0.2,0c0.2,0,0.4,0.1,0.6,0.1c0.2,0,0.4,0.1,0.5,0.2c0.1,0,0.2,0.1,0.3,0.1
									c0.7,0.2,1.3,0.5,1.7,0.9c0,0,0.1,0.1,0.1,0.1c0.1,0.1,0.1,0.1,0.2,0.2c0.2,0.2,0.3,0.4,0.5,0.6c0,0.1,0.1,0.1,0.1,0.2
									c0,0.1,0.1,0.2,0.1,0.2c0,0.1,0,0.2,0.1,0.3c0.1,0.3,0,0.7-0.1,1.1c-0.2,0.7-0.5,1.3-0.8,1.8c-0.1,0.1-0.1,0.2-0.2,0.3
									c-0.2,0.3-0.5,0.6-0.7,0.9c-0.2,0.2-0.3,0.3-0.5,0.4c-1.3,1.2-3.1,1.9-4.8,2.5c-0.2,0.1-0.4,0.1-0.6,0.2
									c-0.2,0-0.3,0.1-0.5,0.1c0,0-0.1,0-0.1,0c-0.2,0.1-0.4,0.1-0.6,0.1c-0.4,0.1-0.7,0.2-1.1,0.2c0,0,0,0,0,0h0
									c-2,0.3-3.6,0.4-4.4,0.4c0,0,4.5,1.2,9.6,1.3h0.5c1.3,0,2.6-0.1,3.8-0.3c0.2,0,0.5-0.1,0.7-0.1c0.2-0.1,0.5-0.1,0.7-0.2
									c0.7-0.2,1.5-0.4,2.1-0.6c0.7-0.3,1.3-0.5,1.8-0.9c0,0,0,0,0,0c0.2-0.1,0.4-0.3,0.6-0.4c0.2-0.1,0.4-0.3,0.5-0.4
									s0.3-0.3,0.5-0.4c0,0,0,0,0,0c0,0,0,0,0,0c0.1,0.1,0.3,0.4,0.5,0.8c0.1,0.1,0.1,0.2,0.2,0.3c0.1,0.2,0.2,0.4,0.3,0.6
									c0.2,0.3,0.3,0.7,0.5,1c0,0,0,0.1,0.1,0.2c0.1,0.2,0.2,0.4,0.3,0.6c0.1,0.2,0.2,0.4,0.3,0.6c0.1,0.3,0.2,0.6,0.3,0.9
									c0,0.1,0.1,0.3,0.1,0.4c0.1,0.3,0.2,0.7,0.3,1c0,0,0,0.1,0,0.1c0.1,0.2,0.1,0.5,0.2,0.7c0.1,0.3,0.1,0.5,0.2,0.8
									c0,0.2,0.1,0.4,0.1,0.7c0,0.1,0,0.2,0,0.3c0,0.3,0.1,0.5,0.1,0.8c0,0.1,0,0.2,0,0.3c0,0.2,0,0.4,0.1,0.6c0,0.1,0,0.2,0,0.4
									c0,0.3,0,0.6,0,0.9c0,0.3,0,0.5,0,0.8c0,0,0,0,0,0c0,0.5,0,1-0.1,1.5c0,0.4-0.1,0.8-0.1,1.2c0,0.4-0.1,0.8-0.2,1.2
									c0,0.2-0.1,0.4-0.1,0.6c0,0.2-0.1,0.3-0.1,0.4c0,0.2-0.1,0.3-0.1,0.5c0,0.2-0.1,0.4-0.1,0.5c-0.1,0.3-0.2,0.6-0.3,0.8
									c-0.2,0.6-0.4,1.2-0.7,1.9c-0.1,0.2-0.2,0.5-0.3,0.7c-0.1,0.3-0.3,0.6-0.5,0.9c0,0,0,0,0,0c-0.2,0.3-0.3,0.6-0.5,0.9
									s-0.4,0.6-0.6,0.9c-0.2,0.3-0.4,0.6-0.6,0.9c-0.2,0.3-0.5,0.6-0.7,0.9c-1.5,2.1-3.5,4.1-6.1,6.2c0.4-0.1,8.2-2.2,13.9-8.7
									c1.7-1.9,3.1-4.1,4.2-6.8c0.4-0.9,0.7-1.8,0.9-2.8c0.1-0.3,0.1-0.5,0.2-0.8c0.1-0.3,0.1-0.5,0.2-0.8
									c0.1-0.5,0.2-1.1,0.3-1.6c0,0,8.2,2.9,12.6,15.1v2.4l3.7,1.3c0.3,0.1,0.7,0.3,1,0.4c0.4,0.2,0.9,0.4,1.3,0.6
									c0.1,0,0.3,0.1,0.4,0.2c0.1,0,0.2,0.1,0.4,0.2c0.3,0.1,0.6,0.3,0.9,0.4c0.8,0.4,1.5,0.8,2.3,1.3c0.4,0.3,0.8,0.5,1.2,0.8
									c0.3,0.2,0.5,0.4,0.8,0.6c0.2,0.1,0.3,0.2,0.5,0.3c0.3,0.3,0.6,0.5,1,0.8c0.2,0.2,0.4,0.4,0.6,0.6c0.1,0.1,0.2,0.2,0.3,0.3
									c0.1,0.1,0.2,0.2,0.3,0.3c0.1,0.1,0.2,0.2,0.3,0.3c0.3,0.3,0.7,0.7,1,1c0.2,0.3,0.5,0.5,0.7,0.8c0.2,0.2,0.4,0.5,0.6,0.7
									C214.2,117.7,214,117.5,213.8,117.3z"/>
								<path d="M227.1,137.7c0,20.3-16.4,36.7-36.7,36.7c-4.8,0-9.3-0.9-13.5-2.6c-0.1,2.8-0.3,5.9-0.4,10
									c-0.1,9.3-4.6,8.9-4.6,8.9s-10.4,0.4-17.2,0.7c-5.5,0.2-5.4-5.4-5.4-5.4v-12.2c-4.1,0.9-7.3,0.6-10-0.3
									c-2.3,0.4-4.7,0.7-7.1,0.7c-20.3,0-36.6-16.4-36.6-36.7c0-15.9,10.1-29.4,24.3-34.5V91.5c0.9,0.7,1.3,1.2,1.3,1.2l1.4-6
									l0.4,11.5l-0.9,6.5l-14.3,9.4l-8.3,13l-0.2,11.2l1.6,11.4l7.6,12.8l12.3,8.9l19.3,0.3l8.1-1l6.2-1.5l1-0.5l-5,3.2l0.7,15.1
									c0,0,4,2.9,4.9,3.2c0.9,0.3,15.6-1.1,15.6-1.1l0.6-1.6l1.7-0.1l0.7-11.3l1.1-10.7l-1.3-0.1l10.4-0.4l1.6-1.3l1-0.1l-4.7,5.4
									l12.1,3l22.4-16.1l3.8-18.1l-3.8-21.3l-8.1-7.8l-10.2-4.8l-1.9-17.3l-16.7-20.1l-4.7,4.4c-5.9-3.2-11.9-6.4-11.9-6.4
									l-25.9,3.3l-9.4,7.8l-5.6,10.3l1.1-5.1l6.8-11.7l-0.3-0.4c0.6-0.5,1.2-0.9,1.9-1.4c16.3-10.6,45.1-9.1,58.1,0
									c1.7,1.2,3.1,2.5,4.4,3.9c0,0,0,0,0,0c0.1,0.1,0.2,0.2,0.3,0.4c0.1,0.1,0.2,0.3,0.3,0.4c0.1,0.1,0.2,0.2,0.2,0.3
									c0.2,0.2,0.4,0.5,0.5,0.7c1.1,1.4,2,2.9,2.7,4.5c0.3,0.6,0.6,1.2,0.8,1.8v0c1.7,4,2.5,8.2,2.9,11.8c0,0.4,0.1,0.8,0.1,1.1
									v11.3C217,108.2,227.1,121.8,227.1,137.7z"/>
								<path d="M130.7,68.8L124,80.5l-1.4-1.1c0.6-1.6,1.4-3.2,2.4-4.7c0.8-1.3,1.8-2.6,2.9-3.8c0.8-0.8,1.7-1.7,2.6-2.4
									L130.7,68.8z"/>
								<path d="M194.5,105.3c0,0-3.8-6.6-7.9-7.3c0,0-0.4,12.1-24.3,21.5c0,0,0.5,0,1.3,0l-0.1,0c0,0,16.9,8.3,27.1,2.5
									c0,0-2.8,1.3-10.2,0.2c3.2-0.3,6.2-1.5,7.7-4.3c4.2-7.5,0.8-12-0.4-13.2c0.7-0.8,1.4-1.6,2.1-2.4L194.5,105.3z"/>
								<path d="M149,109l0.8-1l-0.6-0.8l-3.3-4.2l-0.5-10.3l-1.3,10.7l0,0.2l0.2,0.3l2,3.8l-2,1.7c-6.7-6.2-6.9-11.3-6.9-11.3
									c-4.1,0.7-7.9,7.3-7.9,7.3l4.6-3.2c0.7,0.9,1.4,1.7,2.1,2.4c-1.2,1.2-4.6,5.7-0.4,13.2c1.6,2.8,4.5,4,7.7,4.3
									c-7.4,1.1-10.2-0.2-10.2-0.2c10.2,5.8,27.1-2.5,27.1-2.5l-0.1,0c0.9,0.1,1.3,0,1.3,0c-6.5-2.5-11.2-5.3-14.7-8L149,109z"/>
							</g>
							<path class="st4" d="M150.5,118.1c-1.5,1.3-3.5,2.1-5.7,2.1c-4.8,0-8.8-3.9-8.8-8.8c0-1.8,0.6-3.5,1.5-4.9
								C140.1,110.2,144.1,114.7,150.5,118.1z"/>
							<path class="st4" d="M173.3,118.1c1.5,1.3,3.5,2.1,5.7,2.1c4.8,0,8.8-3.9,8.8-8.8c0-1.8-0.6-3.5-1.5-4.9
								C183.7,110.2,179.6,114.7,173.3,118.1z"/>
						</g>
						<path d="M140.7,108.3c0,0-2.5,4.2,0.7,6.7c3.2,2.5,5.4,0,5.4,0L140.7,108.3z"/>
						<path d="M183.1,108.3c0,0,2.5,4.2-0.7,6.7c-3.2,2.5-5.4,0-5.4,0L183.1,108.3z"/>
					</g>
					<g>
						<path class="st10" d="M165.6,73.3c-1.2,4.2-6,5.9-9.8,6.5c0,0,0,0,0,0l-0.3-0.1c11.7-7.1-0.9-8.8-14-8.9c0,0,0.1,0,0.1,0
							c0.4-0.1,0.8-0.2,1.3-0.3c1.2-0.2,2.2-0.5,3.1-0.7C156.5,67.7,166.8,69,165.6,73.3z"/>
						<path class="st10" d="M172.2,78.1c0,0,9.4,12.9-1.2,26.8c3.6-8.8-0.1-22.4-0.1-22.4c-5.1,1.1-8.5-0.2-10.1-1
							C165.1,81.6,169.6,80.9,172.2,78.1z"/>
						<path class="st10" d="M199.8,110c5.3,4.6-0.2,12.7-0.2,12.7c1.2-8.5-2.8-12.7-2.8-12.7c2,5.2-0.4,10.7-0.4,10.7
							c-2.5,3.1-6,4.8-9.6,5.6c1.6-1.4,2.9-2.8,3.9-4.3c0,0,0,0,0,0c4.8-7,2.3-14.1-1.2-19.3c0.2-0.2,0.3-0.4,0.5-0.5l4.6,3.2
							c0,0-3.8-6.6-7.9-7.3c0,0,0,0.3-0.1,0.9c-1.3-1.4-2.5-2.5-3.3-3.3c0.7-1.8,1.3-3.8,1.5-6c0,0,8.2,2.9,12.6,15.1v2.4l3.7,1.3
							c5.4,1.9,10.1,5.3,13.6,9.6C205.9,108.9,199.8,110,199.8,110z"/>
						<path class="st10" d="M213.7,149.1c0.4-10.1-10.3-13.5-10.3-13.5c13.7,16.7-0.4,25.8-0.4,25.8c2.6-5.4-0.4-9.1-0.4-9.1
							c-0.2,9-4.7,13-14.4,14.6c4-1,7.9-3.3,8.9-8.5c0.3-1.4,0.4-2.7,0.5-3.8c2.3-5.5,1.8-10.6,1.8-10.6c2.1,0,6.4,4,6.4,4
							c-1.5-10.5-8.7-15.5-13.6-17.8c1.2,0,2.5-0.1,3.8-0.2C215.5,128.5,213.7,149.1,213.7,149.1z"/>
					</g>
					<circle class="st9" cx="183.7" cy="112" r="1.3"/>
				</g>
				<circle class="st9" cx="139.7" cy="112" r="1.3"/>
			</g>
		</g>
	</g>
</g>
</svg>
