<?xml version="1.0" encoding="utf-8"?>
<!-- Generator: Adobe Illustrator 17.1.0, SVG Export Plug-In . SVG Version: 6.00 Build 0)  -->
<!DOCTYPE svg PUBLIC "-//W3C//DTD SVG 1.1//EN" "http://www.w3.org/Graphics/SVG/1.1/DTD/svg11.dtd">
<svg version="1.1" id="Capa_1" xmlns="http://www.w3.org/2000/svg" xmlns:xlink="http://www.w3.org/1999/xlink" x="0px" y="0px"
	 viewBox="0 0 234 215" enable-background="new 0 0 234 215" xml:space="preserve">
<g>
	<g>
		<path fill="#E5356B" d="M150.412,155.35c0.544,0.78,0.82,1.369,1.263,1.778c1.754,1.623,3.567,3.184,5.341,4.785
			c0.282,0.254,0.483,0.599,0.826,1.035c-9.053-0.123-17.867-0.881-26.907-2.674c1.083,1.388,2.333,1.95,3.592,2.418
			c4.229,1.572,8.621,2.497,13.101,2.915c3.607,0.337,7.231,0.487,10.849,0.701c1.557,0.092,2.703,0.582,3.714,1.997
			c5.254,7.357,8.94,15.402,11.152,24.148c1.4,5.535,2.309,11.137,2.41,16.858c0.011,0.629,0.137,1.256,0.243,2.167
			c-1.152-0.286-2.165-0.526-3.172-0.791c-7.061-1.86-13.567-5.039-19.979-8.431c-5.183-2.742-10.123-5.872-14.51-9.784
			c-2.916-2.6-5.839-5.218-8.505-8.066c-4.062-4.34-7.353-9.277-10.353-14.407c-3.318-5.674-5.54-11.832-7.769-17.961
			c-0.949-2.611-1.213-5.496-1.584-8.283c-0.32-2.402-0.511-4.845-0.476-7.266c0.071-4.896,0.635-9.748,2.101-14.448
			c1.357-4.352,2.484-8.806,4.225-13.003c3.415-8.231,6.962-16.432,12.459-23.581c4.585-5.964,9.644-11.509,15.168-16.598
			c7.885-7.264,16.506-13.532,26.149-18.291c3.848-1.899,7.706-3.847,11.731-5.298c7.52-2.712,15.179-5.057,23.132-6.161
			c4.998-0.694,10.024-1.213,15.05-1.679c3.013-0.279,6.049-0.309,9.076-0.441c0.351-0.015,0.705,0.028,1.201,0.051
			c-0.806,2.876-1.432,5.715-2.396,8.433c-2.34,6.599-4.592,13.247-7.348,19.675c-2.173,5.069-4.986,9.869-7.62,14.732
			c-3.268,6.033-7.183,11.657-11.435,17.023c-3.236,4.084-6.632,8.055-10.152,11.896c-2.688,2.933-5.669,5.598-8.561,8.338
			c-0.295,0.279-0.914,0.425-1.324,0.342c-6.7-1.356-13.449-2.312-20.297-1.918c-8.233,0.473-16.22,2.121-23.763,5.59
			c-0.099,0.046-0.181,0.128-0.26,0.331c13.794-2.977,27.624-3.746,41.755-0.904c-11.623,9.821-24.303,17.641-38.078,23.74
			c0.065,0.147,0.129,0.293,0.194,0.44c1.981-0.509,4.016-0.866,5.931-1.557c4.331-1.563,8.748-2.998,12.856-5.036
			c3.931-1.951,7.638-4.428,11.22-6.987c4.011-2.864,7.759-6.096,11.662-9.116c0.363-0.281,1.084-0.389,1.523-0.239
			c4.047,1.385,8.132,2.69,12.082,4.318c6.4,2.639,12.264,6.262,17.789,10.42c4.405,3.315,8.399,7.087,12.303,11.308
			c-2.023,0.909-3.909,1.819-5.842,2.613c-7.26,2.982-14.655,5.604-22.297,7.392c-5.838,1.366-11.746,2.468-17.662,3.455
			c-3.484,0.581-7.042,0.736-10.571,1.03c-2.221,0.185-4.449,0.292-6.675,0.38c-0.287,0.011-0.652-0.238-0.872-0.469
			c-2.946-3.099-6.729-4.917-10.445-6.832C151.437,155.326,151.128,155.393,150.412,155.35z"/>
		<path fill="#E5356B" d="M18.158,71.799c-1.637-1.109-3.502-2.15-5.109-3.498C3.796,60.539,0.948,47.879,5.747,36.268
			c2.681-6.486,6.967-11.815,12.036-16.553c6.939-6.486,14.831-11.339,24.102-13.75c6.529-1.697,13.16-2.237,19.821-1.158
			c3.958,0.641,7.836,1.769,11.761,2.627c0.618,0.135,1.359,0.173,1.936-0.037c6.91-2.518,14.009-4.178,21.317-5.018
			c5.491-0.631,10.988-0.911,16.493-0.419c5.871,0.526,11.683,1.418,17.391,2.969c9.69,2.634,18.696,6.737,27.018,12.343
			c9.207,6.201,17,13.86,23.469,22.872c0.228,0.317,0.41,0.668,0.726,1.187c-15.538,5.728-29.271,14.242-41.387,25.615
			c-0.45-0.539-0.915-1.054-1.333-1.605c-0.94-1.238-2.389-1.067-3.67-1.366c-0.399-0.093-0.792-0.214-1.206-0.422
			c4.895-1.27,6.631-5.058,8.012-9.669c-0.797,0.262-1.285,0.351-1.704,0.571c-3.981,2.093-7.539,0.389-10.031-2.414
			c-2.351-2.644-3.437-5.95-4.857-9.104c-3.296-7.323-8.724-12.024-16.909-13.096c-3.596-0.471-6.994-0.305-8.975,0.468
			c0.473,0.938,0.942,1.868,1.411,2.799c-0.076,0.05-0.152,0.101-0.227,0.151c-0.781-0.891-1.493-1.856-2.355-2.659
			c-2.334-2.174-4.635-4.402-7.131-6.379c-2.988-2.367-6.157-4.508-9.263-6.726c-2.139-1.528-4.667-2.136-7.112-2.942
			c-4.837-1.595-9.802-2.5-14.889-2.418c-7.398,0.119-14.499,1.707-21.3,4.663c-5.258,2.285-10.133,5.194-14.497,8.893
			c-5.075,4.302-9.366,9.27-11.653,15.636c-2.441,6.794-1.77,13.185,3.197,18.727c1.535,1.713,3.498,2.951,5.585,3.922
			c0.091-0.065,0.182-0.13,0.274-0.195c-0.137-0.414-0.261-0.834-0.413-1.242c-0.538-1.449-1.121-2.882-1.606-4.348
			c-0.144-0.435-0.022-0.958-0.022-1.63c2.515,2.069,4.741,4.044,7.118,5.817c2.397,1.787,5.014,3.222,8.011,3.678
			c0.587,1.376,0.26,2.537-0.591,3.602c-1.76,2.201-3.681,4.18-6.533,4.964c-0.277,0.076-0.653,0.549-0.637,0.816
			c0.127,2.028,0.834,3.822,2.592,4.987c1.646,1.09,1.93,2.037,0.891,3.734c-0.602,0.983-1.214,1.968-1.91,2.885
			c-0.517,0.681-0.372,1.135,0.223,1.618c2.047,1.662,2.071,1.681,0.933,3.987c-0.341,0.692-0.259,1.205,0.227,1.725
			c0.246,0.263,0.482,0.537,0.746,0.78c0.919,0.846,1.331,1.767,0.935,3.081c-0.329,1.091-0.387,2.269-0.508,3.414
			c-0.24,2.257,0.83,4.184,2.972,4.998c1.205,0.458,2.525,0.74,3.812,0.836c4.083,0.304,8.11-0.205,12.061-1.236
			c0.706-0.184,0.961,0.037,1.355,0.53c2.452,3.068,3.809,6.698,5.3,10.253c1.751,4.176,3.359,8.413,5.146,12.573
			c0.694,1.617,0.644,3.183,0.265,4.782c-1.356,5.714-2.808,11.404-5.251,16.776c-1.661,3.651-3.374,7.278-5.083,10.907
			c-0.824,1.75-1.272,1.859-2.728,0.676c-6.46-5.25-11.989-11.361-16.764-18.167c-5.416-7.721-9.52-16.085-12.28-25.101
			c-1.609-5.256-2.742-10.608-3.361-16.082c-0.653-5.776-0.978-11.557-0.395-17.34C16.778,81.312,17.522,76.596,18.158,71.799z"/>
	</g>
</g>
</svg>
