<?xml version="1.0" encoding="UTF-8" standalone="no"?>
<svg
   xmlns:dc="http://purl.org/dc/elements/1.1/"
   xmlns:cc="http://creativecommons.org/ns#"
   xmlns:rdf="http://www.w3.org/1999/02/22-rdf-syntax-ns#"
   xmlns:svg="http://www.w3.org/2000/svg"
   xmlns="http://www.w3.org/2000/svg"
   xmlns:sodipodi="http://sodipodi.sourceforge.net/DTD/sodipodi-0.dtd"
   xmlns:inkscape="http://www.inkscape.org/namespaces/inkscape"
   viewBox="0 0 500 500"
   version="1.1"
   id="svg4"
   sodipodi:docname="comment-dots-solid.svg"
   inkscape:version="0.92.5 (2060ec1f9f, 2020-04-08)">
  <metadata
     id="metadata10">
    <rdf:RDF>
      <cc:Work
         rdf:about="">
        <dc:format>image/svg+xml</dc:format>
        <dc:type
           rdf:resource="http://purl.org/dc/dcmitype/StillImage" />
        <dc:title></dc:title>
      </cc:Work>
    </rdf:RDF>
  </metadata>
  <defs
     id="defs8" />
  <sodipodi:namedview
     pagecolor="#ffffff"
     bordercolor="#666666"
     borderopacity="1"
     objecttolerance="10"
     gridtolerance="10"
     guidetolerance="10"
     inkscape:pageopacity="0"
     inkscape:pageshadow="2"
     inkscape:window-width="640"
     inkscape:window-height="480"
     id="namedview6"
     showgrid="false"
     inkscape:zoom="0.4609375"
     inkscape:cx="256"
     inkscape:cy="256"
     inkscape:window-x="0"
     inkscape:window-y="24"
     inkscape:window-maximized="0"
     inkscape:current-layer="svg4" />
  <!--! Font Awesome Pro 6.2.1 by @fontawesome - https://fontawesome.com License - https://fontawesome.com/license (Commercial License) Copyright 2022 Fonticons, Inc. -->
  <path
     d="m 250.74345,415.61155 c 128.81908,0 233.22266,-79.57759 233.22266,-177.78882 0,-98.21123 -104.40358,-177.788832 -233.22266,-177.788832 -128.81907,0 -233.222649,79.577602 -233.222649,177.788832 0,38.5494 16.12516,74.19264 43.45594,103.33975 -1.73095,20.94147 -10.385697,39.57511 -19.495956,53.76402 -5.010643,7.86374 -10.112388,14.18892 -13.847596,18.46269 -1.913154,2.13689 -3.370795,3.76092 -4.464026,4.8721 -0.546617,0.51285 -0.911027,0.94023 -1.184334,1.19666 l -0.273308,0.25642 v 0 0 0 0 c -4.19072,3.93187 -5.375053,9.74419 -3.097489,14.87272 2.277566,5.12852 7.561516,8.46207 13.483185,8.46207 26.146445,0 52.475097,-7.60732 74.339713,-16.49676 20.86251,-8.54754 38.62752,-18.71911 49.46872,-26.15547 28.97063,9.82967 61.03874,15.3001 94.8378,15.3001 z M 134.13212,265.17485 c -16.12515,0 -29.15283,-12.22298 -29.15283,-27.35212 0,-15.12915 13.02768,-27.35213 29.15283,-27.35213 16.12517,0 29.15284,12.22298 29.15284,27.35213 0,15.12914 -13.02767,27.35212 -29.15284,27.35212 z m 116.61133,0 c -16.12515,0 -29.15283,-12.22298 -29.15283,-27.35212 0,-15.12915 13.02768,-27.35213 29.15283,-27.35213 16.12517,0 29.15284,12.22298 29.15284,27.35213 0,15.12914 -13.02767,27.35212 -29.15284,27.35212 z m 145.76417,-27.35212 c 0,15.12914 -13.02768,27.35212 -29.15283,27.35212 -16.12517,0 -29.15283,-12.22298 -29.15283,-27.35212 0,-15.12915 13.02766,-27.35213 29.15283,-27.35213 16.12515,0 29.15283,12.22298 29.15283,27.35213 z"
     id="path2"
     inkscape:connector-curvature="0"
     style="stroke-width:0.88244158" />
</svg>
