<?xml version="1.0" encoding="UTF-8" standalone="no"?>
<svg
   xmlns:dc="http://purl.org/dc/elements/1.1/"
   xmlns:cc="http://creativecommons.org/ns#"
   xmlns:rdf="http://www.w3.org/1999/02/22-rdf-syntax-ns#"
   xmlns:svg="http://www.w3.org/2000/svg"
   xmlns="http://www.w3.org/2000/svg"
   xmlns:sodipodi="http://sodipodi.sourceforge.net/DTD/sodipodi-0.dtd"
   xmlns:inkscape="http://www.inkscape.org/namespaces/inkscape"
   viewBox="0 0 500 500"
   version="1.1"
   id="svg4"
   sodipodi:docname="github.svg"
   inkscape:version="0.92.5 (2060ec1f9f, 2020-04-08)">
  <metadata
     id="metadata10">
    <rdf:RDF>
      <cc:Work
         rdf:about="">
        <dc:format>image/svg+xml</dc:format>
        <dc:type
           rdf:resource="http://purl.org/dc/dcmitype/StillImage" />
        <dc:title></dc:title>
      </cc:Work>
    </rdf:RDF>
  </metadata>
  <defs
     id="defs8" />
  <sodipodi:namedview
     pagecolor="#ffffff"
     bordercolor="#666666"
     borderopacity="1"
     objecttolerance="10"
     gridtolerance="10"
     guidetolerance="10"
     inkscape:pageopacity="0"
     inkscape:pageshadow="2"
     inkscape:window-width="640"
     inkscape:window-height="480"
     id="namedview6"
     showgrid="false"
     inkscape:zoom="0.4609375"
     inkscape:cx="248"
     inkscape:cy="256"
     inkscape:window-x="0"
     inkscape:window-y="24"
     inkscape:window-maximized="0"
     inkscape:current-layer="svg4" />
  <!--! Font Awesome Pro 6.2.0 by @fontawesome - https://fontawesome.com License - https://fontawesome.com/license (Commercial License) Copyright 2022 Fonticons, Inc. -->
  <path
     d="m 174.87233,386.9866 c 0,1.84254 -2.11891,3.31657 -4.79059,3.31657 -3.04019,0.27637 -5.1591,-1.19766 -5.1591,-3.31657 0,-1.84254 2.11891,-3.31657 4.79059,-3.31657 2.76381,-0.27638 5.1591,1.19765 5.1591,3.31657 z m -28.65144,-4.14571 c -0.64489,1.84254 1.19764,3.96145 3.96145,4.51422 2.3953,0.92126 5.1591,0 5.71187,-1.84254 0.55275,-1.84254 -1.19766,-3.96146 -3.96146,-4.7906 -2.3953,-0.64489 -5.06697,0.27638 -5.71186,2.11892 z m 40.72006,-1.56615 c -2.67168,0.64488 -4.51421,2.39529 -4.23784,4.51421 0.27639,1.84254 2.67168,3.04019 5.43549,2.3953 2.67168,-0.64489 4.51422,-2.3953 4.23783,-4.23784 -0.27638,-1.75041 -2.7638,-2.94806 -5.43548,-2.67167 z M 247.56041,28.244654 c -127.77993,0 -225.526512,97.009576 -225.526512,224.789506 0,102.16868 64.304538,189.59705 156.155002,220.36742 11.79224,2.11891 15.93795,-5.1591 15.93795,-11.14735 0,-5.71186 -0.27639,-37.21925 -0.27639,-56.56588 0,0 -64.48879,13.81903 -78.03143,-27.45381 0,0 -10.50246,-26.8089 -25.611266,-33.71842 0,0 -21.097048,-14.46391 1.474029,-14.18754 0,0 22.939577,1.84254 35.560957,23.76873 20.17578,35.56097 53.98633,25.33489 67.16047,19.25451 2.11892,-14.74029 8.10717,-24.96637 14.7403,-31.04675 -51.49891,-5.71186 -103.45844,-13.17413 -103.45844,-101.80015 0,-25.33489 7.00163,-38.04839 21.74193,-54.26272 -2.3953,-5.98824 -10.22608,-30.67824 2.3953,-62.55412 19.2545,-5.98825 63.56752,24.87424 63.56752,24.87424 18.42537,-5.1591 38.23264,-7.83078 57.85566,-7.83078 19.62302,0 39.43029,2.67168 57.85566,7.83078 0,0 44.31301,-30.95462 63.56752,-24.87424 12.62138,31.96801 4.79059,56.56588 2.3953,62.55412 14.74029,16.30645 23.76872,29.01996 23.76872,54.26272 0,88.9024 -54.2627,95.99617 -105.76161,101.80015 8.47567,7.27803 15.66156,21.09706 15.66156,42.74687 0,31.04674 -0.27638,69.46363 -0.27638,77.01803 0,5.98825 4.23783,13.26627 15.93795,11.14735 92.12684,-30.58611 154.58884,-118.01448 154.58884,-220.18316 0,-127.77993 -103.6427,-224.789506 -231.42264,-224.789506 z M 111.58119,345.99015 c -1.19765,0.92127 -0.92127,3.04018 0.64489,4.7906 1.47403,1.47403 3.59295,2.11892 4.7906,0.92127 1.19764,-0.92127 0.92126,-3.04019 -0.64489,-4.7906 -1.47403,-1.47403 -3.59295,-2.11892 -4.7906,-0.92127 z m -9.9497,-7.46228 c -0.64489,1.19766 0.27638,2.67169 2.11892,3.59295 1.47403,0.92127 3.31656,0.64489 3.96145,-0.64489 0.64489,-1.19764 -0.27638,-2.67167 -2.11892,-3.59294 -1.84253,-0.55276 -3.31656,-0.27638 -3.96145,0.64488 z m 29.8491,32.79716 c -1.47403,1.19765 -0.92127,3.96146 1.19765,5.71187 2.11891,2.11892 4.79059,2.3953 5.98825,0.92127 1.19764,-1.19766 0.64488,-3.96146 -1.19766,-5.71187 -2.02679,-2.11891 -4.79059,-2.3953 -5.98824,-0.92127 z m -10.50246,-13.54264 c -1.47403,0.92126 -1.47403,3.31657 0,5.43548 1.47403,2.11892 3.96145,3.04018 5.1591,2.11892 1.47403,-1.19765 1.47403,-3.59295 0,-5.71186 -1.28977,-2.11892 -3.68507,-3.04019 -5.1591,-1.84254 z"
     id="path2"
     inkscape:connector-curvature="0"
     style="stroke-width:0.92126846" />
</svg>
