<svg id="Layer_1" data-name="Layer 1" xmlns="http://www.w3.org/2000/svg" viewBox="0 0 400 400"><defs><style>.cls-1{fill:#f4d2a7;}.cls-2{fill:#9a7868;}.cls-3{fill:#383838;}.cls-4{fill:#5b5b5b;}.cls-5{fill:#7c7c7c;}.cls-6{fill:#212121;}.cls-7{fill:#494949;}.cls-8{fill:#f49338;}.cls-9{fill:#ba512a;}.cls-10{fill:#f7b57f;}.cls-11{fill:#fff;}</style></defs><title>Ant</title><path d="M238.25,264.51a36.69,36.69,0,0,1,.27,5.2,35.9,35.9,0,0,1-1.28,8.85,35.73,35.73,0,0,1-6.7,13.09L209,318.4l-26.74-21.53a35.73,35.73,0,0,1-9.34-11.36,35.9,35.9,0,0,1-3.14-8.37,36.69,36.69,0,0,1-.84-5.14,36,36,0,0,1,7.83-26l21.53-26.75L225,240.76A36,36,0,0,1,238.25,264.51Z"/><path class="cls-1" d="M226.69,288.55l-7.76,9.63-10.68,13.26L185.35,293a31.22,31.22,0,0,1-6-42.21c.41-.59.84-1.18,1.3-1.74l18.43-22.89,22.89,18.43a31.25,31.25,0,0,1,4.75,43.95Z"/><path class="cls-2" d="M226.69,288.55l-7.76,9.63a26.09,26.09,0,0,1-11.59-.71c-16.64-4.87-25-24.06-25-24.06-.9,1.72-3.83,3.59-7,5.22a31.2,31.2,0,0,1,4-27.83L231,256.36A31.25,31.25,0,0,1,226.69,288.55Z"/><path d="M206.92,299.13a134.47,134.47,0,0,1-21.06.64l6.32,5.09a140.74,140.74,0,0,0,30.36-3.28l5.09-6.32A134.47,134.47,0,0,1,206.92,299.13Z"/><path d="M205.51,286a128.62,128.62,0,0,1-32.59-.5,36.34,36.34,0,0,0,3.5,5.44A139,139,0,0,0,235,284.63a36.34,36.34,0,0,0,2.26-6.06A128.61,128.61,0,0,1,205.51,286Z"/><path d="M204.09,272.9a127.53,127.53,0,0,1-35.16-.91,36.69,36.69,0,0,0,.84,5.14,137.4,137.4,0,0,0,68.74-7.42,36.69,36.69,0,0,0-.27-5.2A127.53,127.53,0,0,1,204.09,272.9Z"/><polygon points="204.95 314.75 209.99 327.9 212.1 313.98 204.95 314.75"/><path d="M219.78,297s-4.29,1.15-13.1.58a5.61,5.61,0,0,0,2.14.74s-13.27,2.47-17.31,1.07S198,303.9,198,303.9l5.85-2.14,8.82-1.24,6.92-1.81,1.32-1.15.08-1Z"/><path d="M216.9,301.84s-5.19,3.79-6.76,4.7a4.56,4.56,0,0,0,1.4-.08s-2.47,4.2-4.12,5.6,1.9,2.31,1.9,2.31l3-2.64,5.69-7.17,2.72-3.71Z"/><path d="M183.15,290a16,16,0,0,0,11.25,6.43,8,8,0,0,1-3.4-.12,13.76,13.76,0,0,0,9.46,2,18.76,18.76,0,0,1-10.69-.25c-5.25-1.92-9.52-8.65-9.27-8.65S183.15,290,183.15,290Z"/><path d="M174.87,275.47s1,5.93,5,8.49a17,17,0,0,1-2.06-.82s1.65,3.54,15.82,2.47c0,0-10.22,3.3-15.41,1.81s-5.6-11-5.6-11Z"/><path d="M201.65,303.07a10,10,0,0,0,3.46,4.29,15.29,15.29,0,0,1-2.8-1.57s3.21,3.13,5.69,3.87a16,16,0,0,1-6.18-1.73,8.2,8.2,0,0,1-3.21-3.79s.91-1.73,1.15-1.73A16.42,16.42,0,0,1,201.65,303.07Z"/><path d="M218.81,193.24c-.61,1.54-6.44,21-6.44,21L226.82,219l8-10.74s-2.12-9.28-3.31-9.41S218.81,193.24,218.81,193.24Z"/><path d="M153.56,252.44s-5.4-4-4.72-4,5-.81,5-.81l3.51-2.29.94.81.27,1.75Z"/><path d="M171,190.34s6.42-1.91,7.78-5.05L229,174.5l8.3,7.76-5,16.82-27,16L183,220l-15.16-15.84Z"/><path d="M132.89,208.1a30.6,30.6,0,0,0,4.84,5c.94.83,1.83,1.62,2.62,2.45.36.37.73.79,1.13,1.23,1.59,1.77,3.38,3.75,5.61,4.7a73.47,73.47,0,0,0,1.81,9.86c.55,2.19,1,4.35,1.4,6.45s.9,4.54,1.51,6.9a2.69,2.69,0,0,0,1.73,2.06l.78.28c1.82.65,3.15,1.12,4.12,2.36.38.76.73,1.43,1.07,2a1.39,1.39,0,0,0,.19.35c.92,1.69,1.86,3.31,2.79,4.81.54,2.8,2.58,5,4.56,7.16a32.83,32.83,0,0,1,2.49,2.91c2.14,3,7,8.08,11.56,8.4l.43,0a11.8,11.8,0,0,0,3.89-.89l.79-.27a38.47,38.47,0,0,0,3.85-1.56,43.22,43.22,0,0,0,3,3.92c.5.73,1,1.49,1.44,2.24a24.68,24.68,0,0,0,3.65,4.9,22.3,22.3,0,0,0,3.91,2.76,28.36,28.36,0,0,1,2.83,1.86c3.54,2.77,7.2,5.63,10.52,5.63a5.18,5.18,0,0,0,2.63-.69c4.7-2.72,17.62-12.63,19.47-14.92a23.16,23.16,0,0,0,3-5.83c.16-.35.29-.67.4-1a40,40,0,0,0,1.94-11.3c.38-1.25,2.72-9,3.16-11.18a43,43,0,0,0,.55-7.06,1.4,1.4,0,0,0,.05-.18,47.67,47.67,0,0,0,.6-8.28l.89.43c2.82,1.37,6,2.93,9.24,2.93a9,9,0,0,0,2.48-.34,14.7,14.7,0,0,0,4.38-2.37c1.92-1.56,8.14-12.06,8.71-16.49a52.91,52.91,0,0,0,1.6-6,59.46,59.46,0,0,0,1.08-8.38,1.4,1.4,0,0,0-.58-1.22c-.84-.6-8.35-5.9-13.71-6.45-2.79-.29-5.58-.46-8.31-.51l-1.77,0a74.23,74.23,0,0,0-8.5.46c-1.72.2-3.36.46-4.89.79a4.82,4.82,0,0,0-1.5-2.29c-1.89-1.58-4.88-1.86-7.06-2.06h-.16l-1.15-.11c-1.56-.15-3.18-.31-4.8-.31a18.15,18.15,0,0,0-4.76.58l-.11,0c-1.78.48-5.11,1.37-5.47,4.18-.21,1.61.65,3.08,2.55,4.36.36.24.75.48,1.23.74a30.92,30.92,0,0,0,6.68,3.68c.49.21,1,.4,1.45.56q-.05.41-.07.82a52.06,52.06,0,0,0-8.56-1.22,7.26,7.26,0,0,0-.95,0c-1,0-2.34.09-3.48.18a1.4,1.4,0,0,0-.29,0l-.88,0c-2.81,0-10.23.59-11.19,1a10.12,10.12,0,0,1-4.66,1.29l-.37,0c-1-.27-1.9-.57-2.89-.89a35.17,35.17,0,0,0-11.28-2.2c-.57,0-1.15,0-1.73.06a88.43,88.43,0,0,0-15.71,2.73A15.4,15.4,0,0,0,163,205a1.4,1.4,0,0,0-.42-1.08l-.28-.27c-1-1-2.3-2.24-3.72-3.45-2.9-2.47-5.36-3.84-7.51-4.19a29.32,29.32,0,0,0-3.78-.34h-.49l-1,0-.58,0a54.46,54.46,0,0,0-13.09,2.19l-.36.09-.52.14a1.4,1.4,0,0,0-1,1.33A14.19,14.19,0,0,0,132.89,208.1Z"/><path class="cls-3" d="M190,221.85c3.09,2.09,3.93,4.63,4.27,8.24s3.25,9.59,3.59,13.18a48.4,48.4,0,0,1-1.72,19.25c2.14,1,3.38,2,5.63,0,2.75-2.45.5-7.73,2.75-13.41,1.86-4.67,4.64-9.29,3-15.73-1-3.8.07-7.81-1.63-12.75,6.21,1.71,7,5.08,9.59,10.73,1.53,3.3,2.75,6.73,4.29,10a64.62,64.62,0,0,0,5.6,9c2.37,3.48,2.11,6.81,2.07,10.82,0,2.65,3.87,8.32,5.71,10.36s3.78,2,5.58,1.24a17.09,17.09,0,0,0,.89-2,39.05,39.05,0,0,0,1.87-11.07c.68-2.24,2.78-9.21,3.17-11.2,1.19-6,.08-22.48,0-36-8.65-1.83-19.66-4.74-28.45-5.7-5.23-.57-18.56,2.79-19.43,3.2-5.63-.25-9.07-2.37-12.38-3.19a26.08,26.08,0,0,0-7-.28,22.56,22.56,0,0,0,1.85,6.15C181.63,217.47,185.91,219,190,221.85Z"/><path d="M153.18,230.32c2.53-.63,4.61,1.14,6.44.56,1.55-.49,2.93-2.38,4.2-3.25,2.77-1.89,3.18-.56,6.18-1.19,3.39-.71,8.54-1.53,11.45-.79.37-.27.73-.51,1.07-.71,1.07-.63,2.85-3.16,4-3.77.46-.24.93-.47,1.4-.68-3.42-2.08-6.69-3.85-8.61-7.81a22.56,22.56,0,0,1-1.85-6.15c-9.71.58-26.86,5-29.37,9.05A67.55,67.55,0,0,0,150.26,231C150.4,230.94,153.07,230.35,153.18,230.32Z"/><path class="cls-3" d="M170,226.45c-3,.63-3.41-.7-6.18,1.19-1.27.87-2.64,2.76-4.2,3.25-1.83.58-3.91-1.19-6.44-.56-.11,0-2.78.61-2.92.68,1.15,4.58,1.75,8.86,2.93,13.43,2.15-1.19,8.75-2.84,10.32-4.57,4.5-4.92,2.67-7.36,11.84-9.52,1.11-.26,3.74-3,6.09-4.69C178.54,224.91,173.39,225.74,170,226.45Z"/><path class="cls-4" d="M182.52,224.94c-2.57,1.51-5.89,5.1-7.17,5.4-9.17,2.17-7.33,4.6-11.84,9.52-1.57,1.72-4,2.9-6.11,4.09a90.09,90.09,0,0,0,14.14,22.65c2.18,2.53,4.61,5.49,8.22,5.69,3.22.18,6.72-1.48,9.55-3.27a40,40,0,0,0,6.87-6.5,48.4,48.4,0,0,0,1.72-19.25c-.34-3.59-3.25-9.59-3.59-13.18s-1.18-6.15-4.27-8.24c-.71-.48-1.42-.92-2.12-1.35-.47.21-.94.43-1.4.68C185.37,221.78,183.59,224.32,182.52,224.94Z"/><path class="cls-4" d="M199.52,281.24a67.71,67.71,0,0,0,6.31,5.44c2.9,2.19,7.22,6.36,11.17,4.73,2.41-1,4.62-3.17,6.71-4.68,2.47-1.78,5-3.52,7.37-5.39a26.92,26.92,0,0,0,7.7-8.59c-1.8.81-3.63.91-5.58-1.24s-5.74-7.7-5.71-10.36c0-4,.3-7.34-2.07-10.82l-1-1.52C213.78,253.72,201.28,268.7,199.52,281.24Z"/><path class="cls-5" d="M193.12,263.91a9.16,9.16,0,0,0,1-.18,53.43,53.43,0,0,1-6.45,4.39l-.12.06-.86,0A19.79,19.79,0,0,0,193.12,263.91ZM175,267.12a9.47,9.47,0,0,1-2.92-1.94c-.14-.14-.26-.28-.4-.42A28.93,28.93,0,0,0,175,267.12Z"/><path d="M171.47,209.82c2.49.36,7.72,3.24,8.09,3.89a14.13,14.13,0,0,0,8.37,6.79c0-3.07-4.35-5-5.15-5.66-.36-.34-.29-2.6.88-3s3.66,1,4.7,1.75c3.22,2.3,5.67,1.5,8.69,3.78,1.18.89.49,4.45,4.25,7.56,3.24,2.68,5,9.09,6,17.34,2.23-6.12,1-14.95-.43-25.09,2.23-2.07,2.64-6.42,4.11-9.1a16.79,16.79,0,0,0,3.6,5.44c2.7,2.74,5.46,3.15,8.85,4.36,5.36,1.91,6.82,8.28,9.28,13,1.33,2.56,6.94,11.06,12.64,10.38,1.31-6.33,0-26.63-.06-29-5.38-.73-22.56-5.72-29.23-5.81-2-.36-18.73,1.45-19.67,3-5.67-1.17-10.52-4.07-17.84-3.58-9.08.61-20.53,3.81-22.81,5.24C161.35,213.84,166.86,210.4,171.47,209.82Z"/><path d="M199.14,282.41c1.84,1.75,4.52,2.88,6.64,4.53,4.24,3.32,8.5,6.62,11.59,4.83,4.65-2.69,17.37-12.46,19.08-14.59a21.73,21.73,0,0,0,2.82-5.44,6.42,6.42,0,0,1-2.65.23c-2.82-.91-4.32-3-6-5.62-1.88-2.9-1.76-5.69-2-8.9a16.52,16.52,0,0,0-.69-2.68c-1-4-3.49-5.28-5.48-8.8a10.21,10.21,0,0,0,2.51,6.58c1,1,.53,4.67.1,6.16s-1.15,3-.53,4.64c.87,2.3,3.69,3.82,5,5.92,1.67,2.72,2.25,6,.63,8.93a10.09,10.09,0,0,1-1.84,2.27q-2.78,2.17-5.51,4.41c-2.21,1.8-4.34,3.92-7.25,4.34a9,9,0,0,1-3.62-.28c-2.71-1.18-5.34-3.22-7.36-4.47a22.14,22.14,0,0,1-5-3.59c-1.58-1.67-3.32-4-5.39-5.44C195.9,277.9,197.21,280.57,199.14,282.41Z"/><path d="M170.66,265.85c2.28,3.16,6.78,7.56,10.52,7.82a12.33,12.33,0,0,0,4.58-1.08,58.35,58.35,0,0,0,13.52-7.16c2.9-2.18,4.66-4.49,4.1-8.42-1.1,1.77-4.17,1.3-3.86-1.06.69-5.38-.1-13.38-2.94-17.91-1.14,5.25,1.47,8.54.95,12.88a38,38,0,0,1-2,9.12c-1.26,3.07-3.55,4-6.12,5.54a37.69,37.69,0,0,1-5.07,2.89c-4.6,1.84-8.1.32-11.64-2.66s-5.91-6.44-8.89-9.73C164.39,259.81,168.33,262.62,170.66,265.85Z"/><path d="M154,245.43c3.1,1.13,5.41,1.63,6.79,5.5-.21-5,.89-5.7,2-6.34,2.6-.74,8-1.52,10-2.61,2.25-1.24,1.57-2.22,2.14-4.12.78-2.65,2.88-5.81,5.36-6.86,2.75-1.16,4.25-3.91,4.22-8a14.51,14.51,0,0,1-6.7,4.71c-3.19.92-6.37,1.78-8.55,3.24s-4.65,2.71-5.42,3.26c-3,2.12-1.43,4.57-1.8,4.75-2.75,1.33-5-.49-6.31,1.75-.59,1-1.94,2.27-2.46,3.31A1.12,1.12,0,0,0,154,245.43Z"/><path d="M198.93,212c2,.24,2.76.37,4.12,2a48.59,48.59,0,0,1,4.34,7c-.54-5.51-1.86-7.49-2.27-9.51.92-2.17,4.68-3.69,6.25-5.05a73.67,73.67,0,0,0-11.42.88c-2.68,1.23-2.81,1.17-5.74,1.47C194.2,211.76,197.45,211.84,198.93,212Z"/><path d="M230.19,208.9c.92,2.17,6.3,4.42,8,5.7.94.68,1,3.25,4.16,3.79.75,3.51,1.06,9.63,3.5,11.3-.13-3.61-.28-14.18-.64-17.75C242.85,211.17,235,210,230.19,208.9Z"/><path class="cls-4" d="M153.39,217.08c-1-.72-3.95-.9-5-1.52-1.73-1-1.64-3.06-3.3-5.6-2.65-4-4.83-4.2-11.06-2.67,2.06,2.89,5,4.92,7.33,7.3s4.87,6,8.33,6.05a7.84,7.84,0,0,0,3.46-.23,6.1,6.1,0,0,0,1.86-1.33c0-.06,0-.1,0-.15A3.65,3.65,0,0,0,153.39,217.08Z"/><path class="cls-3" d="M138.62,204.86c-1.47.29-3.32.67-4.59-.07-1-.6-1.38-3.9-1.51-4.9,0-.21,0-.43-.06-.65l-.87.23a12.73,12.73,0,0,0,2.43,7.83c6.23-1.53,8.41-1.37,11.06,2.67,1.66,2.54,1.58,4.59,3.3,5.6,1.06.62,4,.81,5,1.52a3.65,3.65,0,0,1,1.61,1.84c0,.06,0,.1,0,.15a15.3,15.3,0,0,0,1.71-2.11,35.67,35.67,0,0,0,2.14-3.51,19.15,19.15,0,0,1-5.35-2.83c-2.12-1.81-5.73-3.42-6.06-6.22A33.75,33.75,0,0,1,147,197c-.59,0-1.22,0-1.83,0-.07,1.4-1.47,2.85-2.87,5.06A6.66,6.66,0,0,1,138.62,204.86Z"/><path d="M132.52,199.89c.13,1,.47,4.31,1.51,4.9,1.27.73,3.12.36,4.59.07a6.66,6.66,0,0,0,3.73-2.7c1.4-2.21,2.8-3.66,2.87-5.06a53.39,53.39,0,0,0-12.75,2.14C132.48,199.45,132.49,199.68,132.52,199.89Z"/><path class="cls-6" d="M150.68,206.4c-1.95-.37-2.48-.43-3.24-2.08v.09c.33,2.81,3.94,4.42,6.06,6.22a19.15,19.15,0,0,0,5.35,2.83,21.54,21.54,0,0,0,2.75-8.54c-1-1-2.41-2.37-3.93-3.66-.1.92-.78,4.82-1.64,5.55C154.68,207.95,152,206.66,150.68,206.4Z"/><path d="M147.44,204.31c.76,1.65,1.29,1.71,3.24,2.08,1.37.26,4,1.55,5.35.41.87-.73,1.54-4.63,1.64-5.55-2.14-1.82-4.57-3.51-6.83-3.87a28.06,28.06,0,0,0-3.6-.32H147c0,.57-.16,1.07-.16,1.6A39.37,39.37,0,0,0,147.44,204.31Z"/><path d="M135.83,206.87c1,.09,3,0,4,.15,2.6.44,3.14,1.75,3.3,2a20.3,20.3,0,0,1,2.85,4.16c.33.64.43,2.28,1.09,2.58.22.1,1.67.69,2.2.94s2.09.29,3,.92a2.7,2.7,0,0,1,.94,2c-.05.48-1.68,1.11-1.56,1.12,1.56.13,2.28-.38,3.55-1.81.46-.52-1.79-2.13-1.85-2.14-1.22-.78-4-1.13-4.61-1.94-.73-1-.17-2.75.22-3.86a13.32,13.32,0,0,0,.5-5.44c-.48-1.44-1.2-.9-1.46-1.13-.62-.54-.2-3-1-3.94-.11,1,.28,4.59-.85,5.92-.33.39-1.08.21-3.29,0C140.9,206.22,139.91,205.49,135.83,206.87Z"/><path class="cls-7" d="M226.75,210.07A35.54,35.54,0,0,0,233,221.31a27.94,27.94,0,0,0,3.17,3,4,4,0,0,1,.88-.24c.66-.22,1.3-.48,1.94-.74a.38.38,0,0,1,.34,0l.11-.06a.49.49,0,0,1,.61.47,5.88,5.88,0,0,1-.28,1.56,6.45,6.45,0,0,0-.13,1.56c2.07,1.38,4.24,2.63,6.3,3.78,4,2.22,12.88,7.1,17.75,1.06,2.46-6.05.67-14.82-1.75-19.79a28.91,28.91,0,0,0-19-15.25c-6,.69-10.62,2.13-13.57,4.06C226,203,225.44,206.44,226.75,210.07Z"/><path class="cls-6" d="M266.21,209.43c-2.3-1.78-3.22-4.81-5.46-6.71-3.37-2.87-5.74-4.86-7.73-6.46a75.38,75.38,0,0,0-10.08.43,28.91,28.91,0,0,1,19,15.25c2.42,5,4.21,13.74,1.75,19.79a9.9,9.9,0,0,0,.82-1.18,45.69,45.69,0,0,0,8.72-19.42,4,4,0,0,1-.64.2C270.41,211.82,267.88,210.72,266.21,209.43Z"/><path d="M261.23,196.76c-2.87-.29-5.6-.45-8.2-.5,2,1.6,4.36,3.59,7.73,6.46,2.23,1.9,3.15,4.93,5.46,6.71,1.67,1.29,4.2,2.39,6.36,1.91a4,4,0,0,0,.64-.2,57.89,57.89,0,0,0,1.05-8.18C272.42,201.63,265.8,197.23,261.23,196.76Z"/><path class="cls-4" d="M241.36,227.08c1.48,2,4.7,3.16,6.92,4a24.63,24.63,0,0,0,10,1.88c1.27-.06,5.2-2.19,4.68-3,2.12-4.4-.3-5.82-2.18-11.3-1.71-5-4.29-8.73-8.56-5-2.25,1.93-6.81,6.18-9.35,7.65C239.31,223.38,239.87,225.07,241.36,227.08Z"/><path d="M230.63,218.19a23.54,23.54,0,0,0,5.91,6.91A25.4,25.4,0,0,1,239,224a23.92,23.92,0,0,0,.08,3.05,59.05,59.05,0,0,0,7.91,4.54c3.7,1.69,8.37,4.57,12.54,3.37a13.37,13.37,0,0,0,3.88-2.11c1.66-1.35,7.68-11.49,8.21-15.6-1.32,2.72-4.52,7.77-5.61,6.48-.87-1-1.65-6.33-2.26-8.16C261.21,208,253,197.67,244.29,197a56.56,56.56,0,0,1,6.76,3.57c4.81,3,8.24,8.51,10.12,14,1.33,3.93,2.64,9.47.57,13.39a7.18,7.18,0,0,1-7.07,3.91c-3.37-.23-8.89-3.11-10.86-4s-3.64-1.41-2.85-4.16a13.86,13.86,0,0,1,1.92-2.54c-1.6,0-4.19,1.31-5.85,1.54C236.59,222.29,232.81,218.06,230.63,218.19Z"/><path class="cls-3" d="M220,195.66c.24,0,0,1.31.23,1.44a16,16,0,0,0,2.37,1c1.63.61,3.77.4,5.47.65a43.16,43.16,0,0,1,7.5,1.89c-1.18-.23-1.6.37-1.46.63-1.36,2.43-2,3.73-4.84,3.48-3.65-.32-7.09-2.05-10.22-3.82-.7-.4-1.86-.92-2.86-1.6-.1-.64-.3-1.37-.32-1.81C215.83,196.13,218.92,195.44,220,195.66Z"/><path class="cls-6" d="M214.26,196.28c.25-1.93,3.07-2.64,4.55-3,3.42-.92,6.81-.43,10.23-.12,2,.18,4.85.41,6.45,1.75a3.9,3.9,0,0,1,.4,5.31,45.48,45.48,0,0,0-7.79-1.48c-1.7-.25-3.83,0-5.47-.65a16,16,0,0,1-2.37-1c-.24-.13,0-1.39-.23-1.44-1.11-.22-4.2.47-4.15,1.82,0,.45.21,1.18.32,1.81C215.05,198.52,214.1,197.54,214.26,196.28Z"/><path class="cls-4" d="M233.24,202.76c-2.23-.82-4.41-2.69-6.76-3.09-1.19-.2-3.36-.07-4.32-.84a4.31,4.31,0,0,0-1.9-1.73c1.59-1,4.79.45,6.58.71a32.76,32.76,0,0,1,4,.3,18.28,18.28,0,0,1,5,2.08c-.29.64-1.34.72-1.76,1A9.2,9.2,0,0,1,233.24,202.76Z"/><path d="M232.47,203.78c-2.2,2.39-7.13.44-8.59-.19a29.34,29.34,0,0,1-6.44-3.56c-.84-.69,1.06.17,1.31.26,2,.75,4.94,2.41,7,3.07C227,203.75,231.73,203.22,232.47,203.78Z"/><path d="M223.61,217.09c-2.84-9.39-1.78-14.25-.66-19.4.93-4.3,1.9-8.74.39-15.46l-.22-1-.86-.49L217.41,178l-1.8-1-1.16,1.72L206.19,191l-1,1.53,1.3,1.3s2.84,2.95,1.47,5.62A40.36,40.36,0,0,0,204.7,208l-1.2,5.28,3.37-2.14c0,4.55,1.29,6.74,1.47,7l1.33,2.12,1.5-1.19a18.33,18.33,0,0,1,.69,8.7l-1.09,4.89,4.3-2.42a6.72,6.72,0,0,1-1.12,4.91,14.4,14.4,0,0,1-3.43,3.68L201.82,245l10.4-2.11c2.18-.44,7.59-2,10.7-7.23C225.7,231,225.93,224.77,223.61,217.09Z"/><path class="cls-8" d="M209.46,206.68c-1.16,7.29.76,10.37.76,10.37h0a5.72,5.72,0,0,0,1.47-2.24l.08.15A21,21,0,0,1,214,228.34a3.45,3.45,0,0,0,1.72-1.93c.15.22.28.44.4.65a9,9,0,0,1,1.17,3.36c.71,5.77-5.19,10.06-5.54,10.31,4.22-.85,15.12-5,9.69-23s2.81-21.09-.32-35l-4.86-2.77-8,11.85-.31.45a10.09,10.09,0,0,1,1.58,2.22,6.32,6.32,0,0,1,.29,6,38.52,38.52,0,0,0-3,8.07C207.66,208,209.46,206.68,209.46,206.68Z"/><path class="cls-9" d="M209.46,206.68c-1.16,7.29.76,10.37.76,10.37h0c-.19-11.4,2.35-12.55,2.35-12.55a9.47,9.47,0,0,0-2.66,1.1c2.87-2.08,3.38-6.83,3.38-6.83a3.59,3.59,0,0,1,1.62,1.17l-.4-1.77-5.32-6.23-.84-.15-.31.45a10.09,10.09,0,0,1,1.58,2.22,6.32,6.32,0,0,1,.29,6,38.52,38.52,0,0,0-3,8.07C207.66,208,209.46,206.68,209.46,206.68Z"/><path class="cls-9" d="M208,192.25a10.09,10.09,0,0,1,1.58,2.22l-.46,3.93s7.15-5.84,10.7-6.88a114.64,114.64,0,0,1-2.94,12.15c-1.52,4.15.93,11.36.93,11.36a15.25,15.25,0,0,1,1.37-4.51,24.88,24.88,0,0,0,1.57,10c2,5,.86,12.44-3.09,15.83.11-.19,1.5-2.59-.37-5.9.71,5.77-5.19,10.06-5.54,10.31,4.22-.85,15.12-5,9.69-23s2.81-21.09-.32-35l-4.86-2.77Z"/><path class="cls-10" d="M214,228.34a3.45,3.45,0,0,0,1.72-1.93c.15.22.28.44.4.65a11.53,11.53,0,0,0,.09-6.92c.45,4-1.31,5.73-1.31,5.73.91-4.25-1.42-9.61-1.42-9.61a11.19,11.19,0,0,0-1.73-7.46,11.44,11.44,0,0,1,0,6.16A21,21,0,0,1,214,228.34Z"/><path d="M210.23,217s2.71-1.64,1.56-8.25A13.32,13.32,0,0,1,212,219Z"/><path d="M214,228.34s3.44-1.32,2.22-8.21c0,0,2.36,5.53-.34,9.25Z"/><path d="M220.63,198.54c-1.75,7-4.72,10.66-2.7,16.67a16,16,0,0,1,2.5-9.45l1.21-7.29Z"/><path d="M179,217.09c2.84-9.39,1.78-14.25.66-19.4-.93-4.3-1.9-8.74-.39-15.46l.22-1,.86-.49L185.2,178l1.8-1,1.16,1.72,8.26,12.3,1,1.53-1.3,1.3s-2.84,2.95-1.47,5.62A40.36,40.36,0,0,1,197.9,208l1.2,5.28-3.37-2.14c0,4.55-1.29,6.74-1.47,7l-1.33,2.12-1.5-1.19a18.33,18.33,0,0,0-.69,8.7l1.09,4.89-4.3-2.42a6.72,6.72,0,0,0,1.12,4.91,14.4,14.4,0,0,0,3.43,3.68l8.67,6.12-10.4-2.11c-2.18-.44-7.59-2-10.7-7.23C176.9,231,176.67,224.77,179,217.09Z"/><path class="cls-8" d="M193.14,206.68c1.16,7.29-.76,10.37-.76,10.37h0a5.72,5.72,0,0,1-1.47-2.24l-.08.15a21,21,0,0,0-2.24,13.38,3.45,3.45,0,0,1-1.72-1.93c-.15.22-.28.44-.4.65a9,9,0,0,0-1.17,3.36c-.71,5.77,5.19,10.06,5.54,10.31-4.22-.85-15.12-5-9.69-23s-2.81-21.09.32-35l4.86-2.77,8,11.85.31.45a10.09,10.09,0,0,0-1.58,2.22,6.32,6.32,0,0,0-.29,6,38.52,38.52,0,0,1,3,8.07C194.95,208,193.14,206.68,193.14,206.68Z"/><path class="cls-9" d="M193.14,206.68c1.16,7.29-.76,10.37-.76,10.37h0c.19-11.4-2.35-12.55-2.35-12.55a9.47,9.47,0,0,1,2.66,1.1c-2.87-2.08-3.38-6.83-3.38-6.83a3.59,3.59,0,0,0-1.62,1.17l.4-1.77,5.32-6.23.84-.15.31.45a10.09,10.09,0,0,0-1.58,2.22,6.32,6.32,0,0,0-.29,6,38.52,38.52,0,0,1,3,8.07C194.95,208,193.14,206.68,193.14,206.68Z"/><path class="cls-9" d="M194.56,192.25a10.09,10.09,0,0,0-1.58,2.22l.46,3.93s-7.15-5.84-10.7-6.88a114.64,114.64,0,0,0,2.94,12.15c1.52,4.15-.93,11.36-.93,11.36a15.25,15.25,0,0,0-1.37-4.51,24.88,24.88,0,0,1-1.57,10c-2,5-.86,12.44,3.09,15.83-.11-.19-1.5-2.59.37-5.9-.71,5.77,5.19,10.06,5.54,10.31-4.22-.85-15.12-5-9.69-23s-2.81-21.09.32-35l4.86-2.77Z"/><path class="cls-10" d="M188.58,228.34a3.45,3.45,0,0,1-1.72-1.93c-.15.22-.28.44-.4.65a11.53,11.53,0,0,1-.09-6.92c-.45,4,1.31,5.73,1.31,5.73-.91-4.25,1.42-9.61,1.42-9.61a11.19,11.19,0,0,1,1.73-7.46,11.44,11.44,0,0,0,0,6.16A21,21,0,0,0,188.58,228.34Z"/><path d="M192.37,217s-2.71-1.64-1.56-8.25a13.32,13.32,0,0,0-.2,10.19Z"/><path d="M188.58,228.34s-3.44-1.32-2.22-8.21c0,0-2.36,5.53.34,9.25Z"/><path d="M182,198.54c1.75,7,4.72,10.66,2.7,16.67a16,16,0,0,0-2.5-9.45L181,198.47Z"/><path d="M301.18,142.41c-6.75-8.28-20.09-17.29-40.79-27.55-14-6.92-20.23-8.87-20.49-8.95a7.38,7.38,0,0,1-1.94-.11h-.16a2.42,2.42,0,0,0-.82.19c-14.82,5.94-24.23,20.95-28.92,30.5a32.55,32.55,0,0,0-6.45-.73h-.68a32.55,32.55,0,0,0-6.45.73c-4.7-9.56-14.13-24.6-29-30.52a13.13,13.13,0,0,1-2.16-.17,2.43,2.43,0,0,0-.71.11c-.26.08-6.51,2-20.49,8.95-20.7,10.26-34,19.27-40.79,27.55-5.83,7.15-7.4,10.4-6.22,12.88.48,1,1.61,2.2,4.28,2.2a18.08,18.08,0,0,0,3.13-.34c7.2-1.3,26.68-15,34-25.11,6.48-9,20.2-14.26,26.05-16.51l.17-.06a2.42,2.42,0,0,0,.81.55c.11,0,11.5,5,21.28,23.88q-1,.53-2,1.11a5.84,5.84,0,0,0-7.29-.27l-7.92,5.86a5.86,5.86,0,0,0-1.27,8.09,1.44,1.44,0,0,1,.26,1c-.75,6.89-1.2,16,.95,20,3,5.59,24.5,21.9,29.6,25.11a2.43,2.43,0,0,0,3.51-3.06,3.2,3.2,0,0,1,.26-3,2.43,2.43,0,0,0,.36-.58,2.43,2.43,0,0,0,.36.58,3.23,3.23,0,0,1,.26,3,2.43,2.43,0,0,0,3.51,3.06c5.11-3.21,26.63-19.52,29.6-25.11,2.15-4,1.7-13.1.95-20a1.44,1.44,0,0,1,.26-1,5.86,5.86,0,0,0-1.27-8.09L227,140.74a5.84,5.84,0,0,0-7.29.27q-1-.59-2-1.11C227.49,121,238.88,116.06,239,116a2.43,2.43,0,0,0,.8-.55l.17.07c5.86,2.25,19.57,7.52,26.05,16.51,7.3,10.12,26.78,23.82,34,25.11a18.08,18.08,0,0,0,3.13.34c2.67,0,3.8-1.2,4.28-2.2C308.58,152.81,307,149.56,301.18,142.41Z"/><path class="cls-1" d="M234.24,153.27a3.85,3.85,0,0,0-.7,2.68c.43,3.93,1.38,14.72-.68,18.59-2.53,4.75-23.28,20.75-28.75,24.19,0,0,1.42-3.13-.61-5.56a1.79,1.79,0,0,1,1.42,1.21s.31-2.13-3.64-4c-4,1.92-3.64,4-3.64,4a1.79,1.79,0,0,1,1.42-1.21c-2,2.43-.61,5.56-.61,5.56-2.86-1.8-9.9-7-16.32-12.29-5.86-4.8-11.22-9.63-12.43-11.9-1.83-3.44-1.28-12.39-.83-17.08.06-.57.11-1.08.15-1.51a3.85,3.85,0,0,0-.7-2.68,3.41,3.41,0,0,1,.74-4.72l7.92-5.86a3.41,3.41,0,0,1,4.7.62,1.22,1.22,0,0,0,1.61.27,35.33,35.33,0,0,1,9-4c1.21-.35,2.34-.61,3.36-.79a27.54,27.54,0,0,1,5.6-.54,34.5,34.5,0,0,1,18,5.38,1.2,1.2,0,0,0,1.6-.27,3.41,3.41,0,0,1,4.7-.62l7.92,5.86a3.4,3.4,0,0,1,.74,4.72Z"/><path class="cls-2" d="M206.4,181.31a19.91,19.91,0,0,0,4.25,2s-8-3.34-5.31-11.39a4.4,4.4,0,0,0,2.73,3s10-12.22,11.81-21l-2,10.11-7.19,11-2.23,3,1.42,2.63,4.66,2.68,2.28,1.82-.51.91-5.37-1.06-3.19-1.82A8.78,8.78,0,0,1,206.4,181.31Z"/><path class="cls-2" d="M196.14,181.31a19.91,19.91,0,0,1-4.25,2s8-3.34,5.31-11.39a4.4,4.4,0,0,1-2.73,3s-10-12.22-11.81-21l2,10.11,7.19,11,2.23,3-1.42,2.63L188,183.38l-2.28,1.82.51.91,5.37-1.06,3.19-1.82A8.78,8.78,0,0,0,196.14,181.31Z"/><path class="cls-2" d="M208.23,177.82,210,180l4.72,3.37,5.72,3.09c5.86-4.8,11.22-9.63,12.43-11.9,1.83-3.44,1.28-12.39.83-17.08l-1-1.17-4-2.83a14.37,14.37,0,0,1,3.71,8.84,7.62,7.62,0,0,0-3.24-2.49c5.59,7.86,1.73,14.85,1.43,15.36.57-1-.15-3.07-.15-3.07-.61,5.13-8.16,9.31-8.16,9.31-2-1.21-7.22-2.1-7.22-2.1,3.93.27,8.24-3.41,8.5-3.64A36.16,36.16,0,0,1,208.23,177.82Z"/><path class="cls-2" d="M194.32,177.82,192.56,180l-4.72,3.37-5.72,3.09c-5.86-4.8-11.22-9.63-12.43-11.9-1.83-3.44-1.28-12.39-.83-17.08l1-1.17,4-2.83a14.37,14.37,0,0,0-3.71,8.84,7.62,7.62,0,0,1,3.24-2.49c-5.59,7.86-1.73,14.85-1.43,15.36-.57-1,.15-3.07.15-3.07.61,5.13,8.16,9.31,8.16,9.31,2-1.21,7.22-2.1,7.22-2.1-3.93.27-8.24-3.41-8.5-3.64A36.16,36.16,0,0,0,194.32,177.82Z"/><path d="M187.88,184.86a8.53,8.53,0,0,0-3.65,4.41l-4.68-4.12c1-1.24,2.71-1.19,4.67-1.7,3.74-1,8.82-4.56,8.82-4.56s-12.59-2.83-17-6.27a6.4,6.4,0,0,0,2.82.29s-6-2.61-5.3-8.74a9.67,9.67,0,0,1,5.75-8,5.92,5.92,0,0,0-4.85,2.3,7,7,0,0,1,8.21-4.54s3.13,12.47,11.8,22.48a4.87,4.87,0,0,0,2.17-1.79S197.37,179.26,187.88,184.86Z"/><path d="M223.7,172.91a6.4,6.4,0,0,0,2.82-.29c-4.42,3.44-17,6.27-17,6.27s5.08,3.59,8.82,4.56c2.2.57,4.1.45,5,2.24l-4.81,4.21a8.7,8.7,0,0,0-3.87-5c-9.49-5.6-8.74-10.23-8.74-10.23a4.87,4.87,0,0,0,2.16,1.79c8.67-10,11.8-22.48,11.8-22.48a7,7,0,0,1,8.21,4.54,5.92,5.92,0,0,0-4.85-2.3,9.67,9.67,0,0,1,5.76,8C229.68,170.3,223.7,172.91,223.7,172.91Z"/><path class="cls-11" d="M180.85,171.17a6.67,6.67,0,0,1-5.35-6.82,7.15,7.15,0,0,1,2.54-5.56c-.07.73-.11,1.48-.11,2.26C177.92,165.32,179.09,169.06,180.85,171.17Z"/><path class="cls-11" d="M221.79,171.17a6.67,6.67,0,0,0,5.35-6.82,7.15,7.15,0,0,0-2.54-5.56c.07.73.11,1.48.11,2.26C224.71,165.32,223.55,169.06,221.79,171.17Z"/><path class="cls-1" d="M194.84,186.72s-9.51,11.86,2.81,20.28c0,0-3.08-6.16-.18-11l-1.09-3.35Z"/><path class="cls-1" d="M207.88,186.72s9.51,11.86-2.81,20.28c0,0,3.08-6.16.18-11l1.09-3.35Z"/><path class="cls-2" d="M197.47,196a6,6,0,0,0-2.69,4.69,6.89,6.89,0,0,1,.4-6.68,3.77,3.77,0,0,0-1.87,2.28,18,18,0,0,1,1.53-9.52l-2.75,4.11-.91,4.35.4,4.4,3,5.62,2.53.91-.81-7.49.4-1.57Z"/><path class="cls-2" d="M189.87,148c-1.82-.4-4.19-3.37-4.19-3.37-3.1.06-9.18,6.29-9.18,6.29a60.5,60.5,0,0,1,3.39-7.39c-1.82-.91-11.26,5.86-12.19,8.24a3.4,3.4,0,0,1,1.34-3.26l7.92-5.86a3.41,3.41,0,0,1,4.7.62,1.22,1.22,0,0,0,1.61.27,36.21,36.21,0,0,1,3.68-2Z"/><path class="cls-1" d="M208.09,184.3l-.1,1.11-7.19,3-7.19-3-.1-1.11s7.29-1.26,7.29-5.22C200.8,183,208.09,184.3,208.09,184.3Z"/><path d="M186,142s-4.88,2.23-9.47,8.91c0,0,.91-6.14,5.47-9.18C183.69,140.63,186,142,186,142Z"/><path d="M184.12,188.92c7.89-3.34,10.74-4.21,12-7.61,0,0-2.94,3.7-10.43,4.4a35,35,0,0,0-2.61,2.57Z"/><path d="M217.94,188.92c-7.89-3.34-10.74-4.21-12-7.61,0,0,2.94,3.7,10.43,4.4a35,35,0,0,1,2.61,2.57Z"/><path d="M194.39,187.9c3.23-5.29-7.88,8.87-6.7,12,0,0,1.09-2.17,2-2.54,0,0,2.08,9.14,9.78,11.86,0,0-4.26-7.33-2-13.31,0,0-3.17,2.9-1.36,8.33C196.11,204.28,188.68,197.22,194.39,187.9Z"/><path class="cls-2" d="M205.26,196a6,6,0,0,1,2.69,4.69,6.89,6.89,0,0,0-.4-6.68,3.77,3.77,0,0,1,1.87,2.28,18,18,0,0,0-1.53-9.52l2.75,4.11.91,4.35-.4,4.4-3,5.62-2.53.91.81-7.49-.4-1.57Z"/><path d="M208.33,187.9c-3.23-5.29,7.88,8.87,6.7,12,0,0-1.09-2.17-2-2.54,0,0-2.08,9.14-9.78,11.86,0,0,4.26-7.33,2-13.31,0,0,3.17,2.9,1.36,8.33C206.61,204.28,214,197.22,208.33,187.9Z"/><path class="cls-2" d="M210,139.53l-.49,4-8.36,5.17-8.36-5.17-.49-4c1.21-.35,2.34-.61,3.36-.79a15.36,15.36,0,0,1,2.7,3.31s2.28,1.06,2.79,2.43c.51-1.37,2.79-2.43,2.79-2.43a15.36,15.36,0,0,1,2.7-3.31C207.66,138.92,208.79,139.18,210,139.53Z"/><path class="cls-2" d="M201.43,173.05h0c-3-1.83-9.31-11.4-8.07-16.05l.11.45c.88,4.71,3.57,6.23,3.57,6.23-.52-1.11.41-3.24.41-3.24a5.7,5.7,0,0,0,4,5.57,5.7,5.7,0,0,0,4-5.57s.93,2.13.41,3.24c0,0,2.69-1.51,3.57-6.22l.11-.46C210.74,161.67,204.48,171.23,201.43,173.05Z"/><path d="M208.48,163.19l-.43.74a14.46,14.46,0,0,1-3.94,5.05,5.29,5.29,0,0,0,.87-3.18c-.4,2.38-3.56,3.17-3.57,3.18s-3.18-.8-3.57-3.18a5.29,5.29,0,0,0,.87,3.18,14.46,14.46,0,0,1-3.94-5.05l-.43-.74a18.77,18.77,0,0,0,7.07,11.2h0A18.77,18.77,0,0,0,208.48,163.19Z"/><path class="cls-2" d="M212.7,148c1.82-.4,4.19-3.37,4.19-3.37,3.1.06,9.18,6.29,9.18,6.29a60.5,60.5,0,0,0-3.39-7.39c1.82-.91,11.26,5.86,12.19,8.24a3.4,3.4,0,0,0-1.34-3.26l-7.92-5.86a3.41,3.41,0,0,0-4.7.62,1.22,1.22,0,0,1-1.61.27,36.21,36.21,0,0,0-3.68-2Z"/><path class="cls-9" d="M199.9,148.48a13.55,13.55,0,0,1-3.46,2.75c1.21-2.45,2.24-4.79-1-6.51C196.75,144.57,199.29,146.47,199.9,148.48Z"/><path d="M307.41,155.28c-.48,1-1.6,2.2-4.28,2.2a18.15,18.15,0,0,1-3.13-.34c-5-.89-15.72-7.65-24.34-15.09h0l0,0,0,0A63.06,63.06,0,0,1,266,132c-6.49-9-20.2-14.26-26.05-16.51l-.17-.06a2.44,2.44,0,0,1-.8.55c-.14.06-14.32,6.28-24.65,31.12a7.45,7.45,0,0,1-.8,5.81,5.7,5.7,0,0,1-4.95,2.26,12.83,12.83,0,0,1-2.74-.33,8.09,8.09,0,0,1-4.58-2.42,8.14,8.14,0,0,1-4.58,2.42,12.83,12.83,0,0,1-2.74.33,5.7,5.7,0,0,1-4.95-2.26,7.45,7.45,0,0,1-.8-5.81c-10.33-24.84-24.52-31.06-24.64-31.12a2.28,2.28,0,0,1-.82-.55l-.16.06C156.73,117.78,143,123,136.53,132a62.55,62.55,0,0,1-9.61,10l0,0c-8.61,7.44-19.38,14.21-24.34,15.1a18.15,18.15,0,0,1-3.13.34c-2.67,0-3.8-1.2-4.28-2.2-1.17-2.47.4-5.72,6.22-12.88,6.75-8.28,20.09-17.29,40.79-27.54,14-6.92,20.22-8.87,20.48-8.95a2.41,2.41,0,0,1,1.35,0,2.31,2.31,0,0,1,.62-.09,2.46,2.46,0,0,1,.9.17c19.08,7.6,29.13,30.1,31.68,36.58a3.42,3.42,0,0,0-1.21.5c2.14-.81,4.81,2.15,5.25,2.64l.06.07v0l0,0s3-3.6,5.3-2.71a3.35,3.35,0,0,0-1.24-.5c2.54-6.48,12.59-28.94,31.63-36.56a2.29,2.29,0,0,1,.82-.19H238a2,2,0,0,1,.59.09,2.44,2.44,0,0,1,.64-.09,2.41,2.41,0,0,1,.71.11c.26.08,6.51,2,20.48,8.95,20.7,10.25,34,19.27,40.79,27.54C307,149.57,308.58,152.81,307.41,155.28Z"/><path class="cls-8" d="M207,145.08s9.81-28.42,30.93-36.84c0,0-1.26,4.78.13,5.53,0,0-15.34,6.29-26.28,33.19,0,0,2.51,7.29-5.41,5.53S204.75,144.2,207,145.08Z"/><path class="cls-8" d="M239.2,108.23s6.16,1.89,20.12,8.8,31.69,16.72,40,26.91,7.42,11.95,1.13,10.81S275.16,140.55,268,130.62,245.74,115.15,240.2,113C240.2,113,237.56,111.76,239.2,108.23Z"/><path class="cls-9" d="M162.35,113c-.73.28-1.62.62-2.63,1,2.48-1.9,3.74-3.71,2.79-5.52.57-.2.84-.28.84-.28C165,111.76,162.35,113,162.35,113Z"/><path class="cls-8" d="M196.17,152.49c-5,1.13-5.85-1.42-5.77-3.42v0a8,8,0,0,1,.37-2.1c-10.94-26.9-26.28-33.2-26.28-33.2,1.38-.75.12-5.53.12-5.53a38.29,38.29,0,0,1,8.6,4.85c15.19,11.23,22.26,31.63,22.26,31.63,1.29-.15,3.83,1.76,4.44,3.77C200.38,150.06,199.66,151.71,196.17,152.49Z"/><path class="cls-8" d="M162.35,113l-2.15.83-.48.19c-6.72,2.64-18.93,8-25.15,16.59a44.05,44.05,0,0,1-3.73,4.41,91.23,91.23,0,0,1-9.89,8.76l-.14.11a103.41,103.41,0,0,1-10.62,7.23,32.18,32.18,0,0,1-7.65,3.55l-.42.09c-4.41.79-6.16.16-3.93-3.82.14-.26.31-.53.49-.83a62.81,62.81,0,0,1,4.58-6.16c8.3-10.19,26-20,40-26.91a179.43,179.43,0,0,1,19.28-8.52c.57-.2.84-.28.84-.28C165,111.76,162.35,113,162.35,113Z"/><path d="M192.09,135c-3.37-5.8-7.76-7.22-7.76-7.22s7.29,6.68,9.79,12.28l-1.75-5.53Z"/><path class="cls-9" d="M130.84,135a90.46,90.46,0,0,1-10,8.87c-1.79-.23-4.66-.93-5.79-3.06A27.38,27.38,0,0,0,130.84,135Z"/><path class="cls-9" d="M162.35,113l-2.15.83c.61-1.08,1.64-3.23.11-3.18-2,.07-23.42,9.72-29.22,14.11s-5.26,9.18-5.26,9.18c-2.16-1.42-1.09-5.6-1.09-5.6s-3.17,1-13.63,9.24-11.48,14.65-8.1,15.32l-1.08.14a3.6,3.6,0,0,1-3.74-2.11c.14-.26.31-.53.49-.83a62.81,62.81,0,0,1,4.58-6.16c8.3-10.19,26-20,40-26.91a179.43,179.43,0,0,1,19.28-8.52c.57-.2.84-.28.84-.28C165,111.76,162.35,113,162.35,113Z"/><path d="M135.12,119.93c-5.82,3.29-9.56,10.09-9.56,10.09a6.69,6.69,0,0,1,2-5.83C130.21,121.66,135.12,119.93,135.12,119.93Z"/><path d="M102.4,145c-4.59,5.4-2.91,8.25.61,7.95,0,0-5.67,2.29-5.33-2.7A5.23,5.23,0,0,1,102.4,145Z"/><path class="cls-10" d="M120.95,143.79l-.14.11a103.41,103.41,0,0,1-10.62,7.23,32.18,32.18,0,0,1-7.65,3.55c7.28-3,14-9.3,14-9.3-1.62-1.21-1.51-4.54-1.51-4.54C115.94,142.61,118.53,143.42,120.95,143.79Z"/><path d="M132.16,135.37S121.43,146.7,115,140.83c0,0,1.82,6.48,8.77,2.83s.27-.13.27-.13l5.87-5.13,2.83-2.7Z"/><path class="cls-9" d="M194.52,144.31s-3.21,2-4.13,4.75a8,8,0,0,1,.37-2.1c-10.94-26.9-26.28-33.2-26.28-33.2,1.38-.75.12-5.53.12-5.53a38.29,38.29,0,0,1,8.6,4.85l-.6,0s-2.87-1.52-4.67-1.32a2.19,2.19,0,0,1,1.59-.61,28.83,28.83,0,0,0-3.5-1.47s.61,2.58.11,3.8c0,0,8,5.05,9.66,7.84a4,4,0,0,0-.75-3.09,14,14,0,0,1,5.92,9.47,66,66,0,0,1,9.87,16.85A9.48,9.48,0,0,1,194.52,144.31Z"/><path d="M191.39,152c-2.2-2.58,0-5.39,2.26-7,0,0-3.64.81-4.52,2.83S191.39,152,191.39,152Z"/><path d="M180.71,130.14a27,27,0,0,0-3.95-8.86,21.49,21.49,0,0,1,1,5.72Z"/><path d="M175,113.23s-4.93-2.29-7-1.42a28.51,28.51,0,0,1,11.34,5.87l-3.44-4.18Z"/><path d="M198,145.49c2.83,2.33-1.52,5.74-1.52,5.74s4.42-1.32,4-3.88S198,145.49,198,145.49Z"/><path class="cls-8" d="M206.37,152.49c5,1.13,5.85-1.42,5.77-3.42v0a8,8,0,0,0-.37-2.1c10.94-26.9,26.28-33.2,26.28-33.2-1.38-.75-.12-5.53-.12-5.53a38.29,38.29,0,0,0-8.6,4.85c-15.19,11.23-22.26,31.63-22.26,31.63-1.29-.15-3.83,1.76-4.44,3.77C202.16,150.06,202.88,151.71,206.37,152.49Z"/><path class="cls-8" d="M240.19,113l2.15.83.48.19c6.72,2.64,18.93,8,25.15,16.59A44.05,44.05,0,0,0,271.7,135a91.23,91.23,0,0,0,9.89,8.76l.14.11a103.41,103.41,0,0,0,10.62,7.23,32.18,32.18,0,0,0,7.65,3.55l.42.09c4.41.79,6.16.16,3.93-3.82-.14-.26-.31-.53-.49-.83a62.81,62.81,0,0,0-4.58-6.16c-8.3-10.19-26-20-40-26.91A179.43,179.43,0,0,0,240,108.52c-.57-.2-.84-.28-.84-.28C237.55,111.76,240.19,113,240.19,113Z"/><path d="M210.44,135c3.37-5.8,7.76-7.22,7.76-7.22s-7.29,6.68-9.79,12.28l1.75-5.53Z"/><path class="cls-9" d="M271.7,135a90.46,90.46,0,0,0,10,8.87c1.79-.23,4.66-.93,5.79-3.06A27.38,27.38,0,0,1,271.7,135Z"/><path class="cls-9" d="M240.19,113l2.15.83c-.61-1.08-1.64-3.23-.11-3.18,2,.07,23.42,9.72,29.22,14.11s5.26,9.18,5.26,9.18c2.16-1.42,1.09-5.6,1.09-5.6s3.17,1,13.63,9.24,11.48,14.65,8.1,15.32l1.08.14a3.6,3.6,0,0,0,3.74-2.11c-.14-.26-.31-.53-.49-.83a62.81,62.81,0,0,0-4.58-6.16c-8.3-10.19-26-20-40-26.91A179.43,179.43,0,0,0,240,108.52c-.57-.2-.84-.28-.84-.28C237.55,111.76,240.19,113,240.19,113Z"/><path d="M267.42,119.93C273.23,123.22,277,130,277,130a6.69,6.69,0,0,0-2-5.83C272.33,121.66,267.42,119.93,267.42,119.93Z"/><path d="M300.14,145c4.59,5.4,2.91,8.25-.61,7.95,0,0,5.67,2.29,5.33-2.7A5.23,5.23,0,0,0,300.14,145Z"/><path class="cls-10" d="M281.59,143.79l.14.11a103.41,103.41,0,0,0,10.62,7.23,32.18,32.18,0,0,0,7.65,3.55c-7.28-3-14-9.3-14-9.3,1.62-1.21,1.51-4.54,1.51-4.54C286.59,142.61,284,143.42,281.59,143.79Z"/><path d="M270.37,135.37s10.73,11.34,17.14,5.47c0,0-1.82,6.48-8.77,2.83s-.27-.13-.27-.13l-5.87-5.13-2.83-2.7Z"/><path class="cls-9" d="M208,144.31s3.21,2,4.13,4.75a8,8,0,0,0-.37-2.1c10.94-26.9,26.28-33.2,26.28-33.2-1.38-.75-.12-5.53-.12-5.53a38.29,38.29,0,0,0-8.6,4.85l.6,0s2.87-1.52,4.67-1.32a2.19,2.19,0,0,0-1.59-.61,28.83,28.83,0,0,1,3.5-1.47s-.61,2.58-.11,3.8c0,0-8,5.05-9.66,7.84a4,4,0,0,1,.75-3.09,14,14,0,0,0-5.92,9.47,66,66,0,0,0-9.87,16.85A9.48,9.48,0,0,0,208,144.31Z"/><path d="M211.15,152c2.2-2.58,0-5.39-2.26-7,0,0,3.64.81,4.52,2.83S211.15,152,211.15,152Z"/><path d="M221.83,130.14a27,27,0,0,1,3.95-8.86,21.49,21.49,0,0,0-1,5.72Z"/><path d="M227.58,113.23s4.93-2.29,7-1.42a28.51,28.51,0,0,0-11.34,5.87l3.44-4.18Z"/><path d="M204.57,145.49c-2.83,2.33,1.52,5.74,1.52,5.74s-4.42-1.32-4-3.88S204.57,145.49,204.57,145.49Z"/><path class="cls-2" d="M203.09,155.26a17.45,17.45,0,0,0,5.31,1.8,5,5,0,0,1-1.9-2.43l-.48-.13-4.76-2.79h0l-4.76,2.79-.48.13a5,5,0,0,1-1.9,2.43,17.45,17.45,0,0,0,5.31-1.8,2.76,2.76,0,0,1-1.49,1.27,4.13,4.13,0,0,0,3.33-2.53,4.13,4.13,0,0,0,3.33,2.53A2.76,2.76,0,0,1,203.09,155.26Z"/><path d="M216.59,142s4.88,2.23,9.47,8.91c0,0-.91-6.14-5.47-9.18C218.87,140.63,216.59,142,216.59,142Z"/><path d="M167.6,161.69a13.07,13.07,0,0,1,7.56-8.5s-5-.47-7.42,1.48Z"/><path d="M235.19,161.69a13.07,13.07,0,0,0-7.56-8.5s5-.47,7.42,1.48Z"/><path d="M201.27,152.45a11.78,11.78,0,0,1-5.54,3.76,7.43,7.43,0,0,0,.81-.86,12.49,12.49,0,0,1-5.52,1.21s2-.66,2.33-.86c0,0-4.3.1-5.62-2.18a7.23,7.23,0,0,0,4.15.35,15.84,15.84,0,0,1,4.4-.3l4-1.77,1.32-.46Z"/><path d="M201.24,152.45a11.78,11.78,0,0,0,5.54,3.76,7.43,7.43,0,0,1-.81-.86,12.49,12.49,0,0,0,5.52,1.21s-2-.66-2.33-.86c0,0,4.3.1,5.62-2.18a7.23,7.23,0,0,1-4.15.35,15.84,15.84,0,0,0-4.4-.3l-4-1.77-1.32-.46Z"/><ellipse class="cls-11" cx="179.84" cy="158.36" rx="0.66" ry="1.21"/><ellipse class="cls-11" cx="179.09" cy="160.95" rx="0.69" ry="0.94"/><ellipse class="cls-11" cx="222.78" cy="158.36" rx="0.66" ry="1.21"/><ellipse class="cls-11" cx="223.53" cy="160.95" rx="0.69" ry="0.94"/><path d="M193.78,171.46s-8.57-9.45-9.45-19.1a11.76,11.76,0,0,0-5.8.4,12,12,0,0,1,7.12-1.38C185.95,151.42,185.82,159.85,193.78,171.46Z"/><path d="M208.9,171.46s8.57-9.45,9.45-19.1a11.76,11.76,0,0,1,5.8.4,12,12,0,0,0-7.12-1.38C216.73,151.42,216.86,159.85,208.9,171.46Z"/><path d="M198.3,193.05s-1.42-4.25,1.15-11.07c0,0-1.75,6.41-.2,10.66Z"/><path d="M201.12,193.29l-.78.49A20.29,20.29,0,0,1,200,184S199.54,189.38,201.12,193.29Z"/><path d="M204.31,193.05s1.42-4.25-1.15-11.07c0,0,1.75,6.41.2,10.66Z"/><path d="M201.49,193.29l.78.49a20.29,20.29,0,0,0,.37-9.76S203.08,189.38,201.49,193.29Z"/><path d="M172,222.61c-13.95,4.74-23.73-4.49-25.8-12.57s-9.69-17-4.75-24,9.85-4.28,14.23-.22a45.64,45.64,0,0,0,9.64,6.64s6.86-7.32,12.85.07,3.39,17.5-3.61,14.11c0,0-11.05,4.79-15.71-5.63,0,0-2.45,8.37,1.41,13.07S172,222.61,172,222.61Z"/><path class="cls-8" d="M163.33,221.64l-.16,0c-.34-.08-1.13-.27-2.15-.56-2.42-.69-6.13-2-8.1-3.79-3.09-2.83-5.29-6.77-8.08-17.35-2.12-8-1.49-12.08.4-14.31a6.5,6.5,0,0,1,2.12-1.64c3.33-1.68,2.79,4.6,2.9,16.12S155.78,219.34,163.33,221.64Z"/><path class="cls-1" d="M156.07,191.4c-.32,2.56-2.62,7.63-.9,17.43-.22-.48-4-9-3.26-15.64a9.73,9.73,0,0,1,.74-3C154,187.34,156.33,189.34,156.07,191.4Z"/><path class="cls-1" d="M171.88,202.74c-11.3-.66-14-12.56-14-12.56C173.08,197.77,171.88,202.74,171.88,202.74Z"/><path class="cls-1" d="M178.55,204.18a3.73,3.73,0,0,0,.62-1.72v0a8.76,8.76,0,0,0-10.73-9l-1-.83a8.26,8.26,0,0,1,2.18-.58c2.81-.42,7.46-.19,9.64,4.35C182.24,202.68,178.55,204.18,178.55,204.18Z"/><path class="cls-9" d="M163.33,221.64l-.16,0a17.33,17.33,0,0,1-2.15-.56c-12.33-4.1-14.55-20.63-13.4-24.59s1.77-12.33-2.38-10.86a6.5,6.5,0,0,1,2.12-1.64c3.33-1.68,2.79,4.6,2.9,16.12S155.78,219.34,163.33,221.64Z"/><path class="cls-2" d="M156.07,191.4c-.32,2.56-2.62,7.63-.9,17.43-2.69-7.88-1.52-14.19-.46-16.21.95-1.81-.57-2.89-2.06-2.38C154,187.34,156.33,189.34,156.07,191.4Z"/><path class="cls-2" d="M171.88,202.74c-11.3-.66-14-12.56-14-12.56S163.35,198.7,171.88,202.74Z"/><path class="cls-2" d="M179.17,202.45a8.76,8.76,0,0,0-10.73-9l-1-.83a8.26,8.26,0,0,1,2.18-.58,8.1,8.1,0,0,1,1.87.64S181.28,194.66,179.17,202.45Z"/><path class="cls-2" d="M160,198.85s2.6,9.67,13.19,6.83l-.63-1.38S166.06,205.34,160,198.85Z"/><path class="cls-2" d="M171.41,194.64c4.5.3,6.33,5.06,6,7.54,0,0-1.37-7.39-6.38-6.43Z"/><path d="M165,235.07c-1.38,6.45-5,10.44-9.2,12.52A16.67,16.67,0,0,1,144,248.81c-7-2.08-17.12-.36-20.2-7.26s1.21-9.33,6.24-10.8a40.1,40.1,0,0,0,9.33-4.25s-1.8-6.29,3-8.77c.47.51,1,1,1.47,1.5.29.28.6.55.92.81l.32.24a12.62,12.62,0,0,0,1.11.75,8.55,8.55,0,0,0,.77.39l.16.07c.15,1.36.35,2.74.59,4.13q.16.89.34,1.8.09.47.19.95c.12.58.25,1.17.4,1.76.09.4.19.81.29,1.22s.15.59.21.89c.14.54.26,1.09.37,1.63a9.58,9.58,0,0,1-6.64,1.35s3.63,3.92,7.9,4.74a7.33,7.33,0,0,0,2.56.08C158.57,239.25,165,235.07,165,235.07Z"/><path class="cls-8" d="M160.39,241.16l-.1.11c-.21.22-.71.73-1.39,1.36-1.61,1.51-4.25,3.71-6.5,4.38-3.52,1-7.47.93-16.68-1.74-7-2-9.75-4.32-10.58-6.74a5.69,5.69,0,0,1-.27-2.33c.23-3.26,4.72,0,13.43,5.08S155.26,245.81,160.39,241.16Z"/><path class="cls-1" d="M134.38,233c1.78,1.4,4.56,5.4,12.7,8.52-.46-.05-8.62-1-13.22-4.6a8.53,8.53,0,0,1-1.89-1.89C130.39,232.75,132.95,231.88,134.38,233Z"/><path class="cls-1" d="M148.22,228.37c-5.73,5.42-13.95,2.75-13.95,2.75,7.07-4.53,11.18-5.51,13.41-5.5q.16.89.34,1.8Q148.11,227.89,148.22,228.37Z"/><path class="cls-1" d="M145,220.28a7.68,7.68,0,0,0-3.52,4.36l-1.09.4a7.29,7.29,0,0,1,.55-1.9,9.84,9.84,0,0,1,2.83-3.91c.29.28.6.55.92.81Z"/><path class="cls-9" d="M160.39,241.16l-.1.11a15.19,15.19,0,0,1-1.39,1.36c-8.63,7.42-22.06,1.64-24.52-1s-8.47-6.88-9.24-3.1a5.69,5.69,0,0,1-.27-2.33c.23-3.26,4.72,0,13.43,5.08S155.26,245.81,160.39,241.16Z"/><path class="cls-2" d="M134.38,233c1.78,1.4,4.56,5.4,12.7,8.52-7.13-1.53-11.35-5.25-12.4-7-.93-1.53-2.43-.88-2.72.47C130.39,232.75,132.95,231.88,134.38,233Z"/><path class="cls-2" d="M148.22,228.37c-5.73,5.42-13.95,2.75-13.95,2.75a35.48,35.48,0,0,0,13.75-3.7Q148.11,227.89,148.22,228.37Z"/><path class="cls-2" d="M145,220.28a7.68,7.68,0,0,0-3.52,4.36l-1.09.4a7.29,7.29,0,0,1,.55-1.9A6.9,6.9,0,0,1,142.3,222a12.68,12.68,0,0,1,2.42-2Z"/><path class="cls-2" d="M149.11,232.24a9.52,9.52,0,0,1-7.36,1.17,15.27,15.27,0,0,0,6.86-3.29c.09.4.19.81.29,1.22S149,231.94,149.11,232.24Z"/><path class="cls-2" d="M146.93,221.42a3.58,3.58,0,0,0-2.54,2.32l-.66-.81a5.08,5.08,0,0,1,2.43-1.9A8.55,8.55,0,0,0,146.93,221.42Z"/><path d="M172.41,270.05a13.8,13.8,0,0,1-8.16,3.82c-6.09.5-13.44,4.9-17.92.46s-1.87-7.63,1.6-10.29a33.48,33.48,0,0,0,6-6.13s-4.44-5.86,1.64-9.27a10.48,10.48,0,0,1,1.26-.61,5.3,5.3,0,0,1,.93.62,3.91,3.91,0,0,1,.58.57l.13.16c0,.11.11.2.15.3.17.34.34.66.49,1l.23.43.19.36a1.59,1.59,0,0,0,.19.35c.49.9,1,1.77,1.48,2.62.15.25.29.51.45.75l.21.37.66,1.06q0,.26.12.51s0,0,0,0a8.63,8.63,0,0,0,.82,2,12.49,12.49,0,0,0,.75,1.21,7.89,7.89,0,0,1-4.9,3.28s4.81,2.35,8.59,1a6.17,6.17,0,0,0,1-.45c3.86-2.21,7.62-7.42,7.62-7.42C177.44,262.71,175.44,267.18,172.41,270.05Z"/><path class="cls-8" d="M174.73,262.95l0,.11c-.1.24-.33.79-.67,1.48-.79,1.66-2.19,4.18-3.73,5.38-2.42,1.88-5.54,3-13.51,3.7-6.05.54-8.9-.41-10.28-2a4.75,4.75,0,0,1-.92-1.73c-.81-2.61,3.66-1.45,12-.11S172.14,268.12,174.73,262.95Z"/><path class="cls-1" d="M152,264.47c1.81.55,5.18,2.83,12.46,2.79-.37.1-7,1.81-11.68.42a7.12,7.12,0,0,1-2-.9C148.83,265.47,150.56,264,152,264.47Z"/><path class="cls-1" d="M161.83,255.54c-2.37,7-10.47,7.49-10.47,7.49,5.11-7,8.33-8.41,9.82-8.62.15.25.29.51.45.75Z"/><path class="cls-1" d="M158.59,249.69A6.25,6.25,0,0,0,155,255.8l-.73.64a6.2,6.2,0,0,1-.15-1.64c0-1.92.67-4.9,3.56-6.14a3.91,3.91,0,0,1,.58.57l.13.16C158.48,249.5,158.54,249.59,158.59,249.69Z"/><path class="cls-9" d="M174.73,262.95l0,.11a12.68,12.68,0,0,1-.67,1.48c-4.47,8.39-16.67,8-19.39,6.64s-8.68-2.79-8.13.38a4.75,4.75,0,0,1-.92-1.73c-.81-2.61,3.66-1.45,12-.11S172.14,268.12,174.73,262.95Z"/><path class="cls-2" d="M152,264.47c1.81.55,5.18,2.83,12.46,2.79-6,1-10.42-.65-11.75-1.66s-2.16.05-2,1.19C148.83,265.47,150.56,264,152,264.47Z"/><path class="cls-2" d="M161.83,255.54c-2.37,7-10.47,7.49-10.47,7.49a29.13,29.13,0,0,0,10.26-7.86Z"/><path class="cls-2" d="M158.59,249.69A6.25,6.25,0,0,0,155,255.8l-.73.64a2.69,2.69,0,0,1,.54-2.92,9.45,9.45,0,0,1,3.45-4.29l.13.16C158.48,249.5,158.54,249.59,158.59,249.69Z"/><path class="cls-2" d="M163.42,259.14a7.85,7.85,0,0,1-5.55,3.41,12.4,12.4,0,0,0,4.73-5.43A8.63,8.63,0,0,0,163.42,259.14Z"/><path class="cls-2" d="M159.31,251.08a3.28,3.28,0,0,0-2.32,3.15l-.75-.43a4.49,4.49,0,0,1,2.84-3.15Z"/><path d="M236.33,209.11c13.95,4.74,23.73-4.49,25.8-12.57s9.69-17,4.75-24-9.85-4.28-14.23-.22a45.64,45.64,0,0,1-9.64,6.64s-6.86-7.32-12.85.07-3.39,17.5,3.61,14.11c0,0,11.05,4.79,15.71-5.63,0,0,2.45,8.37-1.41,13.07S236.33,209.11,236.33,209.11Z"/><path class="cls-8" d="M245,208.14l.16,0c.34-.08,1.13-.27,2.15-.56,2.42-.69,6.13-2,8.1-3.79,3.09-2.83,5.29-6.77,8.08-17.35,2.12-8,1.49-12.08-.4-14.31a6.5,6.5,0,0,0-2.12-1.64c-3.33-1.68-2.79,4.6-2.9,16.12S252.57,205.84,245,208.14Z"/><path class="cls-1" d="M252.28,177.9c.32,2.56,2.62,7.63.9,17.43.22-.48,4-9,3.26-15.64a9.73,9.73,0,0,0-.74-3C254.37,173.84,252,175.84,252.28,177.9Z"/><path class="cls-1" d="M236.46,189.24c11.3-.66,14-12.56,14-12.56C235.26,184.27,236.46,189.24,236.46,189.24Z"/><path class="cls-1" d="M229.8,190.68a3.73,3.73,0,0,1-.62-1.72v0a8.76,8.76,0,0,1,10.73-9l1-.83a8.26,8.26,0,0,0-2.18-.58c-2.81-.42-7.46-.19-9.64,4.35C226.1,189.19,229.8,190.68,229.8,190.68Z"/><path class="cls-9" d="M245,208.14l.16,0a17.33,17.33,0,0,0,2.15-.56c12.33-4.1,14.55-20.63,13.4-24.59s-1.77-12.33,2.38-10.86a6.5,6.5,0,0,0-2.12-1.64c-3.33-1.68-2.79,4.6-2.9,16.12S252.57,205.84,245,208.14Z"/><path class="cls-2" d="M252.28,177.9c.32,2.56,2.62,7.63.9,17.43,2.69-7.88,1.52-14.19.46-16.21-.95-1.81.57-2.89,2.06-2.38C254.37,173.84,252,175.84,252.28,177.9Z"/><path class="cls-2" d="M236.46,189.24c11.3-.66,14-12.56,14-12.56S245,185.2,236.46,189.24Z"/><path class="cls-2" d="M229.17,189a8.76,8.76,0,0,1,10.73-9l1-.83a8.26,8.26,0,0,0-2.18-.58,8.1,8.1,0,0,0-1.87.64S227.07,181.16,229.17,189Z"/><path class="cls-2" d="M248.36,185.35s-2.6,9.67-13.19,6.83l.63-1.38S242.28,191.84,248.36,185.35Z"/><path class="cls-2" d="M236.94,181.14c-4.5.3-6.33,5.06-6,7.54,0,0,1.37-7.39,6.38-6.43Z"/><path d="M226.21,204.56c4.56,2.73,7.92-3.34,7.92-3.34s2.81-.51,2.51-4.16l1.42-.3a5.67,5.67,0,0,1-3,5.67s-2.23,6.38-9.31,3.64Z"/><path d="M229.89,256.94c-4.29,10,1.92,17.7,7.74,19.69s11.91,8.11,17.38,4.88,3.72-7,1-10.45a33.64,33.64,0,0,1-4.32-7.47s5.78-4.61.69-9.45-12.66-3.5-10.58,1.83c0,0-4.16,7.84,3.23,11.87,0,0-6.29,1.31-9.52-1.8S229.89,256.94,229.89,256.94Z"/><path class="cls-8" d="M230.1,263.38a.84.84,0,0,0,0,.12c0,.25.13.85.29,1.61.37,1.82,1.1,4.62,2.32,6.17,1.9,2.43,4.67,4.28,12.28,6.95,5.77,2,8.79,1.8,10.54.54a4.79,4.79,0,0,0,1.33-1.46c1.43-2.35-3.22-2.32-11.68-3.07S231.35,269.06,230.1,263.38Z"/><path class="cls-1" d="M251.89,270.47c-1.9.09-5.76,1.48-12.86-.35.34.19,6.41,3.5,11.3,3.3a7.17,7.17,0,0,0,2.21-.37C254.76,272.24,253.43,270.4,251.89,270.47Z"/><path class="cls-1" d="M244.48,258.19c-.17,8.34,8.42,11,8.42,11C248.2,257.6,244.48,258.19,244.48,258.19Z"/><path class="cls-1" d="M243.81,253.21a2.75,2.75,0,0,1,1.3-.36h0a6.46,6.46,0,0,1,6,8.4l.55.8a6.09,6.09,0,0,0,.55-1.57c.47-2,.57-5.47-2.64-7.33C245.12,250.58,243.81,253.21,243.81,253.21Z"/><path class="cls-9" d="M230.1,263.38a.84.84,0,0,0,0,.12,12.77,12.77,0,0,0,.29,1.61c2.3,9.29,14.31,11.88,17.29,11.27s9.16-.58,7.84,2.38a4.79,4.79,0,0,0,1.33-1.46c1.43-2.35-3.22-2.32-11.68-3.07S231.35,269.06,230.1,263.38Z"/><path class="cls-2" d="M251.89,270.47c-1.9.09-5.76,1.48-12.86-.35,5.63,2.43,10.34,1.94,11.89,1.28,1.38-.59,2.09.58,1.63,1.65C254.76,272.24,253.43,270.4,251.89,270.47Z"/><path class="cls-2" d="M244.48,258.19c-.17,8.34,8.42,11,8.42,11S247,264.69,244.48,258.19Z"/><path class="cls-2" d="M245.12,252.85a6.46,6.46,0,0,1,6,8.4l.55.8a6.09,6.09,0,0,0,.55-1.57,6,6,0,0,0-.36-1.41S251,251.75,245.12,252.85Z"/><path class="cls-2" d="M246.65,267.15s-7-2.47-4.25-10.09l1,.54S242.23,262.32,246.65,267.15Z"/><path class="cls-2" d="M250.41,259c0-3.33-3.35-4.94-5.2-4.83,0,0,5.35,1.43,4.35,5.06Z"/><path d="M273.21,252.82c-3.62,6.07-12.82,3.36-19.57,4.52a15.41,15.41,0,0,1-9.46-1.6c-4.28-2.2-7.94-6.54-8.59-13.48,0,0,5.52,4.59,10.33,5.9l.27.06c4.74,1.08,10-3.39,10-3.39-6.07,0-8.25-4.13-9-7,.08-1.29.14-2.79.15-4.53l.89.43c1.15.57,2.37,1.16,3.63,1.66a10.25,10.25,0,0,1,4.71,1.23c.3,0,.61,0,.91,0a8.89,8.89,0,0,0,2.48-.34,7.58,7.58,0,0,0,.87-.32,8.89,8.89,0,0,1-.36,1.16,37.19,37.19,0,0,0,8.2,5C273.11,244,276.82,246.75,273.21,252.82Z"/><path class="cls-8" d="M239.23,248.42l.08.11c.17.23.58.76,1.14,1.42,1.33,1.58,3.54,3.92,5.55,4.78,3.16,1.36,6.84,1.68,15.68.22,6.71-1.11,9.54-2.94,10.57-5.1a5.33,5.33,0,0,0,.51-2.14c.14-3.05-4.38-.55-13,3.24S243.48,253.3,239.23,248.42Z"/><path class="cls-1" d="M264.28,243.71c-1.81,1.1-4.83,4.52-12.73,6.52.43,0,8.12,0,12.79-2.81a8,8,0,0,0,2-1.54C268,243.91,265.73,242.82,264.28,243.71Z"/><path class="cls-1" d="M264.6,242s-9.82,1.94-14.11-6.28a2.42,2.42,0,0,1,1.32-.34,10.25,10.25,0,0,1,4.71,1.23A39.84,39.84,0,0,1,264.6,242Z"/><path class="cls-9" d="M239.23,248.42l.08.11a14.2,14.2,0,0,0,1.14,1.42c7.2,7.84,20.31,4,22.88,1.77s8.63-5.46,8.92-1.86a5.33,5.33,0,0,0,.51-2.14c.14-3.05-4.38-.55-13,3.24S243.48,253.3,239.23,248.42Z"/><path class="cls-2" d="M264.28,243.71c-1.81,1.1-4.83,4.52-12.73,6.52,6.8-.63,11.12-3.62,12.28-5.1,1-1.31,2.35-.55,2.47.74C268,243.91,265.73,242.82,264.28,243.71Z"/><path class="cls-2" d="M250.49,235.69c4.29,8.23,14.1,6.28,14.1,6.28S256.38,240.71,250.49,235.69Z"/><path class="cls-2" d="M257.39,243.28s-8.1,1.3-9.53-7.57h1.24S250.5,240.91,257.39,243.28Z"/><path d="M256.51,236.58a16.42,16.42,0,0,1-4.71-1.23A10.25,10.25,0,0,1,256.51,236.58Z"/></svg>