<?xml version="1.0" encoding="utf-8"?>
<!-- Generator: Adobe Illustrator 20.1.0, SVG Export Plug-In . SVG Version: 6.00 Build 0)  -->
<svg version="1.1" id="Layer_1" xmlns="http://www.w3.org/2000/svg" xmlns:xlink="http://www.w3.org/1999/xlink" x="0px" y="0px"
	 viewBox="0 0 341.5 249" style="enable-background:new 0 0 341.5 249;" xml:space="preserve">
<style type="text/css">
	.st0{fill:#C5C5C5;}
	.st1{fill:#FFE845;}
	.st2{fill:#E5CD41;}
	.st3{fill:#939393;}
	.st4{fill:#58595B;}
	.st5{fill:#E8E8E8;}
	.st6{fill:#FFFFFF;}
	.st7{fill:#D17978;}
	.st8{fill:#A55659;}
	.st9{fill:#FFB6B6;}
	.st10{fill:#E6E7E8;}
	.st11{fill:#C6C6C6;}
</style>
<path d="M136.8,127c-15,32.3-10,53-10,53l50.7-9l18.7,17.7l39.3-20.7c0,0,4.3-23-8.3-37.7C214.5,115.6,136.8,127,136.8,127z"/>
<path class="st0" d="M179.8,163.5l-46.7,8.3c-0.1-7.5,1.1-20.9,8.6-38.4c8.5-1.1,30-3.6,49.2-3.6c25.9,0,30.6,4.6,31.1,5.1
	c7.7,8.9,7.6,22.5,7.1,28.6l-31.7,16.6L179.8,163.5z"/>
<g>
	<g>
		<polygon points="301.5,136.4 267.8,147.1 213.3,164.4 210.1,165.4 210.1,165.5 209.5,165.6 208.4,166 208.4,166 205.8,166.8 
			202.4,167.9 202.8,166.6 203.7,164.2 215.3,129.4 219.1,118 208.8,124.2 161.5,152.6 159.8,153.7 154.2,157 149.7,159.7 
			146.7,161.5 146.5,161.6 145.3,162.4 145,162.6 142.5,164.1 139.5,165.8 138.3,166.6 138,166.8 137.4,167.1 135.5,168.2 
			134.2,169.1 131.9,170.4 131.9,170.4 129,172.2 127.5,173.1 127.4,173.1 127.3,173.2 126.9,173.4 126.3,173.8 126.3,173.8 
			126.3,173.8 124.4,174.9 120.1,177.5 119.9,177.6 119.8,177.7 119.8,177.7 119,178.2 116.3,179.8 113.8,181.3 113.7,181.3 
			113.6,181.4 111.6,182.6 109.4,183.9 109.4,184 102,188.4 99.1,190.2 96.3,191.8 72.5,206.1 1.3,249 43.9,233.5 81.1,218.7 
			98.3,211.9 100.7,210.9 103.1,210 112.6,206.2 114.3,205.5 115.7,204.9 115.7,204.9 116.5,204.7 125.3,201.1 128.3,199.9 
			130.6,199 134.9,197.3 137.7,196.2 137.7,196.2 137.7,196.2 138.2,196 138.5,195.9 141.5,194.7 143.9,193.7 148,192.1 150.8,191 
			150.8,191 150.9,190.9 151.6,190.6 154.5,189.5 156.8,188.6 161.2,186.8 163.7,185.8 163.8,185.8 163.9,185.7 164,185.7 
			166.8,184.6 171,182.9 171.6,182.7 170.5,185.4 169,189.5 168.7,190.4 168.7,190.4 168.7,190.5 160.2,213.1 156.2,224 
			166.5,218.5 177.1,212.8 184.8,208.7 197.1,202.2 199.5,200.9 199.5,200.9 199.6,200.8 202.1,199.5 275.5,160.2 339.8,125.9 		"/>
		<g>
			<path class="st1" d="M302.8,140.6l-33.7,10.7l-54.5,17.3l0,0l-3.8,1.2l0,0l-3.7,1.2l-11.6,3.7l2.4-7.1l0.8-2.4l0.8-2.4l11.7-34.8
				l-47.3,28.4l-1.7,1l-5.6,3.4l-4.5,2.7l-3,1.8l-0.2,0.1l-1.1,0.7l-0.4,0.2l-2.5,1.5l-3,1.8l-1.2,0.7l-0.9,0.5l0,0l-1.8,1.1
				l-1.4,0.8c0,0,0,0,0,0l-1.1,0.7l-0.3,0.2l-0.3,0.1l-3.5,2.1l-1.5,0.9l-0.5,0.3l-0.7,0.4l-1.9,1.1l-4.3,2.6l-0.3,0.1l-0.8,0.5
				l-2.8,1.7l-2.6,1.5l-0.1,0l-2,1.2l0,0l-9.6,5.7l-2.9,1.8l-2.8,1.7l-23.8,14.2l-32.5,19.6l37.1-14.8l17.3-6.9l2.3-0.9l2.5-1
				l9.5-3.8l1.7-0.7l2.1-0.8l0,0l8.9-3.5l3-1.2l2.3-0.9l4.3-1.7l2.7-1.1l0.8-0.3l0,0l3-1.2l2.5-1l4.1-1.6l2.8-1.1l0.8-0.3l3-1.2
				l2.3-0.9l4.3-1.7l2.6-1l0.2-0.1l2.8-1.1l4.2-1.7l3.9-1.6l0,0l2.9-1.2l3-1.2l-2.4,6.5l-2.1,5.6l-1.5,4.1l-0.3,0.9l-8.4,22.6
				l10.7-5.7l7.7-4.1l12.3-6.6l0,0l2.5-1.3l2.5-1.3l73.4-39.3L302.8,140.6z"/>
			<polygon class="st2" points="302.8,140.6 271.7,154.4 204.3,184.2 201.1,185.6 197.9,187 183.4,193.4 179.6,195.1 183,185.6 
				188.8,168.9 189.7,166.4 190.5,164 194.9,151.7 171.3,163.7 171,163.8 168.6,165.1 164.8,167 164.4,167.2 163.5,167.7 
				163.5,167.7 163.4,167.8 159.2,169.9 158.3,170.3 157.3,170.8 157.3,170.8 156.4,171.3 155.7,171.6 151.1,174 150.7,174.2 
				150.5,174.3 150.5,174.3 149.9,174.6 146.2,176.5 145.5,176.8 143.7,177.8 142.9,178.2 138.2,180.6 137.8,180.7 137.5,180.9 
				133.5,183 133,183.2 130.9,184.3 130.4,184.5 124.7,187.4 124.6,187.5 124.2,187.7 121,189.3 120.4,189.6 118.5,190.6 
				113.1,193.4 111.4,194.2 110.8,194.6 102.6,198.7 99.9,200.1 97.4,201.3 76.7,211.9 42.3,229.4 79.4,214.6 96.7,207.8 99,206.8 
				101.5,205.9 110.9,202.1 112.7,201.4 114.8,200.5 114.8,200.5 123.7,197 126.7,195.8 128.9,194.9 133.3,193.2 136,192.1 
				136.8,191.7 136.8,191.7 139.8,190.6 142.3,189.6 146.4,188 149.2,186.9 149.9,186.5 152.9,185.3 155.2,184.4 159.5,182.7 
				162.1,181.7 162.3,181.6 165.1,180.5 169.4,178.8 173.3,177.2 173.3,177.2 176.2,176.1 179.2,174.9 176.8,181.3 174.7,187 
				173.2,191.1 172.8,192 164.4,214.6 175.1,208.9 182.8,204.8 195,198.3 195,198.2 197.5,196.9 200,195.6 273.4,156.3 			"/>
		</g>
	</g>
</g>
<path d="M214.3,29.6c7.5-24.4,29.3-27.4,29.3-27.4s-2.1,2.6-2.9,4c0,0,10.5-10.5,38.1-1.2c0,0-1.5-0.6-5.9,1.7c0,0,7.5,1,16.5,8.6
	c0,0-3.4-0.4-5.4,0.1c0,0,13.1,8.3,14.3,20.9c0,0-2.3-1.6-3.9-1.8c0,0,11.6,12.3,4.4,35.9c0,0-1.8-3.7-4.9-5.3
	c0,0-4.5,19.8-15.9,24.9c0,0,0.2-4.7-0.9-6.4c0,0-7.6,12.1-28.6,10.5c-21-1.6-46.8-19.9-46.8-19.9l2.7-35.2L214.3,29.6z"/>
<path class="st0" d="M295.4,61.2c0,0-2.4-6-4.8-7.5c0,0-0.7,18.1-10.6,26.3c0,0,1.2-6,1-8.7c0,0-4.8,14.2-27.5,15.5
	c-22.7,1.2-34.1-39.4-34.1-39.4V31.5c0.9-2.1,1.8-4,2.8-5.7c6.5-11.2,14.8-14.1,14.8-14.1s-2.7,3.1-3.1,5.6c0,0,12.6-12.3,28.3-9.4
	c0,0-3.6,1.4-5.8,2.9c0,0,15.9-1.9,22,5.1c0,0-8-1.4-8.5,0.5c0,0,17.4,5.1,21.5,16.9c0,0-3.1-2.7-8.2-4.6
	C283.1,28.6,297.8,39.7,295.4,61.2z"/>
<path class="st3" d="M295.4,61.2c1.1-23.4-25.3-36.7-25.3-36.7c3.2-0.5,8.6,0,8.6,0c-22.8-12.7-34.4-7.4-34.4-7.4
	c1.5-2.2,6.2-5.4,6.2-5.4c-2.5,0.3-19.3,6.7-25.1,16.3l-3.2-2.3c6.5-11.2,14.8-14.1,14.8-14.1s-2.7,3.1-3.1,5.6
	c0,0,12.6-12.3,28.3-9.4c0,0-3.6,1.4-5.8,2.9c0,0,15.9-1.9,22,5.1c0,0-8-1.4-8.5,0.5c0,0,17.4,5.1,21.5,16.9c0,0-3.1-2.7-8.2-4.6
	C283.1,28.6,297.8,39.7,295.4,61.2z"/>
<path d="M150.4,29.6c-7.5-24.4-29.3-27.4-29.3-27.4s2.1,2.6,2.9,4c0,0-10.5-10.5-38.1-1.2c0,0,1.5-0.6,5.9,1.7c0,0-7.5,1-16.5,8.6
	c0,0,3.4-0.4,5.4,0.1c0,0-13.1,8.3-14.3,20.9c0,0,2.3-1.6,3.9-1.8c0,0-11.6,12.3-4.4,35.9c0,0,1.8-3.7,4.9-5.3
	c0,0,4.5,19.8,15.9,24.9c0,0-0.2-4.7,0.9-6.4c0,0,7.6,12.1,28.6,10.5c21-1.6,46.8-19.9,46.8-19.9l-2.7-35.2L150.4,29.6z"/>
<path class="st0" d="M145.4,31.5c-6.5-15.9-17.6-19.8-17.6-19.8s2.7,3.1,3.1,5.6c0,0-12.6-12.3-28.3-9.4c0,0,3.6,1.4,5.8,2.9
	c0,0-15.9-1.9-22,5.1c0,0,8-1.4,8.5,0.5c0,0-17.4,5.1-21.5,16.9c0,0,3.1-2.7,8.2-4.6c0,0-14.7,11.1-12.3,32.6c0,0,2.4-6,4.8-7.5
	c0,0,0.7,18.1,10.6,26.3c0,0-1.2-6-1-8.7c0,0,4.8,14.3,27.5,15.5s34.1-39.4,34.1-39.4V31.5z"/>
<path class="st3" d="M69.3,61.2c-1.1-23.4,25.3-36.7,25.3-36.7c-3.2-0.5-8.6,0-8.6,0c22.8-12.7,34.4-7.4,34.4-7.4
	c-1.5-2.2-6.2-5.4-6.2-5.4c2.5,0.3,19.3,6.7,25.1,16.3l3.2-2.3c-6.5-11.2-14.8-14.1-14.8-14.1s2.7,3.1,3.1,5.6
	c0,0-12.6-12.3-28.3-9.4c0,0,3.6,1.4,5.8,2.9c0,0-15.9-1.9-22,5.1c0,0,8-1.4,8.5,0.5c0,0-17.4,5.1-21.5,16.9c0,0,3.1-2.7,8.2-4.6
	C81.6,28.6,66.9,39.7,69.3,61.2z"/>
<g>
	<path class="st4" d="M137.4,45.8C133.9,24.4,119.5,22,119.5,22s4.9,4,4.7,6.3c0,0-11.3-7.3-22.3-1.4c0,0,9,0.7,7.1,1.4
		c-0.7,0.2-16.2,1.2-19,15c0,0,3.5-3.5,5.6-4.2c0,0-6.8,6.3-6.3,23.3c0,0,1.4-4.5,4.7-7.5c0,0-1.9,16.9,11.5,20.2c0,0-2.4-4-2.6-6.1
		c0,0,4.9,7.3,24.5,10.6c19.5,3.3,11.1-27,10.6-27.7C137.4,51.2,137.4,45.8,137.4,45.8z"/>
	<path class="st4" d="M227.3,45.8c3.5-21.4,17.9-23.7,17.9-23.7s-4.9,4-4.7,6.3c0,0,11.3-7.3,22.3-1.4c0,0-9,0.7-7.1,1.4
		c0.7,0.2,16.2,1.2,19,15c0,0-3.5-3.5-5.6-4.2c0,0,6.8,6.3,6.3,23.3c0,0-1.4-4.5-4.7-7.5c0,0,1.9,16.9-11.5,20.2c0,0,2.4-4,2.6-6.1
		c0,0-4.9,7.3-24.5,10.6c-19.5,3.3-11.1-27-10.6-27.7C227.3,51.2,227.3,45.8,227.3,45.8z"/>
</g>
<path class="st5" d="M230.9,31.9c5.5-13.2,19.6-12.7,19.6-12.7s-3.2,1.8-3.9,3.2c0,0,10.6-4.4,22.3,5.7c0,0-3.4-0.5-4.7-0.3
	c0,0,10.1,2,10.6,15.7l-2.2-4.6l-4.4-4.2l-9.2-3.5l-1-1.8l-5.5-1l3.2-2.2l-6.2-0.2l-10.2,4.2l-3.9,1.7L230.9,31.9z"/>
<path d="M254.5,128.7l-12.4,19l0.5-8.5c-0.2,0.2-0.4,0.4-0.7,0.5l-16.5,13.1l2.2-6.1c-6.5,3.7-13.8,6.3-21.6,7.7l-0.5,0.1l-0.8-2
	c-6.9,2.9-12.4,8-16.3,15.1c-4.1,7.4-5,14.2-5,14.3l-1.3,0c0-0.1-0.4-6.4-5.4-14c-3.9-6-9.5-11.2-16.6-15.3l-0.8,1.9l-0.5-0.1
	c-7.8-1.4-15-4-21.5-7.7l2.2,6.2l-16.6-13.3c-0.2-0.2-0.4-0.3-0.6-0.5l0.5,8.6l-12.5-19.1C100,113,105.7,88.3,108.7,78l-3.6,3.9
	l5.3-22.1c0.5-2.1,1.3-4.1,2.2-6c1-2,2.1-3.9,3.5-5.7c0.7-1,1.5-2,2.3-3c1.4-1.6,2.8-3.2,4.3-4.6c0.9,1.1,2.3,2.4,4.6,3.9
	c4.3,2.7,11.6,5.6,23.9,7.2c3.3,0.7,8.6,1,10-0.4c1.4-1.4,1.9-3,2.5-4.6c0.4-1.1,0.7-2.2,1.3-3.1c0.7-1,1.4-1.6,2.2-1.9
	c-1.2-3.3-3.1-10.8-1.1-19.8c0.5-2,1.1-4.1,2-6.2c1.3-0.1,2.6-0.1,3.9-0.1c1.2,0,2.3,0,3.4,0.1c1.2,0.1,2.3,0.2,3.3,0.3
	c1.3,0.2,2.5,0.5,3.6,0.8c0.2-0.1,0.4-0.1,0.5-0.1c0.8-0.2,1.5-0.4,2.4-0.5c1.3-0.2,2.8-0.4,4.3-0.5c1-0.1,2-0.1,3.1-0.1
	c13.7,0,31.2,4.9,38,14.3l2.6,3.5c8.1,5.9,18.3,15.2,21,26.6l5.3,22.1L256,78C259,88.3,264.8,113.1,254.5,128.7z"/>
<path class="st5" d="M132.3,29.4c-4.7-11.2-18.1-10.2-18.1-10.2s3.2,1.8,3.9,3.2c0,0-10.6-4.4-22.3,5.7c0,0,3.4-0.5,4.7-0.3
	c0,0-10.1,2-10.6,15.7l2.2-4.6l4.4-4.2l9.2-3.5l1-1.8l5.5-1L109,26l6.2-0.2l10.2,4.2l3.9,1.7L132.3,29.4z"/>
<path class="st0" d="M249.5,125.4c0,0,0.3-5.6-0.7-7.9c0,0-3.9,12.1-10.6,17.5c0.1-0.3,1-2.9,0.8-5.6c0,0-10.3,14.9-34.1,19.2
	c0,0,4.1-2.7,5.1-5.1c0,0-12,4.5-17.6,11.7c0,0,0-4.3,1.3-7.3c-0.6,0.5-11.4,8.6-11.4,20.3c0-11.8-10.8-19.9-11.5-20.3
	c1.4,3.1,1.4,7.3,1.4,7.3c-5.6-7.2-17.6-11.7-17.6-11.7c1,2.4,5.1,5.1,5.1,5.1c-23.8-4.3-34.1-19.2-34.1-19.2
	c-0.2,2.7,0.7,5.3,0.8,5.6c-6.7-5.3-10.6-17.5-10.6-17.5c-1,2.2-0.7,7.9-0.7,7.9c-11.1-16.9,0.2-48.6,0.7-50
	c-1.9,2.9-4.3,3.5-4.6,3.5c2.5-2,5.3-8.6,6-10.2c-0.9,1.6-4.8,2.9-5.3,3c4.6-2.3,8.3-13.8,8.3-13.8c-1.9,0.9-4.1,3.2-4.1,3.2
	c1.1-4.5,3.7-8.8,6.9-12.6c1.3-1.5,2.7-2.9,4.1-4.3c4.3,2.7,11.6,5.6,23.9,7.2c3.3,0.7,8.6,1,10-0.4c1.4-1.4,1.9-3,2.5-4.6
	c0.4-1.1,0.7-2.2,1.3-3.1c0.7-1,1.4-1.6,2.2-1.9c-1-2.9-2.7-9-1.7-16.4c0.1-1.1,0.3-2.2,0.6-3.3c0.9-0.1,1.8-0.2,2.7-0.2
	c1.3-0.1,2.5-0.1,3.7-0.1c3.9,0,7.4,0.5,9.9,1.6c9.9-4.1,35.9,0,43.5,10.3c0,0,0,0-0.1,0c0,0-0.1-0.1-0.1-0.1c-0.9-0.3-4.7-1.7-7-2
	c0,0,25.7,12.8,29.8,30c0,0-2.2-2.4-4.1-3.2c0,0,3.7,11.5,8.3,13.8c-0.5-0.2-4.3-1.4-5.3-3c0.7,1.6,3.5,8.3,6,10.2
	c-0.3-0.1-2.7-0.7-4.6-3.5C249.3,76.8,260.5,108.5,249.5,125.4z"/>
<path class="st3" d="M162.2,91.4c0.2,11.7-8.9,18.8-18.3,21.5c0,0,3.1-4,2.7-6.5c0,0-11.4,2.8-16.9-7.1l4.8,2.5l10.4-1.7l12.6-8.2
	L162.2,91.4z"/>
<path class="st5" d="M134.2,61.8c0,0,6.1,11.4,23.2,18.7c0,0,2.2-1.3,0.8-5.8c0,0,1.6,2.2,2.6,4.2c2.2,4.7-0.2,7.3-0.2,7.3
	l-12.7-4.2l-10.6-6.7l-1.8-8.5L134.2,61.8z"/>
<path class="st3" d="M205,119c0.6-0.5,1.4-4.4,1.4-4.4c1.3,7.6-1.2,11.9-1.2,11.9c1.7-1.6,5.5-1.8,5.5-1.8c-0.1-1.2-2-3.4-2-3.4
	c9.4-1.7,13,4.7,13,4.7s0.4,0-0.3,0.3c19.5-7.3,19.6-13.5,19.6-13.7c-2.7,3.4-8,3.5-8,3.5c13.4-8.6,13.3-23,13.3-23
	c-2.1,4.4-7.4,6.6-7.7,6.7c0.3-0.4,6-7.3,4.2-17.8c-1.9-10.7,1.5-24.3,1.5-24.3s3.7,11.5,8.3,13.8c-0.5-0.2-4.3-1.4-5.3-3
	c0.7,1.6,3.5,8.3,6,10.2c-0.3-0.1-2.7-0.7-4.6-3.5c0.5,1.3,11.7,33,0.7,50c0,0,0.4-5.6-0.7-7.9c0,0-3.9,12.1-10.6,17.5
	c0.1-0.3,1-2.9,0.8-5.6c0,0-10.3,14.9-34.1,19.2c0,0,4.1-2.7,5.1-5.1c0,0-12,4.5-17.6,11.7c0,0,0-4.3,1.4-7.3
	c-0.6,0.5-11.5,8.6-11.5,20.3V89.7C205.6,100,205,119,205,119z"/>
<path class="st3" d="M159.7,119c-0.6-0.5-1.4-4.4-1.4-4.4c-1.3,7.6,1.2,11.9,1.2,11.9c-1.7-1.6-5.5-1.8-5.5-1.8c0.1-1.2,2-3.4,2-3.4
	c-9.4-1.7-13,4.7-13,4.7s-0.4,0,0.3,0.3c-19.5-7.3-19.6-13.5-19.6-13.7c2.7,3.4,8,3.5,8,3.5c-13.4-8.6-13.3-23-13.3-23
	c2.1,4.4,7.4,6.6,7.7,6.7c-0.3-0.4-6-7.3-4.2-17.8c1.9-10.7-1.5-24.3-1.5-24.3s-3.7,11.5-8.3,13.8c0.5-0.2,4.3-1.4,5.3-3
	c-0.7,1.6-3.5,8.3-6,10.2c0.3-0.1,2.7-0.7,4.6-3.5c-0.5,1.3-11.7,33-0.7,50c0,0-0.4-5.6,0.7-7.9c0,0,3.9,12.1,10.6,17.5
	c-0.1-0.3-1-2.9-0.8-5.6c0,0,10.3,14.9,34.1,19.2c0,0-4.1-2.7-5.1-5.1c0,0,12,4.5,17.6,11.7c0,0,0-4.3-1.4-7.3
	c0.6,0.5,11.5,8.6,11.5,20.3V89.7C159.1,100,159.7,119,159.7,119z"/>
<path d="M202.4,124.6c0,0,3.3-11.1-5.5-22.7c-8.8-11.6-12.5-12.2-14.6-12.2s-5.8,0.6-14.6,12.2c-8.8,11.6-5.5,22.7-5.5,22.7
	c-1.1-0.3-2.2-2.5-2.2-2.5c2.3,14.2,14.7,15.7,14.7,15.7c-2.2-1.1-3.4-4.5-3.4-4.5s6.6,6.1,11,6.1s11-6.1,11-6.1s-1.3,3.4-3.4,4.5
	c0,0,12.4-1.4,14.7-15.7C204.6,122.1,203.5,124.2,202.4,124.6z"/>
<path class="st3" d="M202.5,91.4c-0.2,11.7,8.9,18.8,18.3,21.5c0,0-3.1-4-2.7-6.5c0,0,11.4,2.8,16.9-7.1l-4.8,2.5l-10.4-1.7
	L207.3,92L202.5,91.4z"/>
<path class="st5" d="M230.5,61.8c0,0-6.1,11.4-23.2,18.7c0,0-2.2-1.3-0.8-5.8c0,0-1.6,2.2-2.6,4.2c-2.2,4.7,0.2,7.3,0.2,7.3
	l12.7-4.2l10.6-6.7l1.8-8.5L230.5,61.8z"/>
<g>
	<path d="M133.9,34.8c0,0-3.6-10.7-14.4-12.8c0,0,4.1,3.9,4.2,5.7c0,0-11.8-7.3-21.8-0.8c0,0,4.6,0.7,6.5,1.3
		c0,0-16.5,0.9-18.5,15.2c0,0,4.6-11.3,19.8-11.2c0,0-5.6,1.3-8.1,5.1c0,0,6.5-5.9,20.2-4.4c0,0-6.4-3-15.6-2.1
		c0,0,4.2-2.9,11.2-1.4c0,0-2.6-2.3-6-2.7c0,0,9.6-0.2,17.2,10.8L133.9,34.8z"/>
	<path d="M230.9,34.8c0,0,3.6-10.7,14.4-12.8c0,0-4.1,3.9-4.2,5.7c0,0,11.8-7.3,21.8-0.8c0,0-4.6,0.7-6.5,1.3
		c0,0,16.5,0.9,18.5,15.2c0,0-4.6-11.3-19.8-11.2c0,0,5.6,1.3,8.1,5.1c0,0-6.5-5.9-20.2-4.4c0,0,6.4-3,15.6-2.1
		c0,0-4.2-2.9-11.2-1.4c0,0,2.6-2.3,6-2.7c0,0-9.6-0.2-17.2,10.8L230.9,34.8z"/>
</g>
<g>
	<g>
		<path d="M206.5,74.7c0,0-17.8,14.4,9.8,34.6c0,0-3.4-4.3-3.4-8.5c0,0,12.2,8.5,22.2-1.4c0,0-3.4,1.1-5.1,1.1c0,0,10.2-12.2,8-23.6
			l-1.4,4.8c0,0,0.7-7.8-6.8-11.7c0,0,0.9-5.1,0.9-8.2c0,0-7.1,14.8-25.2,21.6C205.4,83.4,203.7,79.7,206.5,74.7z"/>
	</g>
	<path class="st1" d="M212.1,88.1c0,0,5.8-1.7,9.1-4.9c0,0,2.4,4.7-1.9,7.5S212.1,88.1,212.1,88.1z"/>
</g>
<g>
	<path d="M158.2,74.7c0,0,17.8,14.4-9.8,34.6c0,0,3.4-4.3,3.4-8.5c0,0-12.2,8.5-22.2-1.4c0,0,3.4,1.1,5.1,1.1c0,0-10.2-12.2-8-23.6
		l1.4,4.8c0,0-0.7-7.8,6.8-11.7c0,0-0.9-5.1-0.9-8.2c0,0,7.1,14.8,25.2,21.6C159.3,83.4,161,79.7,158.2,74.7z"/>
</g>
<path d="M213.4,123.5c4.3,1.8,5,4.5,5,4.5c-1.7-3.1-6.3-2.2-9.2,1.6c-2.9,3.8-4.3,8.3-26.5,11.8c-22.2-3.5-23.6-8-26.5-11.8
	c-2.9-3.8-7.5-4.7-9.2-1.6c0,0,0.7-2.7,5-4.5c0,0-8.6,0.6-8.9,10.6c0,0,1-2.7,2.4-3.8c0,0,0.3,13.7,18.6,13.1
	c16.4-0.5,18.4,1.1,18.6,1.4l0,0.1c0,0,0,0,0,0c0,0,0,0,0,0l0-0.1c0.2-0.3,2.2-1.9,18.6-1.4c18.3,0.5,18.6-13.1,18.6-13.1
	c1.4,1.1,2.4,3.8,2.4,3.8C222,124.1,213.4,123.5,213.4,123.5z"/>
<path class="st6" d="M166.2,140c0,0-2,0.9-5,0.9c-1.8,0.1-4-0.2-6.2-1.1c-6.1-2.4-5.9-6.9-5.9-9.1c0-1.2,1-1.9,2.1-1.9
	c1,0,2.2,0.6,3,2C155.7,133.6,156.7,136.7,166.2,140z"/>
<path class="st5" d="M161.2,140.9c-1.8,0.1-4-0.2-6.2-1.1c-6.1-2.4-5.9-6.9-5.9-9.1c0-1.2,1-1.9,2.1-1.9
	C153.6,137.2,156,138,161.2,140.9z"/>
<path d="M149.9,128.2c0,0,0.6,5.2,5.5,8.7c0,0-6-2.2-7.4-7.4L149.9,128.2z"/>
<path class="st6" d="M199.2,140c9.5-3.3,10.5-6.4,12.1-9.2c1.6-2.9,5.1-2.3,5.1-0.1c0,2.2,0.2,6.7-5.9,9.1
	C204.4,142.2,199.2,140,199.2,140z"/>
<path class="st5" d="M204.2,140.9c1.8,0.1,4-0.2,6.2-1.1c6.1-2.4,5.9-6.9,5.9-9.1c0-1.2-1-1.9-2.1-1.9
	C211.8,137.2,209.4,138,204.2,140.9z"/>
<path class="st5" d="M182.4,23c-5.8,0-7.6,2.3-7.6,2.3c-6,6.7-2.2,17.7-2.2,17.7l-3.1,0.8l-3.8-18.6c0.1-1.1,0.3-2.2,0.6-3.3
	c0.9-0.1,1.8-0.2,2.7-0.2c1.3-0.1,2.5-0.1,3.7-0.1C176.4,21.5,179.9,22,182.4,23z"/>
<path d="M215.5,128.2c0,0-0.6,5.2-5.5,8.7c0,0,6-2.2,7.4-7.4L215.5,128.2z"/>
<path class="st5" d="M178.9,94.3c-15.3,16.1-12.9,28-12.2,32.5c0.7,4.5,7.5,5,6,0s-4.2-12.2,4-28.8L178.9,94.3z"/>
<g>
	<polygon class="st7" points="124.3,45.5 129,30.9 133.5,28.3 138.6,22.1 148,18.2 157.5,18.2 169.3,17.2 167.6,37.9 169.4,43.7 
		161.4,55 144.3,53.9 	"/>
	<path class="st8" d="M140,37.8c-3.5-6.6-8.6-5.2-9,0.6s-0.3,4.7-0.3,4.7s13,6.5,23.9,5.8c11-0.7,12-5.9,12-5.9l-1.8,7.6l-3.6,3
		l-15.4-0.8l-14.8-3.9l-6-3.2l2.4-12.1l5.8-4.3l5,1l2.1,5.2L140,37.8z"/>
	<path class="st9" d="M154.6,27.2c0,0,1.5,8.1,8.8,9.3c0,0-1.9-9.5,3.3-16.9c5.2-7.4,2.4,3.2,2.4,3.2l-1,10.9l0.7,7.3l-3.6,0.5
		l-7.7-3.5l-3.2-6.8L154.6,27.2z"/>
	<path class="st9" d="M154.6,27.2c-4.5,8,2.2,20.8,9.9,21.3l3.9-5.5l-7-2.9l-5.1-3.5l-2.1-6.3L154.6,27.2z"/>
	<path class="st9" d="M145.9,35.5c0,0-0.3,10.5-4.9,15l3.2,1.5l3.2-3.5l0.3-9.4L145.9,35.5z"/>
	<path class="st8" d="M145.9,27.7c0,0,6.6-7.4,20.8-8.1l-0.6-1.5l-8.4-0.2l-8.5,4l-2.7,3.9L145.9,27.7z"/>
	<path d="M118.4,45.1c1.4,1.3,3,2.5,4.8,3.6c7.8,4.6,18.5,7,23.7,7.9c-1,1.4-1.4,3-1.5,3.3l-1.3,5.2l3.6-3.9c0,0,1.3-1.3,4.9-2.6
		c2.6-0.9,4.5-1.2,5.8-1.4c-0.3,2.8,1.1,5.5,1.3,5.9l2.7,5.3l-0.1-5.9c-0.1-4.4,1-4.8,2.5-5.4c1.5-0.6,3.7-1.4,4.1-5.5
		c0.3-3.4,1.2-4.5,1.7-4.9c0.4-0.3,0.7-0.2,0.7-0.2l0.2,0.1l0.2,0c0.6,0,1.2-0.2,1.8-0.5c2.2-0.8,2.9-0.8,3.5,0.8
		c1.7,4.7,6.2,5.6,6.4,5.6l4.3,0.9l-3.1-3.1c0,0-1.9-2-3.1-4.6c-0.3-0.6-0.5-1.3-0.7-1.9c-0.7-2-1.7-4.8-5.2-4.1
		c-0.4,0.1-0.8,0.2-1.2,0.3c-1.2,0.3-2,0.5-2.5,0.2c-0.6-0.4-1.4-1.7-2-5.7c-0.5-3.8,1-8.7,2.8-12.9c1-2.2,2-4.3,2.9-5.9
		c-1.1-0.1-2.2-0.1-3.4-0.1c-1.3,0-2.6,0-3.9,0.1c-0.9,2.1-1.6,4.2-2,6.2c-2,8.9-0.1,16.4,1.1,19.8c-0.8,0.3-1.5,0.8-2.2,1.9
		c-0.6,0.9-1,2-1.3,3.1c-0.5,1.6-1.1,3.2-2.5,4.6c-1.5,1.5-6.7,1.1-10,0.4c-12.4-1.6-19.7-4.5-23.9-7.2c-2.3-1.4-3.7-2.8-4.6-3.9
		L118.4,45.1z"/>
	<path class="st9" d="M140,37.8c3.7-10-2-10.9-2-10.9s3.4-3.2,7.8-4.5c0,0-0.9,3.4,0.1,5.4l1.4-3.3l3.4-4.9l-1.9-0.7l-6.8,2.5
		l-6.4,3.3l-2.2,3.7l5.6,2.9l0.8,3.9L140,37.8z"/>
	<path d="M122.7,40.8c1.5-14.2,13.8-15.6,17.1-9.8c1.7,3.1,0.2,6.7,0.2,6.7s-0.7-7.6-5.6-7.4s-8.5,9.4-6,16.1L122.7,40.8z"/>
	<path d="M168.1,15.5c-21.9-1.8-22.3,12.2-22.3,12.2s6.5-11.4,22.7-7.6L168.1,15.5z"/>
	<path d="M131.5,28.7c6.9-14.5,23.2-11.3,23.2-11.3l-3.4,3.1c0,0-10.1-1.3-17.1,8.8L131.5,28.7z"/>
	<path d="M170.7,41.6c-13.4-3.2-16.1-8.2-16.1-14.4c0,0-5,13.6,12.9,18.4L170.7,41.6z"/>
	<path d="M141.8,52.1c4.9-3.4,5.3-14.2,4-16.6c0,0,6.4,6.7,1.2,18.1L141.8,52.1z"/>
</g>
<g>
	<g>
		<path d="M231.6,143.1C215.8,112.5,182.3,79,182,78.7l-0.5-0.5l0.6-0.5c21.2-16.6,31-54.6,31.1-55l1.3,0.3
			c-0.1,0.4-9.8,38.1-31,55.2c4.4,4.4,34.5,35.6,49.4,64.2L231.6,143.1z"/>
	</g>
</g>
<path d="M183.4,78.2c25.2-19.8,32.9-53.7,32.9-53.7l-2.9-0.8c0,0-7.7,33.7-29.8,53.3L183.4,78.2z"/>
<path d="M183.4,78.2c0,0,35,32.8,49.1,59l-2.3,1.7c0,0-11.6-22-46.9-60L183.4,78.2z"/>
<path d="M215.3,39.9l0.9,1l4.9-4.5l-0.9-1c-6.3-6.8-14-6.9-14.3-6.9h-1.3l0,6.7l1.3,0C206.1,35.2,211,35.3,215.3,39.9z"/>
<path d="M199,49.8l-1.3-0.4l-2.2,6.3l1.2,0.5c0.1,0,3.2,1.2,4.3,4.7l0.4,1.3l6.4-1.9l-0.4-1.3C205.4,52.1,199.2,49.9,199,49.8z"/>
<path d="M233.8,127.9l-1.3,0c-6.7,0.2-9.8,7-10,7.3l-0.5,1.2l6.1,2.7l0.6-1.2c0,0,1.7-3.3,4.1-3.4l1.3,0L233.8,127.9z"/>
<path d="M222.5,117.8l1.2,0.2l1.2-6l-1.2-0.2c-8.3-1.6-13.1,6.5-13.3,6.8l-0.6,1.1l5.3,3.1l0.6-1C215.7,121.6,218.5,117,222.5,117.8
	z"/>
<rect x="187.6" y="83.4" transform="matrix(0.6166 -0.7873 0.7873 0.6166 5.7968 185.3845)" width="11.2" height="6.7"/>
<g>
	<g>
		<path class="st10" d="M219.2,36.3l-2.8,2.6l-0.2,0.1c-4.7-5-10.2-5.2-10.4-5.2l0-4c0,0,0.2,0,0.4,0
			C207.9,29.9,214,30.7,219.2,36.3z"/>
	</g>
</g>
<g>
	<g>
		<path class="st10" d="M206.2,59.3l-1.7,0.5l-2.1,0.6c-1.2-4.2-5-5.6-5.1-5.6l0.9-2.6l0.4-1.2C198.8,51.2,204.3,53.2,206.2,59.3z"
			/>
	</g>
</g>
<g>
	<g>
		<path class="st10" d="M232.6,133.3c-3.4,0.1-5.3,4.1-5.3,4.2l-1.8-0.8l-1.9-0.8c0.1-0.3,2.9-6.3,8.8-6.5l0,1.1L232.6,133.3z"/>
	</g>
</g>
<g>
	<g>
		<path class="st10" d="M223.2,113.2l-0.4,2.1l-0.3,1.3c-4.7-0.9-7.7,4.2-7.8,4.3l-2.9-1.7l-0.1-0.1
			C211.9,118.8,216.1,111.8,223.2,113.2z"/>
	</g>
</g>
<g>
	<g>
		<path class="st10" d="M197.3,84.6l-4.6,5.9c0,0,0,0,0,0l-0.6,0.8l-3.2-2.5l4.8-6.2l0.4-0.5L197.3,84.6z"/>
	</g>
</g>
<path class="st11" d="M216.4,38.9l-0.2,0.1c-4.7-5-10.2-5.2-10.4-5.2l0-4c0,0,0.2,0,0.4,0C209.2,31.5,213.5,34.4,216.4,38.9z"/>
<path class="st11" d="M204.5,59.8l-2.1,0.6c-1.2-4.2-5-5.6-5.1-5.6l0.9-2.6C201.3,54.4,203.3,57.2,204.5,59.8z"/>
<g>
	<rect x="185" y="66.7" transform="matrix(0.4942 -0.8693 0.8693 0.4942 31.575 200.4806)" width="6.1" height="12.7"/>
	<g>
		<g>
			<polygon class="st10" points="193.5,74.1 191.7,77.2 190.1,76.4 182.7,72.2 184.5,69 184.5,69 			"/>
		</g>
	</g>
	<path class="st0" d="M190.1,76.4l-7.4-4.2l1.8-3.2l0,0C185.3,70.7,186.9,73.2,190.1,76.4z"/>
</g>
<path class="st0" d="M197.3,84.6l-4.6,5.9c0.5-2.6,0.8-5.9,1-7.8l0.4-0.5L197.3,84.6z"/>
<path class="st0" d="M222.8,115.3l-0.3,1.3c-4.7-0.9-7.7,4.2-7.8,4.3l-2.9-1.7C213.9,117.4,217.7,115,222.8,115.3z"/>
<path class="st0" d="M232.6,133.3c-3.4,0.1-5.3,4.1-5.3,4.2l-1.8-0.8c2.9-3.6,5.3-5.4,7-6.3L232.6,133.3z"/>
<polygon points="143.2,99.3 128.6,120.6 140.3,96.4 "/>
<polygon points="143.9,88.1 158.5,66.8 146.7,91 "/>
<path class="st1" d="M152.6,88.1c0,0-0.7,1.2-1.8,2.2c-1.3,1.1-3.2,1.9-5.5,0.4c-4.3-2.8-1.9-7.5-1.9-7.5c0.6,0.6,1.4,1.2,2.1,1.6
	C148.8,87,152.6,88.1,152.6,88.1z"/>
<g>
	<path class="st5" d="M128.7,114.8c0,0,0.1,0,0.2,0c0.2,0,0.4,0,0.6,0c0.5,0.1,1.2,0.4,1.7,0.9c0.3,0.3,0.5,0.6,0.6,0.9
		c0.1,0.3,0.2,0.7,0.2,0.9c0,0.6-0.2,0.9-0.2,0.9s-0.1-0.3-0.3-0.8c-0.2-0.4-0.5-0.9-0.9-1.3c-0.2-0.2-0.4-0.4-0.6-0.6
		c-0.2-0.2-0.4-0.3-0.6-0.5c-0.2-0.2-0.4-0.3-0.5-0.4C128.8,114.9,128.7,114.8,128.7,114.8z"/>
	<path class="st5" d="M130.6,110.4c0,0,0.1,0,0.3,0c0.2,0,0.5,0,0.8,0.1c0.7,0.1,1.6,0.5,2.3,1.2c0.3,0.3,0.6,0.8,0.8,1.2
		c0.2,0.4,0.3,0.8,0.3,1.2c0,0.7-0.2,1.2-0.2,1.2s-0.1-0.5-0.3-1c-0.1-0.3-0.3-0.6-0.5-0.9c-0.2-0.3-0.5-0.6-0.7-0.9
		c-0.1-0.1-0.3-0.3-0.4-0.4c-0.2-0.1-0.3-0.3-0.5-0.4c-0.3-0.2-0.6-0.4-0.9-0.6c-0.3-0.2-0.5-0.3-0.7-0.5
		C130.7,110.5,130.6,110.4,130.6,110.4z"/>
	<path class="st5" d="M132,105.2c0,0,0.2,0,0.4,0.1c0.3,0.1,0.7,0.1,1.1,0.2c0.5,0.1,1,0.3,1.5,0.6c0.5,0.3,1.1,0.7,1.6,1.2
		c0.5,0.5,0.9,1,1.1,1.6c0.3,0.6,0.4,1.2,0.4,1.6c0.1,1-0.2,1.6-0.2,1.6s-0.1-0.6-0.4-1.5c-0.2-0.4-0.4-0.9-0.7-1.3
		c-0.1-0.2-0.3-0.4-0.5-0.7c-0.2-0.2-0.4-0.4-0.6-0.6c-0.2-0.2-0.4-0.4-0.6-0.6c-0.2-0.2-0.4-0.4-0.7-0.5c-0.5-0.3-0.9-0.6-1.3-0.8
		c-0.4-0.3-0.7-0.4-1-0.6C132.2,105.3,132,105.2,132,105.2z"/>
</g>
<path d="M129.2,114.5c0,0,0.1,0,0.2,0c0.2,0,0.4,0,0.6,0c0.5,0.1,1.2,0.4,1.7,0.9c0.3,0.3,0.5,0.6,0.6,0.9c0.1,0.3,0.2,0.7,0.2,0.9
	c0,0.6-0.2,0.9-0.2,0.9s-0.1-0.3-0.3-0.8c-0.2-0.4-0.5-0.9-0.9-1.3c-0.2-0.2-0.4-0.4-0.6-0.6c-0.2-0.2-0.4-0.3-0.6-0.5
	c-0.2-0.2-0.4-0.3-0.5-0.4C129.3,114.5,129.2,114.5,129.2,114.5z"/>
<path d="M131.1,110.1c0,0,0.1,0,0.3,0c0.2,0,0.5,0,0.8,0.1c0.7,0.1,1.6,0.5,2.3,1.2c0.3,0.3,0.6,0.8,0.8,1.2
	c0.2,0.4,0.3,0.8,0.3,1.2c0,0.7-0.2,1.2-0.2,1.2s-0.1-0.5-0.3-1c-0.1-0.3-0.3-0.6-0.5-0.9c-0.2-0.3-0.5-0.6-0.7-0.9
	c-0.1-0.1-0.3-0.3-0.4-0.4c-0.2-0.1-0.3-0.3-0.5-0.4c-0.3-0.2-0.6-0.4-0.9-0.6c-0.3-0.2-0.5-0.3-0.7-0.5
	C131.2,110.1,131.1,110.1,131.1,110.1z"/>
<path d="M132.5,104.9c0,0,0.2,0,0.4,0.1c0.3,0.1,0.7,0.1,1.1,0.2c0.5,0.1,1,0.3,1.5,0.6c0.5,0.3,1.1,0.7,1.6,1.2
	c0.5,0.5,0.9,1,1.1,1.6c0.3,0.6,0.4,1.2,0.4,1.6c0.1,1-0.2,1.6-0.2,1.6s-0.1-0.6-0.4-1.5c-0.2-0.4-0.4-0.9-0.7-1.3
	c-0.1-0.2-0.3-0.4-0.5-0.7c-0.2-0.2-0.4-0.4-0.6-0.6c-0.2-0.2-0.4-0.4-0.6-0.6c-0.2-0.2-0.4-0.4-0.7-0.5c-0.5-0.3-0.9-0.6-1.3-0.8
	c-0.4-0.3-0.7-0.4-1-0.6C132.6,105,132.5,104.9,132.5,104.9z"/>
<path class="st5" d="M158.1,72.8c0,0-0.1,0-0.2,0.1c-0.2,0-0.4,0.1-0.6,0.1c-0.5,0-1.2-0.2-1.9-0.6c-0.3-0.2-0.6-0.5-0.7-0.8
	c-0.2-0.3-0.3-0.6-0.3-0.9c-0.1-0.6,0.1-0.9,0.1-0.9s0.2,0.3,0.4,0.7c0.3,0.4,0.6,0.8,1.1,1.1c0.2,0.2,0.5,0.3,0.7,0.5
	c0.2,0.1,0.5,0.3,0.7,0.4c0.2,0.1,0.4,0.2,0.5,0.3C158,72.7,158.1,72.8,158.1,72.8z"/>
<path class="st5" d="M156.3,77.3c0,0-0.1,0-0.3,0c-0.2,0-0.5,0.1-0.8,0c-0.7,0-1.6-0.3-2.4-0.9c-0.4-0.3-0.7-0.7-1-1.1
	c-0.3-0.4-0.4-0.8-0.5-1.2c-0.1-0.7,0.1-1.2,0.1-1.2s0.2,0.4,0.5,1c0.2,0.3,0.4,0.6,0.6,0.8c0.2,0.3,0.5,0.5,0.9,0.8
	c0.2,0.1,0.3,0.3,0.5,0.3c0.2,0.1,0.3,0.2,0.5,0.3c0.3,0.2,0.7,0.4,1,0.5c0.3,0.2,0.6,0.3,0.7,0.4C156.2,77.2,156.3,77.3,156.3,77.3
	z"/>
<path d="M157.8,73.1c0,0-0.1,0-0.2,0.1c-0.2,0-0.4,0.1-0.6,0.1c-0.5,0-1.2-0.2-1.9-0.6c-0.3-0.2-0.6-0.5-0.7-0.8
	c-0.2-0.3-0.3-0.6-0.3-0.9c-0.1-0.6,0.1-0.9,0.1-0.9s0.2,0.3,0.4,0.7c0.3,0.4,0.6,0.8,1.1,1.1c0.2,0.2,0.5,0.3,0.7,0.5
	c0.2,0.1,0.5,0.3,0.7,0.4c0.2,0.1,0.4,0.2,0.5,0.3C157.8,73,157.8,73.1,157.8,73.1z"/>
<path d="M156.1,77.6c0,0-0.1,0-0.3,0c-0.2,0-0.5,0.1-0.8,0c-0.7,0-1.6-0.3-2.4-0.9c-0.4-0.3-0.7-0.7-1-1.1c-0.3-0.4-0.4-0.8-0.5-1.2
	c-0.1-0.7,0.1-1.2,0.1-1.2s0.2,0.4,0.5,1c0.2,0.3,0.4,0.6,0.6,0.8c0.2,0.3,0.5,0.5,0.9,0.8c0.2,0.1,0.3,0.3,0.5,0.3
	c0.2,0.1,0.3,0.2,0.5,0.3c0.3,0.2,0.7,0.4,1,0.5c0.3,0.2,0.6,0.3,0.7,0.4C156,77.5,156.1,77.6,156.1,77.6z"/>
<g>
	<path d="M168.6,174.8c-0.1-0.3-0.2-0.5-0.3-0.8c0.2-0.5,0.3-1,0.2-1.6c0-0.5-0.3-4.5-2.7-8.4c-1.7-2.7-8.9-9.2-15.6-8.4
		c-2,0.2-5.2,1.3-7.2,5.2c-2.7-3.7-6.3-5.6-10.1-5.2c-3.2,0.4-6.2,2.4-9,6c-1.3,1.8-2.2,3.5-2.8,5.3c-1.9-1.3-4.1-2.1-6.4-1.8l0,0
		c-2,0.2-4.9,1.3-7.3,5.3c-1.8,2.9-2.6,5.7-2.8,8.1c-1-0.2-2.1-0.2-3.1-0.1c-2.6,0.3-4.7,1.6-6.1,3.6c-3.4,5.1,0.3,12.7,1.5,14.9
		c0.6,1,1.5,1.7,2.6,2c0.1,0.1,0.1,0.1,0.2,0.2l5.7,5.1c0.8,0.7,1.9,1.1,3,1c0.3,0.2,0.6,0.4,0.9,0.6l7.8,4.3
		c0.8,0.4,1.7,0.6,2.5,0.5c0.8-0.1,1.6-0.4,2.2-0.9c1.3-1.1,1.8-2.9,1.3-4.5l-0.8-2.3l1.2,1.3c0.9,1,2.2,1.4,3.5,1.3
		c0.4,0,0.7-0.1,1.1-0.3c1.6-0.6,2.6-2.2,2.6-3.9l-0.1-9.4c1.1,1,1.9,1.6,2,1.6c0.6,0.4,1.4,0.7,2.1,0.8l5.9,8
		c0.9,1.2,2.4,1.8,3.8,1.7c0.2,0,0.4-0.1,0.6-0.1c1.7-0.5,2.9-1.9,3.1-3.6l1.2-11c0-0.1,0-0.2,0-0.3c0.4,0.2,0.6,0.4,0.6,0.4
		c0.2,0.1,0.4,0.2,0.6,0.3c0.3,0.5,0.6,0.9,0.9,1.4l7.5,8.8c0.9,1.1,2.3,1.6,3.7,1.4c0.3,0,0.6-0.1,0.9-0.2c1.6-0.6,2.7-2.1,2.8-3.8
		l0.3-8.1c1.4-0.4,2.6-1.5,2.9-3C169.4,185.3,170.7,179.9,168.6,174.8z"/>
	<g>
		<path class="st0" d="M114.7,194.6c0,0-0.8-0.1-1.8,0.1c-0.4,0.1-0.9,0.2-1.4,0.4c0,0,0,0,0,0c-1.8,0.7-3.6,2.3-3.4,6l-5.7-5.1
			c0,0,0.6-4.3,0.4-6.1c0,0-1.3,4.6-2.3,5c0,0-4-7.1-1.7-10.5c0.5-0.8,1.2-1.2,2-1.5c0.9-0.3,1.9-0.3,2.9-0.2c2.1,0.3,4.2,1.5,5,2.8
			C110.3,188,114.4,192.8,114.7,194.6z"/>
		<path class="st0" d="M126.6,188.8c0,0-1.2-1.2-2.8-1.7c-1.1-0.3-2.4-0.4-3.6,0.3c-0.1,0.1-0.3,0.2-0.4,0.2c0,0,0,0,0,0
			c-2.8,1.9-2.1,5.7-1.5,6.5c-0.3-0.2-5-4.3-5.5-5.1c0,0,0.2-4,2.1-6.3c-0.2,0.2-3.4,2.8-3.3,4.1l-1.4-1.6c0,0-3.9-5.3,0.7-12.6
			c1.2-1.9,2.5-2.9,3.8-3.2c0.6-0.2,1.2-0.2,1.8,0c2.8,0.6,5.2,3.8,6.4,6C124.6,179.2,127.1,187.3,126.6,188.8z"/>
		<path class="st0" d="M145.3,184.3c0,0-1.3-1.6-3.6-2.1c-0.9-0.2-1.9-0.2-3,0.2c-0.8,0.2-1.4,0.6-1.9,1c-2.7,2.2-2.1,6.6-2.1,6.6
			s-3.7-2.6-7.1-7.8c0,0,0.5-5.2,3.3-7.9c-0.2,0.1-3.6,2.4-5,5.7c0,0-4.7-8,1.2-15.8c1.5-1.9,2.9-3.1,4.2-3.8c1-0.5,2-0.7,2.9-0.6
			c2.7,0.2,4.8,2.5,6.2,4.9C142.8,169,145.7,179.6,145.3,184.3z"/>
		<path class="st0" d="M165.2,184.9c0,0-1.2-3.9-4.5-5.3c-1-0.5-2.3-0.7-3.8-0.5c-2.4,0.4-3.7,1.5-4.4,2.7c-1.1,1.8-0.8,3.7-0.8,3.7
			s-8.6-4.9-6.3-18.7c0.5-3.4,1.7-5.3,3.2-6.3c0.6-0.4,1.3-0.6,2-0.7c4.5-0.6,10.4,4.5,11.7,6.5c1.9,3,2.1,6.3,2.1,6.3
			s-4.5-4.2-8.2-4.9c0,0,7,4.7,8.6,8.6C166.3,180.3,165.2,184.9,165.2,184.9z"/>
		<path class="st6" d="M119.3,207l-0.6-0.3c0,0,0,0,0,0l-7.2-3.9c-1.4-0.8-2-2.3-1.6-3.9c0.3-1.3,1.4-2.2,2.7-2.5l0.1,0
			c0,0,0.1,0,0.1,0c1.6-0.2,3.2,0.7,3.7,2.3L119.3,207z"/>
		<path class="st6" d="M119.5,190L119.5,190c0.8-1.2,2.2-1.8,3.6-1.7l0.1,0c1.8,0.2,3.2,1.8,3.2,3.6l0.1,9.6l-6.6-7
			C118.8,193.3,118.6,191.5,119.5,190z"/>
		<path class="st6" d="M137.2,185.5L137.2,185.5c1-1.3,2.7-1.8,4.3-1.4l0.1,0c2.1,0.5,3.4,2.5,3.2,4.6l-1.2,11l-6.6-9
			C135.9,189.1,135.9,187,137.2,185.5z"/>
		<path class="st6" d="M154.2,182.7L154.2,182.7c1-1.4,2.7-2.1,4.4-1.8l0.1,0c2.2,0.4,3.7,2.3,3.6,4.5l-0.4,11.4l-7.5-8.8
			C153.1,186.6,153,184.4,154.2,182.7z"/>
	</g>
	<path class="st3" d="M111.4,195.1c-1.8,0.7-3.6,2.3-3.4,6l-5.7-5.1c0,0,0.6-4.3,0.4-6.1c0,0-1.3,4.6-2.3,5c0,0-4-7.1-1.7-10.5
		c0.5-0.8,1.2-1.2,2-1.5c-0.8,4.7-0.7,6.7,0.2,8.2c0,0,1.7-3.1,1.5-4.9c0,0,3.3,5.5,1.9,8.8l2.5,2.6
		C107,197.6,109.2,195.4,111.4,195.1z"/>
	<path class="st3" d="M118.2,194.2c-0.3-0.2-5-4.3-5.5-5.1c0,0,0.2-4,2.1-6.3c-0.2,0.2-3.4,2.8-3.3,4.1l-1.4-1.6
		c0,0-3.9-5.3,0.7-12.6c1.2-1.9,2.5-2.9,3.8-3.2c-4.6,7.8-2.9,13.6-2.9,13.6s3.4-2.5,5-2.2c0,0-2.6,6.1-2,8l1.4,1.1
		c0,0,1.8-1.6,3.6-2.3C117,189.6,117.6,193.4,118.2,194.2z"/>
	<path class="st3" d="M134.8,190c0,0-3.7-2.6-7.1-7.8c0,0,0.5-5.2,3.3-7.9c-0.2,0.1-3.6,2.4-5,5.7c0,0-4.7-8,1.2-15.8
		c1.5-1.9,2.9-3.1,4.2-3.8c-4.1,4.7-4.2,14.1-4.2,14.1s4.3-2.8,7.1-3.2c0,0-3.5,5.8-4.3,9.5l3.2,5c0,0,1.6-1.6,3.6-2.5
		C134.1,185.6,134.8,190,134.8,190z"/>
	<path class="st3" d="M165.2,184.9c0,0-1.2-3.9-4.5-5.3c2.5,0.1,3.7,2,3.7,2s0.3,0.6-1.3-4.3c-1.6-4.9-11.6-11.3-11.6-11.3
		c3.9-0.5,7.6,0.8,7.8,0.9c-1.4-2.3-3.4-3.9-9-7.1c4.5-0.6,10.4,4.5,11.7,6.5c1.9,3,2.1,6.3,2.1,6.3s-4.5-4.2-8.2-4.9
		c0,0,7,4.7,8.6,8.6C166.3,180.3,165.2,184.9,165.2,184.9z"/>
	<path class="st5" d="M114.7,194.6c0,0-0.8-0.1-1.8,0.1c-3.1-5.4-6.8-9.7-9.1-12c2.1,0.3,4.2,1.5,5,2.8
		C110.3,188,114.4,192.8,114.7,194.6z"/>
	<path class="st5" d="M126.6,188.8c0,0-1.2-1.2-2.8-1.7c-0.4-4.2-1.8-11.9-7.4-17.7c2.8,0.6,5.2,3.8,6.4,6
		C124.6,179.2,127.1,187.3,126.6,188.8z"/>
	<path class="st5" d="M145.3,184.3c0,0-1.3-1.6-3.6-2.1c0.4-10.8-2.1-18-7.5-22.4c2.7,0.2,4.8,2.5,6.2,4.9
		C142.8,169,145.7,179.6,145.3,184.3z"/>
	<path class="st5" d="M152.5,181.8c-1.1,1.8-0.8,3.7-0.8,3.7s-8.6-4.9-6.3-18.7c0.5-3.4,1.7-5.3,3.2-6.3
		C145,168,149.2,176.7,152.5,181.8z"/>
	<path class="st5" d="M118.7,206.6l-7.2-3.9c-1.4-0.8-2-2.3-1.6-3.9c0.3-1.3,1.4-2.2,2.7-2.5l0.1,0c0,0,0.1,0,0.1,0
		C112.2,199.8,115,203.2,118.7,206.6z"/>
</g>
<g>
	<path d="M204,180.4c0.1,0.3,0.2,0.5,0.3,0.8c-0.2,0.5-0.3,1-0.2,1.6c0,0.5,0.3,4.5,2.7,8.4c1.7,2.7,8.9,9.2,15.6,8.4
		c2-0.2,5.2-1.3,7.2-5.2c2.7,3.7,6.3,5.6,10.1,5.2c3.2-0.4,6.2-2.4,9-6c1.3-1.8,2.2-3.5,2.8-5.3c1.9,1.3,4.1,2.1,6.4,1.8l0,0
		c2-0.2,4.9-1.3,7.3-5.3c1.8-2.9,2.6-5.7,2.8-8.1c1,0.2,2.1,0.2,3.1,0.1c2.6-0.3,4.7-1.6,6.1-3.6c3.4-5.1-0.3-12.7-1.5-14.9
		c-0.6-1-1.5-1.7-2.6-2c-0.1-0.1-0.1-0.1-0.2-0.2l-5.7-5.1c-0.8-0.7-1.9-1.1-3-1c-0.3-0.2-0.6-0.4-0.9-0.6l-7.8-4.3
		c-0.8-0.4-1.7-0.6-2.5-0.5c-0.8,0.1-1.6,0.4-2.2,0.9c-1.3,1.1-1.8,2.9-1.3,4.5l0.8,2.3l-1.2-1.3c-0.9-1-2.2-1.4-3.5-1.3
		c-0.4,0-0.7,0.1-1.1,0.3c-1.6,0.6-2.6,2.2-2.6,3.9l0.1,9.4c-1.1-1-1.9-1.6-2-1.6c-0.6-0.4-1.4-0.7-2.1-0.8l-5.9-8
		c-0.9-1.2-2.4-1.8-3.8-1.7c-0.2,0-0.4,0.1-0.6,0.1c-1.7,0.5-2.9,1.9-3.1,3.6l-1.2,11c0,0.1,0,0.2,0,0.3c-0.4-0.2-0.6-0.4-0.6-0.4
		c-0.2-0.1-0.4-0.2-0.6-0.3c-0.3-0.5-0.6-0.9-0.9-1.4l-7.5-8.8c-0.9-1.1-2.3-1.6-3.7-1.4c-0.3,0-0.6,0.1-0.9,0.2
		c-1.6,0.6-2.7,2.1-2.8,3.8l-0.3,8.1c-1.4,0.4-2.6,1.5-2.9,3C203.2,169.9,201.9,175.4,204,180.4z"/>
	<g>
		<path class="st0" d="M257.9,160.6c0,0,0.8,0.1,1.8-0.1c0.4-0.1,0.9-0.2,1.4-0.4c0,0,0,0,0,0c1.8-0.7,3.6-2.3,3.4-6l5.7,5.1
			c0,0-0.6,4.3-0.4,6.1c0,0,1.3-4.6,2.3-5c0,0,4,7.1,1.7,10.5c-0.5,0.8-1.2,1.2-2,1.5c-0.9,0.3-1.9,0.3-2.9,0.2
			c-2.1-0.3-4.2-1.5-5-2.8C262.3,167.3,258.1,162.4,257.9,160.6z"/>
		<path class="st0" d="M246,166.4c0,0,1.2,1.2,2.8,1.7c1.1,0.3,2.4,0.4,3.6-0.3c0.1-0.1,0.3-0.2,0.4-0.2c0,0,0,0,0,0
			c2.8-1.9,2.1-5.7,1.5-6.5c0.3,0.2,5,4.3,5.5,5.1c0,0-0.2,4-2.1,6.3c0.2-0.2,3.4-2.8,3.3-4.1l1.4,1.6c0,0,3.9,5.3-0.7,12.6
			c-1.2,1.9-2.5,2.9-3.8,3.2c-0.6,0.2-1.2,0.2-1.8,0c-2.8-0.6-5.2-3.8-6.4-6C248,176,245.5,168,246,166.4z"/>
		<path class="st0" d="M227.3,170.9c0,0,1.3,1.6,3.6,2.1c0.9,0.2,1.9,0.2,3-0.2c0.8-0.2,1.4-0.6,1.9-1c2.7-2.2,2.1-6.6,2.1-6.6
			s3.7,2.6,7.1,7.8c0,0-0.5,5.2-3.3,7.9c0.2-0.1,3.6-2.4,5-5.7c0,0,4.7,8-1.2,15.8c-1.5,1.9-2.9,3.1-4.2,3.8c-1,0.5-2,0.7-2.9,0.6
			c-2.7-0.2-4.8-2.5-6.2-4.9C229.8,186.3,226.9,175.6,227.3,170.9z"/>
		<path class="st0" d="M207.4,170.3c0,0,1.2,3.9,4.5,5.3c1,0.5,2.3,0.7,3.8,0.5c2.4-0.4,3.7-1.5,4.4-2.7c1.1-1.8,0.8-3.7,0.8-3.7
			s8.6,4.9,6.3,18.7c-0.5,3.4-1.7,5.3-3.2,6.3c-0.6,0.4-1.3,0.6-2,0.7c-4.5,0.6-10.4-4.5-11.7-6.5c-1.9-3-2.1-6.3-2.1-6.3
			s4.5,4.2,8.2,4.9c0,0-7-4.7-8.6-8.6C206.3,174.9,207.4,170.3,207.4,170.3z"/>
		<path class="st6" d="M253.3,148.2l0.6,0.3c0,0,0,0,0,0l7.2,3.9c1.4,0.8,2,2.3,1.6,3.9c-0.3,1.3-1.4,2.2-2.7,2.5l-0.1,0
			c0,0-0.1,0-0.1,0c-1.6,0.2-3.2-0.7-3.7-2.3L253.3,148.2z"/>
		<path class="st6" d="M253,165.2L253,165.2c-0.8,1.2-2.2,1.8-3.6,1.7l-0.1,0c-1.8-0.2-3.2-1.8-3.2-3.6l-0.1-9.6l6.6,7
			C253.8,161.9,254,163.8,253,165.2z"/>
		<path class="st6" d="M235.4,169.8L235.4,169.8c-1,1.3-2.7,1.8-4.3,1.4l-0.1,0c-2.1-0.5-3.4-2.5-3.2-4.6l1.2-11l6.6,9
			C236.7,166.1,236.6,168.3,235.4,169.8z"/>
		<path class="st6" d="M218.4,172.5L218.4,172.5c-1,1.4-2.7,2.1-4.4,1.8l-0.1,0c-2.2-0.4-3.7-2.3-3.6-4.5l0.4-11.4l7.5,8.8
			C219.5,168.6,219.6,170.8,218.4,172.5z"/>
	</g>
	<path class="st3" d="M261.2,160.1c1.8-0.7,3.6-2.3,3.4-6l5.7,5.1c0,0-0.6,4.3-0.4,6.1c0,0,1.3-4.6,2.3-5c0,0,4,7.1,1.7,10.5
		c-0.5,0.8-1.2,1.2-2,1.5c0.8-4.7,0.7-6.7-0.2-8.2c0,0-1.7,3.1-1.5,4.9c0,0-3.3-5.5-1.9-8.8l-2.5-2.6
		C265.6,157.6,263.3,159.8,261.2,160.1z"/>
	<path class="st3" d="M254.4,161.1c0.3,0.2,5,4.3,5.5,5.1c0,0-0.2,4-2.1,6.3c0.2-0.2,3.4-2.8,3.3-4.1l1.4,1.6c0,0,3.9,5.3-0.7,12.6
		c-1.2,1.9-2.5,2.9-3.8,3.2c4.6-7.8,2.9-13.6,2.9-13.6s-3.4,2.5-5,2.2c0,0,2.6-6.1,2-8l-1.4-1.1c0,0-1.8,1.6-3.6,2.3
		C255.6,165.6,255,161.8,254.4,161.1z"/>
	<path class="st3" d="M237.8,165.2c0,0,3.7,2.6,7.1,7.8c0,0-0.5,5.2-3.3,7.9c0.2-0.1,3.6-2.4,5-5.7c0,0,4.7,8-1.2,15.8
		c-1.5,1.9-2.9,3.1-4.2,3.8c4.1-4.7,4.2-14.1,4.2-14.1s-4.3,2.8-7.1,3.2c0,0,3.5-5.8,4.3-9.5l-3.2-5c0,0-1.6,1.6-3.6,2.5
		C238.5,169.6,237.8,165.2,237.8,165.2z"/>
	<path class="st3" d="M207.4,170.3c0,0,1.2,3.9,4.5,5.3c-2.5-0.1-3.7-2-3.7-2s-0.3-0.6,1.3,4.3c1.6,4.9,11.6,11.3,11.6,11.3
		c-3.9,0.5-7.6-0.8-7.8-0.9c1.4,2.3,3.4,3.9,9,7.1c-4.5,0.6-10.4-4.5-11.7-6.5c-1.9-3-2.1-6.3-2.1-6.3s4.5,4.2,8.2,4.9
		c0,0-7-4.7-8.6-8.6C206.3,174.9,207.4,170.3,207.4,170.3z"/>
	<path class="st5" d="M257.9,160.6c0,0,0.8,0.1,1.8-0.1c3.1,5.4,6.8,9.7,9.1,12c-2.1-0.3-4.2-1.5-5-2.8
		C262.3,167.3,258.1,162.4,257.9,160.6z"/>
	<path class="st5" d="M246,166.4c0,0,1.2,1.2,2.8,1.7c0.4,4.2,1.8,11.9,7.4,17.7c-2.8-0.6-5.2-3.8-6.4-6
		C248,176,245.5,168,246,166.4z"/>
	<path class="st5" d="M227.3,170.9c0,0,1.3,1.6,3.6,2.1c-0.4,10.8,2.1,18,7.5,22.4c-2.7-0.2-4.8-2.5-6.2-4.9
		C229.8,186.3,226.9,175.6,227.3,170.9z"/>
	<path class="st5" d="M220.1,173.4c1.1-1.8,0.8-3.7,0.8-3.7s8.6,4.9,6.3,18.7c-0.5,3.4-1.7,5.3-3.2,6.3
		C227.5,187.2,223.4,178.5,220.1,173.4z"/>
	<path class="st5" d="M253.9,148.6l7.2,3.9c1.4,0.8,2,2.3,1.6,3.9c-0.3,1.3-1.4,2.2-2.7,2.5l-0.1,0c0,0-0.1,0-0.1,0
		C260.4,155.4,257.6,152.1,253.9,148.6z"/>
</g>
</svg>
