<?xml version="1.0" encoding="utf-8"?>
<!-- Generator: Adobe Illustrator 20.1.0, SVG Export Plug-In . SVG Version: 6.00 Build 0)  -->
<svg version="1.1" id="Layer_1" xmlns="http://www.w3.org/2000/svg" xmlns:xlink="http://www.w3.org/1999/xlink" x="0px" y="0px"
	 viewBox="0 0 327 367.3" style="enable-background:new 0 0 327 367.3;" xml:space="preserve">
<style type="text/css">
	.st0{fill:#CCCCCC;}
	.st1{fill:#999999;}
	.st2{fill:url(#SVGID_1_);}
	.st3{fill:url(#SVGID_2_);}
	.st4{fill-rule:evenodd;clip-rule:evenodd;fill:#E3E8EB;}
	.st5{fill-rule:evenodd;clip-rule:evenodd;fill:url(#SVGID_3_);}
	.st6{fill-rule:evenodd;clip-rule:evenodd;fill:#FFFFFF;}
	.st7{fill-rule:evenodd;clip-rule:evenodd;fill:#CCCCCC;}
	.st8{fill:#FFFFFF;}
	.st9{fill:#E5E5E5;}
	.st10{fill:#72BB20;}
</style>
<g>
	<path d="M237.3,277.2c0,40.6-32.9,73.6-73.6,73.6s-73.6-32.9-73.6-73.6c0-14.9,4.4-28.7,12-40.2c2.1-3.3,4.5-6.4,7.1-9.3
		c2.6-2.8,5.3-5.4,8.3-7.8c2.5-2,5.1-3.9,7.9-5.5c11.1-6.8,24.3-10.7,38.3-10.7c18,0,34.5,6.4,47.2,17.2c1.4,1.2,2.7,2.3,4,3.6
		c0.4,0.4,0.8,0.8,1.2,1.2c0.7,0.7,1.4,1.4,2,2.2c1.9,2.1,3.6,4.2,5.2,6.4l0,0c0.2,0.3,0.4,0.6,0.6,0.9v0c0.2,0.3,0.4,0.6,0.7,1
		c0.2,0.3,0.3,0.5,0.5,0.8c2,3,3.7,6.1,5.2,9.3v0c0.5,1.1,1,2.3,1.5,3.5c0.2,0.4,0.3,0.8,0.5,1.3c0.9,2.2,1.6,4.5,2.2,6.8
		c0.1,0.5,0.3,1,0.4,1.5c0.1,0.5,0.3,1.1,0.4,1.6c0.4,1.7,0.7,3.5,1,5.2C237.1,269.6,237.3,273.3,237.3,277.2z"/>
	<path d="M130.5,197.1l-3.7,6.6l-0.9,1.6l-1.7,3c-9,5.4-19.3,13.3-25.5,21.8c-2,2.6-4,5.9-5.6,8.8l-1.2,0.5l-6.9,1.6l-7.8,1.8
		l-2.9,0.7l0.9-4.5l1.6-7.8c0,0,0,0,0-0.1l0.5-2.5l1.7-8.1l0.3-1.6l1.4-7l0.2-0.9c0,0,0,0,0,0l0.4-2.1l0.3-1.6l2.8-1.3l-2.6-2.9
		l1.9-0.1l10.3-0.7l-3.1-1.8c8.4-3,36.8-3.3,39.4-3.4C130.4,197.1,130.5,197.1,130.5,197.1z"/>
	<path class="st0" d="M126,202.5l-0.1,1.6l0,1.2l-2.2,1.4c-0.7,0.4-1.4,1.3-2.2,1.8c-9,5.4-16.6,14.2-22.8,22.6l-2.3,0.5l-1.7,0.5
		l-6,1.8l-2.6,0.8l-4.5,1.3l-3.3,1l2.8-15.6c0-0.1,0-0.2,0-0.3l0.4-2.2c0,0,0,0,0,0l1.5-8.4l2.4-0.4l6.6-1.1
		c-2.2-0.8-3.2-1.6-3.2-1.6c4.5-1.3,16.5-0.8,16.5-0.8c-1.7-0.7-6.6-1.9-6.6-1.9c2.1-0.7,7.7-1.2,13.2-1.6c0.5,0,1-0.1,1.5-0.1
		c2-0.1,4-0.2,5.8-0.3c1.7-0.1,3.3-0.1,4.4-0.2C125.1,202.5,126,202.5,126,202.5z"/>
	<path class="st1" d="M122.3,204.5L94.7,232l-8.6,2.5c1.7-3.5,6.9-13.5,14.6-20c-0.5,0.3-4.3,2.4-7,4.1c0.4-0.4,11.8-10.8,19.8-15.7
		c4-0.2,7.9-0.3,10.2-0.4C125.1,203.6,122.3,204.5,122.3,204.5z"/>
	<path d="M81,197.5l-0.5-0.9c-1.9-3.2-2.6-4.5-2.4-7.6c0.1-1.2,0.3-2.4,0.5-3.7c0.7-5.2,1.5-11-1.8-15.7c-2-2.8-5.6-4.5-9.6-4.5
		c-5.1,0-9.9,2.7-12.5,7c-4.1,6.8-3,15-1.5,20.5c-3.8,0.3-7.5,1.2-10.7,2.6c-7.3,3.2-11.9,8.6-12.5,14.4c-0.3,3.3,0.7,6.4,2.8,8.9
		c-1.1,4.5-0.3,9.4,2.3,13.3c-1.9,5.8,0.1,11.6,5.5,15.4c1.3,0.9,2.8,1.7,4.3,2.3c3.9,1.4,8.3,2.2,12.7,2.2c6.6,0,12.4-1.7,16-4.8
		c1.5-1.2,2.8-2.7,3.7-4.4c0.5-0.5,1-1,1.5-1.6l0-0.1l1.2-1.5c2.2-3.4,3.3-7.6,3.5-11.5l0.9-3C87.3,215.2,86.2,206.4,81,197.5z"/>
	<g>
		<g>
			
				<linearGradient id="SVGID_1_" gradientUnits="userSpaceOnUse" x1="512.0908" y1="256.1942" x2="516.3505" y2="206.6266" gradientTransform="matrix(-1 -4.688234e-03 4.688234e-03 -1 698.2537 528.3495)">
				<stop  offset="0" style="stop-color:#72BB20"/>
				<stop  offset="1" style="stop-color:#00615E"/>
			</linearGradient>
			<path class="st2" d="M168.7,338.2c-4-4-8-8.1-12.1-12.2c11.3-11.2,22.6-22.4,33.9-33.6c-10.7-10.7-21.3-21.4-31.9-32.1
				c4.1-4.1,8.1-8.1,12.2-12.2c14.6,14.8,29.3,29.6,44,44.3C199.5,307.7,184.1,322.9,168.7,338.2z"/>
		</g>
		<g>
			
				<linearGradient id="SVGID_2_" gradientUnits="userSpaceOnUse" x1="368.3395" y1="128.7404" x2="372.5992" y2="79.1728" gradientTransform="matrix(1 -1.755940e-03 -1.755940e-03 -1 -227.5571 367.7401)">
				<stop  offset="0" style="stop-color:#72BB20"/>
				<stop  offset="1" style="stop-color:#00615E"/>
			</linearGradient>
			<path class="st3" d="M159,306.8c4-4,8-8.1,12.1-12.1c-11.2-11.2-22.5-22.4-33.8-33.7c10.7-10.7,21.4-21.4,32-32
				c-4.1-4.1-8.1-8.2-12.2-12.2c-14.7,14.7-29.4,29.5-44.1,44.2C128.3,276.2,143.7,291.5,159,306.8z"/>
		</g>
	</g>
	<g>
		<g>
			<path class="st4" d="M59,197.1c-2.6-5.4-5.4-15.8-1-22.9c3.8-6.2,12.5-6.4,15.5-2.2c3.1,4.3,1.1,11.1,0.6,16.7
				c-0.4,4.8,1.1,6.9,3.4,10.8c4.3,7.4,5.7,15.1,3,24c-0.4-2.8-1-4.9-2.8-6.3c2.7,4.8,3.1,18.2-4.7,23.7c0.8-1.3,1.3-2.7,1.5-4.2
				c0.1-1.5-0.1-3.2-1-4.5c0-0.9-0.2-1.9-0.7-2.7c1.4-1.7,2.3-3.7,2.8-6.1c1-4.1-0.6-8-4.7-9.1c1-1.1,1.8-2.3,2.1-3.8
				c0.5-1.9,0.5-3.9-0.4-5.8c-1.5-3.4-5.1-5.5-8.5-6.5C62.5,197.6,60.8,197.2,59,197.1z"/>
			
				<linearGradient id="SVGID_3_" gradientUnits="userSpaceOnUse" x1="396.4528" y1="447.7974" x2="405.8786" y2="429.2982" gradientTransform="matrix(-0.9347 -0.3554 -0.3554 0.9347 598.8715 -64.8142)">
				<stop  offset="0" style="stop-color:#EEEFEF"/>
				<stop  offset="1" style="stop-color:#FFFFFF"/>
			</linearGradient>
			<path class="st5" d="M56.8,181.5c0,7.4,2.4,11.6,4.9,12.1c3.2,0.6,7.2-4.2,8.6-12.4C72.9,166,58.7,171,56.8,181.5z M75.5,217.3
				C75.5,217.2,75.5,217.2,75.5,217.3c-0.4-1.3-0.9-2.6-1.4-3.9c1.2-1.2,2.6,0.4,4.4,1.8c-1.3-17.4-14.7-20.5-16.7-18.2
				c-0.1,0.1-0.2,0.3-0.2,0.5c0.9,0.2,1.7,0.4,2.6,0.7c3.4,1,7,3.1,8.5,6.5c0.8,1.9,0.9,3.8,0.4,5.8c-0.3,1.5-1.1,2.7-2.1,3.8
				c4,1.2,5.6,5.1,4.7,9.2c-0.4,2.4-1.4,4.5-2.8,6.1c-0.3,0.4-0.8,0.8-0.7,1.3c0.1,0.4,0.7,0.7,1.3,1.4c0.2,0.3,0.4,0.6,0.5,0.9
				c0,0.1,0.1,0.3,0.1,0.4c0.1,0.3,0.2,0.5,0.2,0.8c0,0.1,0,0.2,0.1,0.3c0,0.1,0,0.2,0,0.3c0,0.1,0,0.3,0,0.5c0,0.1,0,0.2,0,0.3
				c0.2-0.2,0.3-0.5,0.5-0.7c0,0,0,0,0,0c0.8-1.3,1.3-2.5,1.7-3.8c0,0,0,0,0-0.1c0.2-0.8,0.4-1.6,0.5-2.5c0.4-2.9-0.1-5.9-1-8.9
				C76.1,218.9,75.8,218.1,75.5,217.3z"/>
			<path class="st6" d="M58.4,175.4c4-5.4,12.1-6.3,13.7,0c1.6,6.1-1.3,11.7-0.4,16.7c1.6,9.4,7.5,8.5,9.7,23.8
				c-0.8-14.9-6.8-14.7-8.2-24.5c-0.8-5.6,1.8-8.4,0.1-16.9C72.1,168.1,61.3,168.1,58.4,175.4z"/>
		</g>
		<path d="M44,198.8c8.2-3.6,19.4-3.1,25.4,1.2l0,0c3.7,2.6,5.2,6.3,4.1,10.5c-0.3,1.2-0.8,2.4-1.7,3.4c0.6,0.2,1.1,0.5,1.6,0.8l0,0
			c2.5,1.8,3.6,5.1,2.7,8.7c-0.5,2.8-1.8,5.2-3.6,7.2c0.1,0.1,0.3,0.2,0.4,0.2c1.4,1,2.2,2.7,2.2,4.8c0,3.1-1.5,6.1-4,8
			c-5,4.3-16.1,5.1-24.8,1.9c-1.3-0.5-2.4-1.1-3.4-1.8c-4.4-3.1-5.7-7.9-3.3-12.6l0.1-0.1c-3.3-3.6-4.3-9.3-2.2-13.8
			c-2.5-1.9-3.8-4.5-3.5-7.4C34.3,205.6,38.1,201.4,44,198.8z"/>
		<g>
			<path class="st7" d="M46.7,244.3c8.3,3.1,18.9,2.3,23.4-1.7c4.3-3.2,4.4-9.4,1.5-10.8c-0.1-0.1-0.3-0.2-0.4-0.3
				c-4.2,3.7-10.5,4.8-15.4,4.8c-4.6,0-9.8-1.1-13.8-3.5c-0.4-0.3-0.8-0.6-1.2-0.9C38,237.3,41.2,242.2,46.7,244.3z"/>
			<path class="st6" d="M45.7,234.5c-3.2,12.7,34.8,12.6,24.6-2.2c-4.2,3.1-9.9,4-14.4,4C52.6,236.3,49,235.7,45.7,234.5z"/>
			<path class="st7" d="M42.5,231.7c9.5,6,29.8,4.9,32.2-8.6c0.8-3.5-0.3-7.3-4.6-8.2c-1.1,1-2.5,1.8-3.8,2.4
				c-1,0.5-2.2,0.9-3.3,1.3c-3,1-6.1,1.6-9.1,1.9c-3.8,0.3-8,0.1-11.7-1.1c-1.2-0.4-2.4-0.9-3.5-1.6
				C36.4,222.6,38.1,228.9,42.5,231.7z"/>
			<path class="st6" d="M70.9,225.3c2.3-4.7,2.1-8.2-3.8-8.4c-0.2,0.1-0.5,0.2-0.7,0.3c-1,0.5-2.2,0.9-3.3,1.3c-3,1-6.1,1.6-9.1,1.9
				c-2.5,0.2-5,0.2-7.6-0.2c-2.2,2.8-2.8,7.5,0.8,10.2C52.4,234.4,66.5,232.4,70.9,225.3z"/>
			<path class="st7" d="M42.5,218.3c10.4,3,28-0.2,29.6-8.1c2.9-11-15.4-15.4-27.6-10C33.4,205,31.7,215.1,42.5,218.3z"/>
			<path class="st6" d="M70.2,211.3c3.5-13.3-19.4-9.9-24.4-3.5c-4.4,5.6-0.7,9.6,5.1,10.5C57.6,219.2,69.3,216.5,70.2,211.3z"/>
		</g>
	</g>
	<path d="M249.5,263.4c-0.3-1.7-0.6-3.4-1-5.1c-0.1-0.5-0.2-1-0.3-1.4c-0.2-0.8-0.4-1.6-0.6-2.4c-0.7-2.5-1.4-4.9-2.3-7.3
		c-0.1-0.4-0.3-0.7-0.4-1.1c-0.3-0.9-0.7-1.7-1-2.6c-1.6-3.8-3.4-7.4-5.5-10.8c-0.2-0.3-0.4-0.6-0.6-1c-0.2-0.3-0.3-0.5-0.5-0.7
		c-2.8-4.5-6.1-8.8-9.7-12.7c-1.1-1.1-2.2-2.3-3.3-3.3c-0.3-0.3-0.7-0.7-1-1c-1.2-1.2-2.5-2.3-3.8-3.4
		c-15.1-12.6-34.5-20.2-55.6-20.2c-11.9,0-23.2,2.4-33.5,6.7c-3.8,1.6-7.5,3.5-11,5.6c-12.6,7.6-23.2,18.3-30.6,31.1
		c-1.3,2.3-2.6,4.7-3.7,7.1c-5.1,11-7.9,23.3-7.9,36.3c0,47.8,38.9,86.8,86.8,86.8c47.8,0,86.8-38.9,86.8-86.8
		C250.5,272.5,250.2,267.9,249.5,263.4z M85,277.2c0-14,3.7-27.2,10.1-38.6c1.6-2.9,3.4-5.6,5.4-8.3c6.2-8.4,14.1-15.6,23.2-20.9
		c0.7-0.4,1.5-0.8,2.2-1.3c11.3-6.2,24.3-9.8,38-9.8c18.9,0,36.3,6.7,49.9,17.9c1.3,1,2.5,2.1,3.8,3.3c0.4,0.3,0.7,0.7,1.1,1
		c0.7,0.7,1.4,1.4,2.1,2.1c3.3,3.5,6.3,7.3,9,11.3c0.1,0.2,0.3,0.4,0.4,0.6c0.2,0.3,0.4,0.6,0.5,0.8c2.2,3.4,4.1,7,5.7,10.8
		c0.4,1,0.8,2,1.2,3c0.1,0.4,0.3,0.7,0.4,1.1c0.9,2.5,1.7,5,2.3,7.6c0.1,0.6,0.3,1.1,0.4,1.7c0.1,0.5,0.2,0.9,0.3,1.4
		c0.3,1.6,0.6,3.3,0.9,4.9c0.5,3.7,0.8,7.5,0.8,11.3c0,43.5-35.4,78.8-78.8,78.8C120.3,356,85,320.6,85,277.2z"/>
	<polygon class="st8" points="150.7,195.5 152,216.2 178.2,214.7 181.5,188.5 167.7,186 	"/>
	<g>
		<polygon class="st8" points="152.5,163.3 142.8,168.8 123.2,175.7 129.6,190 136.9,195.1 147.1,193.7 155,191.9 164.3,187 
			178.7,186.9 193.4,186.4 204.5,177.5 205.5,168.3 203,162.9 183.9,161.1 164.8,159.6 		"/>
		<g>
			<path class="st9" d="M152.7,197c0,0,15.1-7.5,22.6-6.6c0,0,3.2,15.9-6,24.9l10.4-0.6l1.1-17.7l1.1-10l-16.8-1.5l-15.1,9.8
				L152.7,197z"/>
			<path class="st9" d="M174.4,170.2c0,0,37-5.1,12.8,15.1l11.1-0.8l7.9-8.5l-0.6-9.1l-4.2-4l-28.7-0.9L174.4,170.2z"/>
			<g>
				<g>
					<path class="st1" d="M213.3,95.2c0,0,29-26.4,55.3-33.5l-8.5-10.5l-26.6,10.5l-23.7,18.1L213.3,95.2z"/>
					<path class="st0" d="M205.2,73.2c0,0,42-50.5,49.4-56.4c0,0,23,15.6,51.1,18.3c28.1,2.7,3.9,29.9,3.9,29.9l-21.4,39.3L265.8,55
						l-13-10l-43.4,32.1L205.2,73.2z"/>
					<path class="st1" d="M113,95.2c0,0-29-26.4-55.3-33.5l8.5-10.5l26.6,10.5l23.7,18.1L113,95.2z"/>
					<path class="st0" d="M40.2,102c0,0-28.6-37.3-21.8-66.4c0,0,48.5-2.7,59.1-25L125,65l-8.6,14.8L91,59.5l-17.1-8.8l-13.4,4.8
						L40.2,102z"/>
					<path class="st0" d="M179,69.9c0,0-35.6-5.1-46.9,14.4s-7.1,35.9-7.1,35.9s-32.9,2.7-32.2,35.9s35.8,32.2,35.8,32.2l-3.6-8.5
						l2-5.1l7-3.4l19-8.2l23.9-2l21.1,1.2l7.2,1.2v11.2l-14.4,16.7l15.3,3.7l28.4-20.4l4.7-22.9l-4.7-26.9l-10.3-9.9l-12.9-6.1
						L209,87.1l-21.2-25.4L179,69.9z"/>
					<g>
						<path d="M317.6,22c-33.1,4-63.2-18.9-63.2-18.9c-24.5,20.2-42,41.8-53.9,59.7c-4-3-8.7-5.2-13.7-6.4c-0.2-0.1-0.3-0.2-0.5-0.3
							c-8.8-4.6-12.2-11.1-12.2-11.1c-13-22.6,12.2-26.6,12.2-26.6c-21.7,2.8-25,21.8-25.5,27.1c0.2-12.2-15.4-14.7-15.4-14.7
							c11.8,5,5.8,20.6-7.6,26.4c-3.9,1.3-7.6,3.2-10.8,5.5c-11.9-18-29.4-39.5-53.9-59.7c0,0-30,22.9-63.2,18.9
							c0,0-25.4,40.3,30.3,94.5c0,0,8.7-33.1,18.3-44.6c0,0,31.1,11.8,52.8,33.7v3c-17.9,6.4-30.7,23.5-30.7,43.6
							c0,25.6,20.7,46.4,46.4,46.4c3.1,0,6.1-0.3,9-0.9c3.4,1.1,7.5,1.4,12.6,0.3v15.4c0,0-0.1,7.1,6.8,6.8
							c8.6-0.4,21.8-0.9,21.8-0.9s5.6,0.4,5.8-11.3c0.1-5.2,0.3-9.1,0.5-12.7c5.3,2.1,11,3.2,17.1,3.2c25.6,0,46.4-20.7,46.4-46.4
							c0-20.1-12.8-37.2-30.7-43.6v-3C237.9,83.7,269,71.9,269,71.9c9.6,11.4,18.3,44.6,18.3,44.6C343,62.3,317.6,22,317.6,22z
							 M37.5,104.4C-0.2,65.7,13.4,28.2,13.4,28.2C42.8,31,72.9,10.5,72.9,10.5c20.8,20.3,37,40.6,48.6,57.3
							c-1.3,1.5-2.6,3.1-3.7,4.8C98.8,47.8,79.7,38.1,79.7,38.1c0.9-2.2,8.4-4.3,8.4-4.3C62.6,23.5,37.5,104.4,37.5,104.4z
							 M60.5,66.6l4.9-11.2C86.9,66,102,77.8,111.9,87.3c-0.4,2.1-0.5,4.2-0.5,6.4v5C89.4,78.1,60.5,66.6,60.5,66.6z M150.3,192.2
							c-2.4,0.4-5.4,0.6-9,0.3c-1.7-0.1-3.1-0.4-4.4-0.9c7-0.8,11.9-4.6,11.9-4.6c-6.8,2.9-11.5,3.6-14.6,3.5
							c-0.8-0.5-1.5-1-2.1-1.5c7.8-0.3,13.6-4.8,13.6-4.8c-7,3-11.7,3.6-14.7,3.5c-0.4-0.6-0.8-1.2-1.1-1.8c8.6,0.3,15-4.8,15-4.8
							c-7.6,3.3-12.6,3.7-15.6,3.4c-0.3-0.8-0.5-1.6-0.6-2.3c9.5,1.2,17-4.6,17-4.6c-9.1,3.9-14.3,3.8-17.1,3.1
							c-0.1-1-0.1-1.9,0-2.7c9.8,1.6,17.6-4.5,17.6-4.5c-9.5,4-14.8,3.8-17.5,3c0.1-0.8,0.2-1.2,0.2-1.2c13.2-1.4,20.9-8.2,20.9-8.2
							c2.8,3.3,6.7,6,9.4,7.6c1.7,1,2.8,1.5,2.8,1.5l-0.3,6.5l-0.2,3C161.7,185.7,159.1,190.7,150.3,192.2z M179,193.2
							c-0.2,20.3-5,20.7-5,20.7s-3.3,0.2-7.2,0.3l-0.4-4.2l-0.7,4.2c-2.1,0.1-4.3,0.1-6.3,0.1c-5.9,0-5.3-2.5-5.3-2.5l-1-16.1
							c4.2-2.8,8.1-4.5,11.5-5.6l1.7,16.7l0.8-17.5c1.7-0.4,3.3-0.7,4.7-0.8c4.5-0.4,7.1,0.4,7.1,0.4C179,190.4,179,191.8,179,193.2
							z M193.4,182.2c-1,0.4-2.1,0.9-3.1,1.2c-3,1.1-8.1,1-12.6,0.7c-4.9-0.4-9.4-0.7-9.4-0.7l-0.1-7.3c0,0,0.5-0.5,0.7-0.6
							c1.6-1.1,8.4-5.9,9.6-7.5c1.4-1.8,10.9-2.3,17.7-2.7c0.8-0.1,1.4-0.1,2.1-0.1c-2.7,1.5-7.3,3-15.2,3.3c0,0,9.2,2.1,17.4-3.1
							c1.1,0.3,1.7,0.9,2.1,1.7c-2,1.9-6.7,4.4-17.3,4.8c0,0,9.4,2.1,17.6-3.2c0.1,0.7,0.1,1.6,0.1,2.6c-2.6,1.6-7.3,3.2-15.5,3.5
							c0,0,7.9,1.8,15.4-2c-0.1,0.8-0.4,1.6-0.7,2.3c-2.8,1.3-7.2,2.5-14.1,2.8c0,0,6.2,1.4,12.9-0.9c-1.1,1.3-2.5,2.4-4.2,3.4
							c-2.6,0.7-5.9,1.2-10.3,1.4C186.6,181.9,189.5,182.5,193.4,182.2z M231,127.3c-10.8-11.6-18.6-10.1-18.6-10.1
							c6.7,5.9-0.3,16.1-0.3,16.1c1.5-10.7-3.6-16.1-3.6-16.1c2.5,6.6-0.5,13.5-0.5,13.5c-12,14.5-40.3,4.8-40.3,4.8
							c1.8,2.5,15,8.7,39.8,6.9c24.7-1.8,22.4,24.2,22.4,24.2c0.5-12.8-13-17.1-13-17.1c17.3,21.2-0.5,32.6-0.5,32.6
							c3.3-6.9-0.5-11.5-0.5-11.5c-0.2,11.4-5.9,16.4-18.2,18.5c5-1.3,10-4.2,11.2-10.8c2.7-14.5-3.2-20.9-10-19.5
							c-6.8,1.4-13,1.5-18.2-4.5c-7.9-9.3-26.2-2.7-26.2-2.7s-6,3.1-6.5,8.6c0,0-0.5,9.1-19.1,9.5c-18.6,0.4-8.6,14.1-4.1,19.5
							c0.6,0.7,1.2,1.4,1.9,2.1c-21.6-0.1-39.1-17.7-39.1-39.3c0-16.6,10.5-31.4,26-37l4.7-1.7V93.7c0-3.8,0.7-7.4,1.9-10.8
							c2.1-4.6,6.1-10.9,14.9-14.2c1.2-0.4,2.4-0.8,3.6-1.1c0.5-0.1,1.1-0.3,1.6-0.4c1.5-0.3,2.8-0.6,3.9-0.9
							c13.3-2.6,26.4-1,24.8,4.5c-2.3,8-15.3,8.8-18,8.8c0,0,19.1,5,26.4-2.7c0,0,15.7,21.4-9.2,41.7c0,0,22.2-5.7,24.9-27.2
							c0,0,10.4,3.6,15.9,19.1v3l4.7,1.7C220.7,117.6,226.6,121.9,231,127.3z M216.2,98.7v-5c0-2.2-0.2-4.3-0.5-6.4
							c10-9.5,25-21.2,46.5-31.8l4.9,11.2C267.1,66.6,238.2,78.1,216.2,98.7z M285.4,32.5c0,0-9.9,2.3-16.1-1.9c0,0,1.5,6.1,18,29.5
							c0,0-19.9-25.6-37.9-29.5c0,0,29.5,10.7,43.2,55.1c0,0-7.7-15.3-13.4-18.4c0,0,7.1,16.1,9.1,32.1c-6-17.4-27.3-74.3-48.8-65.6
							c0,0,7.4,2.2,8.4,4.3c0,0-19.1,9.7-38.1,34.5c-1.1-1.7-2.4-3.3-3.7-4.7c11.6-16.6,27.7-37,48.6-57.3c0,0,23,15.7,48.5,17.7
							c-8.9,0.1-22.2-1.5-38.5-8.8C264.8,19.4,270.9,27.9,285.4,32.5z"/>
						<path d="M205.7,111.3c0,0-4.8-8.4-10-9.3c0,0-0.5,15.3-30.8,27.2c0,0,0.6,0.1,1.7,0l-0.1,0c0,0,21.4,10.5,34.3,3.1
							c0,0-3.5,1.6-12.9,0.2c4.1-0.4,7.8-1.9,9.8-5.5c5.3-9.5,1-15.2-0.5-16.7c0.9-1,1.8-2,2.7-3.1L205.7,111.3z"/>
						<path d="M148.1,115.9l1-1.2l-0.8-1l-4.2-5.3l-0.7-13.1l-1.7,13.5l0,0.3l0.2,0.4l2.5,4.8l-2.6,2.2c-8.5-7.8-8.7-14.3-8.7-14.3
							c-5.2,0.9-10,9.3-10,9.3l5.8-4c0.9,1.1,1.8,2.1,2.7,3.1c-1.5,1.5-5.8,7.2-0.5,16.7c2,3.6,5.7,5.1,9.8,5.5
							c-9.4,1.4-12.9-0.2-12.9-0.2c12.9,7.3,34.3-3.1,34.3-3.1l-0.1,0c1.1,0.1,1.7,0,1.7,0c-8.2-3.2-14.2-6.7-18.6-10.1L148.1,115.9
							z"/>
						<path d="M34.6,88.1C10.9,62,16,32.5,16,32.5C6.8,63.1,36.1,98.3,36.1,98.3C53.5,45.5,68,33.6,72.5,31.1
							C47.6,42.9,34.6,88.1,34.6,88.1z"/>
						<path d="M72.5,31.1c0.5-0.2,0.9-0.5,1.4-0.7C73.9,30.4,73.4,30.5,72.5,31.1z"/>
					</g>
					<path class="st10" d="M150,127.4c-1.9,1.6-4.4,2.6-7.1,2.6c-6.1,0-11.1-5-11.1-11.1c0-2.3,0.7-4.4,1.9-6.2
						C136.8,117.4,142,123.1,150,127.4z"/>
					<path class="st10" d="M178.9,127.4c1.9,1.6,4.4,2.6,7.1,2.6c6.1,0,11.1-5,11.1-11.1c0-2.3-0.7-4.4-1.9-6.2
						C192,117.4,186.9,123.1,178.9,127.4z"/>
				</g>
				<path d="M137.7,115.1c0,0-3.2,5.4,0.9,8.5s6.9,0,6.9,0L137.7,115.1z"/>
				<path d="M191.3,115.1c0,0,3.2,5.4-0.9,8.5s-6.9,0-6.9,0L191.3,115.1z"/>
			</g>
			<g>
				<path class="st1" d="M169.1,70.7c-1.5,5.3-7.6,7.4-12.4,8.3c0,0,0,0,0,0l-0.4-0.1c14.8-8.9-1.1-11.1-17.7-11.3
					c0.1,0,0.1,0,0.2-0.1c0.5-0.1,1.1-0.3,1.6-0.4c1.5-0.3,2.8-0.6,3.9-0.9C157.7,63.7,170.7,65.2,169.1,70.7z"/>
				<path class="st1" d="M177.6,76.8c0,0,11.9,16.3-1.5,33.9c4.6-11.1-0.1-28.4-0.1-28.4c-6.4,1.4-10.8-0.2-12.7-1.3
					C168.5,81.2,174.3,80.3,177.6,76.8z"/>
				<path class="st1" d="M212.4,117.1c6.7,5.9-0.3,16.1-0.3,16.1c1.5-10.7-3.6-16.1-3.6-16.1c2.5,6.6-0.5,13.5-0.5,13.5
					c-3.2,3.9-7.5,6-12.2,7.1c2.1-1.8,3.7-3.6,4.9-5.4c0,0,0,0,0,0c6-8.9,2.9-17.8-1.5-24.4c0.2-0.2,0.4-0.5,0.6-0.7l5.8,4
					c0,0-4.8-8.4-10-9.3c0,0,0,0.4-0.1,1.1c-1.6-1.8-3.1-3.2-4.2-4.1c0.9-2.3,1.6-4.8,1.9-7.6c0,0,10.4,3.6,15.9,19.1v3l4.7,1.7
					c6.9,2.4,12.7,6.7,17.2,12.1C220.2,115.7,212.4,117.1,212.4,117.1z"/>
				<path class="st1" d="M230,166.6c0.5-12.8-13-17.1-13-17.1c17.3,21.2-0.5,32.6-0.5,32.6c3.3-6.9-0.5-11.5-0.5-11.5
					c-0.2,11.4-5.9,16.4-18.2,18.5c5-1.3,10-4.2,11.2-10.8c0.3-1.7,0.5-3.4,0.6-4.9c2.9-7,2.2-13.5,2.2-13.5c2.7,0,8.1,5,8.1,5
					c-1.9-13.3-10.9-19.6-17.2-22.5c1.6-0.1,3.2-0.1,4.9-0.3C232.3,140.6,230,166.6,230,166.6z"/>
			</g>
			<circle class="st8" cx="192.1" cy="119.7" r="1.7"/>
		</g>
		<circle class="st8" cx="136.4" cy="119.7" r="1.7"/>
	</g>
	<path d="M265.7,248.5c-0.7,1.5-1.6,3-2.7,4.4c-3.6,4.5-8.5,8.2-13.5,10.6c-1.4,0.6-2.8,1.2-4.2,1.6c-1.2,0.4-2.3,0.6-3.5,0.8
		c-1.1,0.2-2.1,0.3-3.1,0.3c-0.8,0-1.5,0-2.2-0.1c-0.1,0-0.3,0-0.4-0.1c-4.6-0.5-8.9-3.3-11.2-7.2c-1-1.7-1.5-3.4-1.7-5.1
		c-1.8-1-3.5-2.4-4.9-4c-3.3-3.4-4.6-7.7-3.8-11.8c-0.2-0.2-0.4-0.3-0.5-0.5c-4.5-4.4-5.5-10.6-2.9-16.5c0,0,0,0,0,0v0l0,0
		c0.7-1.5,1.6-3,2.7-4.5c0.8-1.1,1.8-2.2,2.8-3.2c0.9-0.8,1.8-1.7,2.8-2.4c4.8-3.7,10.8-6.3,16.7-7.1c1.3-0.2,2.6-0.3,3.8-0.3
		c6.7,0,12.1,2.3,15.2,6.5c2,2.7,2.9,6,2.4,9.4c3.1,3.3,4.9,7.9,4.8,12.4C267.1,235.9,268.4,242.3,265.7,248.5z"/>
	<g>
		<path d="M236.8,208.5c-8.9,1.1-18.2,7.4-21.2,14.2l0,0c-1.8,4.2-1.2,8.1,1.9,11.1c0.8,0.9,1.9,1.6,3.2,2c-0.4,0.5-0.7,1-0.9,1.5
			l0,0c-1.2,2.8-0.4,6.2,2.1,8.8c1.9,2.1,4.2,3.5,6.8,4.3c-0.1,0.1-0.2,0.3-0.2,0.4c-0.7,1.5-0.4,3.4,0.6,5.3
			c1.5,2.6,4.4,4.5,7.6,4.8c6.5,1.1,16.4-3.9,22.3-11.2c0.8-1,1.5-2.1,2-3.3c2.2-5,0.8-9.7-3.7-12.5l-0.1-0.1c1-4.8-1.1-10.2-5.2-13
			c1.2-2.9,0.9-5.8-0.8-8.1C248.6,209.3,243.2,207.7,236.8,208.5z"/>
		<g>
			<path class="st7" d="M257.9,248.8c-5.5,6.9-15,11.7-21,10.7c-5.3-0.5-8.6-5.8-6.9-8.5c0.1-0.2,0.2-0.3,0.2-0.4
				c5.5,1,11.4-1.3,15.6-3.9c3.9-2.4,7.9-6,10-10.1c0.2-0.4,0.4-0.9,0.6-1.4C261.8,238.4,261.6,244.2,257.9,248.8z"/>
			<path class="st6" d="M253.8,240c9.3,9.3-23.3,28.7-22.2,10.8c5.2,0.5,10.5-1.6,14.4-4C248.8,245,251.6,242.7,253.8,240z"/>
			<path class="st7" d="M255.1,235.9c-5,10.1-23,19.5-32,9.3c-2.5-2.6-3.5-6.5-0.3-9.4c1.5,0.3,3,0.2,4.5,0.1
				c1.2-0.1,2.3-0.3,3.5-0.6c3.1-0.6,6.1-1.8,8.8-3.1c3.4-1.7,6.9-4.1,9.5-7c0.8-0.9,1.6-2,2.2-3.2
				C255.6,224.9,257.4,231.2,255.1,235.9z"/>
			<path class="st6" d="M227.5,245.1c-4.3-2.8-6-5.9-1.1-9.1c0.3,0,0.5,0,0.8-0.1c1.2-0.1,2.3-0.3,3.5-0.6c3.1-0.6,6.1-1.8,8.8-3.1
				c2.2-1.1,4.4-2.5,6.4-4c3.3,1.3,6.3,5,4.6,9.2C247.9,243.4,234.9,248.9,227.5,245.1z"/>
			<path class="st7" d="M248.1,224.4c-7.3,8-24.1,14.2-29.6,8.3c-8.1-7.9,5.2-21.1,18.4-22.8C249.1,208.4,255.7,216.1,248.1,224.4z"
				/>
			<path class="st6" d="M220.8,232.7c-9.8-9.6,11.5-18.5,19.1-15.6c6.7,2.6,5.6,7.9,1.1,11.6C235.7,233,224.3,236.7,220.8,232.7z"/>
		</g>
	</g>
</g>
</svg>
