<?xml version="1.0" encoding="utf-8"?>
<!-- Generator: Adobe Illustrator 20.1.0, SVG Export Plug-In . SVG Version: 6.00 Build 0)  -->
<svg version="1.0" id="Layer_1" xmlns="http://www.w3.org/2000/svg" xmlns:xlink="http://www.w3.org/1999/xlink" x="0px" y="0px"
	 viewBox="0 0 319.5 326" style="enable-background:new 0 0 319.5 326;" xml:space="preserve">
<style type="text/css">
	.st0{fill:#9CDAF1;}
	.st1{clip-path:url(#SVGID_2_);fill:#7DBBE6;}
	.st2{fill:#211F1F;}
	.st3{fill:#F4CBB2;}
	.st4{fill:#FFFFFF;}
	.st5{fill:#AD5C51;}
	.st6{fill:#C3E4D8;}
	.st7{fill:#FFD34D;}
	.st8{fill:#FFDE70;}
	.st9{fill:url(#SVGID_3_);}
	.st10{fill:#C49B87;}
	.st11{fill:url(#SVGID_4_);}
</style>
<g>
	<g>
		<path class="st0" d="M250.4,251.2c0,17.1-39.5,30.9-88.2,30.9c-48.7,0-88.2-13.8-88.2-30.9s39.5-30.9,88.2-30.9
			C210.9,220.4,250.4,234.2,250.4,251.2L250.4,251.2z M250.4,251.2"/>
		<g>
			<defs>
				<path id="SVGID_1_" d="M124.2,306.5c2,9.2,6.8,14.6,11.5,17.8l50.5-0.1c6.1-4.1,12.4-12,12.4-26.8v-38c0,0,0.8-9.4,9.4-12.5
					c0,0,5.1-3.5-0.4-5.5c0,0-23.9-2-23.9,17.6v29c0,0,0.9,10.7-4.7,15.1v-35.8c0,0,0.4-11.4,6.3-15.7c0,0,3.9-7.1-4.7-5.1
					c0,0-16.5,2.4-17.2,21.6l-0.4,36.8h-4l-0.4-36.8c-0.8-19.2-17.2-21.6-17.2-21.6c-8.6-2-4.7,5.1-4.7,5.1
					c5.9,4.3,6.3,15.7,6.3,15.7v36.2c-5.7-4-4.7-15.5-4.7-15.5v-29c0-19.6-23.9-17.6-23.9-17.6c-5.5,2-0.4,5.5-0.4,5.5
					c8.6,3.1,9.4,12.5,9.4,12.5V286L124.2,306.5z"/>
			</defs>
			<clipPath id="SVGID_2_">
				<use xlink:href="#SVGID_1_"  style="overflow:visible;"/>
			</clipPath>
			<path class="st1" d="M250.4,251.2c0,17.1-39.5,30.9-88.2,30.9c-48.7,0-88.2-13.8-88.2-30.9s39.5-30.9,88.2-30.9
				C210.9,220.4,250.4,234.2,250.4,251.2L250.4,251.2z M250.4,251.2"/>
		</g>
		<path class="st2" d="M317.9,123.2l0.2-1.2c-25.9-5.2-52.4-5.2-68.5-4.6c2.6-9.5,3.4-20.5,3.4-32.7c0-17.5-6.6-31.5-17.3-42.2
			c1.9-6,4.4-19.4-2.5-36.5c0,0-12.1-3.8-39.4,14.5c-10.7-2.7-22.1-4-33.5-4c-12.5,0-25.2,1.6-37.1,4.8C95.1,2.2,82.7,6.2,82.7,6.2
			c-8.1,20.3-3.1,35.4-1.6,39.1c-9.5,10.3-15.4,23.5-15.4,39.6c0,12.2,1.4,23.1,4.8,32.6c-16.2-0.6-41.8-0.4-66.8,4.6l0.2,1.2
			c25.1-5,50.9-5.2,67-4.6c0.7,2,1.6,3.9,2.5,5.7c-15.9,0.5-43.1,2.6-69.2,9.9l0.3,1.1c26.3-7.4,53.7-9.4,69.5-9.9
			c9.5,17.7,28.3,29.2,61.7,32.8c-2.7,1.8-5.5,4.4-7.7,8c-1.6,2.7-3,5.9-3.8,9.8c-6.5,3.1-26.9,10.6-39.2-10.5c0,0-6.9-12.6-20-13.5
			c0,0-12.8-0.2-0.9,7.9c0,0,8.5,4,14.4,19.1c0,0,7.7,25.8,44.7,17.5v26.6c0,0-0.8,9.4-9.4,12.5c0,0-5.1,3.5,0.4,5.5
			c0,0,23.9,2,23.9-17.6v-29c0,0-1-11.5,4.7-15.5v47.7c0,0-0.4,11.4-6.3,15.7c0,0-3.9,7.1,4.7,5.1c0,0,16.5-2.4,17.3-21.6l0.4-48.2
			h4l0.4,48.2c0.8,19.2,17.3,21.6,17.3,21.6c8.6,2,4.7-5.1,4.7-5.1c-5.9-4.3-6.3-15.7-6.3-15.7v-47.2c5.6,4.4,4.7,15.1,4.7,15.1v29
			c0,19.6,23.9,17.6,23.9,17.6c5.5-2,0.4-5.5,0.4-5.5c-8.6-3.1-9.4-12.5-9.4-12.5v-38c0-8.4-2-14.5-4.8-19.1c-2.2-3.5-4.9-6-7.5-7.8
			c35.6-3.5,52.7-15,60.6-32.9c15.6,0.4,43.6,2.3,70.5,9.9l0.3-1.1c-26.7-7.5-54.6-9.5-70.3-9.9c0.8-1.8,1.4-3.7,2-5.6
			C265.2,118,291.9,118,317.9,123.2z"/>
		<path class="st3" d="M218.2,84c7.7,6.9,12.2,15.3,12.2,24.4c0,42.2-31.5,43.3-70.3,43.3c-38.8,0-70.3-5.8-70.3-43.3
			c0-9,4.4-17.3,12-24.2c12.6-11.5,34-5.4,58.3-5.4C184.3,78.8,205.6,72.6,218.2,84L218.2,84z M218.2,84"/>
		<path class="st4" d="M136.7,110.6c0,11.6-6.5,21-14.6,21c-8.1,0-14.6-9.4-14.6-21c0-11.6,6.5-21,14.6-21
			C130.2,89.5,136.7,98.9,136.7,110.6L136.7,110.6z M136.7,110.6"/>
		<path class="st5" d="M132,110.8c0,7.7-4.4,14-9.7,14c-5.4,0-9.7-6.3-9.7-14c0-7.8,4.4-14,9.7-14C127.7,96.8,132,103.1,132,110.8
			L132,110.8z M132,110.8"/>
		<path class="st4" d="M215.2,110.6c0,11.6-6.5,21-14.6,21c-8.1,0-14.6-9.4-14.6-21c0-11.6,6.5-21,14.6-21
			C208.6,89.5,215.2,98.9,215.2,110.6L215.2,110.6z M215.2,110.6"/>
		<path class="st5" d="M210.5,110.8c0,7.7-4.4,14-9.7,14s-9.7-6.3-9.7-14c0-7.8,4.4-14,9.7-14S210.5,103.1,210.5,110.8L210.5,110.8z
			 M210.5,110.8"/>
		<path class="st5" d="M164,129.3c0,2-1.6,3.7-3.7,3.7c-2,0-3.7-1.6-3.7-3.7s1.6-3.7,3.7-3.7C162.3,125.6,164,127.2,164,129.3
			L164,129.3z M164,129.3"/>
		<path class="st5" d="M151.8,138.5c-0.2-0.6,0.1-1.3,0.7-1.5c0.6-0.2,1.3,0.1,1.5,0.7c0.9,2.7,3.5,4.4,6.3,4.4
			c2.8,0,5.3-1.8,6.3-4.4c0.2-0.6,0.9-0.9,1.5-0.7c0.6,0.2,0.9,0.9,0.7,1.5c-1.3,3.6-4.7,6-8.5,6
			C156.5,144.5,153.1,142.1,151.8,138.5L151.8,138.5z M151.8,138.5"/>
		<path class="st6" d="M70.7,155.2c0,1-1.1,1.8-2.6,1.8c-1.4,0-2.5-0.8-2.5-1.8c0-1,1.1-1.8,2.5-1.8
			C69.6,153.4,70.7,154.2,70.7,155.2L70.7,155.2z M70.7,155.2"/>
		<path class="st6" d="M77.8,159.1c0,1-1.1,1.8-2.6,1.8c-1.4,0-2.5-0.8-2.5-1.8c0-1,1.1-1.8,2.5-1.8
			C76.7,157.4,77.8,158.2,77.8,159.1L77.8,159.1z M77.8,159.1"/>
		<path class="st6" d="M82.1,164.2c0,1-1.1,1.8-2.6,1.8c-1.4,0-2.5-0.8-2.5-1.8c0-1,1.1-1.8,2.5-1.8C81,162.5,82.1,163.3,82.1,164.2
			L82.1,164.2z M82.1,164.2"/>
		<path class="st6" d="M86,170.1c0,1-1.1,1.8-2.5,1.8c-1.4,0-2.6-0.8-2.6-1.8s1.1-1.8,2.6-1.8C84.9,168.3,86,169.1,86,170.1
			L86,170.1z M86,170.1"/>
		<path class="st6" d="M90.3,175.6c0,1-1.1,1.8-2.5,1.8c-1.4,0-2.6-0.8-2.6-1.8c0-1,1.1-1.8,2.6-1.8
			C89.2,173.8,90.3,174.6,90.3,175.6L90.3,175.6z M90.3,175.6"/>
		<path class="st6" d="M96.2,180.3c0,1-1.1,1.8-2.6,1.8c-1.4,0-2.5-0.8-2.5-1.8c0-1,1.1-1.8,2.5-1.8
			C95.1,178.5,96.2,179.3,96.2,180.3L96.2,180.3z M96.2,180.3"/>
		<path class="st6" d="M104.5,183.4c0,1-1.1,1.8-2.5,1.8c-1.4,0-2.6-0.8-2.6-1.8c0-1,1.1-1.8,2.6-1.8
			C103.3,181.7,104.5,182.5,104.5,183.4L104.5,183.4z M104.5,183.4"/>
		<path class="st6" d="M112.7,183.4c0,1-1.1,1.8-2.5,1.8c-1.4,0-2.6-0.8-2.6-1.8c0-1,1.1-1.8,2.6-1.8
			C111.5,181.7,112.7,182.5,112.7,183.4L112.7,183.4z M112.7,183.4"/>
		<path class="st6" d="M121,182.1c0,1-1.1,1.8-2.5,1.8c-1.4,0-2.6-0.8-2.6-1.8c0-1,1.1-1.8,2.6-1.8C119.8,180.3,121,181.1,121,182.1
			L121,182.1z M121,182.1"/>
	</g>
	<g>
		<polygon points="15.2,65.1 25.3,84.8 41.8,116.6 42.7,118.5 42.7,118.5 42.9,118.8 43.2,119.5 43.2,119.5 44,121 45,123 
			45.4,122.2 46.1,120.8 56.4,100.2 59.8,93.5 61.6,100.8 69.9,134.4 70.2,135.6 71.2,139.6 72,142.8 72.5,144.9 72.5,145 
			72.7,145.9 72.8,146.1 73.2,147.9 73.8,150 74,150.9 74,151.1 74.1,151.5 74.5,152.8 74.7,153.8 75.1,155.4 75.1,155.4 
			75.6,157.5 75.9,158.5 75.9,158.6 75.9,158.7 76,158.9 76.1,159.3 76.1,159.4 76.1,159.4 76.4,160.7 77.2,163.8 77.2,163.9 
			77.2,164 77.2,164 77.4,164.6 77.8,166.5 78.3,168.3 78.3,168.3 78.3,168.4 78.7,169.8 79.1,171.4 79.1,171.4 80.3,176.6 
			80.9,178.7 81.4,180.7 85.5,197.5 98,248.1 86,222.4 76.1,199.3 71.6,188.7 70.9,187.2 70.3,185.7 67.8,179.8 67.3,178.7 
			67,177.9 66.9,177.9 66.7,177.4 64.4,171.9 63.6,170 63,168.7 61.8,165.9 61.1,164.2 61.1,164.2 61.1,164.2 61,163.9 60.9,163.7 
			60.1,161.9 59.5,160.4 58.4,157.8 57.6,156.1 57.6,156.1 57.6,156.1 57.4,155.6 56.6,153.8 56,152.4 54.9,149.7 54.2,148.1 
			54.2,148 54.1,148 54.1,147.9 53.4,146.2 52.3,143.6 52.1,143.2 51.4,144.9 50.2,147.4 50,147.9 50,147.9 49.9,147.9 43.6,161.7 
			40.6,168.4 38.5,161.3 36.3,154.1 34.7,148.8 32.2,140.5 31.7,138.9 31.7,138.8 31.7,138.8 31.2,137.1 16.1,87.2 2.9,43.4 		"/>
		<g>
			<path class="st7" d="M12.7,66.3L22.9,86l16.4,31.9l0,0l1.1,2.2l0,0l1.1,2.2l3.5,6.8l2.1-4.2l0.7-1.4l0.7-1.4l10.3-20.6l8.3,33.6
				l0.3,1.2l1,4l0.8,3.2l0.5,2.1l0,0.1l0.2,0.8l0.1,0.3l0.4,1.8l0.5,2.1l0.2,0.9l0.1,0.6l0,0l0.3,1.3l0.3,1c0,0,0,0,0,0l0.2,0.8
				l0,0.2l0.1,0.2l0.6,2.5l0.3,1.1l0.1,0.4l0.1,0.5l0.3,1.3l0.8,3l0,0.2l0.1,0.6l0.5,2l0.5,1.8l0,0l0.4,1.4l0,0l1.7,6.8l0.5,2.1
				l0.5,2l4.2,16.8l5.7,23.1l-9.9-23l-4.6-10.7l-0.6-1.5l-0.7-1.5l-2.5-5.9l-0.5-1.1l-0.6-1.3l0,0l-2.4-5.5l-0.8-1.9l-0.6-1.4
				l-1.2-2.7l-0.7-1.7l-0.2-0.5l0,0l-0.8-1.9l-0.7-1.5l-1.1-2.5l-0.7-1.7l-0.2-0.5l-0.8-1.8l-0.6-1.4l-1.1-2.7l-0.7-1.6l0-0.1
				l-0.7-1.7l-1.1-2.6l-1-2.4l0,0l-0.8-1.8l-0.8-1.9l-1.8,3.9l-1.6,3.4l-1.2,2.5l-0.2,0.5l-6.3,13.8l-2.2-7.3l-1.6-5.2l-2.5-8.4l0,0
				l-0.5-1.7l-0.5-1.7l-15-50L12.7,66.3z"/>
			<path class="st8" d="M12.7,66.3L22.9,86l16.4,31.9l0,0l1.1,2.2l0,0l1.1,2.2l3.5,6.8l2.1-4.2l0.7-1.4l0.7-1.4l10.3-20.6l8.3,33.6
				l0.3,1.2l1,4l0.8,3.2l0.5,2.1l0,0.1l0.2,0.8l0.1,0.3l0.4,1.8l0.5,2.1l0.2,0.9l0.1,0.6l0,0l0.3,1.3l0.3,1c0,0,0,0,0,0l0.2,0.8
				l0,0.2l0.1,0.2l0.6,2.5l0.3,1.1l0.1,0.4l0.1,0.5l0.3,1.3l0.8,3l0,0.2l0.1,0.6l0.5,2l0.5,1.8l0,0l0.4,1.4l0,0l1.7,6.8l0.5,2.1
				l0.5,2l4.2,16.8l5.7,23.1l-9.9-23l-4.6-10.7l-0.6-1.5l-0.7-1.5l-2.5-5.9l-0.5-1.1l-0.6-1.3l0,0l-2.4-5.5l-0.8-1.9l-0.6-1.4
				l-1.2-2.7l-0.7-1.7l-0.2-0.5l0,0l-0.8-1.9l-0.7-1.5l-1.1-2.5l-0.7-1.7l-0.2-0.5l-0.8-1.8l-0.6-1.4l-1.1-2.7l-0.7-1.6l0-0.1
				l-0.7-1.7l-1.1-2.6l-1-2.4l0,0l-0.8-1.8l-0.8-1.9l-1.8,3.9l-1.6,3.4l-1.2,2.5l-0.2,0.5l-6.3,13.8l-2.2-7.3l-1.6-5.2l-2.5-8.4l0,0
				l-0.5-1.7l-0.5-1.7l-15-50L12.7,66.3z"/>
			
				<linearGradient id="SVGID_3_" gradientUnits="userSpaceOnUse" x1="681.6082" y1="-205.7669" x2="684.7491" y2="-215.5727" gradientTransform="matrix(-0.6882 -0.7256 0.7256 -0.6882 679.2767 491.8038)">
				<stop  offset="0" style="stop-color:#FEDA59"/>
				<stop  offset="0.2321" style="stop-color:#FED350"/>
				<stop  offset="0.6042" style="stop-color:#FEC039"/>
				<stop  offset="1" style="stop-color:#FFA719"/>
			</linearGradient>
			<polygon class="st9" points="12.7,66.3 20.4,86.2 37,129.3 37.8,131.4 38.5,133.4 42.1,142.7 43.1,145.1 45.8,139.4 50.6,129.4 
				51.3,128 52,126.5 55.6,119.2 60.7,134.9 60.7,135.1 61.2,136.8 62.1,139.3 62.2,139.6 62.3,140.2 62.4,140.2 62.4,140.3 
				63.3,143 63.5,143.6 63.7,144.3 63.7,144.3 63.9,144.9 64,145.4 65,148.4 65.1,148.7 65.1,148.9 65.2,148.9 65.3,149.3 
				66.1,151.7 66.2,152.2 66.6,153.4 66.8,153.9 67.8,157.1 67.9,157.3 68,157.6 68.8,160.3 68.9,160.6 69.4,162 69.5,162.3 
				70.7,166.1 70.8,166.2 70.8,166.4 71.5,168.6 71.7,169 72.1,170.3 73.2,173.9 73.6,175 73.7,175.5 75.5,180.9 76.1,182.7 
				76.6,184.4 81.1,198.2 88.6,221.3 78.7,198.3 74.1,187.6 73.5,186.1 72.8,184.6 70.3,178.7 69.9,177.6 69.3,176.3 69.3,176.3 
				66.9,170.8 66.1,168.9 65.5,167.5 64.4,164.9 63.7,163.2 63.5,162.7 63.5,162.6 62.7,160.8 62,159.3 60.9,156.7 60.2,155 
				60,154.5 59.2,152.7 58.6,151.3 57.4,148.6 56.7,147 56.7,146.8 55.9,145.1 54.8,142.5 53.8,140 53.8,140 53,138.2 52.2,136.4 
				50.4,140.3 48.8,143.7 47.7,146.2 47.4,146.8 41.1,160.5 38.9,153.3 37.3,148 34.8,139.7 34.8,139.7 34.3,138 33.8,136.3 
				18.8,86.4 			"/>
		</g>
	</g>
	<path d="M53.7,153.4c0.1-0.8,0.5-1.6,1.1-2.2c2-1.8,6.9-6,10.4-6.3c4.6-0.4,5.1,5.3,0.4,8.2s-5.6,8.8-5.6,8.8S53.1,161,53.7,153.4z
		"/>
	<path class="st4" d="M118.9,108.2c0.1-1.1,0.5-2.9,1.3-3.6c0.3-0.2,0.3-0.6,0.1-0.9l-1.4-2.1c-0.3-0.4-0.8-0.4-1.1-0.1
		c-1,1-2.7,3.2-2.6,5.7c0,0.3,0.2,0.5,0.4,0.6l2.3,1C118.3,108.9,118.8,108.6,118.9,108.2z"/>
	<path class="st4" d="M197.9,108.2c0.1-1.1,0.5-2.9,1.3-3.6c0.3-0.2,0.3-0.6,0.1-0.9l-1.4-2.1c-0.3-0.4-0.8-0.4-1.1-0.1
		c-1,1-2.7,3.2-2.6,5.7c0,0.3,0.2,0.5,0.4,0.6l2.3,1C197.3,108.9,197.8,108.6,197.9,108.2z"/>
	<path class="st10" d="M218.2,84c-12.7-11.5-34-5.3-58.1-5.3c-24.3,0-45.6-6.1-58.3,5.4c-7.6,6.9-12,15.3-12,24.2c0,0.8,0,1.5,0,2.3
		c0.5-8.4,4.8-16.2,12-22.7c12.6-11.5,34-5.4,58.3-5.4c24.2,0,45.5-6.2,58.1,5.3c7.3,6.6,11.7,14.5,12.1,23c0-0.8,0-1.6,0-2.4
		C230.4,99.4,225.9,91,218.2,84z"/>
	<path d="M193.7,166.1c-10-2.1-20.9-3.2-32.5-3.2c-11.8,0-23,1.2-33.2,3.4c2.2-3.6,5-6.1,7.7-8c0,0,14.5,2.2,50.5,0
		C188.9,160.2,191.5,162.7,193.7,166.1z"/>
	<g>
		<path class="st2" d="M191.8,183.8l4.4-7.6c6.6,3.1,26.8,10.4,39-10.5c0,0,6.9-12.6,20-13.5c0,0,12.8-0.2,0.9,7.9
			c0,0-8.5,4-14.4,19.1c0,0-7.7,25.8-44.7,17.5L191.8,183.8z"/>
		<path class="st6" d="M249.5,155.2c0,1,1.1,1.8,2.5,1.8c1.4,0,2.6-0.8,2.6-1.8s-1.1-1.8-2.6-1.8
			C250.6,153.4,249.5,154.2,249.5,155.2z"/>
		<path class="st6" d="M242.4,159.1c0,1,1.1,1.8,2.5,1.8s2.5-0.8,2.5-1.8c0-1-1.1-1.8-2.5-1.8S242.4,158.2,242.4,159.1z"/>
		<path class="st6" d="M238.1,164.2c0,1,1.2,1.8,2.6,1.8c1.4,0,2.5-0.8,2.5-1.8c0-1-1.1-1.8-2.5-1.8
			C239.2,162.5,238.1,163.3,238.1,164.2z"/>
		<path class="st6" d="M234.2,170.1c0,1,1.1,1.8,2.5,1.8c1.4,0,2.5-0.8,2.5-1.8c0-1-1.1-1.8-2.5-1.8
			C235.3,168.3,234.2,169.1,234.2,170.1z"/>
		<path class="st6" d="M229.9,175.6c0,1,1.1,1.8,2.6,1.8c1.4,0,2.5-0.8,2.5-1.8c0-1-1.1-1.8-2.5-1.8
			C231,173.8,229.9,174.6,229.9,175.6z"/>
		<path class="st6" d="M224,180.3c0,1,1.1,1.8,2.5,1.8c1.4,0,2.5-0.8,2.5-1.8c0-1-1.1-1.8-2.5-1.8C225.1,178.5,224,179.3,224,180.3z
			"/>
		<path class="st6" d="M215.7,183.4c0,1,1.1,1.8,2.5,1.8c1.4,0,2.6-0.8,2.6-1.8c0-1-1.1-1.8-2.6-1.8
			C216.9,181.7,215.7,182.5,215.7,183.4z"/>
		<path class="st6" d="M207.5,183.4c0,1,1.1,1.8,2.6,1.8c1.4,0,2.6-0.8,2.6-1.8c0-1-1.2-1.8-2.6-1.8
			C208.7,181.7,207.5,182.5,207.5,183.4z"/>
		<path class="st6" d="M199.2,182.1c0,1,1.1,1.8,2.5,1.8c1.4,0,2.6-0.8,2.6-1.8s-1.1-1.8-2.6-1.8
			C200.4,180.3,199.2,181.1,199.2,182.1z"/>
	</g>
	<g>
		<g>
			<polygon points="305.7,65.1 295.5,84.8 279.1,116.6 278.1,118.5 278.2,118.5 278,118.8 277.7,119.5 277.7,119.5 276.9,121 
				275.8,123 275.5,122.2 274.7,120.8 264.5,100.2 261.1,93.5 259.3,100.8 251,134.4 250.7,135.6 249.7,139.6 248.9,142.8 
				248.4,144.9 248.3,145 248.1,145.9 248.1,146.1 247.6,147.9 247.1,150 246.9,150.9 246.8,151.1 246.7,151.5 246.4,152.8 
				246.2,153.8 245.8,155.4 245.8,155.4 245.3,157.5 245,158.5 245,158.6 245,158.7 244.9,158.9 244.8,159.3 244.8,159.4 
				244.8,159.4 244.5,160.7 243.7,163.8 243.7,163.9 243.7,164 243.6,164 243.5,164.6 243,166.5 242.6,168.3 242.6,168.3 
				242.6,168.4 242.2,169.8 241.8,171.4 241.8,171.4 240.5,176.6 240,178.7 239.5,180.7 235.3,197.5 222.9,248.1 234.9,222.4 
				244.7,199.3 249.3,188.7 249.9,187.2 250.6,185.7 253.1,179.8 253.6,178.7 253.9,177.9 253.9,177.9 254.1,177.4 256.5,171.9 
				257.3,170 257.9,168.7 259,165.9 259.8,164.2 259.8,164.2 259.8,164.2 259.9,163.9 260,163.7 260.8,161.9 261.4,160.4 
				262.5,157.8 263.2,156.1 263.3,156.1 263.3,156.1 263.5,155.6 264.2,153.8 264.9,152.4 266,149.7 266.7,148.1 266.7,148 
				266.7,148 266.7,147.9 267.5,146.2 268.6,143.6 268.8,143.2 269.5,144.9 270.7,147.4 270.9,147.9 270.9,147.9 270.9,147.9 
				277.2,161.7 280.3,168.4 282.4,161.3 284.6,154.1 286.2,148.8 288.7,140.5 289.2,138.9 289.2,138.8 289.2,138.8 289.7,137.1 
				304.8,87.2 318,43.4 			"/>
			<g>
				<path class="st7" d="M308.1,66.3L298,86l-16.4,31.9l0,0l-1.1,2.2l0,0l-1.1,2.2l-3.5,6.8l-2.1-4.2l-0.7-1.4l-0.7-1.4L262,101.5
					l-8.3,33.6l-0.3,1.2l-1,4l-0.8,3.2l-0.5,2.1l0,0.1l-0.2,0.8l-0.1,0.3l-0.4,1.8l-0.5,2.1l-0.2,0.9l-0.1,0.6l0,0l-0.3,1.3l-0.3,1
					c0,0,0,0,0,0l-0.2,0.8l0,0.2l-0.1,0.2l-0.6,2.5l-0.3,1.1l-0.1,0.4l-0.1,0.5l-0.3,1.3l-0.8,3l0,0.2l-0.1,0.6l-0.5,2l-0.5,1.8l0,0
					l-0.4,1.4l0,0l-1.7,6.8l-0.5,2.1l-0.5,2l-4.2,16.8l-5.7,23.1l9.9-23l4.6-10.7l0.6-1.5l0.7-1.5l2.5-5.9l0.5-1.1l0.6-1.3l0,0
					l2.4-5.5l0.8-1.9l0.6-1.4l1.2-2.7l0.7-1.7l0.2-0.5l0,0l0.8-1.9l0.7-1.5l1.1-2.5l0.7-1.7l0.2-0.5l0.8-1.8l0.6-1.4l1.1-2.7
					l0.7-1.6l0-0.1l0.7-1.7l1.1-2.6l1-2.4l0,0l0.8-1.8l0.8-1.9l1.8,3.9l1.6,3.4l1.2,2.5l0.2,0.5l6.3,13.8l2.2-7.3l1.6-5.2l2.5-8.4
					l0,0l0.5-1.7l0.5-1.7l15-50L308.1,66.3z"/>
				<path class="st8" d="M308.1,66.3L298,86l-16.4,31.9l0,0l-1.1,2.2l0,0l-1.1,2.2l-3.5,6.8l-2.1-4.2l-0.7-1.4l-0.7-1.4L262,101.5
					l-8.3,33.6l-0.3,1.2l-1,4l-0.8,3.2l-0.5,2.1l0,0.1l-0.2,0.8l-0.1,0.3l-0.4,1.8l-0.5,2.1l-0.2,0.9l-0.1,0.6l0,0l-0.3,1.3l-0.3,1
					c0,0,0,0,0,0l-0.2,0.8l0,0.2l-0.1,0.2l-0.6,2.5l-0.3,1.1l-0.1,0.4l-0.1,0.5l-0.3,1.3l-0.8,3l0,0.2l-0.1,0.6l-0.5,2l-0.5,1.8l0,0
					l-0.4,1.4l0,0l-1.7,6.8l-0.5,2.1l-0.5,2l-4.2,16.8l-5.7,23.1l9.9-23l4.6-10.7l0.6-1.5l0.7-1.5l2.5-5.9l0.5-1.1l0.6-1.3l0,0
					l2.4-5.5l0.8-1.9l0.6-1.4l1.2-2.7l0.7-1.7l0.2-0.5l0,0l0.8-1.9l0.7-1.5l1.1-2.5l0.7-1.7l0.2-0.5l0.8-1.8l0.6-1.4l1.1-2.7
					l0.7-1.6l0-0.1l0.7-1.7l1.1-2.6l1-2.4l0,0l0.8-1.8l0.8-1.9l1.8,3.9l1.6,3.4l1.2,2.5l0.2,0.5l6.3,13.8l2.2-7.3l1.6-5.2l2.5-8.4
					l0,0l0.5-1.7l0.5-1.7l15-50L308.1,66.3z"/>
				
					<linearGradient id="SVGID_4_" gradientUnits="userSpaceOnUse" x1="118.1298" y1="388.3372" x2="121.2707" y2="378.5314" gradientTransform="matrix(0.6882 -0.7256 -0.7256 -0.6882 460.4187 491.8038)">
					<stop  offset="0" style="stop-color:#FEDA59"/>
					<stop  offset="0.2321" style="stop-color:#FED350"/>
					<stop  offset="0.6042" style="stop-color:#FEC039"/>
					<stop  offset="1" style="stop-color:#FFA719"/>
				</linearGradient>
				<polygon class="st11" points="308.1,66.3 300.5,86.2 283.9,129.3 283.1,131.4 282.3,133.4 278.8,142.7 277.8,145.1 275.1,139.4 
					270.3,129.4 269.6,128 268.9,126.5 265.3,119.2 260.2,134.9 260.2,135.1 259.6,136.8 258.8,139.3 258.7,139.6 258.5,140.2 
					258.5,140.2 258.5,140.3 257.6,143 257.4,143.6 257.2,144.3 257.2,144.3 257,144.9 256.8,145.4 255.9,148.4 255.8,148.7 
					255.7,148.9 255.7,148.9 255.6,149.3 254.8,151.7 254.6,152.2 254.2,153.4 254.1,153.9 253.1,157.1 253,157.3 252.9,157.6 
					252,160.3 251.9,160.6 251.5,162 251.4,162.3 250.1,166.1 250.1,166.2 250,166.4 249.3,168.6 249.2,169 248.8,170.3 
					247.6,173.9 247.3,175 247.1,175.5 245.4,180.9 244.8,182.7 244.2,184.4 239.8,198.2 232.3,221.3 242.2,198.3 246.8,187.6 
					247.4,186.1 248,184.6 250.5,178.7 251,177.6 251.6,176.3 251.6,176.3 253.9,170.8 254.7,168.9 255.3,167.5 256.5,164.9 
					257.2,163.2 257.4,162.7 257.4,162.6 258.2,160.8 258.9,159.3 260,156.7 260.7,155 260.9,154.5 261.7,152.7 262.3,151.3 
					263.4,148.6 264.1,147 264.2,146.8 264.9,145.1 266.1,142.5 267.1,140 267.1,140 267.9,138.2 268.7,136.4 270.5,140.3 
					272,143.7 273.2,146.2 273.5,146.8 279.8,160.5 282,153.3 283.5,148 286.1,139.7 286,139.7 286.6,138 287.1,136.3 302.1,86.4 
									"/>
			</g>
		</g>
		<path d="M267.2,153.4c-0.1-0.8-0.5-1.6-1.1-2.2c-2-1.8-6.9-6-10.4-6.3c-4.6-0.4-5.1,5.3-0.4,8.2s5.6,8.8,5.6,8.8
			S267.8,161,267.2,153.4z"/>
	</g>
	<path class="st2" d="M70.5,117.5c0,0-39.1-1.8-66.8,4.6l0.2,1.2c0,0,35-6.9,67-4.6l1.6-1.6L70.5,117.5z"/>
	<path class="st2" d="M74.2,124.3c0,0-41.4,1.3-70.1,9.8l0.3,1.1c0,0,33.4-9.2,70.8-9.6l1.1-1.9L74.2,124.3z"/>
	<path class="st2" d="M252.3,117.5c0,0,39.1-1.8,66.7,4.6l-0.2,1.2c0,0-35-6.9-67-4.6l-4.5-0.9L252.3,117.5z"/>
	<path class="st2" d="M248.6,124.3c0,0,41.4,1.3,70.1,9.8l-0.3,1.1c0,0-33.4-9.2-70.8-9.6l-1.1-1.9L248.6,124.3z"/>
</g>
</svg>
