<?xml version="1.0" encoding="utf-8"?>
<!-- Generator: Adobe Illustrator 20.1.0, SVG Export Plug-In . SVG Version: 6.00 Build 0)  -->
<svg version="1.1" id="Layer_1" xmlns="http://www.w3.org/2000/svg" xmlns:xlink="http://www.w3.org/1999/xlink" x="0px" y="0px"
	 viewBox="0 0 705.1 544.1" style="enable-background:new 0 0 705.1 544.1;" xml:space="preserve">
<style type="text/css">
	.st0{fill:#CCCCCC;}
	.st1{fill:#FFFFFF;}
	.st2{fill:#999999;}
	.st3{fill:#E5E5E5;}
	.st4{fill:#FFD34D;}
	.st5{fill:#E3E8EB;}
	.st6{fill:url(#SVGID_1_);}
	.st7{fill:#FFDE70;}
	.st8{fill:url(#SVGID_2_);}
	.st9{fill:url(#SVGID_3_);}
	.st10{fill:url(#SVGID_4_);}
</style>
<g>
	<polygon class="st0" points="246,319.4 351.1,514.3 484,309.1 287.9,281.9 	"/>
	<path class="st1" d="M323.2,335.1c0,0-6.7,40.3,18.2,78.6c0,0-7.8-6.2-12.3-15.1c0,0,5,31.6,16.8,46.1s1.1,27.1,1.1,27.1
		s11.2-11.7,10.6-43.3c0,0,3.4,5.6,2.8,10.1c0,0,7.8-22.1,2.8-46.1c0,0,5.6,7.3,5.6,14c0,0,7.3-22.1,7.3-38.3
		c0-16.2,19.6-27.1,17.9-44.7s-60.7,5.3-60.7,5.3L323.2,335.1z"/>
	<polygon class="st1" points="331.8,277.7 315.6,287 282.6,298.7 293.2,322.8 305.8,331.4 322.9,329.2 336,325.8 352,317.7 
		376.3,317.4 400.9,316.6 419.6,301.8 421.3,286.1 417.1,277.2 385,274.1 352.8,271.6 	"/>
	<polygon class="st2" points="429.7,330.6 346.6,506.2 352,516 454.9,322.2 	"/>
	<polygon class="st2" points="272,330.6 355,506.2 350,516 246.8,322.2 	"/>
	<g>
		<path class="st3" d="M332.4,334.5c0,0,25.5-12.9,38.3-11.2c0,0,5.3,26.8-10.1,42l17.6-0.8l2-29.9l2-16.8l-28.2-2.5l-25.5,16.5
			L332.4,334.5z"/>
		<path class="st3" d="M368.7,289.5c0,0,62.4-8.7,21.5,25.5l18.7-1.4l13.4-14.3l-0.8-15.4l-7-6.7l-48.4-1.7L368.7,289.5z"/>
		<g>
			<g>
				<path class="st2" d="M434.5,163.1c0,0,48.9-44.5,93.1-56.5l-14.3-17.9l-44.7,17.9l-40,30.5L434.5,163.1z"/>
				<path class="st0" d="M421,125.9c0,0,71-85,83.3-95.1c0,0,38.9,26.3,86.1,31c47.3,4.5,6.7,50.3,6.7,50.3l-36.1,66.3l-38-83.3
					L501,78.3l-73.3,54.3L421,125.9z"/>
				<path class="st2" d="M265.5,163.1c0,0-48.9-44.5-93.1-56.5l14.3-17.9l44.7,17.9l40,30.5L265.5,163.1z"/>
				<path class="st0" d="M142.8,174.5c0,0-48.1-62.9-36.9-112.1c0,0,81.7-4.5,99.6-42.2l80.3,92l-14.5,24.9l-42.8-34.4l-28.8-14.8
					l-22.7,8.1L142.8,174.5z"/>
				<path class="st0" d="M376.6,120.3c0,0-60.1-8.7-79.1,24.3c-19,33-12,60.7-12,60.7s-55.4,4.5-54.3,60.7s60.4,54.3,60.4,54.3
					l-6.2-14.3l3.4-8.7l11.7-5.6l32.2-13.7l40.3-3.4l35.5,2l12,2v18.7l-24.3,28.2l25.7,6.4l47.8-34.4l8.1-38.6l-8.1-45.3l-17.3-16.8
					l-21.8-10.3l-3.9-36.9l-35.8-42.8L376.6,120.3z"/>
				<g>
					<path d="M610.4,39.5C554.4,46.2,503.8,7.6,503.8,7.6c-41.4,34.1-70.8,70.5-90.9,100.7c-6.7-5-14.5-8.7-23.2-10.6
						c-0.3-0.3-0.6-0.3-0.8-0.6c-14.8-7.8-20.7-18.7-20.7-18.7c-21.8-38,20.4-45,20.4-45c-36.6,4.8-42.2,36.6-42.8,45.9
						c0.3-20.4-26-24.6-26-24.6c19.9,8.4,9.8,34.7-12.9,44.5c-6.7,2.2-12.9,5.3-18.2,9.2C268.6,78,239.3,41.7,197.9,7.6
						c0,0-50.6,38.6-106.6,31.9c0,0-42.8,68,51.2,159.1c0,0,14.5-55.9,30.8-75.2c0,0,52.3,19.9,88.9,56.8v5
						c-30.2,10.9-51.7,39.7-51.7,73.6c0,43.1,35,78,78,78c5.3,0,10.3-0.6,15.1-1.4c5.6,2,12.6,2.5,21.3,0.6v26c0,0-0.3,12,11.5,11.5
						c14.5-0.6,36.6-1.7,36.6-1.7s9.5,0.8,9.8-19c0.3-8.9,0.6-15.4,0.8-21.5c8.9,3.6,18.7,5.6,28.8,5.6c43.1,0,78.3-35,78.3-78
						c0-33.8-21.5-62.6-51.7-73.6v-5c36.6-36.9,88.9-56.8,88.9-56.8c16.2,19.3,30.8,75.2,30.8,75.2
						C653.2,107.4,610.4,39.5,610.4,39.5z M138,178.5C74.2,113.3,97.2,50.1,97.2,50.1c49.5,4.8,100.1-29.6,100.1-29.6
						c35.2,34.4,62.4,68.5,81.9,96.5c-2.2,2.5-4.5,5.3-6.2,8.1c-31.9-41.7-64.3-58.2-64.3-58.2c1.7-3.6,14-7.3,14-7.3
						C180.5,42.2,138,178.5,138,178.5z M176.9,114.7l8.4-18.7c36.1,17.9,61.5,37.8,78.3,53.7c-0.6,3.6-0.8,7.3-0.8,10.9v8.4
						C225.5,134.3,176.9,114.7,176.9,114.7z M328.2,326.4c-4.2,0.8-9.2,1.1-15.1,0.6c-2.8-0.3-5.3-0.8-7.3-1.4
						c11.7-1.4,20.1-7.8,20.1-7.8c-11.5,4.8-19.3,6.2-24.6,5.9c-1.4-0.8-2.5-1.7-3.4-2.5c13.1-0.6,22.9-8.1,22.9-8.1
						c-11.7,5-19.6,6.2-24.9,5.9c-0.8-0.8-1.4-2-1.7-3.1c14.5,0.6,25.5-8.1,25.5-8.1c-12.9,5.6-21.3,6.4-26.3,5.6
						c-0.6-1.4-0.8-2.5-1.1-3.9c15.9,2,28.5-7.8,28.5-7.8c-15.4,6.4-24.1,6.4-28.8,5.3c0-1.7,0-3.1,0-4.5
						c16.5,2.5,29.6-7.6,29.6-7.6c-15.9,6.7-24.9,6.4-29.4,5c0.3-1.4,0.3-2.2,0.3-2.2c22.1-2.2,35.2-13.7,35.2-13.7
						c4.8,5.6,11.5,10.1,15.9,12.9c2.8,1.7,4.8,2.5,4.8,2.5l-0.6,10.9l-0.3,5C347.5,315.5,343,323.9,328.2,326.4z M376.6,328.1
						c-0.3,34.1-8.4,35-8.4,35s-5.6,0.3-12,0.6l-0.6-7l-1.1,7c-3.6,0-7.3,0.3-10.6,0.3c-10.1,0-8.9-4.2-8.9-4.2l-1.7-27.1
						c7-4.8,13.7-7.6,19.3-9.5l3.1,28.2l1.4-29.4c2.8-0.8,5.6-1.1,8.1-1.4c7.6-0.6,12,0.6,12,0.6
						C376.6,323.6,376.6,325.8,376.6,328.1z M400.9,309.6c-1.7,0.8-3.4,1.4-5.3,2c-5,2-13.7,1.7-21.3,1.1
						c-8.4-0.6-15.9-1.1-15.9-1.1l-0.3-12.3c0,0,0.8-0.8,1.1-1.1c2.8-2,14.3-9.8,16.2-12.6c2.2-3.1,18.5-3.9,29.9-4.5
						c1.4,0,2.5,0,3.4,0c-4.5,2.5-12.3,5-25.5,5.6c0,0,15.7,3.6,29.4-5c2,0.6,2.8,1.4,3.6,2.8c-3.4,3.1-11.5,7.6-29.1,8.1
						c0,0,15.9,3.6,29.6-5.3c0,1.1,0.3,2.8,0.3,4.5c-4.5,2.8-12.3,5.3-26,5.9c0,0,13.1,3.1,26-3.4c-0.3,1.4-0.6,2.5-1.1,3.9
						c-4.8,2.2-12,4.2-23.8,4.8c0,0,10.3,2.2,21.5-1.4c-2,2.2-4.2,3.9-7,5.6c-4.5,1.1-10.1,2-17.3,2.2
						C389.4,309.1,394.2,310.2,400.9,309.6z M464.4,217c-18.2-19.6-31.3-17.1-31.3-17.1c11.2,9.8-0.6,27.1-0.6,27.1
						c2.5-18.2-6.2-27.1-6.2-27.1c4.2,11.2-0.8,22.7-0.8,22.7c-20.1,24.6-68,8.1-68,8.1c3.1,4.2,25.5,14.5,67.1,11.7
						c41.7-3.1,37.8,40.8,37.8,40.8c0.8-21.5-21.8-28.8-21.8-28.8c29.4,35.8-0.8,55.1-0.8,55.1c5.6-11.7-0.8-19.3-0.8-19.3
						c-0.3,19.3-10.1,27.7-30.8,31.3c8.4-2.2,16.8-7,19-18.2c4.5-24.6-5.3-35.2-16.8-33c-11.5,2.2-21.8,2.5-30.8-7.6
						c-13.4-15.7-44.2-4.5-44.2-4.5s-10.1,5.3-10.9,14.5c0,0-0.8,15.4-32.2,15.9c-31.3,0.8-14.5,23.8-7,33c1.1,1.1,2,2.5,3.1,3.6
						c-36.4,0-66-29.9-66-66.3c0-28,17.6-53.1,43.9-62.4l7.8-2.8v-33.6c0-6.4,1.1-12.6,3.4-18.2c3.6-7.8,10.3-18.2,25.2-24.1
						c2-0.6,3.9-1.4,6.2-2c0.8-0.3,1.7-0.6,2.8-0.6c2.5-0.6,4.8-1.1,6.7-1.7c22.4-4.2,44.5-1.7,41.7,7.6
						c-3.9,13.4-25.7,14.8-30.2,14.8c0,0,32.2,8.4,44.5-4.5c0,0,26.6,36.1-15.4,70.2c0,0,37.5-9.8,42-45.9c0,0,17.6,6.2,26.8,32.2v5
						l7.8,2.8C447.1,200.8,456.8,207.8,464.4,217z M439.5,168.9v-8.4c0-3.6-0.3-7.3-0.8-10.9c16.8-15.9,42.2-35.8,78.3-53.7
						l8.4,18.7C525.4,114.7,476.4,134.3,439.5,168.9z M556.1,57.1c0,0-16.8,3.9-27.1-3.4c0,0,2.5,10.3,30.2,49.8
						c0,0-33.6-43.3-63.8-49.8c0,0,49.8,18.2,73,92.9c0,0-12.9-25.7-22.7-31c0,0,12,27.1,15.4,54.3C551.1,140.4,515,44.5,478.9,59
						c0,0,12.6,3.6,14,7.3c0,0-32.2,16.5-64.3,58.2c-2-2.8-3.9-5.6-6.2-8.1c19.6-28,46.7-62.4,81.9-96.5c0,0,38.9,26.6,81.7,29.9
						c-15.1,0.3-37.5-2.5-64.9-14.8C521.4,35.3,531.5,49.5,556.1,57.1z"/>
					<path d="M421.6,189.9c0,0-8.1-14.3-17.1-15.7c0,0-0.8,26-51.7,45.9c0,0,1.1,0,2.8,0h-0.3c0,0,36.1,17.6,57.9,5.3
						c0,0-5.9,2.8-21.8,0.3c7-0.6,13.1-3.4,16.5-9.2c8.9-15.9,1.7-25.5-0.8-28.2c1.4-1.7,3.1-3.4,4.5-5.3L421.6,189.9z"/>
					<path d="M324.6,197.7l1.7-2.2l-1.4-1.7l-7-8.9l-1.1-22.1l-2.8,22.7v0.6l0.3,0.8l4.2,8.1l-4.5,3.6
						c-14.3-13.1-14.8-24.1-14.8-24.1c-8.7,1.4-17.1,15.7-17.1,15.7l9.8-6.7c1.4,2,3.1,3.6,4.5,5.3c-2.5,2.5-9.8,12.3-0.8,28.2
						c3.4,5.9,9.5,8.7,16.5,9.2c-15.9,2.2-21.8-0.3-21.8-0.3c21.8,12.3,57.9-5.3,57.9-5.3h-0.3c2,0.3,2.8,0,2.8,0
						c-14-5.3-24.1-11.2-31.3-17.1L324.6,197.7z"/>
					<path d="M133.3,150.8c-40-43.9-31.3-93.7-31.3-93.7c-15.4,51.7,33.8,111,33.8,111C165.1,79.2,189.5,59,197,54.8
						C155.1,74.7,133.3,150.8,133.3,150.8z"/>
					<path d="M197,54.8c0.8-0.3,1.7-0.8,2.2-1.1C199.5,53.7,198.7,54,197,54.8z"/>
				</g>
				<path class="st4" d="M327.9,217.3c-3.4,2.8-7.6,4.5-12,4.5c-10.3,0-18.7-8.4-18.7-18.7c0-3.9,1.1-7.6,3.1-10.3
					C305.5,200.3,314.2,210.1,327.9,217.3z"/>
				<path class="st4" d="M376.6,217.3c3.4,2.8,7.6,4.5,12,4.5c10.3,0,18.7-8.4,18.7-18.7c0-3.9-1.1-7.6-3.1-10.3
					C398.7,200.3,390,210.1,376.6,217.3z"/>
			</g>
			<path d="M306.9,196.4c0,0-5.3,8.9,1.4,14.3c6.7,5.3,11.5,0,11.5,0L306.9,196.4z"/>
			<path d="M397.3,196.4c0,0,5.3,8.9-1.4,14.3c-6.7,5.3-11.5,0-11.5,0L397.3,196.4z"/>
		</g>
		<g>
			<path class="st2" d="M360.1,121.7c-2.5,8.9-12.9,12.6-21,14l0,0l-0.6-0.3c24.9-15.1-2-18.7-29.9-19h0.3c0.8-0.3,1.7-0.6,2.8-0.6
				c2.5-0.6,4.8-1.1,6.7-1.7C340.8,109.9,362.6,112.4,360.1,121.7z"/>
			<path class="st2" d="M374.3,132c0,0,20.1,27.4-2.5,57.1c7.8-18.7,0-47.8,0-47.8c-10.9,2.2-18.2-0.3-21.5-2.2
				C359,139.3,368.7,137.9,374.3,132z"/>
			<path class="st2" d="M433.1,200c11.2,9.8-0.6,27.1-0.6,27.1c2.5-18.2-6.2-27.1-6.2-27.1c4.2,11.2-0.8,22.7-0.8,22.7
				c-5.3,6.4-12.6,10.1-20.4,12c3.6-3.1,6.2-6.2,8.4-9.2l0,0c10.1-14.8,5-29.9-2.5-41.1c0.3-0.3,0.6-0.8,0.8-1.1l9.8,6.7
				c0,0-8.1-14.3-16.8-15.7c0,0,0,0.6-0.3,2c-2.8-3.1-5.3-5.3-7-7c1.4-3.9,2.8-8.1,3.4-12.9c0,0,17.6,6.2,26.8,32.2v5l7.8,2.8
				c11.5,4.2,21.5,11.2,28.8,20.4C445.9,197.5,433.1,200,433.1,200z"/>
			<path class="st2" d="M462.7,283.3c0.8-21.5-21.8-28.8-21.8-28.8c29.4,35.8-0.8,55.1-0.8,55.1c5.6-11.7-0.8-19.3-0.8-19.3
				c-0.3,19.3-10.1,27.7-30.8,31.3c8.4-2.2,16.8-7,19-18.2c0.6-2.8,0.8-5.6,1.1-8.1c5-11.7,3.9-22.7,3.9-22.7
				c4.5,0,13.7,8.4,13.7,8.4c-3.4-22.4-18.5-33-29.1-38c2.5,0,5.3-0.3,8.1-0.6C466.3,239.4,462.7,283.3,462.7,283.3z"/>
		</g>
		<circle class="st1" cx="398.7" cy="204.2" r="2.8"/>
	</g>
	<circle class="st1" cx="305" cy="204.2" r="2.8"/>
</g>
<g>
	<g>
		<g>
			<path d="M438.4,350.7c3.9,2,9.8,0.8,11.5-4.5c3.1-8.9,5.6-18.7,11.2-26.6c4.2-5.9,8.7-11.2,12-17.9c6.2-13.1,13.4-29.1,13.7-43.6
				c0-0.8,0-1.4-0.3-2c5.9-3.6,13.7-3.6,21,0c7.6,3.6,12.6,10.3,14,18.5c0.3,2,0.6,4.2,0.6,6.2c0,5-1.1,10.1-3.4,15.4
				c-2,4.5-4.5,8.9-7.8,13.4c0.8,0.6,2,1.1,2.8,1.4c4.2,2.2,7.8,5,10.9,8.4c3.6,3.6,8.4,9.2,10.6,16.5c2,6.4,1.4,12.6-1.7,17.6
				c-2,3.1-4.5,5.6-7.8,7c-0.8,7.8-5,15.1-11.5,19.6c-0.3,5.3-2,9.8-5.3,13.4c-4.5,5-11.7,8.1-19.9,7.8c-3.4,0-6.7-0.3-10.1-1.1
				c-1.7-0.3-3.6-0.8-5.6-1.4c-6.4-2-13.4-4.8-19-9.2l-0.3,0.6l-2-2.2c-2.5-2.2-4.5-4.5-5.9-7.3l-1.7-2.2c-2.5-3.1-4.2-6.4-5.3-10.1
				c-1.4-4.8-2-9.8-1.1-15.1C437.8,353,438.1,351.8,438.4,350.7z"/>
			<path class="st5" d="M498,311.9c7.3-7,17.9-21.5,15.4-35.5c-2.2-12-15.9-17.6-23.2-12.9c-7.6,5-8.4,16.8-10.9,26
				c-2.2,7.8-5.9,10.3-11.7,15.1c-11.2,9.2-18.2,20.4-19,36.1c2.2-4.2,4.5-7.3,8.1-8.1c-7.3,5.9-15.7,26.8-6.7,40
				c-0.6-2.5-0.6-5,0.3-7.6c0.6-2.5,2.2-5,4.2-6.4c0.6-1.4,1.4-2.8,2.8-3.9c-1.1-3.4-1.4-7.3-0.6-11.5c0.8-7,5.9-12.3,12.9-11.7
				c-0.8-2.2-1.4-4.8-1.1-7.3c0.3-3.4,1.7-6.4,3.9-8.9c4.5-4.5,11.2-5.6,17.3-5C492.1,310.5,494.9,311,498,311.9z"/>
			
				<linearGradient id="SVGID_1_" gradientUnits="userSpaceOnUse" x1="843.703" y1="317.0245" x2="859.181" y2="347.4023" gradientTransform="matrix(0.9619 0.2733 0.2733 -0.9619 -433.4601 399.0877)">
				<stop  offset="0" style="stop-color:#EEEFEF"/>
				<stop  offset="1" style="stop-color:#FFFFFF"/>
			</linearGradient>
			<path class="st6" d="M493.5,310.7c0.8-5.3-24.1-10.3-37.2,17.9c3.9-1.1,7-2.8,8.1-0.3c-9.5,10.3-17.6,20.7-14,34.7
				c0.8-2,2-3.6,3.6-4.8c1.4-0.8,2.5-0.8,2.8-1.4c0.6-0.8,0-1.7-0.3-2.5c-1.1-3.4-1.4-7.3-0.6-11.5c0.8-7,5.9-12.3,12.9-11.7
				c-0.8-2.2-1.4-4.8-1.1-7.3c0.3-3.4,1.7-6.4,3.9-8.9c4.5-4.5,11.2-5.6,17.3-5C490.7,310.5,492.1,310.5,493.5,310.7L493.5,310.7z
				 M510.5,288.6c3.4-17.6-15.9-33.8-21-8.7c-2.8,13.7,0.6,23.8,6.2,24.6C499.9,305.4,506.3,300.4,510.5,288.6z"/>
			<path class="st1" d="M511.9,278c-3.1-10.9-15.1-17.3-21.5-8.4c-6.2,8.7-5,19.3-9.5,26.6c-8.1,13.7-16.8,8.9-29.4,31.6
				c10.1-22.9,19.6-19,27.4-33.6c4.5-8.4,2.2-14.3,9.8-26.8C494.6,258.4,511.7,264.9,511.9,278z"/>
		</g>
		<polygon points="655.4,127.3 618.8,170.6 559.2,240.5 555.6,244.7 555.6,244.7 555,245.6 553.9,247 553.9,247 550.8,250.3 
			547.2,254.5 546.6,252.6 545.8,248.4 532.1,191 527.6,172.3 518.9,189.6 478.4,268.5 477,271.3 472.2,280.8 468.3,288.4 
			465.8,293.4 465.8,293.7 464.7,295.6 464.4,296.2 462.4,300.4 459.6,305.4 458.8,307.4 458.5,307.9 458,308.8 456.3,311.9 
			455.2,314.1 453.2,318 453.2,318 450.7,323 449.6,325.3 449.3,325.6 449.3,325.6 449,326.4 448.5,327.2 448.5,327.2 448.5,327.5 
			446.8,330.6 443.1,337.6 443.1,338.1 442.9,338.1 442.9,338.1 442.3,339.5 440.1,344.3 437.8,348.2 437.8,348.5 437.5,348.5 
			435.9,351.8 433.9,355.8 434.2,355.8 427.8,368.1 425.2,372.8 423,377.6 402.6,417 342.2,536.2 386.9,478.8 425,427.1 442.6,403 
			445.1,400 447.6,396.3 457.4,383.2 459.1,380.7 460.5,379 460.5,379 461.3,377.9 470.5,365.6 473.3,361.4 475.9,358.3 
			480.3,352.1 483.1,348.2 483.1,348.2 483.1,348.2 483.7,347.4 484,347.1 486.8,342.9 489.3,339.5 493.5,334 496.6,330 496.6,330 
			496.6,329.8 497.4,328.9 500.2,324.7 502.7,321.6 507.2,315.5 509.7,311.9 509.7,311.9 510,311.6 510,311.6 512.8,307.7 
			517.3,301.8 517.8,300.9 518.6,305.7 520,312.4 520.3,313.8 520.3,314.1 520.3,314.1 528.2,352.1 531.8,370.6 541.3,354.1 
			551.1,337.3 558.1,325.3 569.3,305.7 571.2,302.1 571.2,302.1 571.5,301.8 573.7,297.9 640.3,182.1 698.8,80.6 		"/>
		<g>
			<path class="st4" d="M661,132l-36.9,43.3l-59.6,69.9l0,0l-4.2,4.8l0,0l-4.2,4.8l-12.6,14.8l-2.8-11.7l-0.8-3.9l-1.1-3.9
				l-13.7-57.3l-40.3,79.1l-1.4,2.8l-4.8,9.2l-3.9,7.6l-2.5,5l-0.3,0.3l-0.8,2l-0.3,0.6l-2.2,4.2l-2.5,5l-1.1,2l-0.8,1.4l0,0
				l-1.7,3.1l-1.1,2.2l0,0l-0.8,2l-0.3,0.6l-0.3,0.6l-3.1,5.9l-1.4,2.5l-0.3,0.8l-0.6,1.1l-1.7,3.1l-3.6,7.3l-0.3,0.3l-0.6,1.4
				l-2.2,4.8l-2.2,4.2l0,0l-1.7,3.4l0,0l-8.1,15.9l-2.5,5l-2.2,4.8l-20.1,39.7l-27.7,54.3l38-51.7l17.6-24.1l2.5-3.4l2.5-3.4
				l9.8-13.1l1.7-2.5l2.2-2.8l0,0l8.9-12.3l3.1-4.2l2.2-3.1l4.5-6.2l2.8-3.9l0.8-1.1l0,0l3.1-4.2l2.5-3.4l4.2-5.6l2.8-3.9l0.8-1.1
				l3.1-4.2l2.2-3.1l4.5-6.2l2.8-3.6l0.3-0.3l2.8-3.9l4.2-5.9l3.9-5.6l0,0l3.1-3.9l3.1-4.2l2.2,10.9l2,9.5l1.4,7l0.3,1.4l7.8,38
				l9.8-16.8l7-12l11.2-19.3l0,0l2.2-3.9l2.2-3.9l66.6-116.1L661,132z"/>
			<path class="st7" d="M661,132l-36.9,43.3l-59.6,69.9l0,0l-4.2,4.8l0,0l-4.2,4.8l-12.6,14.8l-2.8-11.7l-0.8-3.9l-1.1-3.9
				l-13.7-57.3l-40.3,79.1l-1.4,2.8l-4.8,9.2l-3.9,7.6l-2.5,5l-0.3,0.3l-0.8,2l-0.3,0.6l-2.2,4.2l-2.5,5l-1.1,2l-0.8,1.4l0,0
				l-1.7,3.1l-1.1,2.2l0,0l-0.8,2l-0.3,0.6l-0.3,0.6l-3.1,5.9l-1.4,2.5l-0.3,0.8l-0.6,1.1l-1.7,3.1l-3.6,7.3l-0.3,0.3l-0.6,1.4
				l-2.2,4.8l-2.2,4.2l0,0l-1.7,3.4l0,0l-8.1,15.9l-2.5,5l-2.2,4.8l-20.1,39.7l-27.7,54.3l38-51.7l17.6-24.1l2.5-3.4l2.5-3.4
				l9.8-13.1l1.7-2.5l2.2-2.8l0,0l8.9-12.3l3.1-4.2l2.2-3.1l4.5-6.2l2.8-3.9l0.8-1.1l0,0l3.1-4.2l2.5-3.4l4.2-5.6l2.8-3.9l0.8-1.1
				l3.1-4.2l2.2-3.1l4.5-6.2l2.8-3.6l0.3-0.3l2.8-3.9l4.2-5.9l3.9-5.6l0,0l3.1-3.9l3.1-4.2l2.2,10.9l2,9.5l1.4,7l0.3,1.4l7.8,38
				l9.8-16.8l7-12l11.2-19.3l0,0l2.2-3.9l2.2-3.9l66.6-116.1L661,132z"/>
			
				<linearGradient id="SVGID_2_" gradientUnits="userSpaceOnUse" x1="750.4923" y1="517.1998" x2="758.5473" y2="542.3463" gradientTransform="matrix(0.8351 -0.5501 0.5501 0.8351 -412.8828 265.8834)">
				<stop  offset="0" style="stop-color:#FEDA59"/>
				<stop  offset="0.2321" style="stop-color:#FED350"/>
				<stop  offset="0.6042" style="stop-color:#FEC039"/>
				<stop  offset="1" style="stop-color:#FFA719"/>
			</linearGradient>
			<polygon class="st8" points="661,132 630.2,177.1 563.7,275.2 560.3,280 557.2,284.4 543,305.4 539.3,311 535.7,295.4 
				529.6,267.4 528.7,263.5 527.9,259.3 523.1,238.9 501.3,275.2 501,275.8 498.8,279.4 495.2,285.3 494.9,286.1 494,287.5 
				494,287.5 493.8,287.5 490.1,294 489,295.4 488.2,297 488.2,297 487.3,298.4 486.8,299.6 482.6,306.5 482,307.1 482,307.4 
				482,307.4 481.5,308.5 477.8,314.1 477.3,315.2 475.6,318 474.7,319.1 470.5,326.4 470,327 469.7,327.5 466.1,333.7 465.5,334.5 
				463.6,337.9 463.3,338.4 458,347.4 457.7,347.7 457.4,347.9 454.6,353 454,354.1 452.1,357.2 447.1,365.3 445.7,367.8 
				445.1,368.9 437.3,381.5 434.7,385.7 432.5,389.6 413.2,421.5 381.3,474.6 419.4,422.9 437,398.8 439.5,395.8 442,392.1 
				451.5,379 453.5,376.5 455.4,373.7 455.7,373.7 464.7,361.4 467.7,357.2 470,353.8 474.5,347.9 477.3,344 478.1,342.9 
				478.1,342.9 481.2,338.7 483.7,335.3 487.9,329.8 490.7,325.8 491.5,324.7 494.6,320.5 496.8,317.2 501.3,311.3 504.1,307.7 
				504.1,307.4 507.2,303.5 511.4,297.6 515.6,292 515.6,292 518.4,288.1 521.4,283.9 523.7,294.8 525.6,304.3 527,311 527.3,312.7 
				535.1,350.7 544.9,334 551.9,321.6 563.1,302.3 562.8,302.3 565.4,298.4 567.6,294.5 634.2,178.5 			"/>
		</g>
		<path d="M520.6,323.6c-10.6-10.6-28.8-16.5-40.8-13.4l0,0c-7.6,2-12,7-12.6,14c-0.3,2,0,4.2,0.6,6.4c-1.1,0-2,0-3.1,0.3l0,0
			c-5,1.4-8.7,5.9-9.5,12c-0.8,4.8-0.3,9.2,1.4,13.4c-0.3,0-0.6,0-0.8,0.3c-2.8,0.6-5,3.1-6.4,6.2c-2,4.8-1.4,10.6,1.4,15.1
			c5.3,9.8,22.4,17.6,38,17.9c2.2,0,4.5-0.3,6.4-0.8c8.9-2.2,13.7-9.2,12.6-17.9v-0.3c7.3-3.6,12.3-12,11.7-20.4
			c5-1.4,8.7-4.8,9.8-9.5C531.8,340.1,528.2,331.2,520.6,323.6z"/>
		<g>
			<path class="st0" d="M489,393.5c-14.8-0.3-31-7.8-36.1-16.8c-4.8-7.6-1.4-17.3,4.2-17.9c0.3,0,0.6,0,0.8-0.3
				c4.5,8.4,13.7,13.7,21.3,16.8c7.3,2.8,16.2,4.2,24.1,2.8c0.8-0.3,1.7-0.3,2.5-0.6C506.9,387.9,499.1,393.8,489,393.5z"/>
			<path class="st1" d="M496.6,379c-2.5,22.1-62.4-1.1-37.5-18.2c4.8,7.3,13.1,12.3,20.4,14.8C484.5,377.6,490.7,378.7,496.6,379z"
				/>
			<path class="st0" d="M503.3,376.5c-18.7,3.9-49.8-10.1-45.6-32.7c0.8-5.9,5-11.5,12-10.1c1.1,2.2,2.8,4.2,4.5,6.2
				c1.4,1.4,2.8,2.8,4.5,3.9c3.9,3.4,8.7,6.2,13.1,8.4c5.9,2.8,12.6,5,19,5.3c2,0,4.5,0,6.4-0.3
				C518.4,365.6,511.9,374.5,503.3,376.5z"/>
			<path class="st1" d="M462.2,349.3c-0.8-8.7,1.4-14,10.9-10.9c0.3,0.3,0.6,0.6,0.8,0.8c1.4,1.4,2.8,2.8,4.5,3.9
				c3.9,3.4,8.7,6.2,13.1,8.4c3.6,1.7,7.8,3.4,12,4.2c1.7,5.9-0.3,13.4-7.6,15.7C485.9,374.8,465,363,462.2,349.3z"/>
			<path class="st0" d="M511.1,355.2c-18.2-1.4-43.9-17.1-42-30.5c2-19,33.6-15.1,49.5,0.8C533.5,339.8,530.1,356.6,511.1,355.2z"/>
			<path class="st1" d="M471.7,327.5c2.5-22.9,36.6-3.9,40.6,8.9c3.6,11.5-4.8,15.7-14.3,13.4C487,347.4,470,336.2,471.7,327.5z"/>
		</g>
	</g>
</g>
<g>
	<g>
		<g>
			<path d="M268.3,350.7c-3.9,2-9.8,0.8-11.5-4.5c-3.1-8.9-5.6-18.7-11.2-26.6c-4.2-5.9-8.7-11.2-12-17.9
				c-6.2-13.1-13.4-29.1-13.7-43.6c0-0.8,0-1.4,0.3-2c-5.9-3.6-13.7-3.6-21,0c-7.6,3.6-12.6,10.3-14,18.5c-0.3,2-0.6,4.2-0.6,6.2
				c0,5,1.1,10.1,3.4,15.4c2,4.5,4.5,8.9,7.8,13.4c-0.8,0.6-2,1.1-2.8,1.4c-4.2,2.2-7.8,5-10.9,8.4c-3.6,3.6-8.4,9.2-10.6,16.5
				c-2,6.4-1.4,12.6,1.7,17.6c2,3.1,4.5,5.6,7.8,7c0.8,7.8,5,15.1,11.5,19.6c0.3,5.3,2,9.8,5.3,13.4c4.5,5,11.7,8.1,19.9,7.8
				c3.4,0,6.7-0.3,10.1-1.1c1.7-0.3,3.6-0.8,5.6-1.4c6.4-2,13.4-4.8,19-9.2l0.3,0.6l2-2.2c2.5-2.2,4.5-4.5,5.9-7.3l1.7-2.2
				c2.5-3.1,4.2-6.4,5.3-10.1c1.4-4.8,2-9.8,1.1-15.1C268.6,353,268.3,351.8,268.3,350.7z"/>
			<path class="st5" d="M208.8,311.9c-7.3-7-17.9-21.5-15.4-35.5c2.2-12,15.9-17.6,23.2-12.9c7.6,5,8.4,16.8,10.9,26
				c2.2,7.8,5.9,10.3,11.7,15.1c11.2,9.2,18.2,20.4,19,36.1c-2.2-4.2-4.5-7.3-8.1-8.1c7.3,5.9,15.7,26.8,6.7,40
				c0.6-2.5,0.6-5-0.3-7.6c-0.6-2.5-2.2-5-4.2-6.4c-0.6-1.4-1.4-2.8-2.8-3.9c1.1-3.4,1.4-7.3,0.6-11.5c-0.8-7-5.9-12.3-12.9-11.7
				c0.8-2.2,1.4-4.8,1.1-7.3c-0.3-3.4-1.7-6.4-3.9-8.9c-4.5-4.5-11.2-5.6-17.3-5C214.4,310.5,211.6,311,208.8,311.9z"/>
			
				<linearGradient id="SVGID_3_" gradientUnits="userSpaceOnUse" x1="726.3076" y1="283.5884" x2="741.7861" y2="313.9665" gradientTransform="matrix(-0.9619 0.2733 -0.2733 -0.9619 1017.8337 399.0877)">
				<stop  offset="0" style="stop-color:#EEEFEF"/>
				<stop  offset="1" style="stop-color:#FFFFFF"/>
			</linearGradient>
			<path class="st9" d="M213,310.7c1.4-0.3,3.1-0.6,4.5-0.6c6.2-0.3,12.9,0.6,17.3,5c2.5,2.5,3.6,5.6,3.9,8.9c0.3,2.5,0,5-1.1,7.3
				c7-0.6,12,4.5,12.9,11.7c0.8,4.2,0.6,7.8-0.6,11.5c-0.3,0.8-0.8,1.7-0.3,2.5c0.3,0.6,1.4,0.6,2.8,1.4c1.7,1.1,2.8,2.8,3.6,4.8
				c3.6-14-4.5-24.3-14-34.7c1.1-2.5,4.2-0.8,8.1,0.3C237,300.7,212.1,305.4,213,310.7L213,310.7z M210.7,304.6
				c5.3-1.1,8.9-10.9,6.2-24.6c-5-25.5-24.3-8.9-21,8.7C200.4,300.4,206.5,305.4,210.7,304.6z"/>
			<path class="st1" d="M194.5,278c3.1-10.9,15.1-17.3,21.5-8.4c6.2,8.7,5,19.3,9.5,26.6c8.1,13.7,16.8,8.9,29.4,31.6
				c-10.1-22.9-19.6-19-27.4-33.6c-4.5-8.4-2.2-14.3-9.8-26.8C211.8,258.4,194.8,264.9,194.5,278z"/>
		</g>
		<polygon points="51,127.3 87.9,170.6 147.5,240.5 150.9,244.7 150.9,244.7 151.4,245.6 152.8,247 152.8,247 155.6,250.3 
			159.3,254.5 159.8,252.6 160.7,248.4 174.4,191 178.8,172.3 187.8,189.6 228.1,268.5 229.5,271.3 234.2,280.8 238.1,288.4 
			240.7,293.4 240.9,293.7 241.8,295.6 242,296.2 244.3,300.4 246.8,305.4 247.9,307.4 248.2,307.9 248.5,308.8 250.2,311.9 
			251.3,314.1 253.2,318 253.2,318 255.8,323 257.2,325.3 257.2,325.6 257.2,325.6 257.4,326.4 258,327.2 258,327.2 258,327.5 
			259.7,330.6 263.3,337.6 263.6,338.1 263.6,338.1 263.6,338.1 264.1,339.5 266.7,344.3 268.6,348.2 268.9,348.5 268.9,348.5 
			270.6,351.8 272.5,355.8 272.5,355.8 278.7,368.1 281.2,372.8 283.7,377.6 303.9,417 364.5,536.2 319.5,478.8 281.5,427.1 
			263.9,403 261.3,400 258.8,396.3 249.3,383.2 247.4,380.7 246,379 246,379 245.1,377.9 236.2,365.6 233.1,361.4 230.9,358.3 
			226.4,352.1 223.6,348.2 223.6,348.2 223.3,348.2 223,347.4 222.8,347.1 219.7,342.9 217.2,339.5 213,334 210.2,330 209.9,330 
			209.9,329.8 209.3,328.9 206.3,324.7 203.7,321.6 199.5,315.5 196.7,311.9 196.7,311.9 196.7,311.6 196.5,311.6 193.7,307.7 
			189.5,301.8 188.6,300.9 187.8,305.7 186.4,312.4 186.1,313.8 186.1,314.1 186.1,314.1 178.3,352.1 174.6,370.6 165.1,354.1 
			155.6,337.3 148.6,325.3 137.5,305.7 135.2,302.1 135.2,302.1 135.2,301.8 133,297.9 66.1,182.1 7.7,80.6 		"/>
		<g>
			<path class="st4" d="M45.7,132l36.9,43.3l59.6,69.9l0,0l4.2,4.8l0,0l4.2,4.8l12.6,14.8l2.8-11.7l0.8-3.9l0.8-3.9l13.7-57.3
				l40.3,79.1l1.4,2.8l4.8,9.2l3.9,7.6l2.5,5l0.3,0.3l0.8,2l0.3,0.6l2.2,4.2l2.5,5l1.1,2l0.8,1.4l0,0l1.7,3.1l1.1,2.2l0,0l0.8,2
				l0.3,0.6l0.3,0.6l3.1,5.9l1.4,2.5l0.3,0.8l0.6,1.1l1.7,3.1l3.6,7.3l0.3,0.3l0.6,1.4l2.2,4.8l2.2,4.2l0,0l1.7,3.4l0,0l8.1,15.9
				l2.5,5l2.2,4.8l20.1,39.7l27.7,54.3l-38-51.7l-17.6-24.1l-2.5-3.4l-2.5-3.4l-9.8-13.1l-1.7-2.5l-2.2-2.8l0,0l-8.9-12.3l-3.1-4.2
				l-2.2-3.1l-4.5-6.2l-2.8-3.9l-0.8-1.1l0,0l-3.1-4.2l-2.5-3.4l-4.2-5.6l-2.8-3.9l-0.8-1.1l-3.1-4.2l-2.2-3.1l-4.5-6.2l-2.8-3.6
				l-0.3-0.3l-2.8-3.9l-4.2-5.9l-3.9-5.6l0,0l-3.1-3.9l-3.1-4.2l-2.2,10.9l-2,9.5l-1.4,7l-0.3,1.4l-7.8,38l-9.8-16.8l-7-12
				L143,302.6l0,0l-2.2-3.9l-2.2-3.9L72,178.7L45.7,132z"/>
			<path class="st7" d="M45.7,132l36.9,43.3l59.6,69.9l0,0l4.2,4.8l0,0l4.2,4.8l12.6,14.8l2.8-11.7l0.8-3.9l0.8-3.9l13.7-57.3
				l40.3,79.1l1.4,2.8l4.8,9.2l3.9,7.6l2.5,5l0.3,0.3l0.8,2l0.3,0.6l2.2,4.2l2.5,5l1.1,2l0.8,1.4l0,0l1.7,3.1l1.1,2.2l0,0l0.8,2
				l0.3,0.6l0.3,0.6l3.1,5.9l1.4,2.5l0.3,0.8l0.6,1.1l1.7,3.1l3.6,7.3l0.3,0.3l0.6,1.4l2.2,4.8l2.2,4.2l0,0l1.7,3.4l0,0l8.1,15.9
				l2.5,5l2.2,4.8l20.1,39.7l27.7,54.3l-38-51.7l-17.6-24.1l-2.5-3.4l-2.5-3.4l-9.8-13.1l-1.7-2.5l-2.2-2.8l0,0l-8.9-12.3l-3.1-4.2
				l-2.2-3.1l-4.5-6.2l-2.8-3.9l-0.8-1.1l0,0l-3.1-4.2l-2.5-3.4l-4.2-5.6l-2.8-3.9l-0.8-1.1l-3.1-4.2l-2.2-3.1l-4.5-6.2l-2.8-3.6
				l-0.3-0.3l-2.8-3.9l-4.2-5.9l-3.9-5.6l0,0l-3.1-3.9l-3.1-4.2l-2.2,10.9l-2,9.5l-1.4,7l-0.3,1.4l-7.8,38l-9.8-16.8l-7-12
				L143,302.6l0,0l-2.2-3.9l-2.2-3.9L72,178.7L45.7,132z"/>
			
				<linearGradient id="SVGID_4_" gradientUnits="userSpaceOnUse" x1="648.3651" y1="450.0354" x2="656.4197" y2="475.1819" gradientTransform="matrix(-0.8351 -0.5501 -0.5501 0.8351 997.2564 265.8834)">
				<stop  offset="0" style="stop-color:#FEDA59"/>
				<stop  offset="0.2321" style="stop-color:#FED350"/>
				<stop  offset="0.6042" style="stop-color:#FEC039"/>
				<stop  offset="1" style="stop-color:#FFA719"/>
			</linearGradient>
			<polygon class="st10" points="45.7,132 76.2,177.1 142.8,275.2 146.1,280 149.2,284.4 163.5,305.4 167.4,311 170.7,295.4 
				176.9,267.4 178,263.5 178.8,259.3 183.3,238.9 205.1,275.2 205.4,275.8 207.6,279.4 211.3,285.3 211.8,286.1 212.4,287.5 
				212.7,287.5 212.7,287.5 216.6,294 217.4,295.4 218.3,297 218.3,297 219.1,298.4 219.7,299.6 224.2,306.5 224.4,307.1 
				224.7,307.4 224.7,307.4 225.3,308.5 228.6,314.1 229.2,315.2 230.9,318 231.7,319.1 236.2,326.4 236.5,327 236.7,327.5 
				240.4,333.7 240.9,334.5 242.9,337.9 243.2,338.4 248.5,347.4 248.8,347.7 249,347.9 252.1,353 252.7,354.1 254.4,357.2 
				259.4,365.3 261.1,367.8 261.6,368.9 269.2,381.5 271.7,385.7 273.9,389.6 293.2,421.5 325.4,474.6 287.4,422.9 269.5,398.8 
				267.2,395.8 264.7,392.1 254.9,379 253.2,376.5 251,373.7 251,373.7 241.8,361.4 238.7,357.2 236.5,353.8 232,347.9 229.2,344 
				228.3,342.9 228.3,342.9 225.3,338.7 222.8,335.3 218.6,329.8 215.8,325.8 214.9,324.7 211.8,320.5 209.6,317.2 205.1,311.3 
				202.3,307.7 202.3,307.4 199.5,303.5 195.1,297.6 191.1,292 190.9,292 188.1,288.1 185,283.9 182.8,294.8 180.8,304.3 179.4,311 
				179.1,312.7 171.3,350.7 161.8,334 154.8,321.6 143.6,302.3 143.6,302.3 141.4,298.4 139.1,294.5 72.3,178.5 			"/>
		</g>
		<path d="M186.1,323.6c10.6-10.6,28.8-16.5,40.8-13.4l0,0c7.6,2,12,7,12.6,14c0.3,2,0,4.2-0.6,6.4c1.1,0,2,0,3.1,0.3l0,0
			c5,1.4,8.7,5.9,9.5,12c0.8,4.8,0.3,9.2-1.4,13.4c0.3,0,0.6,0,0.8,0.3c2.8,0.6,5,3.1,6.4,6.2c2,4.8,1.4,10.6-1.4,15.1
			c-5.3,9.8-22.4,17.6-38,17.9c-2.2,0-4.5-0.3-6.4-0.8c-8.9-2.2-13.7-9.2-12.6-17.9v-0.3c-7.3-3.6-12.3-12-11.7-20.4
			c-5-1.4-8.7-4.8-9.8-9.5C174.6,340.1,178.3,331.2,186.1,323.6z"/>
		<g>
			<path class="st0" d="M217.4,393.5c14.8-0.3,31-7.8,36.1-16.8c4.8-7.6,1.4-17.3-4.2-17.9c-0.3,0-0.6,0-0.8-0.3
				c-4.5,8.4-13.7,13.7-21.3,16.8c-7.3,2.8-16.2,4.2-24.1,2.8c-0.8-0.3-1.7-0.3-2.5-0.6C199.5,387.9,207.6,393.8,217.4,393.5z"/>
			<path class="st1" d="M210.2,379c2.5,22.1,62.4-1.1,37.5-18.2c-4.8,7.3-13.1,12.3-20.4,14.8C221.9,377.6,216,378.7,210.2,379z"/>
			<path class="st0" d="M203.5,376.5c18.7,3.9,49.8-10.1,45.6-32.7c-0.8-5.9-5-11.5-12-10.1c-1.1,2.2-2.8,4.2-4.5,6.2
				c-1.4,1.4-2.8,2.8-4.5,3.9c-3.9,3.4-8.7,6.2-13.1,8.4c-5.9,2.8-12.6,5-19,5.3c-2,0-4.5,0-6.4-0.3
				C188.4,365.6,194.8,374.5,203.5,376.5z"/>
			<path class="st1" d="M244.3,349.3c0.8-8.7-1.4-14-10.9-10.9c-0.3,0.3-0.6,0.6-0.8,0.8c-1.4,1.4-2.8,2.8-4.5,3.9
				c-3.9,3.4-8.7,6.2-13.1,8.4c-3.6,1.7-7.8,3.4-12,4.2c-1.7,5.9,0.3,13.4,7.6,15.7C220.8,374.8,241.8,363,244.3,349.3z"/>
			<path class="st0" d="M195.3,355.2c18.2-1.4,43.9-17.1,42-30.5c-2-19-33.6-15.1-49.5,0.8C173,339.8,176.3,356.6,195.3,355.2z"/>
			<path class="st1" d="M234.8,327.5c-2.5-22.9-36.6-3.9-40.6,8.9c-3.6,11.5,4.8,15.7,14.3,13.4
				C219.7,347.4,236.5,336.2,234.8,327.5z"/>
		</g>
	</g>
</g>
<polygon class="st1" points="161.5,266.8 166,293.1 192,297.6 166,302.1 161.5,328.1 156.7,302.1 130.7,297.6 156.7,293.1 "/>
<g>
	
		<image style="overflow:visible;enable-background:new    ;" width="396" height="396" xlink:href="26C4EFFF.png"  transform="matrix(0.6644 0 0 0.6644 30.1034 166.2559)">
	</image>
</g>
<g>
	
		<image style="overflow:visible;enable-background:new    ;" width="217" height="217" xlink:href="26C4EFFD.png"  transform="matrix(0.6558 0 0 0.6527 90.4967 226.666)">
	</image>
	<g>
		
			<image style="overflow:visible;enable-background:new    ;" width="396" height="396" xlink:href="26C4F003.png"  transform="matrix(0.6644 0 0 0.6644 30.1034 166.2559)">
		</image>
	</g>
</g>
</svg>
