<?xml version="1.0" encoding="utf-8"?>
<!-- Generator: Adobe Illustrator 20.1.0, SVG Export Plug-In . SVG Version: 6.00 Build 0)  -->
<svg version="1.1" id="Layer_1" xmlns="http://www.w3.org/2000/svg" xmlns:xlink="http://www.w3.org/1999/xlink" x="0px" y="0px"
	 viewBox="0 0 490 199" style="enable-background:new 0 0 490 199;" xml:space="preserve">
<style type="text/css">
	.st0{fill:#CCCCCC;}
	.st1{fill:#FFFFFF;}
	.st2{fill:#999999;}
	.st3{fill:#E5E5E5;}
	.st4{fill:#FFD34D;}
	.st5{fill:#E3E8EB;}
	.st6{fill:url(#SVGID_1_);}
	.st7{fill:#FFDE70;}
	.st8{fill:url(#SVGID_2_);}
	.st9{fill:url(#SVGID_3_);}
	.st10{fill:url(#SVGID_4_);}
</style>
<g>
	<g>
		<g>
			<path d="M281.6,64.5v41.6L249,64.6h-10.3v66.8h12.7v-45l35,45.2v-0.1h7.9v-67H281.6z"/>
		</g>
		<g>
			<path d="M320.7,64.6v66.8h12.5V64.6H320.7z"/>
		</g>
		<g>
			<path d="M407.9,76.9V64.8h-48v66.7h12.7v-24.8h33.6V95h-33.6V76.9H407.9z"/>
		</g>
		<g>
			<path d="M430.5,64.6v11.5h21.2v55.3h12.7V76.1h21.2V64.6H430.5z"/>
		</g>
	</g>
</g>
<g>
	<g>
		<polygon class="st0" points="89.2,117.4 127.1,188 175.3,113.7 104.3,103.8 		"/>
		<path class="st1" d="M117.1,122.9c0,0-2.4,14.5,6.6,28.3c0,0-2.8-2.2-4.5-5.5c0,0,1.8,11.5,6.1,16.7s0.4,9.8,0.4,9.8
			s4-4.3,3.9-15.7c0,0,1.2,2.1,1,3.7c0,0,2.8-7.9,1-16.7c0,0,2.1,2.7,2.1,5.1c0,0,2.7-7.9,2.7-13.9c0-6,7-9.8,6.4-16.1
			c-0.6-6.3-21.9,1.9-21.9,1.9L117.1,122.9z"/>
		<polygon class="st1" points="120.3,102.4 114.3,105.6 102.4,109.8 106.2,118.6 110.7,121.7 117,120.8 121.8,119.8 127.6,116.8 
			136.2,116.7 145.3,116.4 152,111 152.6,105.3 151.1,102.1 139.5,101 127.9,100.1 		"/>
		<polygon class="st2" points="155.6,121.4 125.6,185 127.6,188.4 164.9,118.5 		"/>
		<polygon class="st2" points="98.6,121.4 128.6,185 126.8,188.4 89.5,118.5 		"/>
		<g>
			<path class="st3" d="M120.4,122.8c0,0,9.2-4.6,13.9-4c0,0,1.9,9.7-3.7,15.2l6.3-0.3l0.7-10.9l0.7-6.1l-10.3-0.9l-9.2,6
				L120.4,122.8z"/>
			<path class="st3" d="M133.7,106.5c0,0,22.5-3.1,7.9,9.2l6.9-0.4l4.8-5.2l-0.3-5.5l-2.5-2.4l-17.4-0.6L133.7,106.5z"/>
			<g>
				<g>
					<path class="st2" d="M157.4,60.7c0,0,17.6-16.1,33.7-20.4l-5.2-6.4l-16.3,6.4l-14.5,11L157.4,60.7z"/>
					<path class="st0" d="M152.5,47.3c0,0,25.7-30.9,30.1-34.5c0,0,14,9.5,31.2,11.2s2.4,18.2,2.4,18.2l-13,24l-13.7-30.1l-7.9-6.1
						l-26.4,19.5L152.5,47.3z"/>
					<path class="st2" d="M96.3,60.7c0,0-17.6-16.1-33.7-20.4l5.2-6.4L84,40.3l14.5,11L96.3,60.7z"/>
					<path class="st0" d="M51.8,64.9c0,0-17.4-22.8-13.3-40.6c0,0,29.5-1.6,36.1-15.2l28.9,33.3l-5.2,8.9L82.8,39l-10.4-5.4l-8.2,3
						L51.8,64.9z"/>
					<path class="st0" d="M136.5,45.4c0,0-21.8-3.1-28.6,8.8c-6.9,11.9-4.3,21.9-4.3,21.9S83.4,77.7,83.9,98s21.9,19.7,21.9,19.7
						l-2.2-5.2l1.2-3.1l4.3-2.1l11.6-5.1l14.6-1.2l12.8,0.7l4.3,0.7v6.9l-8.8,10.1l9.4,2.2l17.3-12.5l2.8-14l-2.8-16.4l-6.3-6
						l-7.9-3.7l-1.5-13.3l-13-15.5L136.5,45.4z"/>
					<g>
						<path d="M221.1,16.2c-20.3,2.4-38.5-11.5-38.5-11.5c-14.9,12.4-25.7,25.5-32.8,36.4c-2.5-1.8-5.2-3.1-8.4-3.9
							c-0.1,0-0.1-0.1-0.3-0.1c-5.4-2.8-7.5-6.7-7.5-6.7c-7.9-13.7,7.5-16.3,7.5-16.3c-13.3,1.8-15.2,13.3-15.5,16.6
							c0.1-7.5-9.4-8.9-9.4-8.9c7.2,3,3.6,12.5-4.6,16.1c-2.4,0.7-4.6,1.9-6.6,3.4C97.7,30.3,87.2,17,72.2,4.8
							c0,0-18.3,14-38.5,11.5c0,0-15.5,24.6,18.5,57.6c0,0,5.2-20.3,11.2-27.1c0,0,18.9,7.2,32.2,20.6v1.8
							C84.8,73,76.9,83.4,76.9,95.8c0,15.7,12.7,28.3,28.3,28.3c1.9,0,3.7-0.1,5.5-0.6c2.1,0.7,4.5,0.9,7.6,0.1v9.4
							c0,0,0,4.3,4.2,4.2c5.2-0.1,13.3-0.6,13.3-0.6s3.4,0.3,3.6-6.9c0-3.1,0.1-5.5,0.3-7.8c3.3,1.3,6.7,1.9,10.4,1.9
							c15.7,0,28.3-12.7,28.3-28.3c0-12.2-7.8-22.7-18.8-26.7v-1.8c13.3-13.3,32.2-20.6,32.2-20.6c5.8,7,11.2,27.1,11.2,27.1
							C236.4,40.6,221.1,16.2,221.1,16.2z M50.2,66.4C27.1,42.8,35.4,19.9,35.4,19.9C53.3,21.5,71.6,9.1,71.6,9.1
							C84.3,21.5,94.2,33.9,101.3,44c-0.9,0.9-1.6,1.9-2.2,2.8c-11.5-15.1-23.3-21-23.3-21c0.6-1.3,5.1-2.7,5.1-2.7
							C65.5,17,50.2,66.4,50.2,66.4z M64.2,43.3l3-6.9C80.3,42.8,89.4,50,95.5,55.8c-0.1,1.3-0.3,2.5-0.3,3.9v3
							C81.8,50.3,64.2,43.3,64.2,43.3z M118.9,120c-1.5,0.3-3.3,0.3-5.5,0.1c-1-0.1-1.9-0.3-2.7-0.4c4.3-0.4,7.3-2.8,7.3-2.8
							c-4.2,1.8-7,2.2-8.9,2.1c-0.4-0.3-0.9-0.6-1.2-0.9c4.8-0.1,8.2-2.8,8.2-2.8c-4.2,1.8-7.2,2.2-8.9,2.1c-0.3-0.3-0.4-0.7-0.6-1
							c5.2,0.1,9.1-3,9.1-3c-4.6,1.9-7.6,2.2-9.5,2.1c-0.1-0.4-0.3-0.9-0.3-1.5c5.8,0.7,10.3-2.8,10.3-2.8
							c-5.5,2.4-8.8,2.4-10.4,1.9c0-0.6,0-1.2,0-1.6c6,0.9,10.7-2.7,10.7-2.7c-5.8,2.5-8.9,2.4-10.7,1.8c0-0.4,0.1-0.7,0.1-0.7
							c8.1-0.9,12.7-4.9,12.7-4.9c1.6,2.1,4.2,3.7,5.7,4.6c1,0.6,1.8,0.9,1.8,0.9l-0.1,4l-0.1,1.8
							C125.9,115.9,124.3,119.1,118.9,120z M136.5,120.5c-0.1,12.4-3.1,12.7-3.1,12.7s-1.9,0.1-4.3,0.1l-0.1-2.5l-0.4,2.5
							c-1.3,0-2.7,0-3.9,0c-3.6,0-3.3-1.5-3.3-1.5l-0.6-9.8c2.5-1.6,4.9-2.8,7-3.4l1,10.1l0.4-10.6c1-0.3,2.1-0.4,2.8-0.4
							c2.7-0.3,4.3,0.1,4.3,0.1C136.5,118.9,136.5,119.7,136.5,120.5z M145.3,113.8c-0.6,0.3-1.2,0.6-1.9,0.7
							c-1.8,0.6-4.9,0.6-7.8,0.4c-3-0.3-5.8-0.4-5.8-0.4v-4.5c0,0,0.3-0.3,0.4-0.4c1-0.7,5.2-3.6,5.8-4.6c0.9-1,6.7-1.3,10.7-1.6
							c0.4,0,0.9,0,1.2,0c-1.6,0.9-4.5,1.8-9.2,2.1c0,0,5.7,1.3,10.6-1.9c0.7,0.1,1,0.6,1.3,1c-1.2,1.2-4.2,2.7-10.6,3
							c0,0,5.8,1.3,10.7-1.9c0,0.4,0,1,0,1.6c-1.6,1-4.5,1.9-9.4,2.1c0,0,4.8,1,9.4-1.2c0,0.4-0.1,0.9-0.4,1.3
							c-1.6,0.7-4.3,1.5-8.6,1.6c0,0,3.7,0.9,7.9-0.6c-0.6,0.7-1.5,1.5-2.5,2.1c-1.6,0.4-3.6,0.7-6.3,0.9
							C141.1,113.7,142.8,114,145.3,113.8z M168.1,80.3c-6.6-7-11.3-6.3-11.3-6.3c4,3.6-0.1,9.8-0.1,9.8c0.9-6.6-2.2-9.8-2.2-9.8
							c1.5,4-0.3,8.2-0.3,8.2c-7.3,8.8-24.6,3-24.6,3c1,1.5,9.2,5.2,24.3,4.2c15.1-1,13.7,14.8,13.7,14.8c0.3-7.8-7.9-10.4-7.9-10.4
							c10.6,13-0.3,20-0.3,20c2.1-4.2-0.3-7-0.3-7c-0.1,7-3.6,10-11,11.3c3.1-0.7,6.1-2.5,6.9-6.6c1.6-8.8-1.9-12.7-6.1-11.9
							c-4.2,0.9-7.9,0.9-11-2.8c-4.8-5.7-16-1.6-16-1.6s-3.7,1.9-3.9,5.2c0,0-0.3,5.5-11.6,5.8s-5.2,8.6-2.5,11.9
							c0.3,0.4,0.7,0.9,1.2,1.3c-13.1,0-23.9-10.7-23.9-24c0-10.1,6.4-19.2,16-22.5l2.8-1V59.7c0-2.4,0.4-4.5,1.2-6.6
							c1.3-2.8,3.7-6.6,9.1-8.6c0.7-0.3,1.5-0.4,2.2-0.7c0.3-0.1,0.6-0.1,1-0.3c0.9-0.1,1.8-0.4,2.4-0.6c8.1-1.5,16.1-0.6,15.1,2.7
							c-1.3,4.9-9.4,5.4-11,5.4c0,0,11.6,3,16.1-1.6c0,0,9.5,13.1-5.7,25.5c0,0,13.6-3.4,15.2-16.6c0,0,6.3,2.2,9.7,11.6v1.8l2.8,1
							C161.9,74.5,165.5,77,168.1,80.3z M159.2,62.8v-3c0-1.3-0.1-2.7-0.3-3.9c6.1-5.8,15.2-13,28.3-19.4l3,6.9
							C190.2,43.3,172.6,50.3,159.2,62.8z M201.4,22.4c0,0-6.1,1.3-9.8-1.2c0,0,0.9,3.7,11,18c0,0-12.1-15.7-23.1-18
							c0,0,18,6.6,26.4,33.6c0,0-4.6-9.4-8.2-11.2c0,0,4.3,9.8,5.5,19.5c-3.6-10.6-16.7-45.3-29.8-40c0,0,4.5,1.3,5.1,2.7
							c0,0-11.6,6-23.3,21c-0.7-1-1.5-1.9-2.2-2.8c7.2-10.1,16.9-22.5,29.7-34.9c0,0,14,9.5,29.5,10.7c-5.5,0-13.6-0.9-23.4-5.4
							C188.9,14.5,192.6,19.7,201.4,22.4z"/>
						<path d="M152.8,70.6c0,0-3-5.1-6.1-5.7c0,0-0.3,9.4-18.8,16.6c0,0,0.3,0,1,0l0,0c0,0,13,6.4,20.9,1.9c0,0-2.1,1-7.9,0.1
							c2.5-0.3,4.8-1.2,6-3.3c3.3-5.8,0.6-9.2-0.3-10.1c0.6-0.6,1-1.2,1.6-1.9L152.8,70.6z"/>
						<path d="M117.6,73.4l0.6-0.7l-0.4-0.6l-2.5-3.3l-0.4-8.1l-1,8.2v0.1l0.1,0.3l1.5,3l-1.6,1.3c-5.2-4.8-5.4-8.6-5.4-8.6
							c-3.1,0.6-6.1,5.7-6.1,5.7l3.6-2.4c0.6,0.6,1,1.3,1.6,1.9c-0.9,0.9-3.6,4.5-0.3,10.1c1.2,2.2,3.4,3.1,6,3.3
							c-5.7,0.9-7.9-0.1-7.9-0.1c7.9,4.5,20.9-1.9,20.9-1.9l0,0c0.6,0,1,0,1,0c-5.1-1.9-8.6-4-11.3-6.1L117.6,73.4z"/>
						<path d="M48.4,56.4C33.9,40.6,37,22.6,37,22.6c-5.7,18.6,12.2,40.1,12.2,40.1c10.6-32.2,19.4-39.4,22.2-41
							C56.3,28.8,48.4,56.4,48.4,56.4z"/>
						<path d="M71.5,21.7c0.3-0.1,0.6-0.3,0.9-0.4C72.4,21.2,72.1,21.4,71.5,21.7z"/>
					</g>
					<path class="st4" d="M118.8,80.4c-1.2,1-2.7,1.6-4.3,1.6c-3.7,0-6.7-3-6.7-6.7c0-1.3,0.4-2.7,1.2-3.7
						C110.7,74.3,113.8,77.7,118.8,80.4z"/>
					<path class="st4" d="M136.4,80.4c1.2,1,2.7,1.6,4.3,1.6c3.7,0,6.7-3,6.7-6.7c0-1.3-0.4-2.7-1.2-3.7
						C144.4,74.3,141.3,77.7,136.4,80.4z"/>
				</g>
				<path d="M111.3,72.8c0,0-1.9,3.3,0.4,5.2c2.4,1.9,4.2,0,4.2,0L111.3,72.8z"/>
				<path d="M144,72.8c0,0,1.9,3.3-0.4,5.2c-2.4,1.9-4.2,0-4.2,0L144,72.8z"/>
			</g>
			<g>
				<path class="st2" d="M130.4,45.8c-0.9,3.3-4.6,4.5-7.6,5.1l0,0h-0.3c9.1-5.5-0.6-6.7-10.7-6.9c0,0,0,0,0.1,0
					c0.3-0.1,0.6-0.1,1-0.3c0.9-0.1,1.8-0.4,2.4-0.6C123.4,41.5,131.4,42.5,130.4,45.8z"/>
				<path class="st2" d="M135.6,49.6c0,0,7.3,10-0.9,20.7c2.8-6.7,0-17.3,0-17.3c-3.9,0.9-6.6-0.1-7.8-0.7
					C130.1,52.2,133.5,51.6,135.6,49.6z"/>
				<path class="st2" d="M156.8,74.2c4,3.6-0.1,9.8-0.1,9.8c0.9-6.6-2.2-9.8-2.2-9.8c1.5,4-0.3,8.2-0.3,8.2
					c-1.9,2.4-4.6,3.7-7.5,4.3c1.2-1,2.2-2.2,3-3.3l0,0c3.7-5.4,1.8-10.9-0.9-14.9c0.1-0.1,0.3-0.3,0.3-0.4l3.6,2.4
					c0,0-3-5.1-6.1-5.7c0,0,0,0.3-0.1,0.6c-1-1-1.9-1.9-2.5-2.5c0.6-1.3,1-3,1.2-4.6c0,0,6.3,2.2,9.7,11.6v1.8l2.8,1
					c4.2,1.5,7.8,4,10.4,7.5C161.6,73.3,156.8,74.2,156.8,74.2z"/>
				<path class="st2" d="M167.5,104.3c0.3-7.8-7.9-10.4-7.9-10.4c10.6,13-0.3,20-0.3,20c2.1-4.2-0.3-7-0.3-7c-0.1,7-3.6,10-11,11.3
					c3.1-0.7,6.1-2.5,6.9-6.6c0.1-1,0.3-2.1,0.4-3c1.8-4.2,1.3-8.2,1.3-8.2c1.6,0,4.9,3,4.9,3c-1.2-8.1-6.7-11.9-10.4-13.7
					c0.9,0,1.9-0.1,3-0.1C169,88.5,167.5,104.3,167.5,104.3z"/>
			</g>
			<circle class="st1" cx="144.4" cy="75.7" r="1"/>
		</g>
		<circle class="st1" cx="110.4" cy="75.7" r="1"/>
	</g>
	<g>
		<g>
			<g>
				<path d="M158.7,128.8c1.5,0.7,3.6,0.3,4.2-1.6c1-3.3,2.1-6.7,4-9.5c1.5-2.2,3.1-4,4.3-6.4c2.2-4.8,4.8-10.6,4.9-15.8
					c0-0.3,0-0.4-0.1-0.7c2.1-1.2,5.1-1.3,7.6,0c2.7,1.3,4.5,3.7,5.1,6.7c0.1,0.7,0.1,1.5,0.1,2.2c0,1.8-0.4,3.6-1.2,5.5
					c-0.6,1.6-1.6,3.3-2.8,4.8c0.3,0.1,0.7,0.3,1,0.6c1.5,0.9,2.8,1.8,4,3c1.3,1.3,3,3.4,3.7,6c0.7,2.4,0.4,4.6-0.6,6.4
					c-0.6,1-1.6,1.9-2.8,2.5c-0.3,2.8-1.9,5.5-4.2,7.2c0,1.9-0.7,3.6-1.9,4.9c-1.6,1.8-4.3,2.8-7.2,2.8c-1.2,0-2.4-0.1-3.7-0.3
					c-0.6-0.1-1.3-0.3-2.1-0.4c-2.4-0.6-4.8-1.8-6.9-3.3v0.1l-0.7-0.9c-0.9-0.7-1.6-1.6-2.2-2.7l-0.6-0.7c-0.9-1-1.5-2.2-1.9-3.6
					c-0.4-1.6-0.6-3.6-0.4-5.5C158.6,129.5,158.7,129.2,158.7,128.8z"/>
				<path class="st5" d="M180.4,114.6c2.7-2.5,6.6-7.9,5.5-12.8c-0.7-4.3-5.7-6.4-8.4-4.6c-2.7,1.8-3,6.1-4,9.4
					c-0.7,2.8-2.1,3.7-4.3,5.5c-4,3.3-6.6,7.5-6.9,13c0.9-1.5,1.6-2.5,3-3c-2.5,2.1-5.7,9.7-2.4,14.5c-0.1-0.9-0.1-1.8,0-2.7
					c0.3-0.9,0.7-1.8,1.5-2.4c0.1-0.6,0.6-1,0.9-1.3c-0.4-1.2-0.6-2.7-0.3-4.2c0.3-2.5,2.1-4.5,4.6-4.2c-0.3-0.9-0.4-1.8-0.4-2.7
					c0.1-1.2,0.6-2.4,1.5-3.3c1.6-1.6,4-1.9,6.3-1.9C178.1,114.1,179.3,114.3,180.4,114.6z"/>
				
					<linearGradient id="SVGID_1_" gradientUnits="userSpaceOnUse" x1="545.7866" y1="122.8527" x2="551.3868" y2="133.8434" gradientTransform="matrix(0.9619 0.2733 0.2733 -0.9619 -390.1778 88.3602)">
					<stop  offset="0" style="stop-color:#EEEFEF"/>
					<stop  offset="1" style="stop-color:#FFFFFF"/>
				</linearGradient>
				<path class="st6" d="M178.7,114.3c0.3-1.9-8.6-3.7-13.4,6.4c1.3-0.4,2.5-1,3,0c-3.4,3.7-6.4,7.5-5.1,12.5
					c0.3-0.7,0.7-1.3,1.3-1.8c0.4-0.3,0.9-0.3,1-0.4c0.1-0.3,0-0.6-0.1-0.9c-0.4-1.2-0.6-2.7-0.3-4.2c0.3-2.5,2.1-4.5,4.6-4.2
					c-0.3-0.9-0.4-1.8-0.4-2.7c0.1-1.2,0.6-2.4,1.5-3.3c1.6-1.6,4-1.9,6.3-1.9C177.7,114.1,178.3,114.1,178.7,114.3L178.7,114.3z
					 M185,106.2c1.2-6.4-5.8-12.2-7.6-3.1c-1,4.9,0.3,8.5,2.2,8.9C181.1,112.3,183.3,110.4,185,106.2z"/>
				<path class="st1" d="M185.4,102.4c-1-3.9-5.5-6.3-7.8-3c-2.2,3.1-1.8,7-3.4,9.7c-3,4.9-6.1,3.1-10.7,11.5c3.7-8.4,7-6.9,10-12.2
					c1.6-3,0.7-5.2,3.6-9.7C179.2,95.3,185.3,97.6,185.4,102.4z"/>
			</g>
			<polygon points="237.3,47.9 224.1,63.6 202.4,88.9 201.2,90.4 201.2,90.4 200.9,90.6 200.5,91.2 200.5,91.2 199.5,92.4 
				198.1,93.9 198,93.1 197.7,91.8 192.7,71 191.1,64.2 188,70.4 173.4,98.9 172.8,100 171.1,103.4 169.6,106.1 168.7,107.9 
				168.7,108 168.3,108.8 168.1,109.1 167.4,110.4 166.5,112.2 166.2,113.1 166,113.2 165.9,113.5 165.3,114.7 164.9,115.5 
				164.1,116.8 164.1,116.8 163.2,118.6 162.8,119.5 162.8,119.7 162.8,119.7 162.6,120 162.5,120.3 162.5,120.3 162.5,120.3 
				161.9,121.4 160.5,124 160.5,124.1 160.4,124.1 160.4,124.1 160.2,124.7 159.3,126.4 158.6,127.9 158.6,127.9 158.6,127.9 
				157.8,129.2 157.2,130.5 157.2,130.5 155,134.9 154.1,136.7 153.2,138.4 145.9,152.8 124,195.9 140.2,175.1 154,156.3 
				160.4,147.7 161.3,146.5 162.2,145.3 165.6,140.4 166.3,139.6 166.8,138.9 166.8,138.9 167.1,138.4 170.4,134 171.4,132.5 
				172.3,131.4 174,129.2 175,127.9 175,127.9 175,127.7 175.1,127.6 175.3,127.4 176.3,125.9 177.2,124.7 178.7,122.6 179.8,121.1 
				179.8,121.1 179.8,121.1 180.1,120.7 181.3,119.4 182,118.2 183.6,115.9 184.5,114.7 184.7,114.6 184.7,114.6 184.7,114.6 
				185.7,113.1 187.4,111 187.5,110.7 187.8,112.3 188.4,114.9 188.4,115.3 188.4,115.5 188.4,115.5 191.3,129.2 192.6,135.9 
				196,129.9 199.6,123.8 202.1,119.5 206.2,112.5 206.9,111.2 206.9,111 206.9,111 207.7,109.7 231.8,67.6 253,30.9 			"/>
			<g>
				<path class="st4" d="M239.3,49.6L226,65.2l-21.6,25.4l0,0l-1.5,1.8l0,0l-1.5,1.8l-4.6,5.4l-1-4.3l-0.3-1.5l-0.3-1.5l-4.9-20.7
					l-14.6,28.6l-0.4,1l-1.8,3.4l-1.3,2.7l-0.9,1.8v0.1l-0.3,0.7l-0.1,0.3l-0.7,1.5l-0.9,1.8l-0.4,0.7l-0.3,0.6l0,0l-0.6,1l-0.4,0.9
					l0,0l-0.3,0.6l-0.1,0.1l-0.1,0.1l-1,2.1l-0.4,0.9L165,121l-0.1,0.4l-0.6,1l-1.3,2.5l-0.1,0.1l-0.3,0.4l-0.9,1.6l-0.7,1.5l0,0
					l-0.6,1.2l0,0l-3,5.8l-0.9,1.8l-0.9,1.6l-7.3,14.3l-10,19.7l13.7-18.8l6.4-8.6l0.9-1.2l0.9-1.2l3.4-4.8l0.6-0.9l0.7-1l0,0
					l3.3-4.5l1-1.5l0.9-1.2l1.6-2.2l1-1.3l0.3-0.4l0,0l1-1.5l0.9-1.2l1.5-2.1l1-1.3l0.3-0.4l1-1.5l0.9-1.2l1.6-2.2l1-1.3v-0.1l1-1.5
					l1.5-2.1l1.5-1.9l0,0l1-1.5l1-1.5l0.7,3.9l0.7,3.4l0.6,2.5l0.1,0.6l2.8,13.7l3.6-6.1l2.5-4.5l4-7l0,0l0.7-1.3l0.7-1.3L229.4,66
					L239.3,49.6z"/>
				<path class="st7" d="M239.3,49.6L226,65.2l-21.6,25.4l0,0l-1.5,1.8l0,0l-1.5,1.8l-4.6,5.4l-1-4.3l-0.3-1.5l-0.3-1.5l-4.9-20.7
					l-14.6,28.6l-0.4,1l-1.8,3.4l-1.3,2.7l-0.9,1.8v0.1l-0.3,0.7l-0.1,0.3l-0.7,1.5l-0.9,1.8l-0.4,0.7l-0.3,0.6l0,0l-0.6,1l-0.4,0.9
					l0,0l-0.3,0.6l-0.1,0.1l-0.1,0.1l-1,2.1l-0.4,0.9L165,121l-0.1,0.4l-0.6,1l-1.3,2.5l-0.1,0.1l-0.3,0.4l-0.9,1.6l-0.7,1.5l0,0
					l-0.6,1.2l0,0l-3,5.8l-0.9,1.8l-0.9,1.6l-7.3,14.3l-10,19.7l13.7-18.8l6.4-8.6l0.9-1.2l0.9-1.2l3.4-4.8l0.6-0.9l0.7-1l0,0
					l3.3-4.5l1-1.5l0.9-1.2l1.6-2.2l1-1.3l0.3-0.4l0,0l1-1.5l0.9-1.2l1.5-2.1l1-1.3l0.3-0.4l1-1.5l0.9-1.2l1.6-2.2l1-1.3v-0.1l1-1.5
					l1.5-2.1l1.5-1.9l0,0l1-1.5l1-1.5l0.7,3.9l0.7,3.4l0.6,2.5l0.1,0.6l2.8,13.7l3.6-6.1l2.5-4.5l4-7l0,0l0.7-1.3l0.7-1.3L229.4,66
					L239.3,49.6z"/>
				
					<linearGradient id="SVGID_2_" gradientUnits="userSpaceOnUse" x1="469.7176" y1="225.227" x2="472.6317" y2="234.3249" gradientTransform="matrix(0.8351 -0.5501 0.5501 0.8351 -335.694 175.2554)">
					<stop  offset="0" style="stop-color:#FEDA59"/>
					<stop  offset="0.2321" style="stop-color:#FED350"/>
					<stop  offset="0.6042" style="stop-color:#FEC039"/>
					<stop  offset="1" style="stop-color:#FFA719"/>
				</linearGradient>
				<polygon class="st8" points="239.3,49.6 228.2,66 204.1,101.3 202.9,103.1 201.8,104.7 196.6,112.3 195.3,114.3 194.1,108.6 
					191.8,98.6 191.4,97.1 191.1,95.6 189.5,88.2 181.6,101.5 181.4,101.6 180.7,103 179.3,105 179.2,105.3 178.9,105.8 
					178.9,105.8 178.9,105.9 177.5,108.2 177.1,108.8 176.8,109.2 176.8,109.2 176.5,109.8 176.3,110.1 174.7,112.6 174.5,112.9 
					174.5,113.1 174.5,113.1 174.4,113.4 173.1,115.5 172.9,115.8 172.2,116.8 172,117.3 170.4,120 170.2,120.1 170.2,120.3 
					168.9,122.6 168.6,122.8 168,124 167.8,124.3 165.9,127.4 165.7,127.6 165.7,127.7 164.6,129.5 164.4,129.9 163.8,131 
					161.9,134 161.4,134.9 161.1,135.3 158.4,139.8 157.5,141.3 156.7,142.8 149.6,154.3 138.2,173.6 151.9,154.9 158.3,146.2 
					159.2,145 160.1,143.7 163.5,138.9 164.3,138 165,137 165,137 168.3,132.5 169.5,131 170.2,129.8 171.9,127.7 172.9,126.2 
					173.2,125.9 173.2,125.9 174.2,124.4 175.1,123.1 176.6,121 177.7,119.7 178,119.2 179.2,117.7 179.9,116.7 181.6,114.4 
					182.6,113.1 182.6,113.1 183.6,111.6 185.3,109.5 186.6,107.4 186.6,107.4 187.8,106.1 188.9,104.4 189.6,108.5 190.4,111.9 
					191,114.4 191,114.9 193.8,128.8 197.4,122.6 199.9,118.2 203.9,111.2 203.9,111.2 204.7,109.8 205.6,108.3 229.6,66.4 				"/>
			</g>
			<path d="M188.6,118.9c-3.9-3.9-10.4-6-14.8-4.8l0,0c-2.7,0.7-4.3,2.5-4.6,5.1c-0.1,0.7,0,1.5,0.3,2.4c-0.3,0-0.7,0-1,0.1l0,0
				c-1.8,0.4-3.1,2.1-3.4,4.3c-0.3,1.6-0.1,3.3,0.4,4.9c-0.1,0-0.1,0-0.3,0c-1,0.3-1.8,1-2.2,2.2c-0.7,1.8-0.4,3.9,0.6,5.5
				c1.9,3.6,8.1,6.4,13.7,6.4c0.7,0,1.6-0.1,2.4-0.3c3.1-0.7,4.9-3.3,4.6-6.4v-0.1c2.7-1.3,4.5-4.3,4.3-7.3c1.8-0.6,3.1-1.8,3.6-3.4
				C192.6,124.9,191.3,121.6,188.6,118.9z"/>
			<g>
				<path class="st0" d="M177.1,144.3c-5.4,0-11.3-2.8-13-6.1c-1.8-2.7-0.4-6.3,1.5-6.4c0.1,0,0.1,0,0.3,0c1.6,3,4.9,5.1,7.8,6.1
					c2.7,0.9,5.8,1.5,8.6,1c0.3,0,0.6-0.1,0.9-0.3C183.6,142.2,180.7,144.3,177.1,144.3z"/>
				<path class="st1" d="M179.8,138.9c-0.9,7.9-22.5-0.3-13.6-6.6c1.6,2.7,4.8,4.5,7.3,5.4C175.4,138.4,177.7,138.9,179.8,138.9z"/>
				<path class="st0" d="M182.3,138c-6.7,1.3-18-3.7-16.6-11.9c0.3-2.2,1.8-4.2,4.3-3.7c0.4,0.7,1,1.5,1.6,2.2c0.4,0.4,1,1,1.6,1.5
					c1.5,1.2,3.1,2.2,4.8,3c2.1,1,4.6,1.8,6.9,1.9c0.7,0,1.6,0,2.4-0.1C187.7,134.1,185.4,137.3,182.3,138z"/>
				<path class="st1" d="M167.4,128.2c-0.3-3.1,0.6-5.1,4-3.9c0.1,0.1,0.1,0.3,0.3,0.3c0.4,0.4,1,1,1.6,1.5c1.5,1.2,3.1,2.2,4.8,3
					c1.3,0.6,2.8,1.2,4.3,1.5c0.6,2.1,0,4.9-2.7,5.7C176,137.4,168.4,133.2,167.4,128.2z"/>
				<path class="st0" d="M185.1,130.2c-6.6-0.6-16-6.3-15.1-11c0.7-6.9,12.1-5.4,17.9,0.3C193.2,124.7,192,130.8,185.1,130.2z"/>
				<path class="st1" d="M170.8,120.3c0.9-8.4,13.3-1.5,14.6,3.3c1.3,4.2-1.6,5.7-5.2,4.9C176.3,127.6,170.2,123.5,170.8,120.3z"/>
			</g>
		</g>
	</g>
	<g>
		<g>
			<g>
				<path d="M97.3,128.8c-1.5,0.7-3.6,0.3-4.2-1.6c-1-3.3-2.1-6.7-4-9.5c-1.5-2.2-3.1-4-4.3-6.4c-2.2-4.8-4.8-10.6-4.9-15.8
					c0-0.3,0-0.4,0.1-0.7c-2.1-1.2-5.1-1.3-7.6,0c-2.7,1.3-4.5,3.7-5.1,6.7c-0.1,0.7-0.1,1.5-0.1,2.2c0,1.8,0.4,3.6,1.2,5.5
					c0.6,1.6,1.6,3.3,2.8,4.8c-0.3,0.1-0.7,0.3-1,0.6c-1.5,0.9-2.8,1.8-4,3c-1.3,1.3-3,3.4-3.7,6c-0.7,2.4-0.4,4.6,0.6,6.4
					c0.6,1,1.6,1.9,2.8,2.5c0.3,2.8,1.9,5.5,4.2,7.2c0,1.9,0.7,3.6,1.9,4.9c1.6,1.8,4.3,2.8,7.2,2.8c1.2,0,2.4-0.1,3.7-0.3
					c0.6-0.1,1.3-0.3,2.1-0.4c2.4-0.6,4.8-1.8,6.9-3.3v0.1l0.7-0.9c0.9-0.7,1.6-1.6,2.2-2.7l0.6-0.7c0.9-1,1.5-2.2,1.9-3.6
					c0.4-1.6,0.6-3.6,0.4-5.5C97.4,129.5,97.3,129.2,97.3,128.8z"/>
				<path class="st5" d="M75.7,114.6c-2.7-2.5-6.6-7.9-5.5-12.8c0.7-4.3,5.7-6.4,8.4-4.6c2.7,1.8,3,6.1,4,9.4
					c0.7,2.8,2.1,3.7,4.3,5.5c4,3.3,6.6,7.5,6.9,13c-0.9-1.5-1.6-2.5-3-3c2.5,2.1,5.7,9.7,2.4,14.5c0.1-0.9,0.1-1.8,0-2.7
					c-0.3-0.9-0.7-1.8-1.5-2.4c-0.1-0.6-0.6-1-0.9-1.3c0.4-1.2,0.6-2.7,0.3-4.2c-0.3-2.5-2.1-4.5-4.6-4.2c0.3-0.9,0.4-1.8,0.4-2.7
					c-0.1-1.2-0.6-2.4-1.5-3.3c-1.6-1.6-4-1.9-6.3-1.9C77.8,114.1,76.7,114.3,75.7,114.6z"/>
				
					<linearGradient id="SVGID_3_" gradientUnits="userSpaceOnUse" x1="645.2106" y1="151.013" x2="650.8107" y2="162.0037" gradientTransform="matrix(-0.9619 0.2733 -0.2733 -0.9619 749.41 88.3602)">
					<stop  offset="0" style="stop-color:#EEEFEF"/>
					<stop  offset="1" style="stop-color:#FFFFFF"/>
				</linearGradient>
				<path class="st9" d="M77.2,114.3c0.6-0.1,1-0.1,1.6-0.1c2.2-0.1,4.6,0.3,6.3,1.9c0.9,0.9,1.3,1.9,1.5,3.3c0.1,0.9,0,1.8-0.4,2.7
					c2.5-0.1,4.3,1.6,4.6,4.2c0.3,1.5,0.1,2.8-0.3,4.2c0,0.3-0.3,0.6-0.1,0.9c0.1,0.1,0.6,0.3,1,0.4c0.6,0.4,1,1,1.3,1.8
					c1.2-5.1-1.6-8.8-5.1-12.5c0.4-0.9,1.5-0.3,3,0C86,110.6,76.9,112.3,77.2,114.3L77.2,114.3z M76.4,112c1.9-0.3,3.3-4,2.2-8.9
					c-1.8-9.1-8.8-3.3-7.6,3.1C72.7,110.4,74.9,112.3,76.4,112z"/>
				<path class="st1" d="M70.6,102.4c1-3.9,5.5-6.3,7.8-3c2.2,3.1,1.8,7,3.4,9.7c3,4.9,6.1,3.1,10.7,11.5c-3.7-8.4-7-6.9-10-12.2
					c-1.6-3-0.7-5.2-3.6-9.7C76.9,95.3,70.7,97.6,70.6,102.4z"/>
			</g>
			<polygon points="18.7,47.9 32,63.6 53.6,88.9 54.8,90.4 54.8,90.4 54.9,90.6 55.4,91.2 55.4,91.2 56.4,92.4 57.8,93.9 57.9,93.1 
				58.4,91.8 63.3,71 64.9,64.2 68.1,70.4 82.7,98.9 83.3,100 84.9,103.4 86.4,106.1 87.3,107.9 87.3,108 87.7,108.8 87.7,109.1 
				88.5,110.4 89.5,112.2 89.8,113.1 90,113.2 90.1,113.5 90.7,114.7 91.2,115.5 91.8,116.8 91.8,116.8 92.7,118.6 93.1,119.5 
				93.3,119.7 93.3,119.7 93.4,120 93.6,120.3 93.6,120.3 93.6,120.3 94.2,121.4 95.5,124 95.5,124.1 95.5,124.1 95.5,124.1 
				95.8,124.7 96.7,126.4 97.4,127.9 97.4,127.9 97.4,127.9 98,129.2 98.8,130.5 98.8,130.5 101,134.9 101.9,136.7 102.8,138.4 
				110.1,152.8 132,195.9 115.8,175.1 102.1,156.3 95.7,147.7 94.8,146.5 93.9,145.3 90.3,140.4 89.7,139.6 89.2,138.9 89.2,138.9 
				88.9,138.4 85.7,134 84.5,132.5 83.7,131.4 82.1,129.2 81,127.9 81,127.9 81,127.7 80.9,127.6 80.7,127.4 79.7,125.9 78.8,124.7 
				77.2,122.6 76.1,121.1 76.1,121.1 76.1,121.1 75.8,120.7 74.8,119.4 73.9,118.2 72.4,115.9 71.3,114.7 71.3,114.6 71.3,114.6 
				71.3,114.6 70.3,113.1 68.7,111 68.5,110.7 68.2,112.3 67.6,114.9 67.5,115.3 67.5,115.5 67.5,115.5 64.8,129.2 63.3,135.9 
				60,129.9 56.4,123.8 53.9,119.5 49.9,112.5 49.1,111.2 49.1,111 49.1,111 48.2,109.7 24.1,67.6 2.9,30.9 			"/>
			<g>
				<path class="st4" d="M16.8,49.6L30,65.2l21.6,25.4l0,0l1.5,1.8l0,0l1.5,1.8l4.6,5.4l1-4.3l0.3-1.5l0.3-1.5l4.9-20.7l14.6,28.6
					l0.4,1l1.8,3.4l1.3,2.7l0.9,1.8v0.1l0.3,0.7l0.1,0.3l0.7,1.5l0.9,1.8l0.4,0.7l0.3,0.6l0,0l0.6,1l0.4,0.9l0,0l0.3,0.6l0.1,0.1
					l0.1,0.1l1,2.1l0.4,0.9L91,121l0.1,0.4l0.6,1l1.3,2.5l0.1,0.1l0.3,0.4l0.9,1.6l0.7,1.5l0,0l0.6,1.2l0,0l3,5.8l0.9,1.8l0.9,1.6
					l7.3,14.3l10,19.7l-13.7-18.8l-6.4-8.6l-0.9-1.2l-0.9-1.2l-3.4-4.8l-0.6-0.9l-0.7-1l0,0l-3.3-4.5l-1-1.5l-0.9-1.2l-1.6-2.2
					l-1-1.3l-0.3-0.4l0,0l-1-1.5l-0.9-1.2l-1.5-2.1l-1-1.3l-0.3-0.4l-1-1.5l-0.9-1.2l-1.6-2.2l-1-1.3v-0.1l-1-1.5l-1.5-2.1l-1.5-1.9
					l0,0l-1-1.5l-1-1.5l-0.7,3.9l-0.7,3.4l-0.6,2.5l-0.1,0.6l-2.8,13.7l-3.6-6.1l-2.5-4.5l-4-7l0,0l-0.7-1.3l-0.7-1.3L26.6,66
					L16.8,49.6z"/>
				<path class="st7" d="M16.8,49.6L30,65.2l21.6,25.4l0,0l1.5,1.8l0,0l1.5,1.8l4.6,5.4l1-4.3l0.3-1.5l0.3-1.5l4.9-20.7l14.6,28.6
					l0.4,1l1.8,3.4l1.3,2.7l0.9,1.8v0.1l0.3,0.7l0.1,0.3l0.7,1.5l0.9,1.8l0.4,0.7l0.3,0.6l0,0l0.6,1l0.4,0.9l0,0l0.3,0.6l0.1,0.1
					l0.1,0.1l1,2.1l0.4,0.9L91,121l0.1,0.4l0.6,1l1.3,2.5l0.1,0.1l0.3,0.4l0.9,1.6l0.7,1.5l0,0l0.6,1.2l0,0l3,5.8l0.9,1.8l0.9,1.6
					l7.3,14.3l10,19.7l-13.7-18.8l-6.4-8.6l-0.9-1.2l-0.9-1.2l-3.4-4.8l-0.6-0.9l-0.7-1l0,0l-3.3-4.5l-1-1.5l-0.9-1.2l-1.6-2.2
					l-1-1.3l-0.3-0.4l0,0l-1-1.5l-0.9-1.2l-1.5-2.1l-1-1.3l-0.3-0.4l-1-1.5l-0.9-1.2l-1.6-2.2l-1-1.3v-0.1l-1-1.5l-1.5-2.1l-1.5-1.9
					l0,0l-1-1.5l-1-1.5l-0.7,3.9l-0.7,3.4l-0.6,2.5l-0.1,0.6l-2.8,13.7l-3.6-6.1l-2.5-4.5l-4-7l0,0l-0.7-1.3l-0.7-1.3L26.6,66
					L16.8,49.6z"/>
				
					<linearGradient id="SVGID_4_" gradientUnits="userSpaceOnUse" x1="555.9091" y1="282.03" x2="558.8232" y2="291.1281" gradientTransform="matrix(-0.8351 -0.5501 -0.5501 0.8351 694.9262 175.2554)">
					<stop  offset="0" style="stop-color:#FEDA59"/>
					<stop  offset="0.2321" style="stop-color:#FED350"/>
					<stop  offset="0.6042" style="stop-color:#FEC039"/>
					<stop  offset="1" style="stop-color:#FFA719"/>
				</linearGradient>
				<polygon class="st10" points="16.8,49.6 27.8,66 51.8,101.3 53,103.1 54.2,104.7 59.3,112.3 60.8,114.3 61.9,108.6 64.2,98.6 
					64.5,97.1 64.9,95.6 66.6,88.2 74.5,101.5 74.5,101.6 75.4,103 76.7,105 76.9,105.3 77,105.8 77.2,105.8 77.2,105.9 78.5,108.2 
					78.8,108.8 79.1,109.2 79.1,109.2 79.4,109.8 79.7,110.1 81.2,112.6 81.3,112.9 81.5,113.1 81.5,113.1 81.6,113.4 82.8,115.5 
					83.1,115.8 83.7,116.8 84,117.3 85.7,120 85.7,120.1 85.8,120.3 87.2,122.6 87.3,122.8 88,124 88.2,124.3 90.1,127.4 
					90.1,127.6 90.3,127.7 91.3,129.5 91.6,129.9 92.2,131 94,134 94.6,134.9 94.8,135.3 97.6,139.8 98.5,141.3 99.4,142.8 
					106.2,154.3 117.9,173.6 104.2,154.9 97.7,146.2 96.8,145 96,143.7 92.4,138.9 91.8,138 91,137 91,137 87.7,132.5 86.6,131 
					85.8,129.8 84.2,127.7 83.1,126.2 82.8,125.9 82.8,125.9 81.8,124.4 80.7,123.1 79.2,121 78.2,119.7 77.9,119.2 76.9,117.7 
					76,116.7 74.5,114.4 73.4,113.1 73.4,113.1 72.4,111.6 70.7,109.5 69.3,107.4 69.3,107.4 68.2,106.1 67.2,104.4 66.3,108.5 
					65.7,111.9 65.1,114.4 64.9,114.9 62.2,128.8 58.7,122.6 56.1,118.2 52.1,111.2 52.1,111.2 51.4,109.8 50.5,108.3 26.3,66.4 
									"/>
			</g>
			<path d="M67.5,118.9c3.9-3.9,10.4-6,14.8-4.8l0,0c2.7,0.7,4.3,2.5,4.6,5.1c0.1,0.7,0,1.5-0.3,2.4c0.3,0,0.7,0,1,0.1l0,0
				c1.8,0.4,3.1,2.1,3.4,4.3c0.3,1.6,0.1,3.3-0.4,4.9c0.1,0,0.1,0,0.3,0c1,0.3,1.8,1,2.2,2.2c0.7,1.8,0.4,3.9-0.6,5.5
				c-1.9,3.6-8.1,6.4-13.7,6.4c-0.7,0-1.6-0.1-2.4-0.3c-3.1-0.7-4.9-3.3-4.6-6.4v-0.1c-2.7-1.3-4.5-4.3-4.3-7.3
				c-1.8-0.6-3.1-1.8-3.6-3.4C63.4,124.9,64.6,121.6,67.5,118.9z"/>
			<g>
				<path class="st0" d="M79,144.3c5.4,0,11.3-2.8,13-6.1c1.8-2.7,0.4-6.3-1.5-6.4c-0.1,0-0.1,0-0.3,0c-1.6,3-4.9,5.1-7.8,6.1
					c-2.7,0.9-5.8,1.5-8.6,1c-0.3,0-0.6-0.1-0.9-0.3C72.4,142.2,75.2,144.3,79,144.3z"/>
				<path class="st1" d="M76.1,138.9c0.9,7.9,22.5-0.3,13.6-6.6c-1.6,2.7-4.8,4.5-7.3,5.4C80.4,138.4,78.4,138.9,76.1,138.9z"/>
				<path class="st0" d="M73.7,138c6.7,1.3,18-3.7,16.6-11.9c-0.3-2.2-1.8-4.2-4.3-3.7c-0.4,0.7-1,1.5-1.6,2.2c-0.4,0.4-1,1-1.6,1.5
					c-1.5,1.2-3.1,2.2-4.8,3c-2.1,1-4.6,1.8-6.9,1.9c-0.7,0-1.6,0-2.4-0.1C68.2,134.1,70.6,137.3,73.7,138z"/>
				<path class="st1" d="M88.5,128.2c0.3-3.1-0.6-5.1-4-3.9c-0.1,0.1-0.1,0.3-0.3,0.3c-0.4,0.4-1,1-1.6,1.5c-1.5,1.2-3.1,2.2-4.8,3
					c-1.3,0.6-2.8,1.2-4.3,1.5c-0.6,2.1,0,4.9,2.7,5.7C80,137.4,87.6,133.2,88.5,128.2z"/>
				<path class="st0" d="M70.9,130.2c6.6-0.6,16-6.3,15.1-11c-0.7-6.9-12.1-5.4-17.9,0.3C62.8,124.7,64,130.8,70.9,130.2z"/>
				<path class="st1" d="M85.1,120.3c-0.9-8.4-13.3-1.5-14.6,3.3c-1.3,4.2,1.6,5.7,5.2,4.9C79.7,127.6,85.7,123.5,85.1,120.3z"/>
			</g>
		</g>
	</g>
	<polygon class="st1" points="58.5,98.3 60.2,107.9 69.7,109.5 60.2,111.2 58.5,120.5 56.9,111.2 47.5,109.5 56.9,107.9 	"/>
	<g>
		
			<image style="overflow:visible;enable-background:new    ;" width="367" height="367" xlink:href="87548CBC.png"  transform="matrix(0.3531 0 0 0.3531 -6.1861 44.7004)">
		</image>
	</g>
	<g>
		
			<image style="overflow:visible;enable-background:new    ;" width="188" height="188" xlink:href="87548CBD.png"  transform="matrix(0.3484 0 0 0.3484 25.9851 76.9141)">
		</image>
		<g>
			
				<image style="overflow:visible;enable-background:new    ;" width="367" height="367" xlink:href="87548CBB.png"  transform="matrix(0.3531 0 0 0.3531 -6.1861 44.7004)">
			</image>
		</g>
	</g>
</g>
</svg>
