<?xml version="1.0" encoding="UTF-8" standalone="no"?>
<svg
   xmlns:dc="http://purl.org/dc/elements/1.1/"
   xmlns:cc="http://creativecommons.org/ns#"
   xmlns:rdf="http://www.w3.org/1999/02/22-rdf-syntax-ns#"
   xmlns:svg="http://www.w3.org/2000/svg"
   xmlns="http://www.w3.org/2000/svg"
   xmlns:sodipodi="http://sodipodi.sourceforge.net/DTD/sodipodi-0.dtd"
   xmlns:inkscape="http://www.inkscape.org/namespaces/inkscape"
   viewBox="0 0 500 500"
   version="1.1"
   id="svg4"
   sodipodi:docname="square-twitter.svg"
   inkscape:version="0.92.5 (2060ec1f9f, 2020-04-08)">
  <metadata
     id="metadata10">
    <rdf:RDF>
      <cc:Work
         rdf:about="">
        <dc:format>image/svg+xml</dc:format>
        <dc:type
           rdf:resource="http://purl.org/dc/dcmitype/StillImage" />
        <dc:title></dc:title>
      </cc:Work>
    </rdf:RDF>
  </metadata>
  <defs
     id="defs8" />
  <sodipodi:namedview
     pagecolor="#ffffff"
     bordercolor="#666666"
     borderopacity="1"
     objecttolerance="10"
     gridtolerance="10"
     guidetolerance="10"
     inkscape:pageopacity="0"
     inkscape:pageshadow="2"
     inkscape:window-width="640"
     inkscape:window-height="480"
     id="namedview6"
     showgrid="false"
     inkscape:zoom="0.4609375"
     inkscape:cx="224"
     inkscape:cy="256"
     inkscape:window-x="0"
     inkscape:window-y="24"
     inkscape:window-maximized="0"
     inkscape:current-layer="svg4" />
  <!--! Font Awesome Pro 6.2.1 by @fontawesome - https://fontawesome.com License - https://fontawesome.com/license (Commercial License) Copyright 2022 Fonticons, Inc. -->
  <path
     d="M 426.0339,24.338983 H 74.033898 c -26.5,0 -48,21.5 -48,48 V 424.33898 c 0,26.5 21.5,48 48,48 H 426.0339 c 26.5,0 48,-21.5 48,-48 V 72.338983 c 0,-26.5 -21.5,-48 -48,-48 z m -48.9,158.799997 c 0.2,2.8 0.2,5.7 0.2,8.5 0,86.7 -66,186.6 -186.6,186.6 -37.2,0 -71.7,-10.8 -100.700002,-29.4 5.3,0.6 10.400002,0.8 15.800002,0.8 30.7,0 58.9,-10.4 81.4,-28 -28.8,-0.6 -53,-19.5 -61.3,-45.5 10.1,1.5 19.2,1.5 29.6,-1.2 -30,-6.1 -52.5,-32.5 -52.5,-64.4 v -0.8 c 8.7,4.9 18.9,7.9 29.6,8.3 a 65.447,65.447 0 0 1 -29.2,-54.6 c 0,-12.2 3.2,-23.4 8.9,-33.1 32.3,39.8 80.8,65.8 135.2,68.6 -9.3,-44.5 24,-80.6 64,-80.6 18.9,0 35.9,7.9 47.9,20.7 14.8,-2.8 29,-8.3 41.6,-15.8 -4.9,15.2 -15.2,28 -28.8,36.1 13.2,-1.4 26,-5.1 37.8,-10.2 -8.9,13.1 -20.1,24.7 -32.9,34 z"
     id="path2"
     inkscape:connector-curvature="0" />
</svg>
